<svg width="72" height="72" viewBox="0 0 72 72" fill="none" xmlns="http://www.w3.org/2000/svg">
<rect width="72" height="72" rx="36" fill="#F0F5FF"/>
<g clip-path="url(#clip0_3107_51926)">
<mask id="mask0_3107_51926" style="mask-type:luminance" maskUnits="userSpaceOnUse" x="22" y="22" width="28" height="28">
<path d="M50 22H22V50H50V22Z" fill="white"/>
</mask>
<g mask="url(#mask0_3107_51926)">
<path d="M43 34.5417C42.5217 34.5417 42.125 34.145 42.125 33.6667V31.3333C42.125 27.6583 41.0867 25.2083 36 25.2083C30.9133 25.2083 29.875 27.6583 29.875 31.3333V33.6667C29.875 34.145 29.4783 34.5417 29 34.5417C28.5217 34.5417 28.125 34.145 28.125 33.6667V31.3333C28.125 27.95 28.9417 23.4583 36 23.4583C43.0583 23.4583 43.875 27.95 43.875 31.3333V33.6667C43.875 34.145 43.4783 34.5417 43 34.5417Z" fill="#227BCC"/>
<path d="M41.8335 48.5417H30.1668C25.0218 48.5417 23.4585 46.9784 23.4585 41.8334V39.5C23.4585 34.355 25.0218 32.7917 30.1668 32.7917H41.8335C46.9785 32.7917 48.5418 34.355 48.5418 39.5V41.8334C48.5418 46.9784 46.9785 48.5417 41.8335 48.5417ZM30.1668 34.5417C25.9902 34.5417 25.2085 35.335 25.2085 39.5V41.8334C25.2085 45.9984 25.9902 46.7917 30.1668 46.7917H41.8335C46.0102 46.7917 46.7918 45.9984 46.7918 41.8334V39.5C46.7918 35.335 46.0102 34.5417 41.8335 34.5417H30.1668Z" fill="#227BCC"/>
<path d="M31.3337 41.8343C31.182 41.8343 31.0303 41.7994 30.8903 41.741C30.7387 41.6827 30.622 41.6009 30.5053 41.4959C30.2953 41.2743 30.167 40.9826 30.167 40.6676C30.167 40.5159 30.202 40.3643 30.2603 40.2243C30.3186 40.0726 30.4003 39.956 30.5053 39.8394C30.622 39.7344 30.7387 39.6526 30.8903 39.5943C31.3103 39.4076 31.8353 39.5127 32.162 39.8394C32.267 39.956 32.3487 40.0843 32.407 40.2243C32.4653 40.3643 32.5003 40.5159 32.5003 40.6676C32.5003 40.9709 32.372 41.2743 32.162 41.4959C31.9403 41.7059 31.637 41.8343 31.3337 41.8343Z" fill="#227BCC"/>
<path d="M36.0002 41.8344C35.6968 41.8344 35.3935 41.7061 35.1718 41.4961C34.9618 41.2744 34.8335 40.9827 34.8335 40.6677C34.8335 40.5161 34.8568 40.3644 34.9268 40.2244C34.9852 40.0844 35.0668 39.9561 35.1718 39.8394C35.4402 39.5711 35.8485 39.4427 36.2218 39.5244C36.3035 39.5361 36.3735 39.5594 36.4435 39.5944C36.5135 39.6177 36.5835 39.6527 36.6535 39.6994C36.7118 39.7344 36.7702 39.7927 36.8285 39.8394C36.9335 39.9561 37.0152 40.0844 37.0735 40.2244C37.1318 40.3644 37.1668 40.5161 37.1668 40.6677C37.1668 40.9827 37.0385 41.2744 36.8285 41.4961C36.7702 41.5427 36.7118 41.5894 36.6535 41.6361C36.5835 41.6827 36.5135 41.7177 36.4435 41.7411C36.3735 41.7761 36.3035 41.7994 36.2218 41.8111C36.1518 41.8227 36.0702 41.8344 36.0002 41.8344Z" fill="#227BCC"/>
<path d="M40.6667 41.8344C40.3517 41.8344 40.06 41.7061 39.8383 41.4961C39.7333 41.3794 39.6517 41.2511 39.5933 41.1111C39.535 40.9711 39.5 40.8194 39.5 40.6677C39.5 40.3644 39.6283 40.0611 39.8383 39.8394C39.8967 39.7927 39.955 39.7461 40.0133 39.6994C40.0833 39.6527 40.1533 39.6177 40.2233 39.5944C40.2933 39.5594 40.3633 39.5361 40.4333 39.5244C40.8183 39.4427 41.215 39.5711 41.495 39.8394C41.705 40.0611 41.8333 40.3527 41.8333 40.6677C41.8333 40.8194 41.7983 40.9711 41.74 41.1111C41.6817 41.2627 41.6 41.3794 41.495 41.4961C41.2733 41.7061 40.97 41.8344 40.6667 41.8344Z" fill="#227BCC"/>
</g>
</g>
<defs>
<clipPath id="clip0_3107_51926">
<rect width="28" height="28" fill="white" transform="translate(22 22)"/>
</clipPath>
</defs>
</svg>
