<svg width="72" height="72" viewBox="0 0 72 72" fill="none" xmlns="http://www.w3.org/2000/svg">
<rect width="72" height="72" rx="36" fill="#F0F5FF"/>
<g clip-path="url(#clip0_3107_51941)">
<mask id="mask0_3107_51941" style="mask-type:luminance" maskUnits="userSpaceOnUse" x="22" y="22" width="28" height="28">
<path d="M50 22H22V50H50V22Z" fill="white"/>
</mask>
<g mask="url(#mask0_3107_51941)">
<path d="M36.0002 47.2579C35.6385 47.2579 35.2885 47.2112 34.9968 47.1062C30.5402 45.5779 23.4585 40.1529 23.4585 32.1379C23.4585 28.0545 26.7602 24.7412 30.8202 24.7412C32.7918 24.7412 34.6352 25.5112 36.0002 26.8879C37.3652 25.5112 39.2085 24.7412 41.1802 24.7412C45.2402 24.7412 48.5418 28.0662 48.5418 32.1379C48.5418 40.1645 41.4602 45.5779 37.0035 47.1062C36.7118 47.2112 36.3618 47.2579 36.0002 47.2579ZM30.8202 26.4912C27.7285 26.4912 25.2085 29.0229 25.2085 32.1379C25.2085 40.1062 32.8735 44.5395 35.5685 45.4612C35.7785 45.5312 36.2335 45.5312 36.4435 45.4612C39.1268 44.5395 46.8035 40.1179 46.8035 32.1379C46.8035 29.0229 44.2835 26.4912 41.1918 26.4912C39.4185 26.4912 37.7735 27.3195 36.7118 28.7545C36.3852 29.1979 35.6385 29.1979 35.3118 28.7545C34.2268 27.3079 32.5935 26.4912 30.8202 26.4912Z" fill="#227BCC"/>
</g>
</g>
<defs>
<clipPath id="clip0_3107_51941">
<rect width="28" height="28" fill="white" transform="translate(22 22)"/>
</clipPath>
</defs>
</svg>
