<svg width="72" height="72" viewBox="0 0 72 72" fill="none" xmlns="http://www.w3.org/2000/svg">
<rect width="72" height="72" rx="36" fill="#F0F5FF"/>
<g clip-path="url(#clip0_3107_51914)">
<mask id="mask0_3107_51914" style="mask-type:luminance" maskUnits="userSpaceOnUse" x="22" y="22" width="28" height="28">
<path d="M50 22H22V50H50V22Z" fill="white"/>
</mask>
<g mask="url(#mask0_3107_51914)">
<path d="M36.0002 48.5416C29.0818 48.5416 23.4585 42.9183 23.4585 36C23.4585 29.0816 29.0818 23.4583 36.0002 23.4583C42.9185 23.4583 48.5418 29.0816 48.5418 36C48.5418 42.9183 42.9185 48.5416 36.0002 48.5416ZM36.0002 25.2083C30.0502 25.2083 25.2085 30.05 25.2085 36C25.2085 41.95 30.0502 46.7916 36.0002 46.7916C41.9502 46.7916 46.7918 41.95 46.7918 36C46.7918 30.05 41.9502 25.2083 36.0002 25.2083Z" fill="#227BCC"/>
<path d="M40.3284 40.5847C40.1767 40.5847 40.0251 40.5497 39.8851 40.4564L36.2684 38.2981C35.3701 37.7614 34.7051 36.5831 34.7051 35.5447V30.7614C34.7051 30.283 35.1017 29.8864 35.5801 29.8864C36.0584 29.8864 36.4551 30.283 36.4551 30.7614V35.5447C36.4551 35.9647 36.8051 36.5831 37.1667 36.7931L40.7834 38.9514C41.2034 39.1964 41.3317 39.7331 41.0867 40.1531C40.9117 40.4331 40.6201 40.5847 40.3284 40.5847Z" fill="#227BCC"/>
</g>
</g>
<defs>
<clipPath id="clip0_3107_51914">
<rect width="28" height="28" fill="white" transform="translate(22 22)"/>
</clipPath>
</defs>
</svg>
