<svg width="72" height="72" viewBox="0 0 72 72" fill="none" xmlns="http://www.w3.org/2000/svg">
<rect width="72" height="72" rx="36" fill="#F0F5FF"/>
<g clip-path="url(#clip0_3107_51882)">
<path d="M48.9723 23.0173C48.6076 22.6536 48.1668 22.3752 47.6816 22.2023C47.1965 22.0294 46.679 21.9663 46.1664 22.0175C42.9079 22.3325 31.9494 23.6893 27.7168 27.9173C25.6935 29.9461 24.4937 32.6526 24.3491 35.5142C24.2046 38.3758 25.1254 41.1895 26.9339 43.4118L22.3373 48.0085C22.1247 48.2285 22.0072 48.5232 22.0098 48.8291C22.0125 49.135 22.1352 49.4276 22.3515 49.644C22.5678 49.8603 22.8604 49.983 23.1663 49.9856C23.4722 49.9883 23.7669 49.8707 23.9869 49.6582L28.5836 45.0615C30.8055 46.8724 33.6199 47.7952 36.4827 47.6515C39.3456 47.5077 42.0534 46.3077 44.0828 44.2833C48.3714 39.9935 49.6828 29.0688 49.9849 25.8232C50.0343 25.3097 49.9691 24.7916 49.794 24.3064C49.6189 23.8212 49.3382 23.3809 48.9723 23.0173ZM42.4389 42.629C40.8482 44.2139 38.735 45.1657 36.4939 45.3068C34.2528 45.4478 32.037 44.7685 30.2601 43.3955L41.4974 32.1582C41.7099 31.9381 41.8275 31.6434 41.8249 31.3375C41.8222 31.0316 41.6995 30.739 41.4832 30.5227C41.2669 30.3064 40.9743 30.1837 40.6684 30.181C40.3625 30.1784 40.0678 30.296 39.8478 30.5085L28.6046 41.7458C27.2314 39.969 26.5519 37.7531 26.6929 35.512C26.834 33.2708 27.786 31.1576 29.3711 29.567C32.2983 26.641 40.3693 24.9167 46.3916 24.3392C46.5622 24.3226 46.7343 24.3438 46.8958 24.4012C47.0572 24.4587 47.204 24.551 47.3258 24.6716C47.4475 24.7922 47.5412 24.9382 47.6001 25.0991C47.659 25.26 47.6818 25.432 47.6668 25.6027C47.0834 31.8875 45.4023 39.6598 42.4331 42.629H42.4389Z" fill="#227BCC"/>
</g>
<defs>
<clipPath id="clip0_3107_51882">
<rect width="28" height="28" fill="white" transform="translate(22 22)"/>
</clipPath>
</defs>
</svg>
