<svg width="72" height="72" viewBox="0 0 72 72" fill="none" xmlns="http://www.w3.org/2000/svg">
<rect width="72" height="72" rx="36" fill="#F0F5FF"/>
<g clip-path="url(#clip0_3107_51903)">
<mask id="mask0_3107_51903" style="mask-type:luminance" maskUnits="userSpaceOnUse" x="22" y="22" width="28" height="28">
<path d="M50 22H22V50H50V22Z" fill="white"/>
</mask>
<g mask="url(#mask0_3107_51903)">
<path d="M35.9996 48.5528C34.728 48.5528 33.468 48.1794 32.4763 47.4444L27.4596 43.6994C26.1296 42.7078 25.0913 40.6311 25.0913 38.9861V30.306C25.0913 28.5094 26.4096 26.596 28.1013 25.966L33.923 23.7844C35.078 23.3527 36.898 23.3527 38.053 23.7844L43.8746 25.966C45.5663 26.596 46.8846 28.5094 46.8846 30.306V38.9744C46.8846 40.6311 45.8463 42.6961 44.5163 43.6878L39.4996 47.4328C38.5313 48.1794 37.2713 48.5528 35.9996 48.5528ZM34.5413 25.4294L28.7196 27.611C27.728 27.9844 26.853 29.2444 26.853 30.3177V38.9861C26.853 40.0944 27.6346 41.6461 28.5096 42.2994L33.5263 46.0444C34.868 47.0478 37.1313 47.0478 38.4846 46.0444L43.5013 42.2994C44.388 41.6344 45.158 40.0944 45.158 38.9861V30.306C45.158 29.2444 44.283 27.9844 43.2913 27.5994L37.4696 25.4177C36.6763 25.1377 35.323 25.1377 34.5413 25.4294Z" fill="#227BCC"/>
</g>
</g>
<defs>
<clipPath id="clip0_3107_51903">
<rect width="28" height="28" fill="white" transform="translate(22 22)"/>
</clipPath>
</defs>
</svg>
