<svg width="72" height="72" viewBox="0 0 72 72" fill="none" xmlns="http://www.w3.org/2000/svg">
<rect width="72" height="72" rx="36" fill="#F0F5FF"/>
<g clip-path="url(#clip0_3107_51889)">
<mask id="mask0_3107_51889" style="mask-type:luminance" maskUnits="userSpaceOnUse" x="22" y="22" width="28" height="28">
<path d="M50 22H22V50H50V22Z" fill="white"/>
</mask>
<g mask="url(#mask0_3107_51889)">
<path d="M32.686 35.5566C32.651 35.5566 32.6277 35.5566 32.5927 35.5566C32.5343 35.545 32.4527 35.545 32.3827 35.5566C28.9993 35.4516 26.4443 32.7916 26.4443 29.5133C26.4443 26.1766 29.1627 23.4583 32.4993 23.4583C35.836 23.4583 38.5544 26.1766 38.5544 29.5133C38.5427 32.7916 35.976 35.4516 32.721 35.5566C32.7093 35.5566 32.6977 35.5566 32.686 35.5566ZM32.4993 25.2083C30.131 25.2083 28.1943 27.145 28.1943 29.5133C28.1943 31.8466 30.0143 33.725 32.336 33.8066C32.406 33.795 32.5577 33.795 32.7093 33.8066C34.996 33.7016 36.7927 31.8233 36.8044 29.5133C36.8044 27.145 34.8677 25.2083 32.4993 25.2083Z" fill="#227BCC"/>
<path d="M41.2963 35.7083C41.2613 35.7083 41.2263 35.7083 41.1913 35.6966C40.7129 35.7433 40.2229 35.405 40.1763 34.9266C40.1296 34.4483 40.4213 34.0166 40.8996 33.9583C41.0396 33.9466 41.1913 33.9466 41.3196 33.9466C43.0229 33.8533 44.3529 32.4533 44.3529 30.7383C44.3529 28.965 42.9179 27.53 41.1446 27.53C40.6663 27.5416 40.2696 27.145 40.2696 26.6666C40.2696 26.1883 40.6663 25.7916 41.1446 25.7916C43.8746 25.7916 46.1029 28.02 46.1029 30.75C46.1029 33.4333 44.0029 35.6033 41.3313 35.7083C41.3196 35.7083 41.3079 35.7083 41.2963 35.7083Z" fill="#227BCC"/>
<path d="M32.6979 48.3083C30.4112 48.3083 28.1129 47.725 26.3745 46.5583C24.7529 45.485 23.8662 44.015 23.8662 42.4166C23.8662 40.8183 24.7529 39.3366 26.3745 38.2516C29.8745 35.93 35.5445 35.93 39.0212 38.2516C40.6312 39.325 41.5295 40.795 41.5295 42.3933C41.5295 43.9916 40.6429 45.4733 39.0212 46.5583C37.2712 47.725 34.9845 48.3083 32.6979 48.3083ZM27.3429 39.7216C26.2229 40.4683 25.6162 41.425 25.6162 42.4283C25.6162 43.42 26.2345 44.3766 27.3429 45.1116C30.2479 47.06 35.1479 47.06 38.0529 45.1116C39.1729 44.365 39.7795 43.4083 39.7795 42.405C39.7795 41.4133 39.1612 40.4566 38.0529 39.7216C35.1479 37.785 30.2479 37.785 27.3429 39.7216Z" fill="#227BCC"/>
<path d="M43.3964 46.2083C42.988 46.2083 42.6264 45.9283 42.5447 45.5083C42.4514 45.03 42.7547 44.575 43.2214 44.47C43.9564 44.3183 44.633 44.0266 45.158 43.6183C45.823 43.1166 46.1847 42.4866 46.1847 41.8216C46.1847 41.1566 45.823 40.5266 45.1697 40.0366C44.6564 39.64 44.0147 39.36 43.2564 39.185C42.7897 39.08 42.4864 38.6133 42.5914 38.135C42.6964 37.6683 43.163 37.365 43.6414 37.47C44.6447 37.6916 45.5197 38.0883 46.2314 38.6366C47.3164 39.4533 47.9347 40.6083 47.9347 41.8216C47.9347 43.035 47.3047 44.19 46.2197 45.0183C45.4964 45.5783 44.5864 45.9866 43.583 46.185C43.513 46.2083 43.4547 46.2083 43.3964 46.2083Z" fill="#227BCC"/>
</g>
</g>
<defs>
<clipPath id="clip0_3107_51889">
<rect width="28" height="28" fill="white" transform="translate(22 22)"/>
</clipPath>
</defs>
</svg>
