<svg width="280" height="60" viewBox="0 0 280 60" fill="none" xmlns="http://www.w3.org/2000/svg">
  <!-- R icon scaled to fit 60px height -->
  <g transform="scale(0.67) translate(0, 0)">
    <g clip-path="url(#clip_logo)">
      <path fill-rule="evenodd" clip-rule="evenodd" d="M0 14.6132V76.0249L7.52431 74.707L21.8559 89.0016V38.6191L7.52431 24.3245V24.1231L32.9905 19.6601V70.2424L100 59.719V0L0 14.6132ZM16.1038 59.8096C17.1027 59.8096 17.9121 60.8043 17.9121 62.0317C17.9121 63.2591 17.1027 64.2538 16.1038 64.2538C15.105 64.2538 14.2956 63.2591 14.2956 62.0317C14.2956 60.8043 15.105 59.8096 16.1038 59.8096ZM48.2176 57.4001C48.2097 59.4458 47.8465 61.0417 47.1279 62.1894C46.4093 63.3372 45.2335 64.0462 43.599 64.3132L38.1554 65.2064L38.3918 44.4313L43.9763 43.5147C45.4214 43.2773 46.5001 43.51 47.214 44.2142C47.9264 44.9185 48.2817 46.0741 48.2802 47.684L48.216 57.3986L48.2176 57.4001ZM48.5182 22.7411C48.5041 23.9185 48.3444 24.8617 48.0391 25.5722C47.7322 26.2827 47.2093 26.8277 46.4688 27.2056C47.0794 27.2337 47.5193 27.4758 47.7901 27.9302C48.0594 28.3846 48.1894 29.0389 48.18 29.8947L48.0438 37.7618L44.0844 38.4114L44.1767 30.285C44.183 29.7041 44.0781 29.3528 43.8589 29.2263C43.6413 29.1014 43.2405 29.0858 42.6597 29.181L42.5516 38.6613L38.4513 39.3343L38.6877 18.5592L44.9079 17.538C45.8973 17.3756 46.6613 17.4786 47.1968 17.8503C47.7338 18.2204 48.0907 18.806 48.2708 19.6055C48.4493 20.405 48.5322 21.4497 48.5166 22.7396L48.5182 22.7411ZM53.4968 62.6891L49.5859 63.3309L49.8223 42.5558L53.7332 41.914L53.4968 62.6891ZM50.6834 36.0722C49.8849 35.2383 49.4967 33.8688 49.5186 31.9669L49.6924 16.7541L53.6267 16.1076L53.4561 31.1502C53.4482 31.8107 53.5046 32.3167 53.6267 32.6664C53.7488 33.0162 54.0134 33.1583 54.4221 33.0912C54.8307 33.024 55.1 32.7992 55.2299 32.415C55.3599 32.0309 55.4287 31.5015 55.4366 30.8238L55.6072 15.7812L59.5416 15.1347L59.3678 30.3475C59.3459 32.2495 58.9247 33.7517 58.1059 34.8511C57.2856 35.952 56.0425 36.6375 54.3782 36.9123C52.7124 37.1856 51.4818 36.9045 50.6834 36.0707V36.0722ZM65.1887 45.8273C65.1746 47.0048 65.015 47.9479 64.7097 48.6585C64.4028 49.369 63.8799 49.914 63.1394 50.2919C63.7499 50.32 64.1899 50.562 64.4607 51.0164C64.73 51.4708 64.86 52.1251 64.8506 52.9809L64.7144 60.8496L60.7549 61.4992L60.8473 53.3728C60.8536 52.7919 60.7487 52.4406 60.5295 52.3141C60.3119 52.1892 59.9111 52.1735 59.3302 52.2704L59.2222 61.7506L55.1219 62.4237L55.3583 41.6486L61.5784 40.6273C62.5679 40.4649 63.3319 40.5695 63.8674 40.9396C64.4044 41.3097 64.7613 41.8953 64.9414 42.6948C65.1198 43.4944 65.2028 44.539 65.1887 45.8289V45.8273ZM70.0844 59.9658L66.1735 60.6076L66.4099 39.8325L70.3208 39.1907L70.0844 59.9658ZM67.2225 34.6122L66.9782 31.2969L64.528 31.6998L64.2541 35.1009L60.3197 35.7474L62.5115 14.6506L69.3689 13.5247L71.0645 33.9828L67.224 34.6137L67.2225 34.6122ZM75.575 59.0632L71.4512 59.7409L71.4919 56.2102L75.6157 55.5325L75.575 59.0632ZM80.8291 58.2012L76.9183 58.843L77.1547 38.0679L81.0656 37.4261L80.8291 58.2012ZM78.2725 32.7976L76.364 22.7302L76.245 33.1302L72.2856 33.7798L72.522 13.0047L76.6928 12.3192L78.4416 21.9541L78.5543 12.0147L82.4652 11.3729L82.2288 32.148L78.2694 32.7976H78.2725ZM92.5164 50.1263C92.5086 52.172 92.1453 53.7679 91.4267 54.9157C90.7081 56.0634 89.5323 56.7724 87.8979 57.0394L82.4542 57.9326L82.6907 37.1575L88.2752 36.2409C89.7202 36.0035 90.7989 36.2362 91.5128 36.9404C92.2252 37.6447 92.5806 38.8018 92.579 40.4103L92.5148 50.1248L92.5164 50.1263ZM94.0507 16.5183L90.0913 17.1679L90.1132 15.3049C90.1195 14.8052 90.0568 14.4289 89.9253 14.1775C89.7954 13.9261 89.5574 13.8277 89.2114 13.8839C88.4411 14.0104 88.0513 14.5897 88.0388 15.6219L87.9245 25.6831C87.9166 26.3124 87.9902 26.7746 88.1437 27.0713C88.2971 27.368 88.5695 27.4836 88.9625 27.4196C89.3554 27.3555 89.6326 27.1494 89.7923 26.8012C89.9519 26.453 90.0365 25.9642 90.0443 25.3349L90.0788 22.3601L88.9954 22.5381L89.0361 18.959L93.9849 18.147L93.8472 30.2398L92.2205 30.5068L91.5567 28.8781C90.8193 30.2866 89.6967 31.1142 88.1891 31.3625C86.7283 31.603 85.6465 31.2532 84.9436 30.3147C84.2406 29.3762 83.9024 27.8349 83.9259 25.6894L84.0277 16.7416C84.0496 14.8224 84.4817 13.303 85.3256 12.1834C86.1694 11.0637 87.4157 10.3673 89.0658 10.0971C90.4013 9.87848 91.4346 9.98154 92.1673 10.4094C92.9 10.8373 93.401 11.5509 93.6718 12.5519C93.9427 13.5544 94.0695 14.8771 94.0507 16.5214V16.5183Z" fill="#488BBE"/>
      <path fill-rule="evenodd" clip-rule="evenodd" d="M65.7447 17.6426L64.8711 28.3346L66.7091 28.0332L65.9341 17.6113L65.7447 17.6426Z" fill="#488BBE"/>
      <path fill-rule="evenodd" clip-rule="evenodd" d="M60.921 44.7296C60.7957 44.6453 60.6157 44.6219 60.3809 44.6609L59.4384 44.8155L59.3945 48.6617L60.3605 48.5024C60.9257 48.4103 61.2153 47.7341 61.231 46.477C61.2373 45.9289 61.2185 45.5213 61.1746 45.2559C61.1308 44.9904 61.0462 44.814 60.9226 44.7296H60.921Z" fill="#488BBE"/>
      <path fill-rule="evenodd" clip-rule="evenodd" d="M88.0449 40.0218C87.857 39.9718 87.5674 39.9796 87.1744 40.0437L86.7267 40.1171L86.5732 53.5887L87.2809 53.4731C88.0199 53.3513 88.3925 52.9204 88.4003 52.1786L88.5224 41.4647C88.5271 40.9978 88.4958 40.6527 88.4285 40.4294C88.3612 40.2076 88.2328 40.0718 88.0449 40.0218Z" fill="#488BBE"/>
      <path fill-rule="evenodd" clip-rule="evenodd" d="M44.2501 21.643C44.1249 21.5587 43.9448 21.5368 43.71 21.5743L42.7675 21.7289L42.7236 25.575L43.6896 25.4158C44.2548 25.3221 44.5444 24.6475 44.5601 23.3904C44.5663 22.8423 44.5476 22.4347 44.5037 22.1693C44.4599 21.9022 44.3753 21.7273 44.2517 21.643H44.2501Z" fill="#488BBE"/>
      <path fill-rule="evenodd" clip-rule="evenodd" d="M43.7461 47.2972C43.5582 47.2472 43.2686 47.255 42.8756 47.319L42.4278 47.3924L42.2744 60.8641L42.9821 60.7485C43.7195 60.6267 44.0937 60.1957 44.1015 59.454L44.2236 48.7401C44.2283 48.2732 44.197 47.9281 44.1297 47.7063C44.0623 47.4846 43.934 47.3487 43.7461 47.2988V47.2972Z" fill="#488BBE"/>
    </g>
    <defs>
      <clipPath id="clip_logo">
        <rect width="100" height="89.0016" fill="white"/>
      </clipPath>
    </defs>
  </g>
  <!-- RUANG DIRI text -->
  <text x="82" y="40" fill="#488BBE" font-family="'Plus Jakarta Sans', sans-serif" font-weight="700" font-size="30" letter-spacing="3">RUANG DIRI</text>
</svg>
