<svg width="2271" height="883" viewBox="0 0 2271 883" fill="none" xmlns="http://www.w3.org/2000/svg">
<g opacity="0.18" clip-path="url(#clip0_3128_58711)">
<g filter="url(#filter0_f_3128_58711)">
<path d="M668.384 841.672C674.594 841.672 679.628 836.639 679.628 830.43C679.628 824.221 674.594 819.188 668.384 819.188C662.174 819.188 657.139 824.221 657.139 830.43C657.139 836.639 662.174 841.672 668.384 841.672Z" fill="#D3D6FF"/>
</g>
<g filter="url(#filter1_f_3128_58711)">
<path d="M895.184 539.292C899.469 539.292 902.943 535.819 902.943 531.535C902.943 527.25 899.469 523.777 895.184 523.777C890.899 523.777 887.425 527.25 887.425 531.535C887.425 535.819 890.899 539.292 895.184 539.292Z" fill="#D3D6FF"/>
</g>
<g filter="url(#filter2_f_3128_58711)">
<path d="M792.95 695.536C797.666 695.536 801.489 691.713 801.489 686.998C801.489 682.282 797.666 678.459 792.95 678.459C788.233 678.459 784.41 682.282 784.41 686.998C784.41 691.713 788.233 695.536 792.95 695.536Z" fill="#D3D6FF"/>
</g>
<g filter="url(#filter3_f_3128_58711)">
<path d="M1200.09 517.879C1207.44 517.879 1213.41 511.918 1213.41 504.564C1213.41 497.209 1207.44 491.248 1200.09 491.248C1192.73 491.248 1186.77 497.209 1186.77 504.564C1186.77 511.918 1192.73 517.879 1200.09 517.879Z" fill="#D3D6FF"/>
</g>
<g filter="url(#filter4_f_3128_58711)">
<path d="M754.39 66.9819C759.106 66.9819 762.93 63.1591 762.93 58.4436C762.93 53.728 759.106 49.9053 754.39 49.9053C749.674 49.9053 745.85 53.728 745.85 58.4436C745.85 63.1591 749.674 66.9819 754.39 66.9819Z" fill="#D3D6FF"/>
</g>
<g filter="url(#filter5_f_3128_58711)">
<path d="M2131.28 409.791C2135.72 409.791 2139.31 406.194 2139.31 401.757C2139.31 397.32 2135.72 393.723 2131.28 393.723C2126.84 393.723 2123.24 397.32 2123.24 401.757C2123.24 406.194 2126.84 409.791 2131.28 409.791Z" fill="#D3D6FF"/>
</g>
<g filter="url(#filter6_f_3128_58711)">
<path d="M1142.53 358.924C1149.82 358.924 1155.73 353.011 1155.73 345.718C1155.73 338.425 1149.82 332.513 1142.53 332.513C1135.23 332.513 1129.32 338.425 1129.32 345.718C1129.32 353.011 1135.23 358.924 1142.53 358.924Z" fill="#D3D6FF"/>
</g>
<g filter="url(#filter7_f_3128_58711)">
<path d="M1045.67 549.888C1051.1 549.888 1055.51 545.483 1055.51 540.049C1055.51 534.615 1051.1 530.21 1045.67 530.21C1040.23 530.21 1035.83 534.615 1035.83 540.049C1035.83 545.483 1040.23 549.888 1045.67 549.888Z" fill="#D3D6FF"/>
</g>
<g filter="url(#filter8_f_3128_58711)">
<path d="M1757.62 647.192C1765.39 647.192 1771.7 640.891 1771.7 633.119C1771.7 625.347 1765.39 619.046 1757.62 619.046C1749.85 619.046 1743.54 625.347 1743.54 633.119C1743.54 640.891 1749.85 647.192 1757.62 647.192Z" fill="#D3D6FF"/>
</g>
<g filter="url(#filter9_f_3128_58711)">
<path d="M2241.3 139.341C2246.39 139.341 2250.51 135.214 2250.51 130.124C2250.51 125.034 2246.39 120.908 2241.3 120.908C2236.2 120.908 2232.08 125.034 2232.08 130.124C2232.08 135.214 2236.2 139.341 2241.3 139.341Z" fill="#D3D6FF"/>
</g>
<g filter="url(#filter10_f_3128_58711)">
<path d="M337.827 868.131C343.784 868.131 348.614 863.302 348.614 857.346C348.614 851.389 343.784 846.56 337.827 846.56C331.869 846.56 327.04 851.389 327.04 857.346C327.04 863.302 331.869 868.131 337.827 868.131Z" fill="#D3D6FF"/>
</g>
<g filter="url(#filter11_f_3128_58711)">
<path d="M1932.42 417.769C1936.9 417.769 1940.54 414.134 1940.54 409.649C1940.54 405.164 1936.9 401.529 1932.42 401.529C1927.93 401.529 1924.29 405.164 1924.29 409.649C1924.29 414.134 1927.93 417.769 1932.42 417.769Z" fill="#D3D6FF"/>
</g>
<g filter="url(#filter12_f_3128_58711)">
<path d="M1296.49 311.541C1302.75 311.541 1307.83 306.466 1307.83 300.204C1307.83 293.943 1302.75 288.867 1296.49 288.867C1290.23 288.867 1285.15 293.943 1285.15 300.204C1285.15 306.466 1290.23 311.541 1296.49 311.541Z" fill="#D3D6FF"/>
</g>
<g filter="url(#filter13_f_3128_58711)">
<path d="M1243.46 429.217C1250.79 429.217 1256.73 423.276 1256.73 415.948C1256.73 408.62 1250.79 402.68 1243.46 402.68C1236.13 402.68 1230.19 408.62 1230.19 415.948C1230.19 423.276 1236.13 429.217 1243.46 429.217Z" fill="#D3D6FF"/>
</g>
<g filter="url(#filter14_f_3128_58711)">
<path d="M1986.01 188.599C1994.08 188.599 2000.62 182.059 2000.62 173.99C2000.62 165.922 1994.08 159.381 1986.01 159.381C1977.94 159.381 1971.4 165.922 1971.4 173.99C1971.4 182.059 1977.94 188.599 1986.01 188.599Z" fill="#D3D6FF"/>
</g>
<g filter="url(#filter15_f_3128_58711)">
<path d="M387.647 633.474C392.821 633.474 397.015 629.28 397.015 624.108C397.015 618.935 392.821 614.741 387.647 614.741C382.473 614.741 378.279 618.935 378.279 624.108C378.279 629.28 382.473 633.474 387.647 633.474Z" fill="#D3D6FF"/>
</g>
<g filter="url(#filter16_f_3128_58711)">
<path d="M1601.5 544.559C1605.96 544.559 1609.57 540.944 1609.57 536.486C1609.57 532.027 1605.96 528.412 1601.5 528.412C1597.04 528.412 1593.42 532.027 1593.42 536.486C1593.42 540.944 1597.04 544.559 1601.5 544.559Z" fill="#D3D6FF"/>
</g>
<g filter="url(#filter17_f_3128_58711)">
<path d="M29.7674 327.404C36.4959 327.404 41.9504 321.95 41.9504 315.223C41.9504 308.496 36.4959 303.042 29.7674 303.042C23.039 303.042 17.5845 308.496 17.5845 315.223C17.5845 321.95 23.039 327.404 29.7674 327.404Z" fill="#D3D6FF"/>
</g>
<g filter="url(#filter18_f_3128_58711)">
<path d="M450.88 403.468C458.933 403.468 465.461 396.941 465.461 388.891C465.461 380.84 458.933 374.313 450.88 374.313C442.828 374.313 436.3 380.84 436.3 388.891C436.3 396.941 442.828 403.468 450.88 403.468Z" fill="#D3D6FF"/>
</g>
<g filter="url(#filter19_f_3128_58711)">
<path d="M1492.99 89.0096C1499.57 89.0096 1504.9 83.6761 1504.9 77.0969C1504.9 70.5178 1499.57 65.1843 1492.99 65.1843C1486.4 65.1843 1481.07 70.5178 1481.07 77.0969C1481.07 83.6761 1486.4 89.0096 1492.99 89.0096Z" fill="#D3D6FF"/>
</g>
<path d="M1198.27 211.762L1219.87 234.941L1199.37 240.46C1197.16 240.933 1195.27 243.456 1195.43 246.767C1196.85 249.132 1199.37 251.024 1201.58 250.551L1228.86 243.771L1248.89 265.373L1193.54 278.776C1190.07 279.879 1188.17 282.402 1189.59 284.925C1189.75 288.079 1192.27 289.971 1195.74 288.867L1256.78 274.045L1275.54 293.124L1258.35 352.254L1235.49 358.246L1189.91 309.208C1188.96 308.892 1187.86 308.577 1186.91 308.419C1185.97 308.104 1183.76 308.419 1182.5 309.208C1179.82 311.573 1179.82 314.726 1182.5 316.461L1224.13 361.242L1196.06 367.706L1173.98 345.631C1174.3 344.685 1173.35 344.37 1172.4 344.055C1170.51 343.424 1168.3 343.897 1166.73 345.474C1165.15 347.208 1165.31 350.362 1166.73 352.885L1184.55 370.702L1149.54 379.375C1147.33 379.848 1145.44 382.528 1145.59 385.682C1147.01 388.205 1149.54 389.939 1151.74 389.624L1184.7 381.267L1178.87 401.607C1177.92 404.446 1180.29 407.284 1182.18 407.914C1185.18 408.703 1188.65 407.599 1189.44 404.761L1197.01 378.586L1225.24 371.964L1209.47 426.205C1208.68 429.201 1209.94 431.724 1212.93 432.512C1215.77 433.301 1218.3 432.039 1219.24 429.043L1236.59 368.968L1260.56 362.345L1303.3 407.284L1296.84 429.516L1234.54 445.127C1231.23 445.284 1229.18 448.753 1230.6 451.276C1230.76 454.43 1233.59 455.376 1236.75 455.218L1293.37 441.185L1285.32 469.251L1257.09 475.874C1254.88 476.189 1252.83 479.816 1253.15 482.023C1253.47 484.231 1257.25 486.281 1260.4 486.281L1281.85 480.92L1272.08 514.821C1271.13 517.816 1273.49 520.497 1276.49 521.443C1278.38 521.916 1281.85 520.812 1282.64 517.974L1292.58 484.073L1308.82 500.314C1310.56 501.891 1313.39 502.679 1316.23 500.314C1317.65 498.737 1317.81 494.48 1316.23 492.903L1295.89 472.405L1304.09 444.338L1344.46 486.438C1346.99 488.331 1349.98 489.119 1352.66 486.754C1354.24 485.177 1354.4 480.92 1352.82 479.343L1307.4 432.67L1313.87 410.28L1374.11 395.3L1390.67 413.749L1373.32 473.824C1372.38 476.662 1373.8 479.185 1376.79 480.131C1379.63 480.92 1383.1 479.816 1383.89 476.978L1399.66 422.579L1420.01 443.234L1412.44 469.409C1411.49 472.247 1412.91 474.77 1415.91 475.716C1418.74 476.505 1421.27 475.086 1422.06 472.247L1428.05 451.907L1451.39 476.505C1452.97 478.081 1457.22 478.239 1458.64 476.505C1460.54 473.982 1461.33 470.986 1458.64 469.251L1434.67 443.234L1458.49 437.558C1461.01 436.139 1462.74 433.616 1462.27 431.409C1461.96 429.201 1460.22 427.624 1458.33 426.994C1458.33 426.994 1457.38 426.836 1456.12 427.467L1425.68 434.404L1405.5 413.749L1464.64 398.454C1467.79 398.296 1469.53 395.616 1468.42 392.147C1467.79 390.885 1467.16 389.624 1465.11 389.151C1464.16 388.835 1463.22 388.52 1462.27 388.205L1397.45 405.234L1381.37 387.889L1398.56 328.76L1424.58 322.61L1468.11 367.864C1470.47 370.702 1473.63 370.545 1475.52 367.864C1478.04 366.603 1477.88 363.449 1475.52 360.611L1435.93 319.614L1464.32 312.204L1483.72 332.544C1485.3 333.963 1488.61 333.963 1490.97 332.544C1492.87 329.864 1493.66 327.025 1491.13 325.133L1476.78 309.365L1507.38 301.481C1510.53 301.481 1511.48 298.486 1511.32 295.332C1510.69 294.071 1508.95 292.494 1507.06 292.021C1507.06 292.021 1506.11 291.705 1505.01 291.39L1472.21 299.747L1479.3 275.464C1479.78 273.572 1478.67 270.103 1475.83 269.315C1472.84 268.369 1470.16 270.734 1469.53 272.626L1460.85 302.743L1432.31 310.154L1449.5 251.182C1450.44 248.186 1448.08 245.348 1445.08 244.559C1442.08 243.771 1439.72 245.033 1438.93 248.028L1420.01 312.992L1396.35 318.668L1353.61 273.73L1360.87 248.501L1424.26 233.207C1426.79 231.945 1428.52 229.265 1428.36 226.111C1427.73 224.85 1426 223.273 1424.11 222.8C1423.16 222.484 1422.21 222.169 1420.95 222.8L1364.33 236.833L1372.54 208.766L1400.92 201.198C1403.13 200.883 1405.02 198.202 1404.87 195.048C1403.45 192.526 1400.77 190.791 1398.56 191.106L1375.85 197.098L1384.84 166.193C1385.47 164.143 1383.42 160.517 1381.37 159.886C1378.53 159.098 1374.74 161.148 1374.27 163.04L1365.12 194.102L1350.14 177.073C1349.19 176.758 1348.25 176.442 1347.3 176.285C1345.25 175.654 1343.04 176.127 1341.78 176.758C1340.05 179.438 1340.21 182.592 1341.47 185.115L1361.81 205.613L1353.61 233.837L1313.39 191.579C1311.03 188.899 1307.88 188.899 1306.3 190.633C1303.46 192.999 1303.62 196.152 1305.04 198.675L1350.3 245.348L1342.89 270.576L1282.8 285.714L1265.92 268.211L1284.69 203.248C1285.64 200.409 1284.22 197.887 1281.38 197.098C1278.38 196.152 1275.86 197.571 1275.07 200.409L1257.88 259.539L1237.85 237.937L1246.53 207.978C1247.16 206.086 1245.11 202.302 1242.11 201.356C1239.27 200.567 1236.43 202.932 1235.96 204.824L1228.86 229.107L1205.52 204.509C1204.58 204.194 1204.58 204.194 1203.63 203.878C1201.74 203.405 1199.53 203.721 1198.27 204.351C1196.38 207.032 1196.53 210.186 1198.27 211.762ZM1339.57 282.245L1346.2 280.983L1350.3 285.398L1384.84 321.664L1388.94 325.922L1387.2 331.756L1373.48 379.217L1371.75 385.051L1366.07 386.628L1317.34 398.769L1311.66 400.188L1306.61 395.616L1273.02 359.507L1267.97 354.934L1269.71 349.1L1283.43 301.639L1285.17 295.805L1291.79 294.701L1339.57 282.245Z" fill="#D3D6FF"/>
<path d="M1428.05 514.505L1449.34 550.456L1446.82 561.651L1422.06 568.747L1413.38 560.705L1412.91 518.92C1412.91 518.29 1412.91 518.289 1412.75 517.816C1412.44 516.87 1411.65 516.082 1410.07 516.082C1408.65 516.397 1407.7 517.186 1407.7 518.763L1408.18 555.344L1395.25 542.887L1394.77 526.646L1394.61 526.173C1394.3 525.227 1393.51 524.439 1391.93 524.281C1390.83 524.124 1389.73 525.543 1389.57 527.119V537.684L1379.95 528.381C1379.16 527.435 1377.58 527.435 1376.32 528.381C1375.06 529.327 1375.53 531.219 1376.48 532.481L1385.78 541.311L1375.37 541.626C1373.8 541.626 1372.69 543.045 1372.54 544.622C1372.85 545.568 1373.8 546.829 1375.37 546.987L1391.46 546.514L1404.71 559.601L1368.12 560.074C1366.54 560.074 1365.28 561.336 1365.12 562.44C1365.6 564.016 1366.54 565.278 1368.12 565.278L1409.75 564.332L1418.59 572.846L1412.44 597.286L1400.77 600.598L1364.02 580.73C1362.76 579.942 1361.34 580.415 1360.71 581.676C1360.08 582.938 1360.39 584.357 1361.65 584.988L1393.98 602.49L1376 607.693L1362.28 600.125C1361.02 599.336 1359.6 599.809 1358.34 601.228C1357.08 602.648 1358.18 603.909 1359.45 604.54L1369.22 609.585L1356.13 613.37C1354.71 613.843 1354.08 615.577 1354.56 616.996C1355.03 618.415 1356.29 619.204 1357.71 618.731L1370.8 614.946L1365.6 624.407C1364.33 625.669 1364.81 627.245 1366.54 627.718C1367.8 628.349 1369.22 628.034 1370.01 626.772L1377.58 613.054L1395.56 607.851L1377.42 639.86C1376.64 641.121 1377.27 643.013 1378.53 643.644C1379.79 644.275 1381.21 643.959 1381.84 642.698L1402.34 605.959L1414.01 602.49L1432.15 620.465L1429.15 631.818L1393.35 653.105C1391.93 654.051 1391.93 655.628 1392.25 657.047C1393.2 658.466 1394.77 658.466 1396.35 657.993L1427.58 639.071L1423.16 656.574L1409.28 664.773C1407.86 665.719 1407.86 667.296 1408.34 668.715C1409.12 669.661 1410.86 670.134 1412.12 669.188L1421.11 663.985L1417.96 677.072C1417.8 678.176 1418.74 679.437 1420.01 680.068C1421.58 680.225 1422.84 679.279 1423 678.176L1426.16 665.246L1431.99 674.549C1432.78 675.337 1434.51 675.968 1435.3 675.18C1436.72 674.707 1437.04 673.603 1436.57 672.184L1436.41 671.711L1428.21 657.835L1432.62 640.175L1451.55 671.553C1452.49 672.814 1453.76 673.603 1455.02 672.657C1456.44 671.711 1456.59 670.607 1456.28 669.661C1456.12 669.188 1456.12 669.188 1456.12 669.188L1434.2 632.922L1437.2 621.569L1461.96 614.473L1470.16 622.673L1471.26 664.931C1470.95 666.034 1472.36 667.138 1473.47 667.296C1475.05 667.453 1476.31 666.034 1476.31 664.458L1475.83 627.876L1488.92 640.333L1489.24 656.574C1489.24 658.15 1490.19 659.412 1491.61 658.939C1493.18 659.096 1494.29 657.677 1494.6 656.574L1494.13 645.694L1503.59 654.997C1504.85 655.785 1506.43 655.785 1507.69 654.839C1508.01 654.208 1508.32 653.105 1508.01 652.159C1507.85 651.686 1507.85 651.686 1507.22 651.37L1497.76 642.067L1508.64 641.594C1510.21 641.594 1510.85 640.333 1511.16 639.229C1511 638.756 1511 638.756 1510.85 638.283C1510.53 637.337 1509.74 636.391 1508.64 636.233L1492.55 636.706L1479.46 624.092L1516.05 623.619C1517.47 623.146 1518.89 622.357 1518.42 620.781C1518.73 620.15 1518.73 620.15 1518.57 619.677C1518.42 618.731 1517.15 618.1 1516.05 617.942L1473.78 619.046L1465.74 610.847L1471.73 585.934L1482.77 582.78L1519.68 603.121C1520.94 603.909 1522.83 603.278 1523.46 602.017C1524.09 600.755 1523.62 598.863 1522.36 598.233L1490.03 580.73L1507.53 575.685L1521.73 583.095C1522.99 583.884 1524.41 583.411 1525.2 582.149C1525.83 580.888 1525.51 579.469 1524.25 578.838L1514.79 573.635L1527.88 569.85C1528.82 569.535 1530.09 568.116 1529.61 566.697C1529.3 565.278 1527.41 564.174 1526.46 564.489L1513.37 568.274L1518.42 558.813C1518.89 558.34 1519.2 557.709 1519.05 557.078C1518.73 556.132 1518.1 555.817 1517.47 555.502C1516.21 554.871 1514.79 555.186 1514.16 556.448L1505.96 570.323L1488.61 575.369L1506.75 543.36C1507.06 542.73 1506.9 542.257 1506.59 541.311C1506.43 540.838 1506.27 540.364 1505.64 540.049C1504.38 539.261 1502.49 539.891 1501.86 541.153L1481.35 577.419L1470.16 580.73L1452.02 563.228L1454.39 551.56L1490.82 530.115C1491.61 529.327 1492.24 528.066 1492.08 527.119C1491.92 526.646 1491.92 526.646 1491.45 526.804C1490.97 525.385 1489.24 524.754 1487.98 525.7L1456.59 544.622L1460.85 526.646L1474.89 518.447C1475.68 517.659 1475.83 516.555 1475.52 515.609L1475.36 515.136C1475.05 513.559 1473.31 513.086 1471.89 514.032L1462.59 519.866L1465.74 506.779C1466.06 506.148 1465.9 505.675 1465.74 505.202C1465.58 504.256 1464.79 503.468 1464.32 503.625C1462.59 502.995 1461.17 503.941 1460.54 505.202L1457.38 518.132L1452.18 509.144C1451.23 507.883 1449.5 507.252 1448.24 508.198C1447.45 508.986 1446.82 510.721 1447.6 511.509L1455.81 525.385L1451.39 543.045L1432.46 511.667C1431.52 510.406 1429.94 510.248 1428.52 510.721C1427.73 511.509 1427.1 513.244 1428.05 514.505ZM1426.47 573.162L1445.4 567.801L1448.39 567.012L1450.44 568.904L1464.32 582.307L1466.53 584.83L1465.9 587.668L1461.17 606.274L1460.54 609.112L1457.54 610.058L1438.62 615.419L1435.78 616.208L1433.57 614.316L1419.69 600.913L1417.64 598.863L1418.27 595.552L1422.84 576.946L1423.63 574.108L1426.47 573.162Z" fill="#D3D6FF"/>
<path d="M2182.53 553.452L2180.63 634.026L2158.87 653.735L2159.66 626.615C2160.45 623.776 2157.92 621.884 2154.93 621.096C2152.72 621.411 2149.88 623.776 2150.35 625.984L2148.62 663.354L2127.96 683.537L2121.49 655.312L2141.68 623.303L2141.84 622.357C2142.47 620.465 2141.21 617.942 2139.47 616.366C2136.63 615.577 2134.42 615.892 2132.53 618.573L2118.18 641.752L2111.87 613.527L2153.51 544.779L2154.77 544.149C2155.4 542.099 2153.98 539.734 2152.4 538.157C2149.72 536.265 2146.25 537.369 2145.31 540.207L2108.56 599.809L2099.89 565.593L2116.29 538.945C2116.29 538.945 2116.29 538.945 2116.6 537.999C2117.08 536.107 2116.76 533.742 2115.18 532.323C2112.19 531.377 2109.03 531.534 2107.14 534.057L2096.58 552.033L2090.42 526.962C2090.27 523.808 2087.27 522.862 2085.06 523.335C2081.91 523.493 2080.17 526.016 2081.12 529.485L2086.48 554.24L2069.76 542.887C2066.93 542.099 2063.61 542.257 2062.83 545.095C2060.93 547.775 2061.41 549.983 2063.93 551.717L2090.74 568.116L2098.47 602.017L2037.91 565.12C2036.33 563.543 2032.86 564.647 2030.97 567.17C2030.34 569.062 2030.5 572.373 2033.02 574.108L2101.78 615.735L2108.09 643.959L2084.9 629.611C2082.38 627.876 2079.86 629.138 2077.97 631.818C2076.55 633.395 2077.49 636.864 2079.23 638.441L2111.4 657.52L2118.65 686.059L2090.58 677.702L2073.08 645.063C2071.66 642.54 2068.82 641.594 2066.29 643.013C2064.09 643.329 2062.83 647.271 2064.24 649.793L2077.18 673.603L2049.1 665.246L2011.41 593.975C2009.99 591.452 2007.15 590.664 2004.63 591.925C2002.11 593.344 2001.16 596.183 2002.58 598.706L2035.54 661.146L2002.58 651.37L1987.76 623.776C1986.34 621.254 1983.5 620.465 1980.97 621.727C1978.45 623.146 1977.51 625.984 1978.92 628.507L1988.07 647.113L1963.94 639.86C1961.1 639.071 1958.58 640.333 1957.63 643.329C1956.85 646.167 1958.11 648.69 1961.1 649.478L1985.23 656.731L1967.73 666.192C1965.2 667.611 1964.26 670.449 1965.68 672.972C1967.1 675.495 1969.94 676.441 1972.46 675.022L1998.8 660.831L2032.7 670.922L1971.04 704.193C1968.52 705.454 1967.73 708.45 1969.15 710.973C1970.41 713.338 1973.4 714.284 1975.93 712.865L2046.11 674.864L2074.18 683.379L2050.37 696.151C2047.84 697.57 2047.05 700.408 2048.32 702.931C2049.74 705.454 2052.57 706.4 2055.1 704.981L2087.74 687.321L2114.87 695.363L2094.37 714.599L2056.67 713.811C2054.47 714.284 2051.63 716.649 2052.1 718.857C2052.1 722.01 2053.84 723.587 2056.67 724.375L2083.8 725.164L2063.46 744.243L1982.87 742.351C1979.71 742.508 1978.14 744.085 1977.19 747.081C1977.35 750.235 1980.03 752.127 1981.92 752.6L2052.89 754.807L2026.87 778.617L1996.43 777.986C1993.59 777.198 1991.7 779.721 1990.91 782.716C1991.23 784.924 1993.59 787.762 1996.75 787.604L2016.62 788.235L1998.64 806.053C1996.11 807.472 1996.11 810.626 1998.48 813.464C2000.22 814.883 2003.37 814.883 2004.95 813.148L2023.87 795.646L2022.93 816.46C2022.93 819.613 2025.61 821.505 2027.81 821.032C2030.65 821.978 2032.23 820.402 2032.86 818.352C2033.18 817.406 2033.18 817.406 2033.49 816.46L2034.12 786.185L2060.14 762.218L2058.25 832.227C2057.31 835.223 2059.99 836.958 2062.83 837.904C2065.03 837.431 2066.61 835.854 2067.24 833.962C2067.4 833.016 2067.4 833.016 2067.4 833.016L2070.71 751.811L2091.06 732.575L2090.42 759.695C2090.42 763.007 2092.16 764.426 2095 765.372C2097.21 764.899 2099.73 763.637 2100.36 761.587C2100.68 760.641 2100.68 760.641 2100.99 759.695L2101.62 722.01L2122.12 702.931L2128.75 730.052L2109.66 762.376C2107.77 764.899 2108.88 768.368 2110.45 769.944C2113.45 770.891 2116.6 770.733 2117.39 767.895L2131.74 744.716L2139.31 772.31L2096.42 841.531C2095 843.265 2095.94 846.734 2097.68 848.311C2100.52 849.099 2103.67 849.099 2105.56 846.419L2142.31 786.816L2150.04 820.717L2133.95 846.419C2132.22 849.099 2133.16 852.568 2136.16 853.356C2137.74 854.933 2141.05 854.933 2142.78 852.253L2153.35 834.435L2159.66 859.348C2159.97 861.556 2162.65 863.448 2165.81 863.29C2167.07 862.659 2168.65 861.083 2169.28 859.033C2169.28 859.033 2169.44 858.087 2169.75 857.141L2163.6 832.07L2181.42 842.792C2183.16 844.211 2186.63 843.265 2188.2 841.531C2188.36 840.584 2188.36 840.584 2188.36 840.584C2189.31 837.746 2187.89 835.223 2186 834.593L2160.29 818.509L2151.46 784.293L2212.02 821.348C2215.01 822.136 2217.22 821.821 2219.11 819.14L2219.27 818.194C2219.9 816.302 2219.59 814.094 2216.91 812.202L2148.46 769.787L2141.84 742.508L2165.02 756.699C2167.86 757.646 2171.17 757.488 2171.96 754.65C2172.91 754.965 2173.22 753.861 2173.22 753.861C2173.85 751.969 2172.43 749.446 2170.86 747.869L2138.53 728.79L2132.22 700.566L2159.34 708.765L2177.01 741.405C2178.27 743.928 2182.21 745.031 2184.73 743.612C2186.31 742.035 2187.1 739.039 2186.78 736.832L2172.91 712.707L2200.98 721.064L2238.99 791.389C2240.25 793.912 2243.24 794.858 2245.77 793.439C2248.13 792.019 2249.08 789.181 2247.66 786.658L2214.54 725.164L2248.29 735.255L2262.64 761.587C2263.9 764.11 2266.9 765.056 2269.27 763.637C2271.63 762.218 2272.74 759.38 2271.32 756.857L2261.85 739.355L2285.98 746.45C2288.98 747.396 2291.5 745.977 2292.29 743.139C2293.24 740.301 2291.82 737.778 2288.98 736.832L2264.69 729.579L2282.67 719.172C2283.93 718.541 2285.19 717.753 2285.35 716.807C2285.67 715.861 2285.35 713.653 2284.56 712.392C2283.3 709.869 2280.31 709.081 2277.94 710.342L2251.13 725.637L2217.38 715.545L2279.2 681.329C2280.46 680.541 2281.72 679.91 2282.04 678.964C2282.2 678.018 2281.88 675.81 2281.25 674.549C2279.83 672.026 2276.99 671.08 2274.47 672.499L2203.82 711.446L2175.74 703.089L2200.66 690.474C2201.92 689.844 2202.4 687.794 2202.71 686.848C2203.03 685.902 2203.34 684.956 2202.56 683.694C2201.29 681.171 2197.35 680.068 2195.77 681.644L2162.18 698.989L2135.21 690.948L2155.87 670.765L2193.25 672.499C2195.62 672.184 2197.98 670.765 2198.61 668.873C2198.93 667.926 2198.93 667.926 2197.98 667.611C2198.77 664.615 2196.56 661.935 2193.25 661.935L2166.12 661.304L2186.94 641.121L2268.16 644.275C2270.37 643.959 2271.95 642.225 2272.42 640.333C2272.74 639.387 2272.74 639.387 2272.74 639.387C2272.58 636.075 2271.32 633.71 2268.16 633.71L2197.19 631.503L2223.21 607.693L2253.49 608.324C2256.81 608.166 2258.23 606.589 2258.86 604.697L2259.17 603.751C2259.01 600.44 2256.49 598.706 2254.44 598.075H2233.47L2252.39 580.573C2252.71 579.626 2252.86 578.68 2253.18 577.734C2253.49 576.788 2253.18 574.581 2252.39 573.319C2249.87 571.427 2246.87 570.481 2245.14 573.162L2226.21 590.664L2227.16 569.85C2227 566.697 2224.32 564.805 2222.43 564.332C2219.27 564.332 2217.38 567.012 2216.59 569.85L2215.96 600.282L2190.88 624.407L2192.78 554.398C2192.62 551.244 2190.41 548.406 2188.05 548.721C2184.89 548.879 2182.37 550.298 2182.53 553.452Z" fill="#D3D6FF"/>
<path d="M629.572 874.485L591.248 857.929L586.675 847.365L602.446 827.024L614.116 828.601L639.192 862.186C639.507 862.344 639.507 862.344 639.98 862.66C640.769 863.29 641.873 863.606 643.134 862.66C644.081 861.556 644.396 860.452 643.45 859.033L621.528 829.705L639.349 832.228L649.285 845L649.601 845.315C650.389 845.946 651.493 846.261 652.912 845.315C653.859 844.842 654.016 842.95 653.228 841.688L647.077 833.016L660.325 835.066C661.429 835.223 662.69 834.435 663.163 832.858C663.637 831.282 662.217 830.178 660.64 829.547L647.866 827.97L656.067 821.505C657.328 820.717 657.486 818.825 656.697 817.563C655.909 816.933 654.332 816.302 653.07 817.248L640.296 827.182L621.844 824.344L651.178 802.426C652.439 801.48 652.597 799.746 652.124 798.642C651.02 797.696 649.443 797.223 648.181 798.011L614.905 823.398L602.919 821.663L593.456 798.327L601.026 788.866L642.346 783.347C643.765 783.19 644.712 781.928 644.554 780.509C644.396 779.09 643.134 778.144 641.715 778.459L605.284 783.19L616.797 768.525L632.41 766.633C633.83 766.476 634.776 765.214 634.934 763.48C635.091 761.745 633.514 761.115 632.095 761.272L621.213 763.007L629.572 752.285C630.518 751.023 629.887 749.289 628.625 748.343C627.521 747.397 626.102 747.554 625.156 748.816L616.797 759.538L615.378 748.973C615.536 747.081 614.432 746.135 612.697 746.766C611.277 746.923 610.331 748.185 610.489 749.604L612.381 765.057L600.869 779.878L596.768 743.297C596.611 741.878 595.033 740.616 593.614 740.774C592.195 740.932 591.248 742.193 591.406 743.612L596.611 785.397L589.198 795.015L563.807 791.231L559.707 780.194L576.108 741.878C576.582 740.459 575.793 739.04 574.531 738.093C573.112 737.62 571.693 738.567 570.746 739.67L556.71 773.413L549.929 756.7L556.395 741.878C556.868 740.301 555.922 739.04 554.818 738.093C553.714 737.936 551.979 738.409 551.348 739.986L547.248 749.446L542.043 737.147C541.57 736.044 540.151 735.571 538.732 735.728C537.312 736.674 536.839 738.093 537.312 739.197L542.359 751.496L532.266 747.396C531.162 747.081 529.427 747.712 529.111 748.816C528.165 750.077 528.638 751.023 529.9 751.969L530.215 752.285L545.04 758.749L551.821 775.463L518.072 761.272C516.652 760.799 515.233 760.957 514.602 762.534C514.129 763.953 514.602 765.057 515.391 765.53C515.864 765.845 515.864 765.845 515.864 765.845L554.818 782.243L559.076 793.281L543.305 813.621L531.95 811.729L506.244 778.302C505.613 777.198 503.878 777.04 502.774 777.513C501.512 778.459 501.355 780.351 502.301 781.613L524.222 810.941L506.244 808.418L496.466 795.646C495.519 794.227 494.1 793.754 493.154 795.015C491.735 795.804 491.734 797.696 492.208 798.642L498.989 807.157L485.742 805.265C484.322 805.422 483.061 806.211 482.43 807.787C482.587 808.418 483.061 809.522 483.849 810.153C484.322 810.468 484.322 810.468 484.953 810.31L498.201 812.36L489.684 819.14C488.265 819.929 488.423 821.348 489.053 822.451C489.369 822.767 489.369 822.767 489.842 823.082C490.631 823.713 491.734 823.871 492.681 823.398L505.455 813.621L523.434 815.987L494.1 837.904C493.154 839.165 492.681 840.742 493.942 841.531C493.942 842.319 493.942 842.319 494.416 842.634C495.204 843.265 496.623 843.107 497.57 842.634L531.162 816.933L542.517 818.667L552.137 842.319L545.04 851.464L503.247 856.668C501.828 856.825 500.566 858.402 500.724 859.821C500.882 861.24 502.616 862.502 504.036 862.344L540.466 857.456L529.269 871.805L513.341 874.012C511.921 874.17 510.975 875.431 511.133 876.851C511.29 878.27 512.552 879.216 513.971 879.058L524.538 877.639L516.179 888.519C515.548 889.307 515.391 891.042 516.652 891.988C517.914 892.934 519.964 892.618 520.595 891.83L528.954 881.108L530.215 891.672C530.373 892.461 530.531 893.091 530.846 893.407C531.635 894.038 532.423 894.038 533.054 893.88C534.473 893.722 535.42 892.618 535.262 891.199L533.685 875.116L544.724 860.767L548.983 897.349C548.983 897.979 549.456 898.295 550.244 898.926C550.56 899.241 551.033 899.556 551.664 899.556C553.083 899.399 554.345 897.822 554.187 896.403L549.456 854.933L556.553 845.788L581.471 849.099L586.359 859.979L569.642 898.768C569.327 899.872 569.642 901.291 570.431 901.922C570.746 902.237 570.746 902.237 571.062 901.764C572.323 902.71 574.058 902.237 574.531 900.66L588.725 866.917L595.822 883.946L589.356 898.768C589.198 899.872 589.671 900.975 590.46 901.606L590.933 901.922C592.037 902.868 593.772 902.237 594.245 900.66L598.503 890.569L603.55 902.868C603.707 903.498 604.023 903.814 604.496 904.129C605.284 904.76 606.388 904.917 606.704 904.602C608.439 903.971 608.912 902.552 608.754 901.133L603.55 888.834L613.17 892.934C614.589 893.565 616.324 892.934 616.955 891.515C617.113 890.411 616.482 888.677 615.378 888.361L600.553 881.896L593.929 865.182L627.679 879.373C629.098 879.847 630.518 879.058 631.464 877.797C631.622 876.693 630.991 874.958 629.572 874.485ZM596.295 826.078L584.152 841.531L582.259 844.053L579.263 843.58L560.338 840.9L557.026 840.269L555.922 837.589L548.667 819.771L547.563 816.933L549.456 814.568L561.599 799.115L563.492 796.75L566.331 797.065L585.413 799.746L588.41 800.061L589.829 803.215L597.084 820.875L598.03 823.713L596.295 826.078Z" fill="#D3D6FF"/>
<path d="M177.422 291.863L221.58 336.328L221.896 353.673L188.461 372.91L173.006 364.395L157.077 303.689C156.762 303.058 156.762 303.058 156.447 302.428C155.658 301.008 154.239 300.062 151.873 300.535C149.823 301.797 148.877 303.216 149.507 305.423L163.543 358.561L140.045 345.001L133.421 321.664L133.106 321.034C132.317 319.772 130.898 318.826 128.532 319.299C126.955 319.457 125.693 321.822 126.167 324.187L129.794 339.64L112.604 329.391C111.184 328.445 108.819 328.918 107.242 330.81C105.665 332.702 107.084 335.225 108.976 336.801L125.851 346.262L110.869 350.52C108.503 350.993 107.242 353.515 107.715 355.881C108.503 357.142 110.238 358.719 112.604 358.246L135.944 351.781L159.916 365.814L106.768 380.005C104.561 380.478 103.299 382.844 103.457 384.578C104.561 386.628 106.295 388.205 108.661 387.732L169.063 371.175L184.834 380.321V418.006L169.063 426.994L108.346 411.383C106.295 410.91 104.403 412.014 103.772 414.064C103.141 416.114 104.403 418.164 106.453 418.637L159.916 432.355L135.629 446.388L112.919 440.239C110.869 439.766 108.819 440.869 107.715 443.392C106.611 445.915 108.188 447.334 110.238 447.965L126.482 451.749L108.819 461.841C106.768 463.102 106.611 465.783 107.715 467.675C108.976 469.725 111.027 470.198 112.919 469.094L130.582 458.845L126.482 474.455C125.22 476.82 126.482 478.87 129.163 479.028C131.213 479.501 133.106 478.397 133.737 476.347L139.729 453.641L164.017 439.608L149.35 492.746C148.719 494.795 150.296 497.318 152.346 497.949C154.396 498.58 156.447 497.318 156.92 495.268L173.164 434.247L188.935 425.101L222.053 444.496L221.738 462.156L177.264 506.306C175.687 508.04 176.16 510.406 177.264 512.298C179.157 513.874 181.365 513.401 183.415 512.298L222.053 473.351V500.472L204.705 517.501C203.128 519.236 203.601 521.601 204.705 523.493C206.125 524.439 208.963 524.597 210.541 522.862L221.738 511.982L221.896 532.008C222.053 533.742 223.788 535.319 225.838 535.792C228.204 535.319 229.781 533.584 229.781 531.85L229.466 511.825L241.451 523.335C242.871 524.281 245.552 524.439 246.498 523.02C248.391 521.916 248.391 520.182 247.129 518.29L246.813 517.659L229.781 500.314V473.193L268.893 511.825C270.627 513.401 272.678 514.032 274.255 512.14C275.832 510.406 275.832 508.671 275.043 507.41C274.57 506.779 274.57 506.779 274.57 506.779L229.466 461.998L229.781 444.338L263.215 425.101L278.04 433.932L294.914 494.953C295.072 496.688 297.438 497.949 299.173 497.791C301.538 497.318 302.8 494.795 302.327 492.588L288.133 439.45L311.789 453.011L318.255 476.347C318.728 478.712 320.463 480.289 322.513 479.028C324.879 478.554 325.983 476.189 325.983 474.455L321.252 458.845L338.442 468.936C340.492 469.567 342.858 469.094 344.435 467.202C344.75 466.256 344.593 464.521 343.962 463.26C343.489 462.471 343.489 462.471 342.542 462.314L325.194 452.065L340.965 447.492C343.173 447.019 343.804 444.969 343.646 443.235C343.331 442.604 343.331 442.604 342.858 441.815C342.227 440.554 340.808 439.608 339.073 439.766L315.732 446.23L292.233 432.828L345.223 418.637C347.274 417.533 348.851 415.798 347.589 413.749C347.904 412.803 347.904 412.803 347.589 412.172C346.801 410.753 344.75 410.28 343.016 410.28L281.982 427.309L267.158 418.321L267 380.005L281.982 371.333L343.016 387.574C345.066 388.205 347.747 386.628 348.22 384.578C348.693 382.528 347.274 379.848 345.223 379.375L291.76 365.657L315.417 351.939L338.757 357.773C340.965 358.246 342.858 357.142 343.331 355.092C343.962 353.042 342.858 350.993 340.808 350.52L325.194 346.262L342.858 336.171C344.277 335.382 345.381 332.859 344.277 330.967C343.173 328.918 340.019 328.129 338.757 328.918L321.094 339.167L325.194 323.556C325.51 322.61 325.825 321.507 325.352 320.876C324.564 319.615 323.617 319.299 322.513 318.984C320.463 318.511 318.571 319.615 317.94 321.664L311.316 344.843L287.66 358.403L302.327 305.266C302.642 304.32 302.327 303.689 301.538 302.27C301.223 301.639 300.75 301.008 299.803 300.693C297.596 300.22 295.072 301.639 294.441 303.847L277.882 364.08L262.742 372.91L230.096 354.146L229.308 336.171L274.412 291.705C275.359 290.286 275.989 288.236 275.201 286.975C274.728 286.344 274.728 286.344 274.097 286.66C272.993 284.768 270.312 284.61 268.735 286.344L229.939 325.291L229.623 297.54L246.971 280.51C247.917 279.091 247.76 277.514 246.971 276.095L246.656 275.465C245.552 273.572 242.713 273.415 241.136 275.149L229.781 286.975L229.466 267.108C229.781 266.004 229.466 265.373 228.992 264.742C228.204 263.323 226.784 262.377 226.154 262.85C223.473 262.693 221.896 264.427 221.265 266.477L221.58 286.502L210.698 275.307C208.963 273.73 206.125 273.572 204.548 275.307C203.601 276.726 203.444 279.406 204.863 280.353L221.896 297.697V324.818L182.784 286.187C181.049 284.61 178.683 285.083 176.791 286.187C175.845 287.606 175.687 290.286 177.422 291.863ZM196.504 377.956L222.211 363.134L225.996 360.769L229.939 362.976L254.857 377.325L259.115 380.163V384.578V413.433V417.848L255.172 420.056L229.623 434.878L225.681 437.243L221.738 435.035L196.82 420.686L192.877 418.479L192.562 413.433V384.578L192.719 380.163L196.504 377.956Z" fill="#D3D6FF"/>
<path d="M714.419 208.136L732.87 215.231L722.935 224.061C721.673 224.85 721.358 226.899 722.304 228.634C723.881 229.58 725.774 229.895 726.878 229.107L740.283 217.754L757.473 224.377L730.032 247.082C728.455 248.659 728.139 250.709 729.559 251.655C730.505 253.389 732.555 253.705 734.132 252.128L764.412 227.057L780.025 232.734L786.649 270.576L775.452 280.195L736.34 265.215C735.709 265.373 735.078 265.373 734.605 265.531C733.974 265.688 732.713 266.477 732.24 267.265C731.293 269.315 732.24 271.049 734.29 271.365L769.932 285.083L755.896 296.436L737.444 289.971C737.444 289.34 736.813 289.498 736.182 289.498C734.921 289.813 733.817 290.602 733.344 292.021C732.87 293.282 733.817 295.017 735.394 296.12L750.376 301.166L733.028 315.673C731.766 316.619 731.609 318.511 732.397 320.245C733.974 321.349 735.867 321.664 736.971 320.718L753.215 307.158L755.423 320.088C755.896 321.98 757.946 322.926 759.208 322.768C760.943 322.453 762.677 320.876 762.362 318.984L759.365 302.112L773.401 290.759L779.552 325.606C779.868 327.498 781.287 328.444 783.179 328.129C785.072 327.814 786.018 326.395 785.703 324.503L779.079 286.029L790.749 275.622L827.022 289.182L829.388 303.531L798.635 329.391C796.9 330.337 796.742 332.859 798.162 333.963C799.108 335.698 801 335.382 802.735 334.436L830.807 310.942L833.804 329.075L819.768 340.428C818.664 341.216 818.506 343.897 819.295 345.001C820.083 346.104 822.764 346.262 824.499 345.316L835.065 336.486L838.85 358.246C839.166 360.138 841.374 360.926 843.109 360.611C844.37 360.453 846.105 358.876 845.79 356.984L842.005 335.225L855.568 339.955C856.987 340.428 858.879 340.113 859.668 337.905C860.141 336.644 859.037 334.279 857.775 333.806L840.743 327.814L837.589 309.838L871.811 322.453C873.704 322.768 875.596 322.453 876.543 320.403C876.858 318.984 875.912 316.619 874.493 316.146L836.327 302.27L833.804 288.079L863.453 263.008L877.804 268.842L884.586 307.473C884.901 309.365 886.321 310.311 888.213 309.996C890.106 309.681 891.683 308.104 891.367 306.212L885.374 271.523L902.407 277.514L905.246 294.228C905.561 296.12 907.138 297.066 908.873 296.751C910.765 296.436 911.869 295.017 911.554 293.124L909.188 280.195L929.06 287.606C930.479 287.921 932.845 286.975 933.318 285.556C933.475 283.664 933.16 281.772 931.268 281.456L910.608 273.415L922.436 263.796C923.54 262.377 923.698 260.327 922.909 259.224C922.12 258.12 920.701 257.647 919.439 257.804C919.439 257.804 918.809 257.962 918.335 258.751L903.195 270.892L886.163 264.9L915.181 239.987C916.916 239.041 917.231 237.149 915.654 235.572C914.866 234.941 914.235 234.468 912.973 234.626C912.343 234.783 911.712 234.941 911.081 234.941L879.224 262.219L865.503 257.016L859.037 219.016L871.969 208.451L908.873 222.011C910.923 222.8 912.658 221.854 912.973 219.962C913.92 218.543 912.973 216.808 910.923 215.862L877.489 203.721L891.367 191.737L907.769 197.729C909.188 198.202 910.923 197.256 912.027 195.837C912.343 193.787 911.869 191.895 909.977 191.737L897.676 186.691L912.658 173.919C914.393 172.973 914.077 171.081 913.131 169.347C912.5 168.874 911.081 168.401 909.819 168.716C909.819 168.716 909.188 168.716 908.557 168.874L892.314 182.592L889.633 166.982C889.475 165.72 887.898 164.143 886.005 164.459C884.27 164.774 883.324 166.824 883.482 168.085L886.794 187.322L872.915 199.306L866.292 161.463C865.976 159.571 863.926 158.625 862.034 158.94C860.141 159.255 859.195 160.832 859.51 162.567L866.765 204.194L854.937 213.97L818.664 200.409L815.825 184.326L847.209 158.309C848.313 156.89 848.628 154.998 847.682 153.106C846.894 152.633 845.474 152.317 844.37 152.475C843.739 152.633 843.109 152.633 842.478 153.421L814.563 176.758L811.409 158.782L825.445 146.799C826.549 145.853 826.865 143.961 825.918 142.226C824.341 141.122 822.449 140.807 821.345 141.753L810.148 151.371L806.678 131.504C806.52 130.243 804.312 128.666 803.051 128.823C801.158 129.139 799.739 131.346 799.897 132.608L803.366 152.475L790.276 147.114C789.645 147.114 789.015 147.272 788.384 147.429C787.122 147.587 786.018 148.533 785.545 149.164C785.23 151.214 786.176 152.948 787.595 153.894L804.628 159.886L807.782 178.019L773.559 165.405C771.509 164.459 769.774 165.405 769.301 166.666C768.355 168.716 769.301 170.608 770.72 171.554L809.044 185.43L811.882 201.671L782.233 226.584L767.882 221.381L760.627 179.754C760.312 177.861 758.892 176.758 757 177.073C755.107 177.546 754.161 178.965 754.476 180.857L760.943 218.7L743.91 212.078L740.44 192.841C740.283 191.579 738.075 190.003 736.182 190.318C734.448 190.633 733.501 192.683 733.659 193.945L736.34 209.555L716.469 202.144C715.838 202.144 715.838 202.144 715.207 202.302C714.103 202.459 712.842 203.405 712.368 204.036C712.053 206.086 712.999 207.82 714.419 208.136ZM813.144 209.082L816.456 206.559L819.925 207.82L849.417 218.858L852.729 220.119L853.36 223.904L858.722 254.336L859.353 257.962L856.514 260.485L832.542 280.51L829.703 283.033L825.761 281.772L796.9 270.734L792.8 269.473L792.169 265.846L786.964 235.414L786.334 231.63L789.645 229.107L813.144 209.082Z" fill="#D3D6FF"/>
<path d="M100.618 616.05L106.453 630.714L95.8865 629.611C94.7826 629.295 93.3632 630.241 92.8901 631.818C93.0478 633.237 93.994 634.499 95.098 634.656L108.976 636.548L114.181 650.266L86.1086 646.325C84.2161 646.167 82.9544 646.955 83.1122 648.374C82.4813 649.951 83.4276 651.213 85.1624 651.37L116.389 655.785L121.435 668.084L102.51 692.367L90.8399 690.948L78.6963 659.727C78.3809 659.412 77.9078 659.096 77.5924 658.781C77.1192 658.466 76.0153 658.308 75.3844 658.308C73.6497 658.939 73.0188 660.516 73.9651 661.777L85.0047 690.317L70.6532 688.109L64.6603 673.761C64.9757 673.288 64.5026 672.972 64.1872 672.657C63.3986 672.026 62.2947 671.868 61.1907 672.341C60.2444 672.815 59.6136 674.391 59.7713 675.81L64.818 687.321L46.9969 684.956C45.893 684.64 44.4736 685.586 44.0005 687.006C44.1582 688.425 45.1044 689.844 46.2084 690.001L62.9255 692.209L56.4594 700.566C55.5132 701.827 56.144 703.562 56.9326 704.193C58.0365 705.139 59.929 705.139 60.8753 704.035L69.2338 693.313L83.4276 695.52L66.0797 717.753C65.1334 719.014 65.2911 720.433 66.5528 721.222C67.8144 722.168 69.2338 722.01 70.1801 720.906L89.2628 696.151L101.722 697.57L113.234 726.268L106.138 735.413L74.2805 731.156C72.7034 730.525 71.1263 731.944 71.284 733.363C70.8109 734.782 71.9149 735.728 73.4919 736.201L102.353 740.301L93.3632 751.811L79.0117 749.604C77.9078 749.289 76.3307 750.708 76.0153 751.811C75.6999 752.915 77.1192 754.492 78.6963 754.965L89.5782 756.542L78.6963 770.418C77.9078 771.679 78.3809 773.413 79.6426 774.36C80.4311 774.99 82.1659 775.148 83.1122 773.886L93.994 760.011L98.5676 770.575C99.0407 771.521 100.302 772.467 101.879 771.837C102.983 771.364 103.772 769.471 103.299 768.525L97.779 755.123L106.768 743.612L117.65 770.733C118.439 771.994 119.7 772.94 121.435 772.31C122.382 771.837 123.328 769.945 122.855 768.998L110.396 738.882L117.65 729.736L148.246 733.836L152.662 745.504L133.421 770.102C132.475 771.364 132.633 772.783 133.894 773.729C134.998 774.675 136.891 774.833 137.837 773.571L155.185 751.338L160.705 764.583L152.346 775.306C151.4 776.567 151.558 777.986 152.819 778.932C153.923 779.878 155.343 779.721 156.289 778.459L162.913 770.102L169.063 785.87C169.694 786.974 171.587 787.762 172.533 787.289C173.794 786.343 174.741 785.239 173.952 783.82L167.486 767.422L179.63 769.156C181.049 768.998 182.311 768.052 182.626 766.949C182.784 765.845 182.311 764.899 181.522 764.268C181.522 764.268 181.207 763.953 180.418 763.953L165.12 761.588L159.443 748.185L189.723 752.127C191.3 752.6 192.562 751.654 192.719 749.919C192.562 749.131 192.562 748.5 191.773 747.869C191.3 747.554 190.985 747.239 190.512 746.923L157.393 742.824L153.135 731.786L172.06 707.504L185.149 709.396L197.135 738.566C197.608 740.301 199.185 740.774 200.447 739.986C201.867 739.828 202.497 738.251 201.867 736.517L190.985 710.184L205.652 711.919L210.856 725.006C211.329 725.952 212.906 726.583 214.325 726.425C215.587 725.479 216.533 724.218 215.587 722.956L211.96 713.023L227.573 715.072C229.15 715.545 230.096 714.284 230.569 712.865C230.412 712.076 229.939 711.13 229.15 710.5C229.15 710.5 228.835 710.184 228.362 709.869L211.644 707.661L219.372 697.728C220.003 696.939 220.161 695.047 218.899 694.101C217.637 693.155 215.903 693.786 215.429 694.574L205.809 706.873L191.142 705.139L210.067 680.856C211.014 679.752 210.383 678.018 209.279 677.072C208.175 676.126 206.598 676.283 205.652 677.387L184.834 704.193L172.848 702.3L161.335 673.603L169.379 663.196L201.551 667.926C202.97 667.769 204.39 666.823 204.863 665.404C204.863 664.615 204.39 663.669 203.601 663.038C203.128 662.723 202.813 662.408 202.024 662.408L173.164 658.466L182.153 646.955L196.662 648.69C197.766 649.005 199.185 648.059 199.659 646.482C199.501 645.221 198.712 643.802 197.608 643.644L185.78 642.225L195.716 629.453C196.347 628.665 196.189 626.457 195.4 625.826C194.139 624.88 192.089 625.196 191.458 625.984L181.522 638.756L177.579 628.034C177.264 627.718 176.791 627.403 176.475 627.088C175.687 626.457 174.583 626.299 173.794 626.457C172.533 627.245 171.902 628.822 172.217 630.241L177.737 643.486L168.748 654.997L157.866 628.034C157.235 626.299 155.816 625.826 154.712 626.299C152.977 626.772 152.504 628.349 152.662 629.768L164.963 659.885L156.92 670.134L126.167 666.034L121.593 654.839L142.41 628.191C143.357 626.93 143.199 625.511 141.937 624.565C140.833 623.619 139.414 623.776 138.468 625.038L119.543 649.32L114.181 635.602L123.801 623.303C124.432 622.515 124.116 620.308 123.012 619.361C121.751 618.415 120.016 619.046 119.385 619.835L111.657 629.768L105.349 614C105.034 613.685 105.034 613.685 104.56 613.37C103.772 612.739 102.668 612.581 102.037 612.581C100.618 613.527 100.145 615.104 100.618 616.05ZM153.292 675.022L156.604 675.653L157.55 678.333L167.013 701.67L167.959 704.35L166.224 706.873L150.927 726.268L149.034 728.633L146.195 728.317L121.278 725.006L118.439 724.533L116.862 721.537L108.03 698.516L106.453 695.52L108.345 693.155L123.643 673.603L125.378 671.238L128.69 671.868L153.292 675.022Z" fill="#D3D6FF"/>
<path d="M2086.32 230.211L2106.04 232.418L2098.47 243.456C2097.68 244.559 2097.84 246.452 2099.26 248.028C2100.83 248.659 2102.88 248.501 2103.67 247.398L2113.92 233.049L2132.22 235.256L2111.24 264.112C2109.98 266.004 2110.14 267.896 2111.87 268.527C2113.13 270.103 2115.18 269.788 2116.45 267.896L2139.47 236.202L2156.03 237.779L2171.8 272.784L2163.44 284.925L2121.81 280.037C2121.18 280.352 2120.7 280.51 2120.07 280.826C2119.44 280.983 2118.65 282.087 2118.34 283.033C2117.86 285.241 2119.28 286.66 2121.18 286.502L2159.18 290.917L2148.46 305.423L2129.06 303.689C2128.75 303.216 2128.12 303.374 2127.64 303.689C2126.38 304.162 2125.59 305.266 2125.43 306.685C2125.43 308.104 2126.7 309.523 2128.43 310.154L2144.2 311.415L2130.95 329.864C2130.01 330.967 2130.32 332.859 2131.59 334.436C2133.32 335.067 2135.21 334.752 2136.16 333.648L2148.46 316.461L2153.82 328.602C2154.61 330.337 2156.98 330.652 2158.08 330.179C2159.82 329.391 2161.08 327.498 2160.29 325.764L2153.35 310.154L2164.07 295.647L2178.42 327.971C2179.21 329.706 2180.95 330.337 2182.68 329.548C2184.42 328.76 2185.05 327.025 2184.26 325.291L2168.33 289.656L2177.01 276.726L2215.49 280.983L2221.48 294.228L2197.98 326.71C2196.56 328.129 2197.03 330.652 2198.61 331.283C2200.03 332.702 2201.77 332.071 2203.19 330.652L2224.48 301.008L2232.05 317.722L2221.16 332.229C2220.38 333.332 2220.85 335.855 2221.95 336.801C2223.06 337.747 2225.58 337.274 2227 335.855L2235.04 324.66L2244.19 344.843C2244.98 346.577 2247.19 346.893 2248.92 346.104C2250.02 345.631 2251.29 343.739 2250.5 342.005L2241.51 321.822L2255.86 323.083C2257.28 323.083 2258.86 322.295 2259.33 320.087C2259.33 318.668 2257.75 316.619 2256.33 316.619L2238.35 314.884L2230.94 298.17L2267.21 302.112C2269.11 301.797 2270.84 301.166 2271.16 298.801C2271.32 297.382 2269.74 295.332 2268.32 295.332L2227.79 291.39L2221.79 278.145L2244.35 246.609L2259.8 248.659L2275.73 284.294C2276.52 286.029 2278.25 286.66 2279.99 286.029C2281.72 285.241 2282.99 283.191 2282.2 281.456L2267.69 249.29L2285.67 250.867L2292.61 266.477C2293.39 268.211 2295.13 268.842 2296.86 268.054C2298.6 267.265 2299.23 265.531 2298.44 263.796L2293.08 251.813L2314.05 254.178C2315.47 254.178 2317.52 252.601 2317.68 251.182C2317.37 249.132 2316.58 247.398 2314.68 247.555L2292.76 245.032L2301.75 232.734C2302.38 230.999 2302.23 228.949 2301.12 228.161C2300.02 227.215 2298.6 227.215 2297.49 227.688C2297.49 227.688 2296.86 228.003 2296.55 228.792L2284.88 244.402L2266.9 242.825L2288.82 211.447C2290.24 210.186 2290.08 208.136 2288.19 207.032C2287.4 206.717 2286.46 206.401 2285.35 206.874C2284.72 207.032 2284.25 207.347 2283.62 207.663L2259.49 241.879L2244.98 240.144L2229.21 204.982L2239.14 191.579L2278.25 195.521C2280.46 195.837 2281.88 194.575 2281.72 192.526C2282.35 190.949 2280.94 189.372 2278.73 189.057L2243.4 185.588L2253.81 170.451L2271.31 172.343C2272.73 172.5 2274.15 171.081 2274.78 169.347C2274.63 167.455 2273.84 165.72 2271.79 165.878L2258.7 164.143L2270.05 148.06C2271.47 146.641 2270.84 144.907 2269.42 143.487C2268.63 143.172 2267.21 143.172 2265.95 143.645C2265.95 143.645 2265.48 143.961 2264.85 144.118L2252.55 161.463L2246.08 146.956C2245.61 145.853 2243.72 144.591 2241.98 145.38C2240.25 146.168 2239.77 148.376 2240.4 149.637L2248.29 167.455L2237.88 182.434L2222.11 147.429C2221.32 145.695 2219.11 145.222 2217.38 146.01C2215.64 146.799 2215.01 148.533 2215.8 150.268L2232.99 188.741L2224 201.04L2185.52 196.941L2178.9 181.961L2202.87 149.164C2203.5 147.429 2203.18 145.38 2201.92 143.961C2201.13 143.645 2199.72 143.645 2198.45 144.118C2197.98 144.434 2197.35 144.591 2197.03 145.537L2175.74 175.023L2168.33 158.309L2178.74 143.33C2179.69 142.226 2179.53 140.176 2178.11 138.757C2176.53 138.126 2174.48 138.284 2173.54 139.388L2165.18 151.371L2156.98 133.081C2156.35 131.819 2153.98 130.873 2152.72 131.504C2150.98 132.135 2150.04 134.657 2150.51 135.919L2158.87 154.21L2144.83 152.317C2144.2 152.475 2143.57 152.791 2143.1 153.106C2141.99 153.579 2141.05 154.683 2140.73 155.471C2140.89 157.521 2142.31 158.94 2143.89 159.571L2161.87 161.147L2169.44 177.861L2133.16 174.077C2130.95 173.762 2129.38 175.023 2129.38 176.442C2128.9 178.65 2130.32 180.227 2132.06 180.857L2172.43 184.799L2179.21 199.779L2156.66 231.314L2141.52 229.738L2124.17 191.264C2123.38 189.53 2121.81 188.899 2120.07 189.53C2118.34 190.318 2117.71 192.052 2118.5 193.787L2134.11 228.949L2115.97 226.742L2107.93 208.766C2107.46 207.663 2104.93 206.717 2103.2 207.505C2101.46 208.293 2101.15 210.501 2101.62 211.605L2108.09 226.111L2086.95 223.746C2086.32 224.061 2086.32 224.061 2085.85 224.219C2084.59 224.85 2083.8 225.953 2083.48 226.742C2083.64 228.634 2085.06 230.211 2086.32 230.211ZM2182.21 206.717L2184.89 203.405L2188.68 203.878L2219.74 207.19L2223.53 207.663L2224.95 210.974L2237.57 239.198L2239.14 242.667L2237.09 245.663L2218.8 271.207L2216.59 274.203L2212.49 274.045L2181.74 270.419L2177.64 270.261L2176.06 266.792L2163.44 238.568L2161.87 235.099L2164.55 231.945L2182.21 206.717Z" fill="#D3D6FF"/>
<path d="M1681.17 862.502L1658.62 829.074L1661.61 814.725L1669.34 825.92C1669.82 827.497 1671.39 827.34 1672.81 826.866C1673.6 826.078 1674.07 824.344 1673.28 823.555L1663.03 807.787L1665.56 793.596L1676.44 803.215L1677.54 822.136L1677.7 822.609C1678.02 823.555 1679.28 824.186 1680.38 824.344C1681.8 823.871 1682.59 823.082 1682.59 821.348L1681.64 807.787L1692.53 817.563L1695.52 857.456L1695.21 858.087C1695.52 859.033 1696.94 859.664 1698.04 859.821C1699.62 859.821 1700.73 858.402 1700.25 856.983L1697.73 822.136L1711.29 833.489L1712.4 849.099C1712.4 849.099 1712.4 849.099 1712.55 849.572C1712.87 850.518 1713.66 851.307 1714.76 851.464C1716.18 850.991 1717.6 850.045 1717.44 848.311L1716.65 838.062L1726.43 846.419C1727.38 847.68 1728.8 847.207 1729.59 846.419C1730.85 845.315 1730.85 843.738 1729.43 842.634L1720.12 834.12L1730.22 833.962C1731.64 833.489 1732.9 832.385 1732.43 830.966C1732.27 829.389 1731.48 828.601 1729.9 828.601L1714.29 829.705L1701.36 818.194L1736.68 815.671C1737.79 815.829 1738.89 814.41 1738.89 812.833C1738.58 811.887 1737.63 810.468 1736.05 810.625L1695.99 813.621L1685.11 804.003L1698.68 803.057C1700.41 803.057 1701.04 801.796 1700.88 800.219C1701.04 799.115 1699.62 798.011 1698.52 797.854L1679.91 799.43L1668.55 789.97L1682.43 785.239L1699.15 793.281C1700.41 793.912 1701.83 793.439 1702.46 792.177C1703.25 791.389 1702.62 789.497 1701.36 788.866L1689.21 782.874L1702.93 778.144L1739.05 796.119C1740.31 796.75 1741.73 796.277 1742.36 795.015C1742.99 793.754 1742.52 792.335 1741.26 791.704L1709.72 775.779L1725.96 770.26L1740 777.198C1741.26 777.828 1742.68 777.355 1743.31 776.094C1743.94 774.675 1743.46 773.256 1742.2 772.625L1733.06 767.895L1745.04 763.795C1746.46 763.164 1747.09 761.903 1746.62 760.484C1746.15 759.065 1744.73 758.434 1743.31 758.907L1731.48 763.007L1735.74 754.019C1736.37 752.758 1735.9 751.338 1734.63 750.708C1733.37 750.077 1731.95 750.55 1731.32 751.811L1724.7 765.372L1707.98 771.048L1723.44 739.67C1724.07 738.409 1723.59 736.99 1722.17 736.359C1720.91 735.728 1719.49 736.201 1718.86 737.463L1701.36 773.413L1687.48 778.144L1693.47 766.002C1694.1 764.583 1693.63 763.164 1692.37 762.534C1691.11 761.903 1689.53 762.534 1689.06 763.795L1680.85 780.351L1667.45 785.082L1670.29 771.206L1685.74 760.641C1686.53 759.853 1687.01 757.961 1686.22 757.173C1685.27 755.911 1684.17 755.753 1682.75 756.226L1671.39 763.953L1674.23 750.235L1707.51 727.529C1708.77 726.583 1708.93 725.479 1708.45 724.06C1707.51 722.799 1705.77 722.799 1704.83 723.114L1675.34 742.824L1679.12 725.479L1691.58 716.964C1693 716.491 1693 714.915 1692.53 713.496C1691.74 712.707 1690 712.234 1688.74 713.18L1680.38 718.699L1682.59 706.242C1683.22 704.981 1682.27 703.719 1680.38 703.246C1679.28 703.089 1678.02 704.035 1677.86 705.139L1675.34 717.753L1669.66 709.081C1668.71 707.819 1667.13 707.819 1666.35 708.608C1664.93 709.081 1664.77 710.184 1665.08 711.13C1665.24 711.603 1665.24 711.603 1665.4 712.076L1673.92 724.691L1670.29 741.878L1650.73 712.865C1650.26 711.446 1648.68 711.446 1647.11 711.919C1646.32 712.707 1646.32 713.811 1646.63 714.757C1646.79 715.23 1646.79 715.23 1646.79 715.23L1669.03 749.289L1666.35 763.007L1658.78 751.811C1657.67 750.392 1656.57 750.392 1655.15 750.865C1654.36 751.654 1653.73 752.915 1654.04 753.861C1654.2 754.334 1654.2 754.334 1654.36 754.807L1665.08 770.418L1662.4 784.136L1651.68 774.99L1650.1 756.226C1650.1 754.65 1648.68 753.546 1647.58 753.388C1646.16 753.861 1644.9 754.965 1645.37 756.384L1646.32 769.944L1635.12 760.957L1632.44 720.276C1632.6 719.172 1631.18 718.068 1630.07 717.911C1628.5 718.384 1627.23 719.33 1627.23 720.906L1629.76 755.753L1616.67 744.243L1615.72 729.106C1615.72 727.529 1614.3 726.425 1612.88 726.898C1611.78 726.741 1610.52 727.687 1610.52 729.421L1611.31 739.67L1601.53 731.313C1600.74 730.525 1599.16 730.525 1597.9 731.471C1597.58 732.102 1597.43 733.363 1597.74 734.309C1597.74 734.309 1597.9 734.782 1598.06 735.255L1607.84 743.612L1597.58 744.401C1596.32 744.243 1595.22 745.82 1595.22 746.923C1595.38 747.396 1595.38 747.396 1595.38 747.396C1595.85 748.816 1597.11 749.446 1598.06 749.131L1613.2 748.185L1626.76 759.538L1591.28 762.061C1589.86 762.534 1589.07 763.322 1589.07 764.899L1589.23 765.372C1589.54 766.318 1590.33 767.264 1591.91 767.106L1632.12 764.583L1642.85 773.729L1629.28 774.675C1627.86 775.148 1626.6 776.094 1627.08 777.513C1626.6 777.671 1626.76 778.144 1626.76 778.144C1627.08 779.09 1628.34 779.721 1629.44 779.878L1648.05 778.301L1658.93 787.92L1645.53 792.493L1628.81 784.451C1627.55 783.82 1625.66 784.451 1625.03 785.712C1624.87 786.816 1625.34 788.235 1626.13 789.024L1638.9 794.858L1625.03 799.588L1589.07 782.086C1587.81 781.455 1586.39 781.928 1585.76 783.189C1585.13 784.451 1585.6 785.87 1586.86 786.501L1618.24 801.953L1601.53 807.63L1588.12 801.007C1586.86 800.376 1585.44 800.849 1584.81 802.111C1584.18 803.372 1584.65 804.949 1585.91 805.58L1594.9 809.837L1582.92 813.937C1581.5 814.568 1580.87 815.829 1581.34 817.248C1581.97 818.667 1583.23 819.298 1584.65 818.825L1596.48 814.725L1592.38 824.186C1592.07 824.817 1591.75 825.447 1591.91 825.92C1592.07 826.393 1592.85 827.182 1593.48 827.497C1594.75 828.128 1596.17 827.655 1596.8 826.393L1603.26 812.36L1619.98 806.684L1604.68 838.535C1604.37 839.165 1604.05 839.796 1604.21 840.269C1604.52 840.742 1605.31 841.531 1605.94 841.846C1607.21 842.477 1608.62 842.004 1609.26 840.742L1626.6 804.318L1640.48 799.588L1634.02 811.887C1633.7 812.518 1634.02 813.621 1634.17 814.094C1634.33 814.567 1634.49 815.04 1635.12 815.356C1636.54 815.987 1638.43 815.198 1638.59 814.094L1647.11 797.381L1660.51 792.65L1657.99 806.999L1642.22 817.09C1641.43 817.879 1640.8 819.298 1641.11 820.244C1641.27 820.717 1641.27 820.717 1641.74 820.559C1642.22 821.978 1643.95 822.451 1645.21 821.348L1656.57 813.779L1654.04 827.97L1619.98 850.361C1619.19 851.149 1619.03 852.253 1619.35 853.199C1619.51 853.672 1619.51 853.672 1619.51 853.672C1620.61 854.933 1621.87 855.564 1623.13 854.618L1652.63 834.908L1648.84 852.253L1636.38 860.767C1635.12 861.713 1634.96 862.817 1635.28 863.763L1635.43 864.236C1636.38 865.498 1637.96 865.498 1638.9 865.182L1647.58 859.033L1644.9 871.647C1645.06 872.12 1645.21 872.593 1645.37 873.066C1645.53 873.539 1646.47 874.328 1647.11 874.643C1648.68 874.643 1650.1 874.17 1650.1 872.593L1652.63 859.979L1658.3 868.651C1659.25 869.913 1660.83 869.913 1661.77 869.597C1663.03 868.651 1663.03 867.074 1662.56 865.655L1654.04 853.041L1657.2 836.012L1676.75 865.025C1677.7 866.286 1679.59 866.759 1680.38 865.971C1681.64 865.025 1682.27 863.763 1681.17 862.502Z" fill="#D3D6FF"/>
</g>
<defs>
<filter id="filter0_f_3128_58711" x="655.139" y="817.188" width="26.4893" height="26.4849" filterUnits="userSpaceOnUse" color-interpolation-filters="sRGB">
<feFlood flood-opacity="0" result="BackgroundImageFix"/>
<feBlend mode="normal" in="SourceGraphic" in2="BackgroundImageFix" result="shape"/>
<feGaussianBlur stdDeviation="1" result="effect1_foregroundBlur_3128_58711"/>
</filter>
<filter id="filter1_f_3128_58711" x="885.425" y="521.777" width="19.5186" height="19.5156" filterUnits="userSpaceOnUse" color-interpolation-filters="sRGB">
<feFlood flood-opacity="0" result="BackgroundImageFix"/>
<feBlend mode="normal" in="SourceGraphic" in2="BackgroundImageFix" result="shape"/>
<feGaussianBlur stdDeviation="1" result="effect1_foregroundBlur_3128_58711"/>
</filter>
<filter id="filter2_f_3128_58711" x="782.41" y="676.459" width="21.0796" height="21.0766" filterUnits="userSpaceOnUse" color-interpolation-filters="sRGB">
<feFlood flood-opacity="0" result="BackgroundImageFix"/>
<feBlend mode="normal" in="SourceGraphic" in2="BackgroundImageFix" result="shape"/>
<feGaussianBlur stdDeviation="1" result="effect1_foregroundBlur_3128_58711"/>
</filter>
<filter id="filter3_f_3128_58711" x="1184.77" y="489.248" width="30.6367" height="30.632" filterUnits="userSpaceOnUse" color-interpolation-filters="sRGB">
<feFlood flood-opacity="0" result="BackgroundImageFix"/>
<feBlend mode="normal" in="SourceGraphic" in2="BackgroundImageFix" result="shape"/>
<feGaussianBlur stdDeviation="1" result="effect1_foregroundBlur_3128_58711"/>
</filter>
<filter id="filter4_f_3128_58711" x="743.85" y="47.9053" width="21.0801" height="21.0766" filterUnits="userSpaceOnUse" color-interpolation-filters="sRGB">
<feFlood flood-opacity="0" result="BackgroundImageFix"/>
<feBlend mode="normal" in="SourceGraphic" in2="BackgroundImageFix" result="shape"/>
<feGaussianBlur stdDeviation="1" result="effect1_foregroundBlur_3128_58711"/>
</filter>
<filter id="filter5_f_3128_58711" x="2121.24" y="391.723" width="20.0703" height="20.0675" filterUnits="userSpaceOnUse" color-interpolation-filters="sRGB">
<feFlood flood-opacity="0" result="BackgroundImageFix"/>
<feBlend mode="normal" in="SourceGraphic" in2="BackgroundImageFix" result="shape"/>
<feGaussianBlur stdDeviation="1" result="effect1_foregroundBlur_3128_58711"/>
</filter>
<filter id="filter6_f_3128_58711" x="1127.32" y="330.513" width="30.416" height="30.4111" filterUnits="userSpaceOnUse" color-interpolation-filters="sRGB">
<feFlood flood-opacity="0" result="BackgroundImageFix"/>
<feBlend mode="normal" in="SourceGraphic" in2="BackgroundImageFix" result="shape"/>
<feGaussianBlur stdDeviation="1" result="effect1_foregroundBlur_3128_58711"/>
</filter>
<filter id="filter7_f_3128_58711" x="1033.83" y="528.21" width="23.6821" height="23.6783" filterUnits="userSpaceOnUse" color-interpolation-filters="sRGB">
<feFlood flood-opacity="0" result="BackgroundImageFix"/>
<feBlend mode="normal" in="SourceGraphic" in2="BackgroundImageFix" result="shape"/>
<feGaussianBlur stdDeviation="1" result="effect1_foregroundBlur_3128_58711"/>
</filter>
<filter id="filter8_f_3128_58711" x="1741.54" y="617.046" width="32.1514" height="32.1456" filterUnits="userSpaceOnUse" color-interpolation-filters="sRGB">
<feFlood flood-opacity="0" result="BackgroundImageFix"/>
<feBlend mode="normal" in="SourceGraphic" in2="BackgroundImageFix" result="shape"/>
<feGaussianBlur stdDeviation="1" result="effect1_foregroundBlur_3128_58711"/>
</filter>
<filter id="filter9_f_3128_58711" x="2230.08" y="118.908" width="22.4365" height="22.4326" filterUnits="userSpaceOnUse" color-interpolation-filters="sRGB">
<feFlood flood-opacity="0" result="BackgroundImageFix"/>
<feBlend mode="normal" in="SourceGraphic" in2="BackgroundImageFix" result="shape"/>
<feGaussianBlur stdDeviation="1" result="effect1_foregroundBlur_3128_58711"/>
</filter>
<filter id="filter10_f_3128_58711" x="325.04" y="844.56" width="25.5747" height="25.5704" filterUnits="userSpaceOnUse" color-interpolation-filters="sRGB">
<feFlood flood-opacity="0" result="BackgroundImageFix"/>
<feBlend mode="normal" in="SourceGraphic" in2="BackgroundImageFix" result="shape"/>
<feGaussianBlur stdDeviation="1" result="effect1_foregroundBlur_3128_58711"/>
</filter>
<filter id="filter11_f_3128_58711" x="1922.29" y="399.529" width="20.2441" height="20.2409" filterUnits="userSpaceOnUse" color-interpolation-filters="sRGB">
<feFlood flood-opacity="0" result="BackgroundImageFix"/>
<feBlend mode="normal" in="SourceGraphic" in2="BackgroundImageFix" result="shape"/>
<feGaussianBlur stdDeviation="1" result="effect1_foregroundBlur_3128_58711"/>
</filter>
<filter id="filter12_f_3128_58711" x="1283.15" y="286.867" width="26.6787" height="26.6742" filterUnits="userSpaceOnUse" color-interpolation-filters="sRGB">
<feFlood flood-opacity="0" result="BackgroundImageFix"/>
<feBlend mode="normal" in="SourceGraphic" in2="BackgroundImageFix" result="shape"/>
<feGaussianBlur stdDeviation="1" result="effect1_foregroundBlur_3128_58711"/>
</filter>
<filter id="filter13_f_3128_58711" x="1228.19" y="400.68" width="30.542" height="30.5373" filterUnits="userSpaceOnUse" color-interpolation-filters="sRGB">
<feFlood flood-opacity="0" result="BackgroundImageFix"/>
<feBlend mode="normal" in="SourceGraphic" in2="BackgroundImageFix" result="shape"/>
<feGaussianBlur stdDeviation="1" result="effect1_foregroundBlur_3128_58711"/>
</filter>
<filter id="filter14_f_3128_58711" x="1969.4" y="157.381" width="33.2236" height="33.2178" filterUnits="userSpaceOnUse" color-interpolation-filters="sRGB">
<feFlood flood-opacity="0" result="BackgroundImageFix"/>
<feBlend mode="normal" in="SourceGraphic" in2="BackgroundImageFix" result="shape"/>
<feGaussianBlur stdDeviation="1" result="effect1_foregroundBlur_3128_58711"/>
</filter>
<filter id="filter15_f_3128_58711" x="376.279" y="612.741" width="22.7358" height="22.7322" filterUnits="userSpaceOnUse" color-interpolation-filters="sRGB">
<feFlood flood-opacity="0" result="BackgroundImageFix"/>
<feBlend mode="normal" in="SourceGraphic" in2="BackgroundImageFix" result="shape"/>
<feGaussianBlur stdDeviation="1" result="effect1_foregroundBlur_3128_58711"/>
</filter>
<filter id="filter16_f_3128_58711" x="1591.42" y="526.412" width="20.1494" height="20.1463" filterUnits="userSpaceOnUse" color-interpolation-filters="sRGB">
<feFlood flood-opacity="0" result="BackgroundImageFix"/>
<feBlend mode="normal" in="SourceGraphic" in2="BackgroundImageFix" result="shape"/>
<feGaussianBlur stdDeviation="1" result="effect1_foregroundBlur_3128_58711"/>
</filter>
<filter id="filter17_f_3128_58711" x="15.5845" y="301.042" width="28.3657" height="28.3613" filterUnits="userSpaceOnUse" color-interpolation-filters="sRGB">
<feFlood flood-opacity="0" result="BackgroundImageFix"/>
<feBlend mode="normal" in="SourceGraphic" in2="BackgroundImageFix" result="shape"/>
<feGaussianBlur stdDeviation="1" result="effect1_foregroundBlur_3128_58711"/>
</filter>
<filter id="filter18_f_3128_58711" x="434.3" y="372.313" width="33.1602" height="33.1548" filterUnits="userSpaceOnUse" color-interpolation-filters="sRGB">
<feFlood flood-opacity="0" result="BackgroundImageFix"/>
<feBlend mode="normal" in="SourceGraphic" in2="BackgroundImageFix" result="shape"/>
<feGaussianBlur stdDeviation="1" result="effect1_foregroundBlur_3128_58711"/>
</filter>
<filter id="filter19_f_3128_58711" x="1479.07" y="63.1843" width="27.8301" height="27.8253" filterUnits="userSpaceOnUse" color-interpolation-filters="sRGB">
<feFlood flood-opacity="0" result="BackgroundImageFix"/>
<feBlend mode="normal" in="SourceGraphic" in2="BackgroundImageFix" result="shape"/>
<feGaussianBlur stdDeviation="1" result="effect1_foregroundBlur_3128_58711"/>
</filter>
<clipPath id="clip0_3128_58711">
<rect width="2271" height="883" fill="white"/>
</clipPath>
</defs>
</svg>
