<svg width="222" height="232" viewBox="0 0 222 232" fill="none" xmlns="http://www.w3.org/2000/svg">
<path d="M2.11097 79.3233L20.5629 86.4188L10.6272 95.2488C9.36554 96.0372 9.05014 98.087 9.99639 99.8215C11.5735 100.768 13.466 101.083 14.5699 100.295L27.9751 88.9417L45.1653 95.5642L17.7241 118.27C16.147 119.847 15.8316 121.897 17.251 122.843C18.1972 124.577 20.2474 124.892 21.8245 123.316L52.1045 98.2447L67.7176 103.921L74.3414 141.764L63.1441 151.382L24.0324 136.403C23.4016 136.561 22.7707 136.561 22.2976 136.718C21.6668 136.876 20.4051 137.664 19.932 138.453C18.9857 140.503 19.932 142.237 21.9822 142.552L57.6243 156.27L43.5882 167.623L25.1364 161.158C25.1364 160.528 24.5055 160.685 23.8747 160.685C22.613 161.001 21.5091 161.789 21.036 163.208C20.5628 164.47 21.5091 166.204 23.0862 167.308L38.0685 172.354L20.7205 186.86C19.4589 187.806 19.3012 189.698 20.0897 191.433C21.6668 192.537 23.5593 192.852 24.6632 191.906L40.9072 178.345L43.1151 191.275C43.5883 193.167 45.6385 194.113 46.9001 193.956C48.6349 193.64 50.3697 192.063 50.0543 190.171L47.0578 173.3L61.0939 161.947L67.2445 196.794C67.5599 198.686 68.9793 199.632 70.8718 199.317C72.7643 199.001 73.7106 197.582 73.3952 195.69L66.7714 157.216L78.4418 146.81L114.715 160.37L117.08 174.719L86.3272 200.578C84.5924 201.524 84.4347 204.047 85.8541 205.151C86.8004 206.885 88.6928 206.57 90.4276 205.624L118.5 182.13L121.496 200.263L107.46 211.616C106.356 212.404 106.198 215.085 106.987 216.188C107.776 217.292 110.457 217.45 112.191 216.504L122.758 207.674L126.543 229.433C126.858 231.325 129.066 232.114 130.801 231.798C132.063 231.641 133.797 230.064 133.482 228.172L129.697 206.412L143.26 211.143C144.679 211.616 146.572 211.3 147.36 209.093C147.833 207.831 146.73 205.466 145.468 204.993L128.435 199.001L125.281 181.026L159.504 193.64C161.396 193.956 163.289 193.64 164.235 191.59C164.551 190.171 163.604 187.806 162.185 187.333L124.019 173.457L121.496 159.266L151.145 134.195L165.497 140.03L172.278 178.661C172.594 180.553 174.013 181.499 175.906 181.184C177.798 180.868 179.375 179.292 179.06 177.399L173.067 142.71L190.099 148.702L192.938 165.416C193.253 167.308 194.831 168.254 196.565 167.939C198.458 167.623 199.562 166.204 199.246 164.312L196.881 151.382L216.752 158.793C218.171 159.109 220.537 158.163 221.01 156.743C221.168 154.851 220.852 152.959 218.96 152.644L198.3 144.602L210.128 134.984C211.232 133.565 211.39 131.515 210.601 130.411C209.813 129.307 208.393 128.834 207.132 128.992C207.132 128.992 206.501 129.15 206.028 129.938L190.888 142.079L173.855 136.088L202.874 111.174C204.608 110.228 204.924 108.336 203.347 106.759C202.558 106.129 201.927 105.656 200.666 105.813C200.035 105.971 199.404 106.129 198.773 106.129L166.916 133.407L153.196 128.204L146.73 90.2031L159.662 79.6386L196.565 93.199C198.616 93.9874 200.35 93.0413 200.666 91.1492C201.612 89.7301 200.666 87.9956 198.616 87.0495L165.181 74.9083L179.06 62.9247L195.461 68.9165C196.881 69.3895 198.616 68.4435 199.719 67.0244C200.035 64.9745 199.562 63.0824 197.669 62.9247L185.368 57.879L200.35 45.107C202.085 44.161 201.77 42.2688 200.823 40.5344C200.193 40.0613 198.773 39.5883 197.512 39.9036C197.512 39.9036 196.881 39.9036 196.25 40.0613L180.006 53.7794L177.325 38.1692C177.167 36.9077 175.59 35.331 173.698 35.6463C171.963 35.9617 171.017 38.0115 171.174 39.2729L174.486 58.5097L160.608 70.4933L153.984 32.6504C153.669 30.7583 151.618 29.8122 149.726 30.1276C147.833 30.4429 146.887 32.0197 147.203 33.7542L154.457 75.3813L142.629 85.1574L106.356 71.597L103.517 55.5138L134.901 29.4969C136.005 28.0777 136.321 26.1856 135.375 24.2935C134.586 23.8204 133.167 23.5051 132.063 23.6627C131.432 23.8204 130.801 23.8204 130.17 24.6088L102.256 47.9452L99.1016 29.9699L113.138 17.9863C114.242 17.0402 114.557 15.1481 113.611 13.4136C112.034 12.3099 110.141 11.9945 109.037 12.9406L97.84 22.559L94.3703 2.69149C94.2126 1.43007 92.0047 -0.146727 90.7431 0.0109515C88.8506 0.326309 87.4312 2.53381 87.5889 3.79524L91.0585 23.6627L77.9687 18.3017C77.3379 18.3017 76.707 18.4594 76.0762 18.617C74.8145 18.7747 73.7106 19.7208 73.2374 20.3515C72.922 22.4013 73.8683 24.1358 75.2876 25.0819L92.3202 31.0736L95.4743 49.2067L61.2516 36.5924C59.2014 35.6463 57.4666 36.5924 56.9935 37.8538C56.0472 39.9036 56.9935 41.7958 58.4129 42.7419L96.736 56.6176L99.5747 72.8585L69.9256 97.7717L55.5741 92.5683L48.3195 50.9411C48.0041 49.049 46.5847 47.9453 44.6922 48.2606C42.7997 48.7336 41.8535 50.1527 42.1689 52.0449L48.6349 89.8877L31.6024 83.2653L28.1328 64.0285C27.9751 62.767 25.7672 61.1902 23.8747 61.5056C22.1399 61.821 21.1937 63.8708 21.3514 65.1322L24.0324 80.7424L4.16116 73.3315C3.53032 73.3315 3.53034 73.3315 2.89951 73.4892C1.79555 73.6469 0.533905 74.5929 0.0607796 75.2236C-0.254637 77.2735 0.691594 79.0079 2.11097 79.3233ZM100.836 80.2694L104.148 77.7465L107.618 79.0079L137.109 90.0454L140.421 91.3069L141.052 95.0911L146.414 125.523L147.045 129.15L144.206 131.673L120.235 151.698L117.396 154.221L113.453 152.959L84.5924 141.922L80.492 140.66L79.8612 137.034L74.6568 106.602L74.026 102.817L77.3379 100.295L100.836 80.2694Z" fill="#D3D6FF"/>
</svg>
