<svg width="215" height="362" viewBox="0 0 215 362" fill="none" xmlns="http://www.w3.org/2000/svg">
<g clip-path="url(#clip0_1262_1755)">
<path opacity="0.25" d="M23.1183 273.384C24.3242 276.897 27.7949 277.897 30.3342 281.114C31.8168 282.991 34.7316 287.034 38.4382 288.337C41.3144 289.349 44.802 289.445 47.748 288.667C51.2861 287.732 76.7173 296.483 76.7173 296.483C76.7173 296.483 93.6786 301.319 97.4863 302.088L102.991 305.398C105.212 307.041 107.535 308.289 108.758 308.983C109.98 309.677 110.394 308.579 109.795 308.138C108.548 307.22 106.856 305.863 105.61 304.948C108.823 306.285 113.004 308.171 114.123 308.648C115.242 309.125 116.063 308.188 114.963 307.61C112.806 306.482 108.086 304.085 108.086 304.085C108.086 304.085 116.794 307.14 117.577 307.412C118.359 307.685 119.452 306.853 117.923 306.292C116.713 305.849 109.913 302.9 109.913 302.9C109.913 302.9 118.977 305.205 119.866 305.451C120.754 305.697 121.507 304.909 120.044 304.34C118.58 303.769 114.258 302.29 114.258 302.29C114.258 302.29 113.348 301.076 112.695 300.512C111.656 299.613 109.439 299.353 108.151 298.881C105.906 298.057 101.922 297.914 101.922 297.914C98.9714 297.196 80.472 291.17 80.472 291.17C80.472 291.17 59.8643 280.781 56.7257 279.882C57.7775 277.027 61.2699 274.88 64.2929 274.174C67.3136 273.469 71.1285 273.481 72.9698 270.98C73.3862 270.416 74.2719 268.402 74.2719 268.402C74.2719 268.402 80.2289 270.594 82.6045 270.435C84.9801 270.276 87.4737 269.136 88.4557 266.963C89.8011 264.074 86.1547 261.752 83.9043 260.017C81.6538 258.284 77.3864 256.369 76.8376 255.73C76.2889 255.094 77.0374 254.131 77.928 253.94C78.8185 253.75 79.8077 254.306 80.1086 255.167C80.2338 255.526 80.253 255.926 80.4576 256.244C80.8018 256.781 81.5744 256.897 82.1713 256.677C82.7706 256.458 83.2351 255.988 83.678 255.53C84.299 254.892 84.9344 254.227 85.2377 253.388C85.5409 252.552 85.4182 251.49 84.7106 250.95C84.1714 250.538 83.4205 250.509 82.8476 250.143C82.2483 249.762 81.8897 249.044 81.2326 248.774C80.7994 248.596 80.3108 248.647 79.8438 248.702C75.5692 249.196 71.2946 249.692 67.02 250.186C63.6551 250.577 60.1531 251.013 57.313 252.861C56.3358 253.497 55.4573 254.29 54.4151 254.812C52.4607 255.795 50.1717 255.723 47.9983 255.971C45.7022 256.234 43.4493 256.88 41.3601 257.87C40.342 258.354 39.3432 258.935 38.6139 259.795C38.0916 260.409 37.7305 261.142 37.2492 261.79C35.7641 263.797 25.5589 267.431 23.6527 269.922C22.8825 270.927 22.7116 272.182 23.1231 273.379L23.1183 273.384Z" fill="black"/>
<path opacity="0.25" d="M99.041 305.225C100.822 304.278 104.459 302.668 106.269 301.945C108.079 301.22 113.605 298.389 114.592 298.025C115.579 297.664 116.664 297.664 117.355 296.707C118.046 295.753 127.093 279.581 130.054 275.762C133.014 271.941 136.567 267.267 136.567 267.267C136.567 267.267 131.575 265.819 130.781 263.347C129.986 260.877 126.665 259.048 135.294 255.058C143.922 251.068 154.857 249.174 159.155 249.876C163.454 250.579 173.279 260.59 175.385 261.643C177.491 262.696 183.843 265.243 188.255 266.65C192.667 268.055 195.035 271.726 199.598 274.237C204.159 276.748 206.793 278.242 208.723 280.437C210.653 282.632 211.354 283.687 211.443 284.653C211.532 285.619 211.443 288.342 211.443 288.342C211.443 288.342 213.284 288.694 213.724 289.836C214.162 290.978 208.022 293.611 205.303 293.611C204.041 293.611 199.533 292.922 197.791 292.378C196.048 291.833 194.929 291.24 194.929 291.24C194.929 291.24 193.68 292.985 189.403 293.052C185.126 293.117 180.411 293.173 178.579 285.665C178.579 285.665 168.369 284.699 160.826 279.519C153.28 274.338 152.315 273.107 152.315 273.107C152.315 273.107 143.893 280.22 140.976 282.022C140.976 282.022 137.159 287.029 135.12 289.795C133.082 292.561 126.896 298.16 125.644 300.333C124.395 302.507 123.757 304.68 120.951 306.393C118.144 308.106 112.748 308.983 112.748 308.983C112.748 308.983 109.217 311.925 108.515 312.431C107.812 312.937 105.641 312.475 106.649 311.508C107.658 310.542 110.883 307.14 110.883 307.14C110.883 307.14 104.478 311.026 104.062 311.246C103.645 311.465 102.637 311.817 102.153 311.289C101.672 310.761 102.175 310.236 102.832 309.795C103.489 309.357 108.38 305.646 108.38 305.646C108.38 305.646 102.107 308.851 101.383 309.203C100.658 309.554 99.8594 309.783 99.3539 309.236C98.8485 308.687 99.5513 308.282 99.958 308.039C100.365 307.798 105.999 304.405 105.999 304.405C105.999 304.405 100.976 306.041 100.155 306.239C99.3322 306.437 98.9495 306.502 98.6318 306.053C98.3141 305.605 98.8942 305.304 99.0362 305.227L99.041 305.225Z" fill="black"/>
<path d="M174.892 45.1307C174.892 45.1307 170.752 42.5984 165.291 42.9285C162.138 43.1189 154.862 45.0199 148.941 55.59C143.947 64.5048 130.913 84.3367 130.913 84.3367C130.913 84.3367 117.341 119.399 116.787 120.849C116.234 122.299 125.946 126.514 126.735 123.813C127.525 121.112 130.437 114.592 131.9 112.286C133.809 109.279 136.791 105.677 138.37 102.429C139.949 99.1787 141.441 93.6467 142.669 91.6276C143.896 89.6085 158.987 68.1792 164.338 61.3292L174.894 45.1331L174.892 45.1307Z" fill="#333333"/>
<path d="M117.456 121.085L117.225 121.637C117.225 121.637 107.749 125.82 107.092 126.28C106.435 126.74 106.368 128.516 107.092 129.193C107.817 129.87 113.112 132.176 114.132 132.241C115.153 132.306 118.344 131.154 120.318 130.561C122.292 129.969 124.826 127.829 125.449 125.424L125.825 124.398C126.186 122.916 118.154 118.941 117.456 121.085Z" fill="#F2B08F"/>
<path d="M107.092 126.28C107.092 126.28 102.822 129.588 102.7 129.74C102.577 129.891 100.512 132.029 100.353 132.226C100.194 132.424 98.4636 134.631 98.3986 134.756C98.194 135.139 99.0845 136.021 100.17 135.664C101.256 135.31 102.375 133.737 102.375 133.737L104.991 131.465C104.991 131.465 107.757 129.749 108.741 128.978C109.728 128.207 108.142 125.745 107.097 126.277L107.092 126.28Z" fill="#F2B08F"/>
<path d="M108.563 126.665C108.563 126.665 103.852 130.099 103.715 130.265C103.578 130.434 101.282 132.812 101.106 133.031C100.93 133.25 98.9568 135.467 98.8701 135.599C98.7835 135.732 99.4189 136.917 100.625 136.522C101.831 136.127 103.104 134.612 103.104 134.612L105.978 132.152C105.978 132.152 109.114 130.087 110.211 129.231C111.309 128.376 109.73 126.07 108.567 126.663L108.563 126.665Z" fill="#F2B08F"/>
<path d="M110.777 128.255C110.777 128.255 105.826 131.294 105.689 131.46C105.552 131.629 103.759 133.677 103.583 133.896C103.407 134.115 101.696 136.804 101.609 136.937C101.347 137.332 102.158 138.255 103.364 137.859C104.57 137.464 106.216 135.566 106.216 135.566L108.618 133.096C108.618 133.096 111.401 131.764 112.491 130.899C113.771 129.882 111.94 127.663 110.78 128.255H110.777Z" fill="#F2B08F"/>
<path d="M112.847 129.542C112.847 129.542 109.742 132.506 109.478 132.802C109.215 133.098 108.031 135.322 107.947 135.436C107.863 135.549 106.565 137.708 106.385 138.153C106.204 138.599 107.157 139.799 108.26 139.124C109.362 138.45 110.481 136.604 110.481 136.604L112.125 134.436C112.125 134.436 114.214 132.804 115.045 132.137C115.957 131.405 113.959 128.689 112.845 129.545L112.847 129.542Z" fill="#F2B08F"/>
<path d="M118.19 129.891L115.406 133.559C115.406 133.559 112.972 134.889 112.51 135.749C112.05 136.611 111.983 137.553 112.51 138.038C113.037 138.52 114.178 138.455 114.835 138.038C115.492 137.621 117.642 136.346 117.642 136.346C117.642 136.346 121.897 132.92 122.181 132.614C122.465 132.308 125.442 130.169 125.315 125.858C125.187 121.548 120.941 126.494 118.19 129.891Z" fill="#F2B08F"/>
<path d="M147.554 263.325C154.881 260.785 155.639 259.116 157.57 259.214C159.158 259.294 160.814 259.27 162.523 258.612C165.601 257.427 166.696 255.909 165.568 252.08C164.441 248.252 164.424 247.22 164.198 246.016C163.916 244.502 154.587 241.418 151.584 245.351C150.481 246.794 146.325 250.528 141.937 251.817C137.549 253.107 129.378 255.812 130.988 261.327C132.899 267.879 143.93 264.58 147.552 263.325H147.554Z" fill="#262626"/>
<path d="M150.739 115.654C149.593 119.372 148.18 139.038 149.085 154.316C149.99 169.594 151.177 189.399 151.29 192.681C151.403 195.962 150.272 242.023 150.103 246.098C149.935 250.172 165.722 250.088 166.003 245.702C166.441 238.893 166.542 231.477 167.739 222.671C169.096 212.684 170.564 209.373 171.604 188.876C171.604 188.876 177.347 166.878 179.537 148.798C181.727 130.718 181.26 129.022 181.282 120.025C181.318 105.118 155.201 101.174 150.736 115.654H150.739Z" fill="#303030"/>
<path d="M187.282 292.373C199.326 292.705 197.244 282.118 196.397 277.943C196.132 276.639 194.724 269.406 194.587 268.083C194.479 267.04 193.906 261.814 193.767 258.846C193.598 255.181 183.511 254.957 183.309 259.566C183.078 264.874 181.759 271.994 181.147 275.068C180.984 275.89 180.777 276.699 180.529 277.497C179.494 280.817 176.767 292.084 187.28 292.373H187.282Z" fill="#262626"/>
<path d="M163.387 125.853C163.387 146.338 174.218 200.263 175.371 206.545C175.751 208.614 176.242 217.081 177.181 226.916C178.599 241.792 181.927 260.947 181.858 262.368C181.646 266.698 195.339 267.334 195.127 262.368C194.578 249.524 195.909 229.971 195.608 223.974C195.257 217.014 194.958 210.168 195.298 204.227C195.637 198.285 196.434 154.231 196.058 144.471C195.683 134.71 195.666 130.238 193.403 123.591C191.334 117.502 163.387 112.158 163.387 125.853Z" fill="#3B3B3B"/>
<path opacity="0.25" d="M195.127 262.368C195.194 263.913 193.911 264.915 192.123 265.436C191.649 248.926 190.334 202.229 190.123 188.269C189.913 174.172 186.481 132.612 185.294 118.594C189.463 119.791 192.744 121.654 193.403 123.591C195.663 130.238 195.68 134.71 196.058 144.471C196.434 154.231 195.637 198.285 195.297 204.227C194.96 210.168 195.259 217.016 195.608 223.977C195.911 229.974 194.58 249.529 195.129 262.371L195.127 262.368Z" fill="black"/>
<path d="M191.02 111.631C191.025 115.288 194.221 124.974 194.221 124.974C195.586 129.72 187.388 133.402 183.525 133.932C173.048 135.375 149.785 123.401 149.834 117.746C149.862 114.083 156.077 105.05 155.215 98.7209C150.712 65.6107 147.162 59.4161 159.581 47.9449C163.327 44.4874 170.497 42.5334 174.889 45.1283C174.889 45.1283 200.227 59.7727 202.607 61.1485C215.055 68.343 190.991 95.2658 191.018 111.631H191.02Z" fill="#F1F2F2"/>
<path d="M172.55 55.2117L169.815 53.0095L168.675 57.7392C168.675 57.7392 162.215 69.673 158.958 109.356L162.077 116.936L167.122 114.074C165.288 87.8713 172.261 59.5005 172.261 59.5005L177.347 56.8935C176.141 56.5803 172.547 55.2117 172.547 55.2117H172.55Z" fill="#ED4944"/>
<path d="M187.239 40.6251C186.647 49.9158 189.511 53.6263 189.511 53.6263C189.511 53.6263 181.628 60.1872 172.571 55.2262C167.413 52.3999 172.834 47.0318 174.889 45.1283C180.661 39.7891 187.417 37.7917 187.236 40.6251H187.239Z" fill="#F2B08F"/>
<path opacity="0.05" d="M172.574 55.2262C172.574 55.2262 173.262 60.9967 172.574 62.958C172.574 62.958 185.778 62.0521 190.996 54.472C190.996 54.472 176.422 58.4404 172.574 55.2262Z" fill="black"/>
<path d="M172.574 55.2262C172.574 55.2262 174.015 58.1946 173.618 62.0521C173.618 62.0521 186.863 60.1968 190.996 54.472L187.732 49.1231C187.732 49.1231 182.789 54.3564 172.574 55.2262Z" fill="#F1F2F2"/>
<path opacity="0.05" d="M172.574 55.2262C172.574 55.2262 167.065 56.8839 165.967 59.4162C165.967 59.4162 165.825 47.7257 173.467 46.4294C173.467 46.4294 170.037 51.4169 172.571 55.2286L172.574 55.2262Z" fill="black"/>
<path d="M172.574 55.2262C172.574 55.2262 169.033 55.0407 166.347 57.7392C166.347 57.7392 166.797 49.2966 174.892 45.1283C174.892 45.1283 171.159 50.7615 172.574 55.2262Z" fill="#F1F2F2"/>
<path d="M190.553 53.747C190.553 53.747 177.318 63.5678 173.469 81.7444C168.898 103.328 172.405 122.83 169.719 141.698C174.223 144.476 195.952 142.895 195.952 132.841C195.952 123.543 190.601 113.52 192.472 107.684C195.134 99.3717 203.952 77.899 206.564 71.8658C208.8 66.7025 207.074 63.6738 201.916 60.7488C196.758 57.8238 190.556 53.7494 190.556 53.7494L190.553 53.747Z" fill="#424242"/>
<path d="M170.983 105.113V105.118C170.983 105.118 176.625 84.9728 180.608 81.0503L177.597 75.8483L184.088 72.5065C184.673 65.7529 192.286 54.8696 192.286 54.8696C191.747 54.3708 190.633 53.7878 190.553 53.7468C190.551 53.7468 190.548 53.7444 190.548 53.7444C190.548 53.7444 177.313 63.5652 173.464 81.7418C171.76 89.794 171.18 97.5596 170.98 105.111L170.983 105.113Z" fill="#808080"/>
<path opacity="0.25" d="M205.086 75.3424C205.031 75.4749 204.973 75.6074 204.918 75.7448C204.86 75.8797 204.802 76.017 204.744 76.1592C204.638 76.417 204.528 76.6796 204.415 76.9495C204.234 77.3783 204.051 77.8193 203.863 78.2795C203.784 78.4722 203.702 78.6698 203.62 78.8698C203.553 79.0312 203.488 79.1902 203.421 79.3541C203.375 79.4649 203.329 79.5757 203.283 79.689C203.204 79.8817 203.122 80.0769 203.043 80.2745C202.963 80.472 202.881 80.6696 202.8 80.8696C202.73 81.0382 202.66 81.2069 202.593 81.378C202.578 81.4093 202.566 81.443 202.552 81.4743C202.301 82.0815 202.049 82.7032 201.791 83.3392C201.767 83.3947 201.745 83.4525 201.721 83.5079C201.656 83.6645 201.594 83.8211 201.531 83.9777C201.315 84.5126 201.093 85.0499 200.874 85.5969C200.785 85.8137 200.696 86.0354 200.609 86.2546C200.566 86.363 200.52 86.4739 200.477 86.5847C200.212 87.2401 199.947 87.9003 199.68 88.5653C199.675 88.5701 199.675 88.5773 199.673 88.5845C199.538 88.9194 199.403 89.2568 199.271 89.5941C199.254 89.635 199.237 89.676 199.221 89.7169C198.477 91.5818 197.735 93.4588 197.025 95.2827C196.982 95.3911 196.939 95.502 196.898 95.6104C196.599 96.3766 196.308 97.1307 196.027 97.8704C195.913 98.162 195.803 98.4511 195.694 98.7378C195.487 99.2823 195.285 99.8196 195.086 100.345C195.025 100.506 194.965 100.663 194.905 100.822C194.891 100.863 194.874 100.901 194.862 100.94C194.787 101.138 194.715 101.33 194.645 101.525C194.607 101.624 194.57 101.723 194.534 101.822C194.474 101.986 194.414 102.15 194.356 102.309C194.347 102.333 194.337 102.359 194.33 102.383C194.224 102.665 194.123 102.94 194.026 103.212C193.697 104.118 193.393 104.969 193.121 105.752C193.093 105.829 193.066 105.908 193.042 105.985C192.83 106.6 192.64 107.168 192.474 107.689C192.46 107.739 192.443 107.79 192.431 107.843C190.698 113.7 195.957 123.629 195.957 132.848C195.957 142.9 174.227 144.485 169.724 141.705C171.994 125.764 169.842 109.371 171.878 91.6517C178.391 86.4811 190.496 69.5261 190.496 69.5261C190.496 69.5261 198.727 69.8586 205.093 75.3496L205.086 75.3424Z" fill="black"/>
<path d="M174.892 45.1283C174.892 45.1283 163.962 51.0603 160.195 70.432C156.429 89.8037 155.519 129.802 156.039 134.053C156.039 134.053 146.75 127.627 147.304 124.188C147.858 120.75 154.289 105.848 154.342 101.234C154.395 96.6199 149.562 73.7112 150.715 62.9604C151.848 52.3614 159.464 47.2028 162.761 45.5692C166.116 43.9067 170.62 42.6611 174.892 45.1307V45.1283Z" fill="#424242"/>
<path d="M157.134 97.2753C157.817 87.4063 158.814 77.5349 160.195 70.4344C163.96 51.0603 174.892 45.1307 174.892 45.1307C174.795 45.0753 174.699 45.0199 174.603 44.9693C174.603 44.9693 165.098 48.0437 160.164 58.2452L160.26 65.1024L156.948 66.8564C156.948 66.8564 155.461 83.7681 157.134 97.2729V97.2753Z" fill="#808080"/>
<path d="M193.967 27.6721C191.574 35.9316 187.976 40.1939 185.039 42.8153C179.53 47.7329 174.642 49.9544 170.815 50.6097C169.443 50.8435 167.469 49.9713 167.058 48.6894C166.564 47.1571 165.962 46.1837 165.086 43.861C165.086 43.861 163.613 43.008 163.399 42.4202C163.173 41.7961 164.037 40.9649 163.84 40.1553C163.688 39.5337 163.498 38.9337 163.346 38.182C163.024 36.5845 161.385 25.3639 161.734 23.2436C162.545 18.314 162.829 14.2854 165.719 12.1121C169.173 9.51719 172.75 7.18246 179.754 7.28366C188.578 7.41136 197.047 17.0273 193.964 27.6697L193.967 27.6721Z" fill="#FFC39E"/>
<path d="M165.84 26.4843C177.034 30.1875 184.178 27.5516 183.822 29.7996L183.617 37.3507C183.612 37.5459 183.802 37.6856 183.985 37.623C184.772 37.3531 185.36 36.6857 185.523 35.8689C186.031 33.3535 187.858 28.154 189.957 30.2213C192.809 33.0307 187.239 40.6251 187.239 40.6251C187.239 40.6251 192.304 36.5942 194.624 27.9974C197.216 18.3886 192.79 15.1865 192.79 15.1865C192.79 15.1865 187.923 6.27892 178.435 6.74635C168.651 7.22823 165.164 10.7098 163.982 12.606C163.257 13.7698 162.09 14.7287 160.725 14.842C160.285 14.8781 159.823 14.8613 159.36 14.7528C159.36 14.7528 157.94 23.8701 165.842 26.4843H165.84Z" fill="#AD5B32"/>
<path d="M165.84 26.4843C177.034 30.1875 184.178 27.5516 183.819 29.802L183.612 37.3531C183.607 37.5483 183.797 37.6881 183.983 37.6254C184.378 37.4905 184.719 37.2568 184.986 36.9532C185.251 36.6496 185.439 36.2785 185.521 35.8689C186.029 33.3535 187.855 28.154 189.957 30.2213C192.775 32.9969 187.374 40.4396 187.242 40.6227C187.396 40.4974 192.34 36.4617 194.624 27.9974C194.872 27.0746 195.054 26.2144 195.184 25.4073C192.108 27.1083 189.653 26.1325 188.108 24.9712C186.772 23.9713 185.095 23.5327 183.441 23.7568C180.721 24.1255 176.04 24.2002 169.363 22.3618C159.136 19.5452 159.358 14.7528 159.358 14.7528C159.358 14.7528 157.935 23.8701 165.84 26.4843Z" fill="#85391C"/>
<path d="M204.85 152.494C204.85 152.494 203.522 153.509 202.8 154.135C202.078 154.761 200.027 157.583 198.737 160.385L196.003 165.568C196.003 165.568 194.219 169.071 194.048 169.459C194.048 169.459 194.349 170.827 196.188 170.093C197.488 169.572 198.814 167.16 198.814 167.16C198.814 167.16 202.092 163.558 202.27 163.459C202.27 163.459 203.56 163.65 204.112 163.65C204.663 163.65 209.409 163.484 209.903 158.727C210.396 153.971 205.503 151.991 204.853 152.494H204.85Z" fill="#FFC39E"/>
<path d="M214.172 167.555C214.172 167.555 209.915 170.864 209.623 171.117C208.976 171.676 207.683 171.401 206.887 170.43C206.09 169.459 204.942 167.739 204.889 167.608C204.737 167.247 205.859 163.592 205.946 163.296C206.032 162.999 206.776 162.746 207.645 163.561C207.645 163.561 208.069 164.047 207.982 164.765C207.912 165.346 207.522 166.854 207.522 166.854L208.331 167.975C208.331 167.975 211.308 165.153 211.91 164.669C212.512 164.185 215.674 166.247 214.175 167.555H214.172Z" fill="#F2B08F"/>
<path d="M211.874 168.172C211.874 168.172 208.528 172.353 208.304 172.666C207.809 173.355 206.487 173.381 205.479 172.618C204.47 171.854 202.942 170.442 202.858 170.326C202.622 170.008 202.836 166.201 202.85 165.893C202.865 165.585 203.524 165.173 204.567 165.765C204.567 165.765 205.096 166.144 205.183 166.859C205.253 167.44 205.236 168.996 205.236 168.996L206.29 169.902C206.29 169.902 208.509 166.486 208.976 165.878C209.443 165.271 213.015 166.563 211.871 168.175L211.874 168.172Z" fill="#F2B08F"/>
<path d="M210.49 167.982C210.49 167.982 208.805 173.018 208.701 173.384C208.475 174.196 207.243 174.656 206.027 174.268C204.812 173.88 202.881 173.056 202.761 172.977C202.429 172.755 201.3 169.105 201.204 168.808C201.11 168.514 201.587 167.907 202.773 168.124C202.773 168.124 203.401 168.305 203.736 168.951C204.005 169.473 204.533 170.943 204.533 170.943L205.842 171.447C205.842 171.447 206.735 167.5 206.964 166.775C207.192 166.05 211.002 166.086 210.49 167.98V167.982Z" fill="#F2B08F"/>
<path d="M204.102 167.567C204.102 167.567 203.743 172.28 203.762 172.815C203.762 172.815 203.019 174.164 202.715 174.521C202.715 174.521 201.149 174.854 200.446 175.962C200.446 175.962 200.207 176.762 200.812 176.873C201.096 176.926 203.919 176.993 204.489 176.743C205.06 176.494 206.699 173.492 206.699 173.492C206.699 173.492 207.635 168.748 207.801 167.813C207.965 166.878 204.217 166.047 204.104 167.57L204.102 167.567Z" fill="#FFC39E"/>
<path d="M204.85 148.733V152.494C204.85 152.494 203.577 160.756 203.584 163.411C203.587 164.522 203.514 166.939 204.318 167.898C204.699 168.351 209.368 168.464 211.267 168.389C213.166 168.314 214.723 167.799 214.988 166.047C215.125 165.146 213.905 155.978 213.963 152.974C213.968 152.752 213.698 148.658 213.659 147.81C213.621 146.962 204.85 146.261 204.85 148.733Z" fill="#FFC39E"/>
<path d="M205.093 62.958C207.919 65.4397 211.513 70.656 211.775 81.5225C212.037 92.3914 213.332 108.905 213.311 110.582C213.289 112.259 214.524 150.287 214.565 152.526C214.606 154.764 203.199 155.017 203.156 152.689C203.113 150.362 202.15 142.893 201.512 137.64C201.052 133.877 200.13 127.015 200.041 123.456C199.955 119.9 200.085 113.84 199.56 111.688C199.033 109.537 191.415 86.245 190.289 73.916C189.162 61.587 201.146 59.4884 205.093 62.9556V62.958Z" fill="#424242"/>
<path d="M80.7146 127.605L79.1405 133.421L76.3582 137.238L73.3857 139.375C73.3857 139.375 72.1846 139.042 72.5721 137.778C72.9596 136.513 74.4808 135.38 74.4808 135.38C74.4808 135.38 75.5591 133.453 76.3919 132.648C76.3919 132.648 76.9406 127.586 77.1163 126.581C77.292 125.574 81.1695 125.897 80.7146 127.603V127.605Z" fill="#F2C1A5"/>
<path d="M78.4088 126.357L76.8635 131.07L74.6324 134.281L72.4397 136.209C72.4397 136.209 71.2362 135.925 71.513 134.879C71.7874 133.833 72.974 132.715 72.974 132.715C72.974 132.715 73.7081 130.896 74.3628 130.214C74.3628 130.214 75.0897 126.863 75.4387 125.632C75.6673 124.829 78.7265 124.947 78.4088 126.354V126.357Z" fill="#F2C1A5"/>
<path d="M81.5015 128.446L80.4256 134.402L78.4929 139.146L75.9921 141.789C75.9921 141.789 74.755 141.642 74.9427 140.334C75.1305 139.026 76.4615 137.676 76.4615 137.676C76.4615 137.676 77.328 135.291 77.8839 134.089C77.8839 134.089 77.7636 128.362 77.7829 127.34C77.8021 126.318 81.6892 126.692 81.5015 128.448V128.446Z" fill="#F2C1A5"/>
<path d="M83.2608 129.494L82.1849 135.45L79.7107 139.295L77.2099 141.939C77.2099 141.939 75.9728 141.792 76.1605 140.483C76.3482 139.175 77.6793 137.826 77.6793 137.826C77.6793 137.826 78.6468 136.023 79.3472 135.103C79.3472 135.103 79.5229 129.41 79.5422 128.388C79.5614 127.366 83.4486 127.74 83.2608 129.496V129.494Z" fill="#FFD2B3"/>
<path d="M79.4435 112.765L80.3317 116.652C81.4196 117.753 83.1405 125.169 83.2633 129.496C83.2633 129.496 82.7121 130.578 80.1849 129.711C76.7213 128.521 75.6719 126.62 75.3085 126.34C74.9451 126.061 72.9112 121.3 72.8318 120.018C72.75 118.736 72.8727 116.934 73.5587 115.131C73.5587 115.131 73.3613 113.97 73.1977 113.05C73.034 112.129 79.0416 110.99 79.4483 112.77L79.4435 112.765Z" fill="#FFD2B3"/>
<path d="M80.854 127.627L79.9274 133.233C79.9274 133.233 78.4953 136.238 78.3148 136.819C78.1342 137.399 76.5 137.158 76.5601 135.597C76.6203 134.036 77.1859 132.713 77.1859 132.713C77.1859 132.713 76.6997 128.087 76.5601 127.627C76.4205 127.166 75.2917 124.682 75.3326 122.179C75.3735 119.676 76.098 118.213 77.4098 118.175C78.7215 118.134 80.3341 118.683 81.114 122.02C81.8938 125.357 80.8588 127.627 80.8588 127.627H80.854Z" fill="#FFD2B3"/>
<path d="M57.0019 38.7048C63.4476 39.8517 67.4743 47.3185 68.011 54.4238C68.555 61.6111 72.1051 80.6334 72.1051 80.6334C72.1051 80.6334 80.3295 111.775 80.9745 114.36C81.6196 116.946 73.1666 119.155 72.2472 115.763C71.3277 112.37 62.468 95.6007 60.2031 85.6233C58.4124 77.7397 44.8905 42.5984 47.3744 41.1721C51.9065 38.5675 55.8827 38.5072 56.9995 38.7048H57.0019Z" fill="#8161DA"/>
<path d="M88.6746 265.383C87.8875 268.655 84.6912 271.708 73.0153 266.404C69.0103 264.585 67.6528 261.598 65.7754 260.477C63.9005 259.357 61.1711 259.456 58.3093 259.159C55.4451 258.863 54.5569 257.347 55.3151 253.76C55.8639 251.158 56.6172 247.64 56.9927 245.9C57.1347 245.24 57.2214 244.835 57.2214 244.835V240.241C57.3008 236.875 66.2688 237.59 66.3025 239.301C66.3362 241.014 67.0607 243.122 67.0607 243.122C67.0607 243.122 69.1667 246.613 71.1043 248.854C72.8204 250.83 77.8989 254.765 81.6681 257.328C82.1663 257.665 82.6381 257.983 83.0809 258.265C86.8646 260.696 89.2979 262.788 88.6746 265.385V265.383Z" fill="#BBA3E9"/>
<path d="M82.0097 260.528C81.3044 261.424 80.1901 261.742 79.1046 261.785C76.5412 261.886 74.1006 260.547 72.2305 258.788C70.3555 257.031 68.8536 255.771 66.7644 254.282C61.633 250.627 59.5751 249.825 58.5184 249.343C58.492 249.331 58.4655 249.319 58.439 249.307C57.2765 248.76 56.6531 247.476 56.9251 246.218C57.0767 245.515 57.2235 244.83 57.2235 244.83V240.235C57.303 236.87 66.271 237.585 66.3047 239.296C66.3384 241.009 67.0629 243.117 67.0629 243.117C67.0629 243.117 69.1689 246.608 71.1065 248.849C72.8226 250.825 77.9011 254.759 81.6703 257.323C82.2407 258.017 82.6932 258.793 82.402 259.781C82.3226 260.05 82.1854 260.303 82.0121 260.525L82.0097 260.528Z" fill="#FFD2B3"/>
<path d="M68.4951 117.437C69.1546 119.519 72.5315 127.713 71.3016 145.892C70.0741 164.071 67.0029 179.615 67.0895 183.744C67.1762 187.872 67.4409 191.298 66.6515 195.249C66.6515 195.249 67.7923 240.023 67.7923 243.748C67.7923 246.295 56.5185 246.777 56.5185 244.078C56.5185 240.199 55.6857 229.502 53.1416 218.874C50.5975 208.248 48.7322 204.646 52.4268 190.418C52.4268 190.418 47.0883 161.744 44.5875 149.89C42.0868 138.033 40.7702 127.407 43.141 117.44C45.5094 107.472 64.1724 103.814 68.4951 117.44V117.437Z" fill="black"/>
<path d="M25.4745 258.369C25.4745 258.369 25.0461 263.737 24.389 266.667C23.7319 269.597 22.6127 272.298 25.7705 274.242C28.9284 276.184 29.157 276.76 31.2534 280.039C34.652 285.352 40.739 289.426 47.9765 287.417C55.214 285.407 51.943 279.535 50.0199 277.372C48.0968 275.208 39.0614 267.657 37.2634 264.672C35.4655 261.687 34.6327 259.819 34.6327 258.13C34.6327 255.364 25.4769 255.343 25.4769 258.371L25.4745 258.369Z" fill="#9669E7"/>
<path d="M46.3492 277.777C45.7595 278.155 45.0663 278.34 44.3804 278.48C42.1131 278.94 39.7182 278.955 37.528 278.205C33.5927 276.861 30.8079 273.187 29.4697 269.242C29.3325 268.842 29.1977 268.346 29.0726 267.835C28.6634 266.17 27.6742 264.691 26.2685 263.71C25.5874 263.236 25.0434 262.53 25.171 261.506V261.501C25.366 259.754 25.4767 258.374 25.4767 258.374C25.4767 255.581 33.2389 255.381 34.4688 257.525C34.5579 257.721 34.6132 257.896 34.6325 258.043C34.6325 258.072 34.6349 258.104 34.6349 258.13C34.6349 259.822 35.4677 261.686 37.268 264.674C37.3811 264.862 37.5207 265.064 37.6844 265.284C37.7566 265.378 37.8336 265.476 37.9155 265.578C37.954 265.631 37.9973 265.681 38.043 265.734C38.0936 265.799 38.1465 265.862 38.2019 265.927C38.7892 266.623 39.5497 267.423 40.4042 268.279C40.5462 268.421 40.6882 268.563 40.8374 268.705C41.0155 268.881 41.1961 269.057 41.3814 269.238C41.6534 269.498 41.9302 269.763 42.2069 270.025C42.3177 270.131 42.4284 270.235 42.5391 270.339C42.6522 270.445 42.7605 270.548 42.8761 270.657C43.3262 271.081 43.7786 271.502 44.2263 271.914C44.3563 272.033 44.4839 272.151 44.6138 272.273C44.7823 272.428 44.9508 272.582 45.1169 272.736C45.4514 273.044 45.7764 273.343 46.0989 273.637C46.135 273.666 46.1663 273.7 46.2 273.729C46.2264 273.755 46.2553 273.782 46.2866 273.811C47.0039 274.567 47.9883 276.724 46.3492 277.779V277.777Z" fill="#FFD2B3"/>
<path d="M27.1543 119.259C27.1543 119.259 23.5801 123.76 23.5801 131.752C23.5801 139.744 24.5019 161.674 27.1543 189.262C27.1543 189.262 27.2024 197.704 24.3262 205.082C21.4476 212.46 21.6955 220.495 22.0902 226.685C22.4849 232.877 25.0844 256.822 24.9183 260.279C24.7546 263.737 35.588 263.043 35.5543 260.737C35.5206 258.431 35.1163 226.42 39.6557 211.58C39.6557 211.58 41.9591 206.268 43.0783 201.196C44.1975 196.124 54.1981 156.665 56.3041 137.929C58.4101 119.194 58.1454 117.085 56.3041 111.684C54.4628 106.282 35.5134 101.803 27.1567 119.259H27.1543Z" fill="#333333"/>
<path d="M62.2224 47.5305C61.031 44.5718 59.6903 42.69 56.5301 41.0107C53.8079 39.5626 50.058 39.553 46.633 41.5769C43.2754 43.5622 38.0885 46.3379 38.0885 46.3379C38.0885 46.3379 31.2265 50.1231 28.2203 51.9855C17.3243 58.7343 31.4166 86.2932 34.1918 102.198C34.9186 106.359 25.8567 116.951 23.5774 125.294C23.5774 125.294 20.4196 134.209 40.2451 134.209C46.6763 134.209 70.1771 126.328 70.117 119.061C70.0809 114.599 66.6342 106.93 66.6486 103.036C66.6823 94.5768 67.9243 84.8548 67.9243 84.8548C67.9243 84.8548 72.9475 80.6841 72.9475 75.7881C72.9475 72.798 70.5839 68.6346 68.2107 64.6566C65.8399 60.6859 64.5137 53.2119 62.2224 47.5305Z" fill="#9669E7"/>
<path d="M66.6511 103.036C66.6366 106.927 70.0833 114.599 70.1194 119.059C70.1796 126.33 46.6787 134.207 40.2475 134.207C20.422 134.207 23.5798 125.294 23.5798 125.294C25.8592 116.951 34.9211 106.356 34.1942 102.195C32.9474 95.0514 29.4189 85.5583 26.8965 76.6555C33.6671 81.5201 47.9014 90.1025 60.5761 87.0955C67.9315 85.3487 71.9438 79.7444 71.9438 79.7444C70.478 82.7345 67.9267 84.8548 67.9267 84.8548C67.9267 84.8548 66.6872 94.5767 66.6535 103.036H66.6511Z" fill="#8161DA"/>
<path d="M35.6596 47.7281C35.6596 47.7281 44.9984 56.3948 52.6908 52.0144C58.2435 48.8509 52.0722 44.1019 51.4344 39.4638C50.6281 33.5921 45.5856 30.9827 41.364 33.5415C34.5428 37.6784 38.9619 43.4201 35.6572 47.7281H35.6596Z" fill="#F2BEA2"/>
<path d="M52.691 52.0144L50.7631 60.3486C50.7631 60.3486 37.0222 58.5343 32.7451 49.4026L36.7791 45.3717C36.7791 45.3717 39.559 50.5664 52.691 52.012V52.0144Z" fill="#D7C7FC"/>
<path d="M52.6909 52.0144L57.7285 56.3321C57.7285 56.3321 59.8105 45.5717 52.1782 41.8804C52.1782 41.8804 54.5755 46.7643 52.6909 52.0144Z" fill="#D7C7FC"/>
<path d="M35.9635 12.582C27.6116 12.1579 30.081 22.5112 29.9703 27.9034C29.8596 33.2981 27.691 38.9554 25.1541 42.0298C21.9289 45.9331 14.9634 44.273 14.9634 44.273C17.0766 43.7333 18.1068 41.8009 18.3378 39.671C18.954 33.9679 10.1665 14.7119 21.7315 3.91048C28.7958 -2.68649 34.5675 0.34214 37.9901 3.70327C40.1731 5.84283 41.4006 8.11732 41.4006 8.11732C41.4006 8.11732 44.3202 13.0108 35.9635 12.5844V12.582Z" fill="#F93F00"/>
<path d="M35.9635 12.582C27.6116 12.1579 30.081 22.5112 29.9703 27.9034C29.8596 33.2981 27.691 38.9554 25.1541 42.0298C21.9289 45.9331 14.9634 44.273 14.9634 44.273C21.2935 42.9069 24.3117 39.5168 24.8461 33.2644C25.1397 29.8502 23.1588 25.7301 23.3923 22.3088C23.8568 15.5239 27.6092 5.99704 36.6374 3.93217C37.1019 3.82616 37.5616 3.78279 37.9901 3.70087C40.1731 5.84043 41.4006 8.11491 41.4006 8.11491C41.4006 8.11491 44.3202 13.0084 35.9635 12.582Z" fill="#E02D00"/>
<path d="M54.1762 6.69337C58.6506 9.2618 63.5847 15.5528 63.5847 22.1064C63.5847 26.9373 62.9926 27.5734 62.7953 29.9442C62.5979 32.3151 63.0576 35.2353 61.8085 38.3964C60.5593 41.5576 57.671 46.162 56.535 47.8413C55.7455 49.0099 52.5636 48.6533 49.5045 47.398C46.9363 46.3427 37.4628 41.9311 33.4505 34.6209C29.4358 27.3107 25.6209 14.7962 37.0151 7.66677C46.4501 1.76612 54.1762 6.69337 54.1762 6.69337Z" fill="#FFD2B3"/>
<path d="M37.3208 34.3269C38.3822 34.5004 39.3691 33.7511 39.487 32.6813C39.576 31.8597 39.6844 30.8767 39.7903 29.9298C39.9924 28.1251 41.658 26.865 43.4511 27.1397C46.6499 27.6312 52.0124 27.6818 58.5616 24.7423C60.8626 23.7087 62.2995 22.7015 63.19 21.8703C64.2178 20.9113 64.598 19.4536 64.1744 18.114C62.8699 13.9939 58.4509 3.86472 46.5199 3.86472C31.5419 3.86472 28.9111 13.9433 28.9111 21.2535C28.9111 28.5636 32.791 35.8521 37.5952 39.8493L37.3208 34.3293V34.3269Z" fill="#F93F00"/>
<path d="M63.19 21.8679C62.2994 22.6967 60.8625 23.7062 58.5615 24.7399C52.0124 27.6794 46.6499 27.6288 43.4487 27.1372C41.658 26.8626 39.9924 28.1203 39.7902 29.9274C39.6843 30.8767 39.576 31.8573 39.4846 32.6813C39.369 33.7511 38.3798 34.5004 37.3208 34.3269L37.5927 39.8469C32.791 35.8521 28.9087 28.5636 28.9087 21.251C28.9087 20.0174 28.9833 18.7043 29.1807 17.3767C29.1807 17.3767 30.8174 20.7403 32.0834 21.4992C39.848 26.1542 39.0706 21.133 41.6243 21.1908C45.8869 21.2824 51.4708 21.1908 55.5216 19.856C57.2594 19.4199 59.0116 18.3405 60.3884 17.2249C61.2236 16.5455 61.936 15.4636 62.7134 14.4902C63.4066 15.8853 63.8735 17.1599 64.1768 18.1116C64.6004 19.4512 64.2177 20.9113 63.19 21.8703V21.8679Z" fill="#E02D00"/>
<path d="M37.0682 32.3488C37.0682 32.3488 37.8914 38.8687 37.99 39.3626C38.0887 39.8565 36.9214 40.3842 35.3256 39.1819C33.7298 37.9796 31.0991 35.5099 31.0991 32.7921C31.0991 30.0743 32.9572 30.2887 33.8141 30.3393C34.6685 30.3875 36.8083 31.2453 37.0706 32.3488H37.0682Z" fill="#FFD2B3"/>
<path d="M27.5439 52.4578C27.5439 52.4578 24.4126 54.4889 21.3197 59.8258C18.2269 65.1602 20.9033 74.4702 29.7848 80.5299C38.6662 86.5895 62.5304 102.243 62.5304 102.243C62.5304 102.243 95.1341 123.056 96.5253 124.005C98.9491 125.658 104.969 119.468 102.656 117.975C97.8154 114.852 78.2113 99.104 73.7369 95.8754C69.2625 92.6468 68.2757 92.3191 66.1697 90.7385C64.0636 89.158 51.1411 76.4242 42.717 68.343C34.2953 60.2643 27.5415 52.4578 27.5415 52.4578H27.5439Z" fill="#9669E7"/>
<path d="M97.0114 123.651L97.3604 123.856C97.3604 123.856 98.2461 125.581 100.253 126.603C102.261 127.624 105.255 129.137 105.878 129.137C106.502 129.137 109.234 128.446 111.472 127.195C113.708 125.945 114.926 125.383 115.222 124.627C115.518 123.87 115.453 123.244 113.973 122.552C112.492 121.861 106.235 119.006 102.8 118.524L102.581 118.355C99.9454 116.471 94.3398 121.871 97.0138 123.651H97.0114Z" fill="#F7B794"/>
<path d="M109.794 125.417C109.794 125.417 113.534 127.641 113.96 127.921C114.387 128.2 116.324 130.046 116.505 130.226C116.685 130.407 118.264 132.318 118.627 132.662C118.988 133.009 117.773 134.168 116.909 133.626C116.045 133.084 115.041 132.127 115.041 132.127L112.36 130.111C112.36 130.111 108.658 128.268 107.821 127.822C106.981 127.376 108.875 124.808 109.794 125.417Z" fill="#F7B794"/>
<path d="M114.454 122.803C114.454 122.803 117.954 124.347 118.382 124.627C118.811 124.906 121.283 126.653 121.463 126.834C121.644 127.015 123.521 128.448 123.908 128.766C124.445 129.205 123.131 130.588 122.151 130.036C121.263 129.535 119.798 128.458 119.798 128.458L116.683 126.636C116.683 126.636 113.86 125.41 113.01 124.991C112.057 124.519 113.405 122.478 114.457 122.805L114.454 122.803Z" fill="#F7B794"/>
<path d="M112.837 124.099C112.837 124.099 115.715 125.779 116.144 126.058C116.572 126.338 119.285 128.48 119.468 128.66C119.648 128.841 121.754 130.547 122.115 130.891C122.476 131.238 121.128 132.424 120.264 131.879C119.4 131.335 117.436 130.183 117.436 130.183L114.676 128.566C114.676 128.566 111.732 126.892 110.892 126.448C110.052 126.003 111.92 123.49 112.839 124.099H112.837Z" fill="#F7B794"/>
<path d="M107.539 127.263C107.539 127.263 109.71 130.012 109.908 130.308C110.105 130.605 111.405 132.465 111.552 132.73C111.698 132.995 113.049 135.036 113.212 135.342C113.376 135.65 112.51 136.527 111.568 135.901C110.627 135.274 109.826 133.881 109.826 133.881L108.213 131.872C108.213 131.872 105.881 129.554 105.144 128.935C104.408 128.316 106.685 126.176 107.539 127.26V127.263Z" fill="#F7B794"/>
<path opacity="0.25" d="M122.549 303.449C122.253 303.152 121.923 303.102 121.074 303.519C120.224 303.936 113.988 307.015 113.988 307.015C113.988 307.015 120.241 301.868 120.431 301.659C120.621 301.449 121.213 300.719 120.64 300.285C120.068 299.852 119.581 300.025 119.025 300.338C118.469 300.651 111.521 305.694 111.521 305.694C111.521 305.694 116.871 300.374 117.304 299.921C117.738 299.468 118 298.808 117.547 298.461C117.095 298.114 116.488 298.095 115.759 298.618C115.03 299.138 108.534 304.461 108.534 304.461C108.534 304.461 112.043 299.991 112.669 299.261C113.295 298.531 113.225 297.975 112.825 297.748C112.426 297.522 111.557 297.505 110.375 298.514C109.193 299.524 106.866 302.478 105.86 303.557C104.851 304.634 103.08 306.061 102.074 305.853C101.065 305.644 101.171 303.071 101.171 303.071C101.171 303.071 101.624 301.157 101.38 300.707C101.137 300.256 99.0867 299.873 99.0193 300.533C98.9519 301.194 98.1865 302.76 97.4211 305.09C96.6557 307.42 97.0745 311.012 97.0745 311.012C96.1238 313.768 94.2368 317.178 89.3267 322.558C85.2471 327.027 83.0087 333.48 82.4262 334.104C79.6462 337.072 70.6469 341.436 68.6636 341.532C67.6238 341.583 66.5672 341.667 65.5467 341.457C64.1868 341.175 62.993 340.395 61.8281 339.641C57.2742 336.704 52.5206 334.007 47.4421 332.082C44.9293 331.131 42.3395 330.369 39.6919 329.902C38.3609 329.668 37.0179 329.507 35.67 329.432C34.5629 329.372 32.6518 329.817 31.6433 329.458C30.2762 328.972 33.8937 326.03 34.9937 322.616C35.2344 321.869 34.7506 319.392 33.3714 318.708C31.9923 318.023 25.3661 316.985 21.8906 319.086C19.7822 320.358 18.1503 322.278 16.1983 323.777C14.1669 325.336 11.7841 326.43 9.28091 326.957C7.48056 327.336 5.55024 327.451 4.01464 328.461C2.40925 329.516 2.25521 330.882 1.85566 334.027C1.61257 335.933 2.49108 337.255 4.3131 337.865C5.44915 338.246 9.23999 339.395 10.2798 339.992C12.3569 341.185 11.5145 341.496 13.221 343.178C14.6459 344.582 16.6484 345.274 18.61 345.669C24.0231 346.758 28.4999 350.437 33.2631 353.23C36.1658 354.931 39.0685 356.632 41.9712 358.333C43.0977 358.993 44.2313 359.656 45.4492 360.125C46.5636 360.554 47.7357 360.815 48.8694 361.193C52.1066 362.275 58.8363 362.395 68.9982 360.858C74.5605 360.017 81.9159 353.574 82.6621 352.883C87.2929 348.587 88.6865 344.527 92.1115 340.224C95.0551 336.528 105.677 316.999 105.633 314.631C109.383 313.867 113.232 310.226 113.858 309.901C114.484 309.576 121.362 305.282 122.159 304.779C122.958 304.275 122.855 303.752 122.559 303.458L122.549 303.449Z" fill="black"/>
<path d="M15.8519 341.713C18.1457 342.134 23.2194 341.575 23.9559 337.634C24.9042 332.55 29.304 330.126 31.0562 327.924C33.5305 324.813 34.2068 323.454 34.2189 320.493C34.2309 317.033 31.8818 315.98 25.8068 316.585C21.5514 317.009 19.1542 318.539 16.2394 318.515C14.1189 318.498 12.5232 319.312 12.5232 321.457C12.5232 325.941 12.2247 328.516 11.9022 331.928C11.6736 334.352 10.8721 340.797 15.8543 341.713H15.8519Z" fill="#1A1A1A"/>
<path d="M8.63329 206.304C8.63329 206.304 12.0053 212.809 12.4289 213.204C12.7996 213.549 14.3665 213.079 15.517 212.843C15.8491 212.775 15.6831 210.561 14.8743 210.672L14.1812 210.79C14.1812 210.79 11.7767 205.933 11.5649 205.289C11.0955 203.868 8.30836 205.289 8.63088 206.304H8.63329Z" fill="#F2BEA2"/>
<path d="M6.49123 207.872C6.49123 207.872 9.55279 213.78 9.97641 214.175C10.3471 214.52 13.0861 214.496 14.2366 214.26C14.5687 214.192 14.4797 211.946 13.6686 211.857C13.0693 211.792 11.731 211.761 11.731 211.761C11.731 211.761 9.63944 207.501 9.42523 206.858C8.95589 205.436 6.16871 206.858 6.49123 207.872Z" fill="#F2BEA2"/>
<path d="M4.61658 208.677C4.61658 208.677 7.18473 214.79 7.60834 215.185C7.979 215.529 10.9347 214.876 12.0827 214.64C12.4149 214.573 12.297 212.448 11.7289 212.498C11.1296 212.554 9.36056 212.771 9.36056 212.771C9.36056 212.771 7.95493 208.778 7.74313 208.132C7.27379 206.711 4.29165 207.66 4.61418 208.677H4.61658Z" fill="#F2BEA2"/>
<path d="M2.16379 209.496C2.16379 209.496 5.97871 214.233 6.4986 214.486C6.9535 214.708 9.45907 214.674 10.4194 214.472C10.7516 214.402 11.1944 212.652 10.6433 212.503C10.0921 212.354 7.97883 212.086 7.97883 212.086C7.97883 212.086 5.68988 208.988 5.29997 208.436C4.43589 207.214 1.55726 208.619 2.16379 209.496Z" fill="#FFD2B3"/>
<path d="M3.08314 189.717V196.811C3.08314 196.811 1.93746 208.696 2.08428 209.294C2.23351 209.889 4.74871 210.313 6.29874 209.272C7.84637 208.229 11.4928 205.86 11.6107 205.412C11.7287 204.964 12.4917 201.492 12.8479 199.495C13.2041 197.497 11.8948 193.98 11.8948 193.98V189.717C11.8948 186.171 3.08074 186.26 3.08074 189.717H3.08314Z" fill="#FFD2B3"/>
<path d="M11.8973 193.98C11.8973 193.98 14.1597 195.052 15.6785 196.842C17.1972 198.63 17.7917 199.466 17.7917 199.466C17.7917 199.466 19.2214 204.95 19.2214 205.875C19.2214 206.8 19.0433 209.708 18.9543 210.349C18.8652 210.988 17.8519 210.949 17.45 210.694C17.048 210.436 16.3332 209.737 16.1839 208.826C16.0347 207.916 16.0491 205.889 16.0491 205.889C16.0491 205.889 14.6411 203.735 14.1429 202.425C14.1429 202.425 13.1296 202.381 12.1187 203.135C11.0741 203.914 9.48557 203.405 9.36282 200.598C9.20396 196.962 9.93565 192.78 11.8949 193.982L11.8973 193.98Z" fill="#FFD2B3"/>
<path d="M15.4546 208.318C15.1513 208.318 14.6411 208.482 14.4269 209.113C14.2126 209.744 14.2295 211.532 14.2223 211.857C14.2126 212.51 14.8938 212.903 15.3511 212.864C15.806 212.828 16.5569 212.525 16.5955 211.819C16.6219 211.337 16.5786 209.809 16.4896 209.284C16.3644 208.54 16.1526 208.316 15.4546 208.316V208.318Z" fill="#FFD2B3"/>
<path d="M13.6036 209.009C13.2571 209.053 12.7877 209.491 12.6313 210.243C12.4748 210.995 12.7035 212.954 12.742 213.327C12.8214 214.074 13.7529 214.358 14.2679 214.25C14.783 214.144 15.339 213.554 15.2764 212.867C15.2283 212.313 14.8384 210.554 14.6627 209.966C14.4148 209.132 14.3979 208.908 13.5988 209.007L13.6036 209.009Z" fill="#FFD2B3"/>
<path d="M11.7649 210.024C11.4616 210.029 10.9634 210.289 10.7564 210.925C10.5518 211.561 10.5879 213.346 10.5879 213.672C10.5879 214.325 11.5001 214.703 11.955 214.66C12.4099 214.616 12.9491 214.202 12.9611 213.602C12.9707 213.12 12.7998 211.563 12.7036 211.041C12.5688 210.296 12.4629 210.014 11.7649 210.024Z" fill="#FFD2B3"/>
<path d="M10.0464 210.696C9.76724 210.715 9.4399 210.956 9.28586 211.551C9.12941 212.147 9.24976 213.375 9.2666 213.676C9.29789 214.276 9.94053 214.551 10.3569 214.488C10.7733 214.426 11.2475 214.016 11.2258 213.464C11.209 213.019 11.079 212.062 10.9659 211.585C10.8022 210.908 10.6915 210.653 10.0488 210.698L10.0464 210.696Z" fill="#FFD2B3"/>
<path d="M1.3623 194.898C1.3623 194.898 0 166.363 0 161.821C0 157.279 8.78514 119.955 15.096 113.353C20.5813 107.614 26.0762 109.402 28.9428 111.055C31.9177 112.768 32.9527 121.116 29.8743 126.95C26.7959 132.785 14.4702 162.84 14.4702 162.84C14.4702 162.84 13.1873 191.946 13.1031 194.078C12.9827 197.16 1.55485 199.748 1.3623 194.9V194.898Z" fill="#333333"/>
<path d="M59.5128 339.923C61.4167 341.397 69.4508 339.539 74.5655 339.819C78.7968 340.05 83.4734 343.679 81.401 348.828C79.4322 353.721 66.9549 354.786 61.265 356.478C58.2949 357.36 53.6761 360.13 48.9947 358.995C45.4253 358.131 45.0763 355.733 45.3242 352.266C45.5023 349.784 46.932 345.847 47.346 341.428C47.63 338.39 49.2835 337.889 53.2838 337.889C57.284 337.889 58.0133 338.759 59.5104 339.92L59.5128 339.923Z" fill="#1A1A1A"/>
<path d="M25.2003 324.895C25.2003 328.83 11.1225 330.07 10.9034 325.5C10.6483 320.216 7.56267 288.857 14.7183 264.775C16.2925 259.475 17.0867 253.969 17.0193 248.437C16.6246 216.086 19.0315 200.596 20.0881 188.652C21.087 177.367 54.1456 181.318 52.9156 192.698C48.4605 233.954 35.0445 267.903 35.0445 267.903C35.0445 267.903 28.8396 294.874 25.2027 324.893L25.2003 324.895Z" fill="#414042"/>
<path opacity="0.45" d="M52.9152 192.7C48.4601 233.957 35.0441 267.905 35.0441 267.905C35.0441 267.905 28.8391 294.876 25.1999 324.895C25.1999 328.83 11.1244 330.068 10.903 325.502C10.8645 324.717 10.7634 323.355 10.6431 321.527C14.8551 322.686 21.0119 323.165 22.9639 320.715C24.1553 272.384 32.7046 264.954 29.6527 260.99C26.6007 257.027 16.4485 256.913 16.4485 256.913C16.8601 254.114 17.0502 251.28 17.0165 248.444C17.0141 248.223 17.0117 248.003 17.0093 247.784C18.362 247.931 19.7676 248.112 21.1949 248.321C27.2121 249.203 32.565 244.433 32.358 238.346C32.0259 228.518 31.8718 220.073 31.7972 214.609C31.7491 210.944 29.7056 207.605 26.4828 205.868C22.8725 203.921 20.5089 201.528 19.0022 199.492C19.4089 195.437 19.7965 191.915 20.0853 188.66C21.0841 177.374 54.1427 181.323 52.9128 192.705L52.9152 192.7Z" fill="#231F20"/>
<path d="M60.9422 341.024C60.9422 344.959 45.3263 347.525 45.3263 342.952C45.3263 325.722 37.6965 310.528 41.8628 277.006C40.8351 238.195 34.5218 236.465 35.5111 199.721C35.8167 188.397 65.7512 186.472 67.0196 197.849C70.4831 228.895 62.4586 275.669 62.4586 275.669C62.4586 275.669 59.6233 332.769 60.9446 341.026L60.9422 341.024Z" fill="#414042"/>
<path opacity="0.35" d="M62.4589 275.668C62.4589 275.668 59.6236 332.769 60.945 341.026C60.945 344.961 45.3267 347.527 45.3267 342.951C45.3267 336.908 44.388 331.116 43.3482 324.695C45.5553 325.782 49.9311 327.092 55.0048 324.071C58.1121 322.221 56.7089 276.675 56.7089 276.675C56.7089 276.675 49.8468 278.384 41.8415 276.247C40.7536 238.171 34.5294 236.221 35.5114 199.719C35.8171 188.394 65.7491 186.472 67.02 197.847C70.4835 228.892 62.4589 275.666 62.4589 275.666V275.668Z" fill="#231F20"/>
<path d="M14.4702 124.417C14.4702 116.464 23.5105 108.332 28.8249 110.985L58.3189 127.978C63.7392 131.079 64.7934 136.835 64.7934 144.729C64.7934 166.531 63.9366 175.504 63.9366 180.8C63.9366 186.096 65.205 191.247 66.9476 196.567C68.9669 202.733 58.1215 210.564 53.2428 210.564C42.9557 210.564 18.9879 200.936 18.9879 191.522C18.9879 183.183 23.9028 174.425 23.9365 168.233C24.0617 145.611 14.4702 148.444 14.4702 124.415V124.417Z" fill="#414042"/>
<path opacity="0.35" d="M54.9084 210.327C59.4478 203.805 56.7665 195.767 55.6497 192.213C54.2658 187.807 46.6167 185.257 46.6167 185.257C46.6167 185.257 56.0204 183.058 56.0204 179.971C56.0204 158.255 54.3236 154.451 54.3236 154.451C54.3236 154.451 57.2311 137.016 63.838 135.366C64.5769 138.016 64.7935 141.151 64.7935 144.726C64.7935 166.529 63.9367 175.502 63.9367 180.798C63.9367 186.094 65.2027 191.245 66.9501 196.565C68.7625 202.099 60.2084 208.976 54.9108 210.325L54.9084 210.327Z" fill="#231F20"/>
<path d="M49.9837 108.173C49.9837 108.173 45.8487 116.712 49.861 123.078C49.861 123.078 37.894 123.034 32.4014 119.666C26.9089 116.295 29.879 114.821 31.0536 111.768C32.2763 108.59 32.4135 108.424 32.4135 104.378C32.4135 101.624 48.5902 102.624 49.9813 108.175L49.9837 108.173Z" fill="#FFD2B3"/>
<path d="M50.773 123.601C50.773 123.601 40.51 124.837 32.1798 120.591C23.6306 116.237 31.2556 111.223 31.2604 111.228C31.1906 112.744 32.0306 113.775 34.0427 114.922C39.439 117.999 48.679 118.44 48.6862 118.44C49.2326 118.509 49.5936 118.717 49.8584 119.208C50.4986 120.42 50.2555 121.203 50.773 123.598V123.601Z" fill="#6D6E71"/>
<path d="M58.4293 85.2812C58.4293 85.2812 59.2477 91.0445 59.1851 93.1889C59.1225 95.3357 58.6844 96.4392 58.8096 98.3378C58.9348 100.239 56.2366 109.19 54.6312 110.662C53.0259 112.134 35.5061 112.17 30.4685 104.202C25.4309 96.232 23.9771 84.1319 31.8236 77.7711C38.972 71.9764 43.769 72.3643 48.6694 73.6317C54.1162 75.0412 57.8469 80.419 58.4317 85.2812H58.4293Z" fill="#FFD2B3"/>
<path d="M52.9924 97.7282C52.9924 97.7282 53.1488 100.475 53.339 101.333C53.5267 102.19 55.2596 101.087 55.1658 99.0944C55.1345 98.4125 55.1249 97.5765 55.1249 96.7693C55.1249 95.1694 55.8662 93.6732 57.0961 92.6082C58.5787 91.324 60.4345 88.7387 60.7835 83.7368C60.8797 82.3465 59.8737 80.7443 58.7135 79.9275C58.6341 79.8721 58.5619 79.7974 58.4945 79.6986C57.7387 78.5951 53.5459 71.4295 42.7511 72.3427C31.8743 73.2631 30.5313 78.2289 30.5313 78.2289C30.5313 78.2289 24.6753 80.9274 25.4311 90.9819C26.1989 101.193 30.0283 107.045 35.3186 109.007C38.7893 110.293 43.2565 110.645 46.5082 109.424C49.4831 108.306 50.6625 107.573 49.4879 105.39C48.5228 103.593 48.128 102.347 48.1449 101.345C48.2291 96.1139 52.9948 95.3285 52.9948 97.7282H52.9924Z" fill="#C76D38"/>
<path d="M60.7835 83.7392C60.4369 88.7435 58.5764 91.324 57.0938 92.6082C55.8687 93.6756 55.1273 95.1719 55.1273 96.7717C55.1201 97.5716 55.1346 98.4101 55.1682 99.092C55.2573 101.085 53.5243 102.19 53.339 101.328C53.1537 100.473 52.9924 97.7282 52.9924 97.7282C52.9924 95.3212 48.2316 96.1115 48.1425 101.345C48.1257 102.34 48.5204 103.588 49.488 105.393C50.6553 107.573 49.4808 108.303 46.5083 109.424C43.2542 110.648 38.7894 110.293 35.3187 109.007C30.3388 107.164 26.6587 101.877 25.6021 92.7576C26.3145 94.5671 28.2905 96.8898 31.523 97.5861C43.6657 100.205 49.8346 92.136 49.8346 92.136C62.4828 87.6738 58.7136 79.9275 58.7136 79.9275C59.8737 80.7515 60.8798 82.3514 60.7835 83.7392Z" fill="#9C4C27"/>
<path d="M97.6643 133.831C97.6643 133.831 97.633 131.25 97.6643 130.573C97.6956 129.896 98.7715 128.183 99.0386 127.8C99.3058 127.417 99.8835 125.841 99.9412 125.494C99.999 125.147 101.388 124.904 101.968 126.075C102.548 127.246 102.165 128.219 102.165 128.219C102.165 128.219 106.137 130.294 104.168 132.797C102.199 135.301 97.6763 135.448 97.6643 133.833V133.831Z" fill="#FFD2B3"/>
<path d="M105.814 124.767C105.814 124.767 108.404 122.21 109.08 121.724C109.439 121.466 111.636 121.181 112.007 121.181C112.378 121.181 114.231 121.668 114.59 121.772C114.948 121.875 114.799 122.919 114.207 123.174C113.615 123.429 112.679 123.295 112.679 123.295L110.688 123.892C110.688 123.892 109.193 125.851 108.835 126.338C108.476 126.824 105.33 125.396 105.814 124.764V124.767Z" fill="#FFD2B3"/>
<path d="M108.938 124.952C108.938 124.952 112.772 122.157 113.362 121.948C113.952 121.738 116.079 121.427 116.445 121.427C116.811 121.427 117.887 121.394 118.39 121.394C119.189 121.394 118.85 122.902 118.503 123.422C118.157 123.943 117.158 124.237 116.672 124.287C116.672 124.287 115.064 125.121 114.597 125.347C114.597 125.347 113.052 126.668 112.236 127.381C111.42 128.094 107.448 125.996 108.941 124.952H108.938Z" fill="#FFD2B3"/>
<path d="M112.096 126.147C112.096 126.147 115.726 123.991 116.316 123.784C116.905 123.574 119.495 123.297 119.859 123.297C120.222 123.297 121.091 123.314 121.596 123.297C122.099 123.28 122.342 124.393 121.996 124.914C121.649 125.434 120.677 125.783 120.188 125.834C120.188 125.834 117.964 126.581 117.495 126.807C117.495 126.807 115.95 128.128 115.134 128.841C114.318 129.554 110.602 127.188 112.096 126.145V126.147Z" fill="#FFD2B3"/>
<path d="M115.579 128.4C115.579 128.4 118.296 127.764 118.73 127.764C119.163 127.764 121.473 128.164 121.769 128.234C122.065 128.304 123.437 128.651 123.731 128.737C124.025 128.824 124.27 130.024 123.608 130.267C122.949 130.511 122.01 130.494 122.01 130.494L119.057 130.684C119.057 130.684 117.069 131.279 116.082 131.667C115.098 132.058 114.226 128.701 115.577 128.398L115.579 128.4Z" fill="#FFD2B3"/>
<path d="M96.6872 134.766L97.7294 133.768C97.7294 133.768 99.8137 130.361 101.227 128.831C102.639 127.301 105.366 125.169 105.857 124.728C106.348 124.287 108.984 124.752 111.485 125.863C113.986 126.976 115.793 128.436 116.185 129.063C116.578 129.689 116.717 131.289 115.745 132.007C114.773 132.725 111.222 136.563 110.147 137.38C109.071 138.197 106.933 139.52 104.483 139.606C104.483 139.606 103.256 140.65 102.728 141.119C101.455 142.254 94.2996 136.134 96.6848 134.768L96.6872 134.766Z" fill="#FFD2B3"/>
<path d="M59.6161 128.935C66.5552 130.494 87.1894 137.708 87.1894 137.708C87.1894 137.708 92.5159 135.807 96.4656 133.229C99.8304 131.034 106.165 139.187 104.261 140.736C101.847 142.702 100.642 143.601 98.367 146.071C96.6148 147.972 94.1959 149.716 92.2222 150.461C90.2486 151.208 61.3226 153.171 55.4642 154.284C49.6059 155.398 46.6502 150.837 46.6165 143.62C46.566 132.817 52.6747 127.374 59.6137 128.933L59.6161 128.935Z" fill="#414042"/>
<path opacity="0.25" d="M145.65 342.602C145.106 342.337 144.43 342.527 143.968 342.917C143.506 343.308 143.217 343.859 142.957 344.406C142.697 344.953 142.449 345.517 142.04 345.963C141.809 346.213 141.52 346.44 141.421 346.765C141.315 347.117 141.457 347.49 141.599 347.83C141.756 348.204 141.917 348.592 142.211 348.871C142.56 349.204 143.043 349.343 143.467 349.572C144.324 350.03 144.952 350.849 145.835 351.256C147.087 351.83 148.623 351.427 149.689 350.555C153.511 350.909 157.427 350.254 161.085 349.088C164.744 347.922 168.227 346.271 171.697 344.628C172.456 344.269 173.702 343.715 174.463 343.356C178.937 343.452 180.95 343.621 184.245 342.279C185.116 341.925 188.004 339.59 188.433 338.831C189.239 337.405 190.247 336.602 191.867 336.361C196.7 335.646 198.532 333.781 199.158 332.661C199.865 331.391 200.246 330.201 200.079 328.755C200.017 328.215 200.188 327.647 200.527 327.222C200.867 326.798 201.307 326.454 201.593 325.991C202.068 325.232 202.058 324.244 201.75 323.404C201.442 322.563 200.864 321.849 200.246 321.204C198.915 319.814 197.352 318.671 195.776 317.568C193.201 315.766 190.565 314.05 187.877 312.424C185.405 310.93 182.858 309.501 180.083 308.699C177.31 307.897 171.582 308.841 171.582 308.841L122.662 305.824C120.777 304.135 117.595 301.632 115.884 300.929C114.185 299.591 113.061 298.134 111.826 296.64C111.301 296.006 111.102 295.539 110.346 295.777C109.961 295.898 110.009 296.43 110.288 296.977C111.224 298.815 113.109 301.177 113.109 301.177C113.109 301.177 107.113 297.355 105.609 296.452C105.229 296.223 104.642 296.136 104.326 296.447C104.004 296.765 104.507 297.319 104.779 297.555C105.686 298.336 110.245 301.798 110.245 301.798C110.245 301.798 105.034 298.666 102.057 297.423C101.688 297.269 101.152 297.16 100.913 297.481C100.689 297.779 101.248 298.437 101.563 298.637C103.539 299.89 107.308 302.406 107.308 302.406C107.308 302.406 104.386 301.41 103.142 300.678C101.696 299.825 99.7123 298.955 99.2116 299.341C98.7471 299.7 99.1635 300.155 100.025 300.625C101.161 301.242 102.873 302.413 103.785 302.781C103.585 302.736 103.455 303.126 103.51 303.321C103.566 303.519 104.247 303.69 104.415 303.803C109.284 307.087 115.658 309.202 120.25 310.296C123.199 310.997 157.278 314.108 171.074 318.539C168.077 318.006 164 319.854 162.575 322.546C161.916 323.789 161.605 325.247 160.652 326.283C159.15 327.912 156.638 327.945 154.426 327.861C149.927 327.69 145.429 327.516 140.928 327.345C139.618 327.295 138.28 327.249 137.029 327.639C135.779 328.03 134.809 329.018 134.297 330.225C132.451 334.578 138.817 337.094 140.182 337.542C146.177 339.508 151.682 339.783 157.677 341.749C155.629 343.421 153.162 344.573 150.565 345.071C149.559 345.264 148.488 345.356 147.532 344.982C146.577 344.609 145.539 343.621 145.65 342.602Z" fill="black"/>
<path d="M112.373 119.319C112.373 119.319 113.282 119.307 113.569 119.319C113.853 119.331 115.477 119.55 115.783 119.659C116.091 119.77 117.846 120.622 118.25 120.875C118.657 121.128 118.007 122.984 117.044 122.536C116.079 122.085 114.796 121.316 114.796 121.316L113.557 120.803C113.557 120.803 112.7 120.69 112.373 120.307C112.045 119.924 112.098 119.321 112.373 119.319Z" fill="#FFC39E"/>
<path d="M106.709 118.926C107.029 118.948 109.258 119.088 109.631 119.088C110.004 119.088 112.154 119.955 112.406 120.076C112.659 120.196 116.277 121.909 116.693 122.128C117.109 122.348 115.398 124.62 114.544 124.258C113.689 123.897 111.034 122.205 111.034 122.205L108.666 121.174C108.666 121.174 107.152 121.206 106.601 120.415C106.05 119.625 106.379 118.902 106.709 118.924V118.926Z" fill="#FFC39E"/>
<path d="M103.171 120.68C103.171 120.68 105.209 120.808 105.573 120.803C105.934 120.801 108.456 121.085 108.829 121.218C109.202 121.35 113.831 122.919 114.505 123.215C115.179 123.511 114.356 125.947 112.827 125.569C111.296 125.191 108.516 123.856 108.516 123.856L105.397 123.143C105.397 123.143 104.442 122.984 103.688 122.702C102.429 122.232 102.644 120.743 103.171 120.676V120.68Z" fill="#FFC39E"/>
<path d="M112.038 124.665C112.038 124.665 107.563 123.94 107.234 123.923C106.904 123.907 103.828 123.858 103.501 123.858C103.173 123.858 101.524 124.037 101.255 124.121C100.81 124.261 100.54 125.241 101.544 125.718C102.547 126.195 103.286 126.08 103.286 126.08L107.005 126.492C107.005 126.492 110.122 127.528 110.854 127.742C111.585 127.957 113.475 124.894 112.038 124.663V124.665Z" fill="#FFC39E"/>
<path d="M127.384 125.224L124.226 126.195C124.226 126.195 119.018 121.051 118.139 120.832C117.263 120.613 114.235 121.644 112.964 122.808C111.691 123.972 110.837 124.521 110.377 125.311C109.917 126.102 109.763 126.981 110.026 127.419C110.288 127.858 113.776 129.812 114.873 130.516C115.971 131.219 120.575 133.217 121.738 132.908C122.9 132.6 126.489 132.193 127.384 131.985C128.908 131.634 128.975 124.981 127.384 125.222V125.224Z" fill="#FFC39E"/>
<path d="M112.627 129.166C112.627 129.166 108.986 128.872 108.863 128.882C108.74 128.889 107.941 128.535 107.12 128.535C106.3 128.535 105.717 128.947 105.674 129.725C105.631 130.503 108.021 131.383 108.372 131.482C108.723 131.581 111.429 132.436 112.565 132.749C113.701 133.062 116.719 133.703 118.377 133.72C120.036 133.737 121.126 133.2 121.74 132.908C122.354 132.617 118.962 128.643 112.63 129.164L112.627 129.166Z" fill="#FFC39E"/>
<path d="M124.128 125.808C120.005 126.983 120.486 133.898 123.557 133.438C127.213 132.889 134.119 131.47 137.089 131.13C139.999 130.797 147.681 130.759 153.648 130.231C159.615 129.704 163.605 128.222 163.605 128.222C163.605 128.222 191.675 127.28 196.284 126.873C199.531 126.586 203.774 124.829 202.667 118.418C201.615 112.32 198.97 109.867 195.492 109.869C193.429 109.869 178.299 113.895 175.228 114.466C172.157 115.037 162.859 116.531 160.359 116.794C157.858 117.057 155.051 116.926 150.093 118.023C145.137 119.121 124.125 125.805 124.125 125.805L124.128 125.808Z" fill="#F2D86F"/>
<path d="M200.267 316.317C200.164 314.71 199.935 312.634 199.935 312.634C199.935 312.636 199.935 312.638 199.935 312.641C199.798 309.795 199.704 306.733 199.793 305.003C199.926 302.456 190.187 301.483 190.187 303.061C190.187 304.07 190.144 306.135 189.179 306.617C188.517 306.95 185.626 306.887 182.815 306.716C182.822 306.716 182.827 306.716 182.834 306.716C181.749 306.651 180.678 306.569 179.746 306.489C179.566 306.473 179.39 306.458 179.222 306.441C176.776 306.212 171.82 305.682 170.215 307.574C169.661 308.227 169.503 309.164 169.986 310.504C170.102 310.822 170.241 311.125 170.408 311.419C171.474 313.335 173.577 314.807 176.588 316.233C179.953 317.828 183.958 317.727 186.678 319.351C186.683 319.353 186.688 319.356 186.692 319.361C189.405 320.987 190.856 324.261 193.564 325.148C196.043 325.96 200.648 325.059 200.539 322.601C200.448 320.529 200.486 319.698 200.267 316.317Z" fill="#FFC39E"/>
<path d="M200.539 322.604C200.65 325.064 196.043 325.962 193.564 325.15C190.849 324.261 189.398 320.977 186.678 319.353C183.961 317.729 179.953 317.831 176.591 316.236C173.115 314.59 170.848 312.884 169.989 310.506C168.102 305.28 175.934 306.138 179.224 306.446C180.264 306.54 181.542 306.641 182.837 306.718C180.731 306.897 179.775 306.933 177.907 307.916C175.621 309.118 176.263 311.275 180.403 312.448C182.801 313.127 184.839 313.503 187.33 313.612C189.641 313.713 191.586 314.66 192.888 315.019C197.251 316.226 199.885 314.294 199.938 312.636C199.938 312.636 200.166 314.713 200.27 316.32C200.489 319.703 200.45 320.534 200.542 322.604H200.539Z" fill="#262626"/>
<path d="M196.724 173.878C196.724 173.878 199.401 179.104 200.585 183.231C201.769 187.358 203.348 191.134 203.086 195.175C202.823 199.215 201.639 204 201.639 204C201.639 204 201.011 221.346 199.921 226.087C198.83 230.829 196.727 243.597 197.427 247.84C198.13 252.083 199.632 256.562 200.898 260.6C202.164 264.64 203.406 269.25 203.114 274.08C202.823 278.911 199.819 302.071 199.795 305.005C199.771 307.94 190.163 306.848 190.175 303.786C190.187 300.724 190.582 292.216 189.398 284.533C188.213 276.849 186.926 270.163 186.172 264.399C186.172 264.399 178.343 242.071 174.79 226.263C171.238 210.455 169.394 183.906 175.842 174.786C182.29 165.666 193.256 167.204 196.722 173.878H196.724Z" fill="#FFC39E"/>
<path d="M171.37 338.992C171.192 338.067 170.723 335.535 170.378 333.526L170.366 333.429C170.359 333.405 170.354 333.383 170.349 333.359C170.147 332.174 169.993 331.196 169.976 330.882C169.976 330.887 169.976 330.892 169.976 330.897C169.871 329.005 170.099 327.215 170.099 326.336C170.099 325.061 170.232 322.44 170.232 319.748C170.232 317.057 160.647 315.807 160.647 319.035C160.647 320.45 160.484 322.163 160.484 322.163C160.022 324.562 155.67 325.808 151.547 325.456C150.375 325.358 149.205 325.261 148.083 325.174C148.127 325.177 148.17 325.182 148.213 325.184C148.213 325.184 148.11 325.172 147.934 325.162C145.178 324.953 142.728 324.801 141.296 324.775C141.289 324.775 141.282 324.775 141.274 324.775C135.016 324.488 132.297 330.543 139.115 335.718C139.12 335.72 139.123 335.723 139.125 335.728C139.125 335.728 141.671 337.687 146.483 338.496C147.66 338.694 148.63 338.814 149.477 338.896C151.277 339.072 152.514 339.072 153.99 339.265C154.654 339.351 155.367 339.479 156.199 339.679C156.296 339.703 156.39 339.725 156.481 339.749C159.576 340.588 158.794 342.004 163.415 343.052C168.52 344.211 172.099 342.739 171.377 338.985L171.37 338.992Z" fill="#FFC39E"/>
<path d="M163.738 176.996C163.738 176.996 157.071 190.715 156.457 203.396C155.843 216.076 159.353 252.434 159.528 254.805C159.704 257.176 159.266 263.06 159.615 265.958C159.966 268.857 160.843 272.722 160.843 272.722C160.843 272.722 160.607 319.488 160.482 322.165C160.356 324.842 169.948 326.425 170.232 322.78C170.516 319.134 171.662 308.962 173.544 302.3C175.423 295.638 176.341 295.054 176.637 288.243C176.933 281.432 175.585 273.95 174.993 269.406C174.401 264.862 176.966 254.653 177.888 249.384C178.81 244.115 183.02 216.715 183.02 216.715C183.02 216.715 188.151 214.409 189.927 209.074C191.704 203.74 191.966 196.1 190.717 190.105C189.468 184.111 187.492 177.526 186.045 174.034C184.599 170.543 168.675 167.837 163.74 176.998L163.738 176.996Z" fill="#FFC39E"/>
<path d="M169.974 330.88C170.109 332.865 168.208 333.135 162.571 332.453C161.759 332.355 160.939 332.331 160.123 332.376C155.073 332.656 152.972 332.796 146.235 331.482C143.092 330.87 142.09 328.485 142.945 326.97C144.204 324.738 148.206 325.184 148.206 325.184C145.325 324.963 142.743 324.842 141.267 324.775C135.007 324.488 132.287 330.548 139.118 335.725C139.118 335.725 141.664 337.684 146.476 338.494C151.287 339.306 152.64 338.826 156.192 339.679C159.617 340.506 158.65 341.975 163.408 343.055C168.513 344.214 172.092 342.742 171.37 338.988C171.081 337.484 170.022 331.728 169.974 330.875V330.88Z" fill="#262626"/>
<path d="M201.55 117.02C199.447 113.055 194.392 109.079 189.268 112.11C186.216 113.915 180.719 117.102 176.665 119.444C172.774 121.692 171.808 122.251 170.923 122.762C169.799 123.41 168.766 124.213 167.892 125.171C163.712 129.761 154.395 134.889 154.395 140.493C154.395 146.5 159.131 150.979 159.131 150.979C162.205 160.877 163.603 168.784 163.249 173.61L158.737 193.066C158.286 196.389 161.659 199.661 174.966 200.796C180.788 201.292 202.831 191.206 200.821 184.918C199.478 180.716 194.592 166.563 193.131 163.481C192.226 161.573 192.094 159.388 192.758 157.383C194.318 152.673 197.177 144.165 198.347 141.56C203.293 130.54 203.435 120.574 201.55 117.02Z" fill="#F2DF56"/>
<path d="M174.957 108.995C174.957 108.995 176.897 115.346 173.965 121.003C173.965 121.003 183.67 121.859 188.7 118.772C193.731 115.686 192.467 113.919 191.634 111.04C190.77 108.055 191.107 106.409 191.502 103.918C191.899 101.427 172.268 104.087 174.955 108.995H174.957Z" fill="#FFC39E"/>
<path d="M173.099 121.222C173.099 121.222 183.261 123.14 190.89 119.252C198.72 115.264 191.324 109.749 191.319 109.751C191.711 111.269 191.367 112.633 189.53 113.695C186.527 115.435 178.971 116.794 175.508 115.582C175.501 115.582 174.858 115.558 174.661 116.237C174.309 117.444 173.573 119.027 173.099 121.22V121.222Z" fill="#FFEC7D"/>
<path d="M157.422 247.471C157.94 251.08 159.769 252.716 160.484 253.044C164.778 255.008 170.292 255.622 172.135 255.487C173.483 255.386 174.728 255.386 176.278 254.779C177.936 254.138 179.931 252.781 182.752 249.839C186.692 245.719 197.588 250.247 199.006 242.633C202.669 222.96 201.613 212.821 202.031 203.779C202.058 203.408 204.489 198.861 203.312 191.835C201.658 181.957 197.374 174.784 197.374 174.784C197.374 174.784 198.888 183.212 179.862 185.775C175.089 186.416 171.536 185.371 169.043 183.997C165.996 182.311 162.284 178.61 162.14 178.391C162.132 178.374 160.792 179.73 159.242 184.701C151.891 208.26 154.984 230.48 157.417 247.473L157.422 247.471Z" fill="#353436"/>
<path d="M187.239 306.875C187.195 306.87 187.147 306.861 187.102 306.853C187.142 306.853 187.183 306.853 187.227 306.851C187.229 306.861 187.236 306.865 187.239 306.875Z" fill="#89F300"/>
<path d="M198.479 86.4305C199.646 97.1789 196.115 107.922 174.549 108.99C172.467 109.093 168.65 107.641 165.865 100.964C164.994 98.8751 165.273 97.0343 165.273 94.8827C165.273 92.7311 164.265 90.8373 164.265 88.1653C164.265 79.6456 171.765 72.1451 180.362 71.721C195.455 70.9741 198.156 83.4621 198.479 86.4305Z" fill="#FFC39E"/>
<path d="M163.885 85.4426C163.885 85.4426 163.146 88.2809 167.035 91.0445C168.463 92.0565 169.045 93.4997 169.177 95.4682L169.423 99.0727C169.471 99.7955 169.878 100.446 170.504 100.807C170.735 100.94 171.019 100.764 171.004 100.499L170.874 98.1523C170.874 98.1523 173.649 99.1594 174.482 102.159C175.315 105.156 184.353 110.296 189.22 107.397C194.621 104.183 197.456 99.5305 198.469 95.0538C199.482 90.5771 201.755 71.6873 182.09 71.0898C165.43 70.5838 163.882 85.4426 163.882 85.4426H163.885Z" fill="#F9A300"/>
<path d="M198.474 95.0562C197.458 99.5329 194.625 104.183 189.222 107.397C184.355 110.296 175.317 105.156 174.485 102.159C173.649 99.1618 170.874 98.1523 170.874 98.1523L171.004 100.499C171.016 100.704 170.853 100.851 170.672 100.851C170.617 100.851 170.556 100.839 170.504 100.807C169.875 100.446 169.471 99.7931 169.423 99.0703L169.177 95.4658C169.045 93.4973 168.46 92.0541 167.033 91.0397C163.143 88.2761 163.882 85.4402 163.882 85.4402C163.882 85.4402 163.947 84.809 164.195 83.8139C165.194 84.8041 166.316 85.6667 167.512 86.404C169.223 87.4593 171.079 88.2689 172.995 88.8664C177.122 90.1579 181.469 90.5385 185.773 90.9096C186.762 90.9963 187.778 91.0758 188.721 90.7819C189.665 90.4855 190.534 89.7169 190.635 88.7315C190.748 87.6328 189.913 86.5895 190.059 85.4956C190.257 84.0693 191.949 83.4043 193.383 83.3175C195.234 83.2043 197.039 83.5898 198.712 84.3343C199.526 88.8327 198.888 93.1937 198.467 95.0538L198.474 95.0562Z" fill="#E08A00"/>
<path d="M170.876 98.1547C170.876 98.1547 173.418 96.8946 174.922 101.547C176.025 104.956 173.964 106.323 173.964 106.323C173.964 106.323 173.892 104.402 173.276 101.976C172.701 99.704 170.874 98.1547 170.874 98.1547H170.876Z" fill="#F2B08F"/>
<path d="M213.399 132.005C213.399 132.005 198.903 132.368 197.182 117.204C195.81 105.12 197.511 92.707 191.629 88.3701C190.332 87.4135 189.891 85.8474 190.219 84.4427C190.466 83.3561 191.179 82.361 192.305 81.8285C197.158 79.5275 203.168 79.5203 205.233 91.5385C205.957 95.7622 206.39 99.6534 206.682 103.229C207.863 117.712 206.73 126.988 213.397 132.007L213.399 132.005Z" fill="#F9A300"/>
<path d="M213.399 132.005C213.399 132.005 198.903 132.368 197.182 117.204C195.81 105.12 197.511 92.707 191.629 88.3701C190.332 87.4135 189.891 85.8474 190.219 84.4427C191.6 84.8306 192.89 85.5294 193.668 86.3245C195.273 87.9581 196.197 90.1241 197.088 92.2348C198.919 96.5789 200.763 100.952 201.89 105.535C202.099 106.395 202.296 107.284 202.785 108.021C203.274 108.763 204.14 109.33 205.014 109.183C206.489 108.939 206.968 107.036 206.841 105.547C206.778 104.795 206.66 103.99 206.682 103.229C207.863 117.712 206.73 126.988 213.397 132.007L213.399 132.005Z" fill="#E08A00"/>
<path d="M145.38 216.218C145.258 216.975 144.379 220.163 143.982 220.869C143.585 221.572 143.002 221.849 143.002 224.606V230.762C143.002 231.588 144.105 232.386 144.747 232.446C144.747 232.446 145.462 233.711 146.921 233.764C146.921 233.764 147.58 234.887 149.135 234.94C149.135 234.94 149.857 235.903 151.167 236.029C152.19 236.127 153.292 236.197 154.098 236.214C155.001 236.233 154.726 234.041 153.819 233.778C153.147 233.583 152.594 233.467 152.594 233.467L152.459 231.036C153.224 230.118 152.991 221.62 152.796 220.816C152.536 219.731 152.531 219.049 152.531 218.038C152.531 214.091 145.857 213.313 145.383 216.218H145.38Z" fill="#FFC39E"/>
<path d="M160.975 143.536C160.103 148.762 153.672 178.511 153.672 178.511C153.672 178.511 145.07 214.539 144.608 217.274C144.172 219.861 152.519 222.182 153.21 219.052C154.028 215.344 163.367 186.436 164.79 183.055C167.093 177.588 176.27 150.834 176.634 143.601C177.05 135.264 175.317 128.913 169.134 128.369C165.834 128.08 162.751 132.865 160.975 143.534V143.536Z" fill="#FFEC7D"/>
</g>
<defs>
<clipPath id="clip0_1262_1755">
<rect width="215" height="362" fill="white"/>
</clipPath>
</defs>
</svg>
