<svg width="620" height="472" viewBox="0 0 620 472" fill="none" xmlns="http://www.w3.org/2000/svg">
<g clip-path="url(#clip0_2101_1440)">
<path d="M618.299 310.137C620.562 311.439 620.569 313.553 618.326 314.853L354.678 471.024C352.43 472.325 348.777 472.325 346.514 471.024L1.76339 272.613C-0.499638 271.311 -0.510742 269.202 1.73674 267.898L265.387 111.727C267.63 110.427 271.288 110.425 273.551 111.727L618.299 310.137Z" fill="#F2F2F2"/>
<path d="M205.882 349.709L278.199 308.187C278.505 308.01 278.468 307.702 278.112 307.498L272.114 304.047C271.761 303.843 271.225 303.821 270.919 303.998L198.602 345.521C198.296 345.698 198.333 346.005 198.689 346.209L204.687 349.66C205.04 349.864 205.575 349.886 205.882 349.709Z" fill="#F2F2F2"/>
<path d="M618.326 295.415L354.678 451.586L354.618 461.464L618.266 305.293C619.38 304.647 619.94 303.801 619.942 302.951L620.002 293.073C620 293.921 619.44 294.769 618.326 295.413V295.415Z" fill="#8C8C8C"/>
<path d="M1.76334 253.176C0.624059 252.521 0.0555272 251.662 0.057748 250.803L6.48102e-06 260.681C-0.00221435 261.54 0.566318 262.399 1.7056 263.054L346.452 461.464L346.512 451.586L1.76334 253.176Z" fill="#D9D9D9"/>
<path d="M354.675 451.589L354.615 461.467C352.368 462.768 348.715 462.768 346.452 461.467L346.512 451.589C348.775 452.89 352.428 452.89 354.675 451.589Z" fill="#ABABAB"/>
<path d="M618.299 291.178C620.562 292.48 620.569 294.594 618.326 295.891L354.678 452.062C352.43 453.364 348.777 453.364 346.514 452.062L1.76339 253.652C-0.499638 252.35 -0.510742 250.24 1.73674 248.936L265.387 92.7675C267.63 91.468 271.288 91.4658 273.551 92.7675L618.299 291.178Z" fill="#F2F2F2"/>
<path d="M322.966 336.601L250.649 295.079C250.343 294.902 250.381 294.594 250.736 294.39L256.735 290.939C257.088 290.735 257.623 290.713 257.929 290.89L330.246 332.413C330.553 332.59 330.515 332.897 330.16 333.101L324.161 336.552C323.808 336.756 323.273 336.778 322.966 336.601Z" fill="#D9D9D9"/>
<path d="M412.619 250.681L340.302 209.159C339.996 208.982 340.034 208.674 340.389 208.47L346.387 205.019C346.74 204.815 347.276 204.793 347.582 204.97L419.899 246.492C420.205 246.669 420.168 246.977 419.812 247.181L413.814 250.632C413.461 250.836 412.926 250.858 412.619 250.681Z" fill="#D9D9D9"/>
<path d="M350.007 53.7115L354.344 51.1988L353.893 209.628L349.556 212.141L350.007 53.7115Z" fill="#56AAB2"/>
<path d="M411.751 83.5204L416.086 81.01L415.619 245.153L411.282 247.666L411.751 83.5204Z" fill="#448282"/>
<path d="M345.035 45.1241L349.372 42.6136L416.086 81.01L411.751 83.5204L345.035 45.1241Z" fill="#A5E5EF"/>
<path d="M411.751 83.5204L411.282 247.666L406.294 244.794L406.745 86.3652L350.007 53.7115L349.556 212.141L344.568 209.269L345.035 45.1241L411.751 83.5204Z" fill="#56AAB2"/>
<path d="M350.007 53.7115L349.556 212.141L406.294 244.794L406.747 86.363L350.007 53.7115Z" fill="#6FB8BF"/>
<path d="M354.073 65.6107L353.94 95.6167L397.299 120.679L397.433 90.6733L354.073 65.6107Z" fill="url(#paint0_linear_2101_1440)"/>
<path d="M359.976 72.5466L359.878 94.3571L391.396 112.577L391.494 90.764L359.976 72.5466Z" fill="#88CCD3"/>
<path d="M362.033 77.2177L361.957 93.9386L386.117 107.903L386.193 91.1824L362.033 77.2177Z" fill="#A5E5EF"/>
<path d="M354.073 65.6107L356.561 67.0475L356.438 94.2486L397.311 117.874L397.299 120.679L353.94 95.6167L354.073 65.6107Z" fill="#878486"/>
<path d="M353.94 95.6167L356.438 94.2486L397.311 117.874L397.299 120.679L353.94 95.6167Z" fill="#A5E5EF"/>
<path d="M354.073 102.212L353.94 132.22L397.299 157.282L397.433 127.274L354.073 102.212Z" fill="url(#paint1_linear_2101_1440)"/>
<path d="M359.976 109.148L359.878 130.96L391.396 149.178L391.494 127.367L359.976 109.148Z" fill="#88CCD3"/>
<path d="M362.033 113.821L361.957 130.542L386.117 144.507L386.193 127.786L362.033 113.821Z" fill="#A5E5EF"/>
<path d="M354.073 102.212L356.561 103.651L356.438 130.852L397.311 154.478L397.299 157.282L353.94 132.22L354.073 102.212Z" fill="#878486"/>
<path d="M353.94 132.22L356.438 130.852L397.311 154.478L397.299 157.282L353.94 132.22Z" fill="#A5E5EF"/>
<path d="M354.073 138.815L353.94 168.823L397.299 193.886L397.433 163.877L354.073 138.815Z" fill="url(#paint2_linear_2101_1440)"/>
<path d="M359.976 145.751L359.878 167.563L391.396 185.781L391.494 163.968L359.976 145.751Z" fill="#88CCD3"/>
<path d="M362.033 150.424L361.957 167.143L386.117 181.11L386.193 164.389L362.033 150.424Z" fill="#A5E5EF"/>
<path d="M354.073 138.815L356.561 140.252L356.438 167.453L397.311 191.078L397.299 193.886L353.94 168.823L354.073 138.815Z" fill="#878486"/>
<path d="M353.94 168.823L356.438 167.453L397.311 191.078L397.299 193.886L353.94 168.823Z" fill="#A5E5EF"/>
<path d="M354.073 175.418L353.94 205.426L397.299 230.489L397.433 200.481L354.073 175.418Z" fill="url(#paint3_linear_2101_1440)"/>
<path d="M359.976 182.354L359.878 204.167L391.396 222.384L391.494 200.571L359.976 182.354Z" fill="#88CCD3"/>
<path d="M362.033 187.027L361.957 203.746L386.117 217.711L386.193 200.992L362.033 187.027Z" fill="#A5E5EF"/>
<path d="M354.073 175.418L356.561 176.855L356.438 204.056L397.311 227.682L397.299 230.489L353.94 205.426L354.073 175.418Z" fill="#878486"/>
<path d="M353.94 205.426L356.438 204.056L397.311 227.682L397.299 230.489L353.94 205.426Z" fill="#A5E5EF"/>
<path d="M401.115 153.486C401.43 153.302 401.868 153.329 402.35 153.605C403.309 154.157 404.082 155.491 404.077 156.59L404.048 167.03C404.048 167.574 403.853 167.957 403.542 168.139L402.092 168.98C402.403 168.799 402.596 168.416 402.598 167.871L402.627 157.431C402.629 156.333 401.857 154.998 400.899 154.447C400.417 154.17 399.98 154.143 399.665 154.327L401.115 153.486Z" fill="#FFAE00"/>
<path d="M400.899 154.447C399.944 153.898 399.163 154.336 399.158 155.434L399.129 165.874C399.127 166.968 399.902 168.309 400.857 168.858C401.817 169.41 402.594 168.962 402.596 167.869L402.625 157.429C402.627 156.33 401.854 154.996 400.897 154.444L400.899 154.447Z" fill="#FF9000"/>
<path d="M392.747 161.982C392.747 164.564 394.846 166.656 397.435 166.656C400.025 166.656 402.123 164.564 402.123 161.982C402.123 159.401 400.025 157.309 397.435 157.309C394.846 157.309 392.747 159.401 392.747 161.982Z" fill="#FF9000"/>
<path d="M393.704 160.718C393.704 162.241 394.941 163.474 396.469 163.474C397.997 163.474 399.234 162.241 399.234 160.718C399.234 159.195 397.997 157.962 396.469 157.962C394.941 157.962 393.704 159.195 393.704 160.718Z" fill="#FFAE00"/>
<path d="M235.69 207.698L163.373 166.175C163.067 165.998 163.104 165.69 163.46 165.487L169.458 162.035C169.811 161.832 170.346 161.81 170.653 161.987L242.97 203.509C243.276 203.686 243.239 203.994 242.883 204.197L236.885 207.649C236.532 207.852 235.996 207.875 235.69 207.698Z" fill="#D9D9D9"/>
<path d="M174.466 11.0978L178.801 8.58516L178.35 167.014L174.015 169.527L174.466 11.0978Z" fill="#448282"/>
<path d="M236.21 40.909L240.545 38.3963L240.078 202.539L235.741 205.052L236.21 40.909Z" fill="#448282"/>
<path d="M169.494 2.51268L173.829 0L240.545 38.3963L236.21 40.909L169.494 2.51268Z" fill="#A5E5EF"/>
<path d="M236.21 40.909L235.741 205.052L230.753 202.181L231.204 43.7515L174.466 11.0978L174.015 169.527L169.027 166.656L169.494 2.51268L236.21 40.909Z" fill="#56AAB2"/>
<path d="M174.397 39.0295L174.371 48.7548C174.371 49.0027 174.206 49.2529 173.878 49.441C173.218 49.824 172.143 49.824 171.479 49.441C171.146 49.2484 170.979 48.9961 170.979 48.7459L171.006 39.0206C171.006 39.273 171.173 39.5254 171.506 39.7158C172.17 40.0988 173.245 40.0965 173.904 39.7158C174.233 39.5254 174.397 39.2774 174.397 39.0295Z" fill="#FF9000"/>
<path d="M173.898 38.3321C174.562 38.7151 174.566 39.3328 173.907 39.7158C173.247 40.0988 172.172 40.101 171.508 39.7158C170.844 39.3328 170.842 38.7129 171.504 38.3299C172.163 37.9469 173.236 37.9469 173.9 38.3299L173.898 38.3321Z" fill="#FFAE00"/>
<path d="M174.397 140.442L174.371 150.167C174.371 150.415 174.206 150.663 173.878 150.854C173.218 151.237 172.143 151.237 171.479 150.854C171.146 150.661 170.979 150.409 170.979 150.158L171.006 140.433C171.006 140.685 171.173 140.938 171.506 141.128C172.17 141.511 173.245 141.509 173.904 141.128C174.233 140.938 174.397 140.69 174.397 140.442Z" fill="#FF9000"/>
<path d="M173.898 139.745C174.562 140.128 174.566 140.745 173.907 141.128C173.247 141.511 172.172 141.513 171.508 141.128C170.844 140.745 170.842 140.125 171.504 139.742C172.163 139.359 173.236 139.359 173.9 139.742L173.898 139.745Z" fill="#FFAE00"/>
<path d="M221.605 210.726L225.312 208.798L224.961 50.3133L221.254 52.2437L221.605 210.726Z" fill="url(#paint4_linear_2101_1440)"/>
<path d="M224.961 50.3155L221.252 52.2415L174.455 13.6216L172.705 12.176L174.464 11.2594L174.617 11.1864L184.258 16.7364L224.961 50.3155Z" fill="#A5E5EF"/>
<path d="M172.703 12.1782L173.054 170.663L221.605 210.726L221.254 52.2437L172.703 12.1782Z" fill="#56AAB2"/>
<path d="M176.063 24.6441L175.945 54.6324L213.148 85.3313L213.264 55.3409L176.063 24.6441Z" fill="#696969"/>
<path d="M181.126 32.346L181.042 54.1454L208.082 76.4606L208.167 54.6612L181.126 32.346Z" fill="#88CCD3"/>
<path d="M182.889 37.2872L182.825 53.9971L203.554 71.101L203.618 54.3911L182.889 37.2872Z" fill="#A5E5EF"/>
<path d="M176.063 24.6441L178.195 26.4041L178.09 53.5897L213.159 82.5264L213.148 85.3313L175.945 54.6324L176.063 24.6441Z" fill="#878486"/>
<path d="M175.945 54.6324L178.09 53.5897L213.159 82.5264L213.148 85.3313L175.945 54.6324Z" fill="#A5E5EF"/>
<path d="M176.063 61.2451L175.945 91.2356L213.148 121.934L213.264 91.944L176.063 61.2451Z" fill="#696969"/>
<path d="M181.126 68.9492L181.042 90.7486L208.082 113.064L208.167 91.2644L181.126 68.9492Z" fill="#88CCD3"/>
<path d="M182.889 73.8904L182.825 90.6002L203.554 107.704L203.618 90.9943L182.889 73.8904Z" fill="#A5E5EF"/>
<path d="M176.063 61.2451L178.195 63.0073L178.09 90.1929L213.159 119.13L213.148 121.934L175.945 91.2356L176.063 61.2451Z" fill="#878486"/>
<path d="M175.945 91.2356L178.09 90.1929L213.159 119.13L213.148 121.934L175.945 91.2356Z" fill="#A5E5EF"/>
<path d="M176.063 97.8482L175.945 127.839L213.148 158.538L213.264 128.547L176.063 97.8482Z" fill="#696969"/>
<path d="M181.126 105.552L181.042 127.352L208.082 149.667L208.167 127.868L181.126 105.552Z" fill="#88CCD3"/>
<path d="M182.889 110.491L182.825 127.201L203.554 144.307L203.618 127.597L182.889 110.491Z" fill="#A5E5EF"/>
<path d="M176.063 97.8482L178.195 99.6104L178.09 126.794L213.159 155.733L213.148 158.538L175.945 127.839L176.063 97.8482Z" fill="#878486"/>
<path d="M175.945 127.839L178.09 126.794L213.159 155.733L213.148 158.538L175.945 127.839Z" fill="#A5E5EF"/>
<path d="M176.063 134.451L175.945 164.442L213.148 195.141L213.264 165.15L176.063 134.451Z" fill="#696969"/>
<path d="M181.126 142.155L181.042 163.955L208.082 186.268L208.167 164.468L181.126 142.155Z" fill="#88CCD3"/>
<path d="M182.889 147.094L182.825 163.804L203.554 180.91L203.618 164.201L182.889 147.094Z" fill="#A5E5EF"/>
<path d="M176.063 134.451L178.195 136.211L178.09 163.397L213.159 192.336L213.148 195.141L175.945 164.442L176.063 134.451Z" fill="#878486"/>
<path d="M175.945 164.442L178.09 163.397L213.159 192.336L213.148 195.141L175.945 164.442Z" fill="#A5E5EF"/>
<path d="M216.422 118.634C216.693 118.492 217.068 118.574 217.481 118.915C218.305 119.592 218.967 121.027 218.965 122.125L218.94 132.561C218.94 133.105 218.774 133.464 218.505 133.603L217.261 134.254C217.528 134.115 217.694 133.756 217.697 133.212L217.721 122.776C217.723 121.678 217.061 120.243 216.238 119.566C215.824 119.227 215.449 119.143 215.178 119.285L216.422 118.634Z" fill="#FFAE00"/>
<path d="M216.238 119.566C215.418 118.893 214.747 119.229 214.745 120.327L214.721 130.763C214.718 131.857 215.385 133.3 216.204 133.973C217.028 134.651 217.694 134.303 217.697 133.212L217.721 122.776C217.723 121.678 217.061 120.243 216.238 119.566Z" fill="#FF9000"/>
<path d="M207.696 126.22C207.696 128.802 209.795 130.894 212.384 130.894C214.974 130.894 217.073 128.802 217.073 126.22C217.073 123.639 214.974 121.547 212.384 121.547C209.795 121.547 207.696 123.639 207.696 126.22Z" fill="#FF9000"/>
<path d="M208.656 124.959C208.656 126.482 209.893 127.715 211.421 127.715C212.949 127.715 214.186 126.482 214.186 124.959C214.186 123.435 212.949 122.202 211.421 122.202C209.893 122.202 208.656 123.435 208.656 124.959Z" fill="#FFAE00"/>
<path d="M500.106 345.098L427.79 303.575C427.483 303.398 427.521 303.091 427.876 302.887L433.875 299.436C434.228 299.232 434.763 299.21 435.069 299.387L507.386 340.909C507.693 341.086 507.655 341.394 507.3 341.598L501.301 345.049C500.948 345.253 500.413 345.275 500.106 345.098Z" fill="#D9D9D9"/>
<path d="M438.882 148.496L443.218 145.985L442.767 304.414L438.432 306.927L438.882 148.496Z" fill="#448282"/>
<path d="M500.624 178.307L504.961 175.797L504.494 339.939L500.157 342.452L500.624 178.307Z" fill="#448282"/>
<path d="M433.91 139.911L438.245 137.4L504.961 175.797L500.624 178.307L433.91 139.911Z" fill="#A5E5EF"/>
<path d="M500.624 178.307L500.157 342.452L495.169 339.581L495.62 181.152L438.882 148.496L438.432 306.927L433.441 304.056L433.91 139.911L500.624 178.307Z" fill="#56AAB2"/>
<path d="M440.497 176.43L440.47 186.155C440.47 186.403 440.306 186.653 439.977 186.841C439.318 187.224 438.243 187.224 437.579 186.841C437.246 186.649 437.079 186.396 437.079 186.146L437.106 176.421C437.106 176.673 437.272 176.926 437.605 177.116C438.269 177.499 439.344 177.497 440.004 177.116C440.333 176.926 440.497 176.678 440.497 176.43Z" fill="#FF9000"/>
<path d="M439.995 175.732C440.659 176.115 440.664 176.733 440.002 177.116C439.342 177.499 438.267 177.501 437.603 177.116C436.939 176.733 436.937 176.113 437.599 175.73C438.259 175.347 439.331 175.347 439.995 175.73V175.732Z" fill="#FFAE00"/>
<path d="M440.497 277.84L440.47 287.565C440.47 287.813 440.306 288.061 439.977 288.251C439.318 288.634 438.243 288.634 437.579 288.251C437.246 288.059 437.079 287.806 437.079 287.556L437.106 277.831C437.106 278.083 437.272 278.336 437.605 278.526C438.269 278.909 439.344 278.907 440.004 278.526C440.333 278.336 440.497 278.088 440.497 277.84Z" fill="#FF9000"/>
<path d="M439.995 277.145C440.659 277.528 440.664 278.145 440.002 278.528C439.342 278.911 438.267 278.914 437.603 278.528C436.939 278.145 436.937 277.526 437.599 277.143C438.259 276.76 439.331 276.76 439.995 277.143V277.145Z" fill="#FFAE00"/>
<path d="M464.025 348.317L468.693 346.623L468.493 188.138L463.825 189.832L464.025 348.317Z" fill="url(#paint5_linear_2101_1440)"/>
<path d="M468.495 188.134L463.82 189.832L438.863 153.619L436.211 149.767L438.88 148.642L439.027 148.578L443.127 150.94L468.495 188.134Z" fill="#A5E5EF"/>
<path d="M436.213 149.767L436.413 308.251L464.024 348.317L463.824 189.832L436.213 149.767Z" fill="#56AAB2"/>
<path d="M438.125 162.232L438.059 192.223L459.214 222.92L459.281 192.931L438.125 162.232Z" fill="#696969"/>
<path d="M441.003 169.934L440.957 191.734L456.336 214.049L456.382 192.25L441.003 169.934Z" fill="#88CCD3"/>
<path d="M442.007 174.876L441.972 191.585L453.76 208.689L453.795 191.979L442.007 174.876Z" fill="#A5E5EF"/>
<path d="M438.125 162.232L439.338 163.992L439.278 191.178L459.221 220.115L459.214 222.92L438.059 192.223L438.125 162.232Z" fill="#878486"/>
<path d="M438.059 192.223L439.278 191.178L459.221 220.115L459.214 222.92L438.059 192.223Z" fill="#A5E5EF"/>
<path d="M438.125 198.836L438.059 228.824L459.214 259.523L459.281 229.532L438.125 198.836Z" fill="#696969"/>
<path d="M441.003 206.537L440.957 228.337L456.336 250.652L456.382 228.853L441.003 206.537Z" fill="#88CCD3"/>
<path d="M442.007 211.479L441.972 228.189L453.76 245.292L453.795 228.583L442.007 211.479Z" fill="#A5E5EF"/>
<path d="M438.125 198.836L439.338 200.596L439.278 227.781L459.221 256.718L459.214 259.523L438.059 228.824L438.125 198.836Z" fill="#878486"/>
<path d="M438.059 228.824L439.278 227.781L459.221 256.718L459.214 259.523L438.059 228.824Z" fill="#A5E5EF"/>
<path d="M438.125 235.437L438.059 265.427L459.214 296.126L459.281 266.135L438.125 235.437Z" fill="#696969"/>
<path d="M441.003 243.141L440.957 264.94L456.336 287.255L456.382 265.456L441.003 243.141Z" fill="#88CCD3"/>
<path d="M442.007 248.08L441.972 264.792L453.76 281.896L453.795 265.186L442.007 248.08Z" fill="#A5E5EF"/>
<path d="M438.125 235.437L439.338 237.199L439.278 264.384L459.221 293.321L459.214 296.126L438.059 265.427L438.125 235.437Z" fill="#878486"/>
<path d="M438.059 265.427L439.278 264.384L459.221 293.321L459.214 296.126L438.059 265.427Z" fill="#A5E5EF"/>
<path d="M438.125 272.04L438.059 302.03L459.214 332.729L459.281 302.739L438.125 272.04Z" fill="#696969"/>
<path d="M441.003 279.744L440.957 301.543L456.336 323.856L456.382 302.057L441.003 279.744Z" fill="#88CCD3"/>
<path d="M442.007 284.683L441.972 301.393L453.76 318.499L453.795 301.789L442.007 284.683Z" fill="#A5E5EF"/>
<path d="M438.125 272.04L439.338 273.802L439.278 300.985L459.221 329.924L459.214 332.729L438.059 302.03L438.125 272.04Z" fill="#878486"/>
<path d="M438.059 302.03L439.278 300.985L459.221 329.924L459.214 332.729L438.059 302.03Z" fill="#A5E5EF"/>
<path d="M461.077 256.222C461.231 256.08 461.444 256.162 461.679 256.503C462.148 257.181 462.523 258.615 462.523 259.713L462.508 270.149C462.508 270.694 462.412 271.052 462.261 271.192L461.553 271.843C461.706 271.703 461.799 271.345 461.799 270.8L461.812 260.364C461.812 259.266 461.437 257.831 460.969 257.154C460.733 256.815 460.52 256.731 460.367 256.873L461.075 256.222H461.077Z" fill="#FFAE00"/>
<path d="M460.971 257.154C460.505 256.481 460.123 256.818 460.123 257.916L460.109 268.352C460.109 269.445 460.487 270.889 460.953 271.562C461.422 272.239 461.802 271.894 461.802 270.8L461.815 260.364C461.815 259.266 461.44 257.831 460.971 257.154Z" fill="#FF9000"/>
<path d="M453.091 263.687C453.091 265.987 454.961 267.851 457.269 267.851C459.576 267.851 461.446 265.987 461.446 263.687C461.446 261.387 459.576 259.523 457.269 259.523C454.961 259.523 453.091 261.387 453.091 263.687Z" fill="#FF9000"/>
<path d="M453.946 262.562C453.946 263.919 455.05 265.018 456.411 265.018C457.773 265.018 458.874 263.917 458.874 262.562C458.874 261.208 457.771 260.105 456.411 260.105C455.052 260.105 453.946 261.205 453.946 262.562Z" fill="#FFAE00"/>
<path d="M265.32 144.688L269.657 142.175L269.206 300.607L264.869 303.117L265.32 144.688Z" fill="#56AAB2"/>
<path d="M327.064 174.499L331.401 171.987L330.932 336.132L326.597 338.642L327.064 174.499Z" fill="#448282"/>
<path d="M260.348 136.103L264.685 133.59L331.401 171.987L327.064 174.499L260.348 136.103Z" fill="#A5E5EF"/>
<path d="M327.064 174.499L326.597 338.642L321.609 335.771L322.058 177.342L265.32 144.688L264.869 303.117L259.881 300.246L260.348 136.103L327.064 174.499Z" fill="#56AAB2"/>
<path d="M265.227 172.62L265.2 182.345C265.2 182.593 265.036 182.843 264.707 183.031C264.048 183.414 262.973 183.414 262.309 183.031C261.976 182.839 261.809 182.586 261.809 182.336L261.836 172.611C261.836 172.863 262.002 173.116 262.335 173.306C262.999 173.689 264.074 173.687 264.734 173.306C265.063 173.116 265.227 172.868 265.227 172.62Z" fill="#FF9000"/>
<path d="M264.725 171.925C265.389 172.308 265.393 172.925 264.734 173.308C264.074 173.691 262.999 173.693 262.335 173.308C261.671 172.925 261.669 172.305 262.331 171.922C262.99 171.539 264.063 171.539 264.727 171.922L264.725 171.925Z" fill="#FFAE00"/>
<path d="M265.227 274.032L265.2 283.757C265.2 284.005 265.036 284.253 264.707 284.444C264.048 284.827 262.973 284.827 262.309 284.444C261.976 284.251 261.809 283.999 261.809 283.749L261.836 274.023C261.836 274.276 262.002 274.528 262.335 274.718C262.999 275.101 264.074 275.099 264.734 274.718C265.063 274.528 265.227 274.28 265.227 274.032Z" fill="#FF9000"/>
<path d="M264.725 273.335C265.389 273.718 265.393 274.335 264.734 274.718C264.074 275.101 262.999 275.104 262.335 274.718C261.671 274.335 261.669 273.716 262.331 273.333C262.99 272.95 264.063 272.95 264.727 273.333L264.725 273.335Z" fill="#FFAE00"/>
<path d="M206.097 336.063L201.778 333.573L202.186 175.141L206.506 177.632L206.097 336.063Z" fill="#56AAB2"/>
<path d="M206.506 177.632L202.187 175.141L258.775 142.432L263.095 144.923L206.506 177.632Z" fill="#A5E5EF"/>
<path d="M263.095 144.923L262.686 303.354L206.097 336.063L206.506 177.632L263.095 144.923Z" fill="url(#paint6_linear_2101_1440)"/>
<path d="M259.18 156.88L259.315 186.888L215.956 211.95L215.82 181.942L259.18 156.88Z" fill="#696969"/>
<path d="M253.277 163.815L253.375 185.628L221.857 203.845L221.759 182.033L253.277 163.815Z" fill="#88CCD3"/>
<path d="M251.22 168.489L251.296 185.207L227.135 199.172L227.062 182.453L251.22 168.489Z" fill="#A5E5EF"/>
<path d="M259.18 156.88L256.692 158.316L256.815 185.517L215.942 209.143L215.956 211.95L259.315 186.888L259.18 156.88Z" fill="#878486"/>
<path d="M259.315 186.888L256.815 185.517L215.942 209.143L215.956 211.95L259.315 186.888Z" fill="#A5E5EF"/>
<path d="M259.18 193.483L259.315 223.489L215.956 248.553L215.82 218.545L259.18 193.483Z" fill="#696969"/>
<path d="M253.277 200.419L253.375 222.231L221.857 240.449L221.759 218.636L253.277 200.419Z" fill="#88CCD3"/>
<path d="M251.22 205.09L251.296 221.811L227.135 235.775L227.062 219.057L251.22 205.09Z" fill="#A5E5EF"/>
<path d="M259.18 193.483L256.692 194.919L256.815 222.121L215.942 245.746L215.956 248.553L259.315 223.489L259.18 193.483Z" fill="#878486"/>
<path d="M259.315 223.489L256.815 222.121L215.942 245.746L215.956 248.553L259.315 223.489Z" fill="#A5E5EF"/>
<path d="M259.18 230.086L259.315 260.092L215.956 285.154L215.82 255.148L259.18 230.086Z" fill="#696969"/>
<path d="M253.277 237.022L253.375 258.832L221.857 277.052L221.759 255.239L253.277 237.022Z" fill="#88CCD3"/>
<path d="M251.22 241.693L251.296 258.414L227.135 272.378L227.062 255.658L251.22 241.693Z" fill="#A5E5EF"/>
<path d="M259.18 230.086L256.692 231.523L256.815 258.724L215.942 282.349L215.956 285.154L259.315 260.092L259.18 230.086Z" fill="#878486"/>
<path d="M259.315 260.092L256.815 258.724L215.942 282.349L215.956 285.154L259.315 260.092Z" fill="#A5E5EF"/>
<path d="M259.18 266.687L259.315 296.695L215.956 321.758L215.82 291.749L259.18 266.687Z" fill="#696969"/>
<path d="M253.277 273.623L253.375 295.435L221.857 313.653L221.759 291.842L253.277 273.623Z" fill="#88CCD3"/>
<path d="M251.22 278.296L251.296 295.017L227.135 308.982L227.062 292.261L251.22 278.296Z" fill="#A5E5EF"/>
<path d="M259.18 266.687L256.692 268.126L256.815 295.327L215.942 318.95L215.956 321.758L259.315 296.695L259.18 266.687Z" fill="#878486"/>
<path d="M259.315 296.695L256.815 295.327L215.942 318.95L215.956 321.758L259.315 296.695Z" fill="#A5E5EF"/>
<path d="M212.138 244.755C211.823 244.571 211.385 244.597 210.903 244.874C209.944 245.425 209.171 246.76 209.175 247.858L209.204 258.299C209.204 258.843 209.4 259.226 209.711 259.408L211.161 260.249C210.85 260.067 210.657 259.684 210.654 259.14L210.626 248.7C210.623 247.602 211.394 246.267 212.353 245.715C212.835 245.439 213.271 245.412 213.588 245.596L212.138 244.755Z" fill="#FFAE00"/>
<path d="M212.353 245.715C213.308 245.166 214.09 245.605 214.094 246.705L214.123 257.145C214.126 258.239 213.348 259.58 212.396 260.129C211.436 260.681 210.659 260.236 210.654 259.142L210.625 248.702C210.623 247.604 211.394 246.269 212.353 245.718V245.715Z" fill="#FF9000"/>
<path d="M219.544 253.251C219.544 255.832 217.446 257.924 214.856 257.924C212.267 257.924 210.168 255.832 210.168 253.251C210.168 250.67 212.267 248.578 214.856 248.578C217.446 248.578 219.544 250.67 219.544 253.251Z" fill="#FF9000"/>
<path d="M216.686 251.989C216.686 253.512 215.449 254.745 213.921 254.745C212.393 254.745 211.156 253.512 211.156 251.989C211.156 250.466 212.393 249.233 213.921 249.233C215.449 249.233 216.686 250.466 216.686 251.989Z" fill="#FFAE00"/>
<path d="M282.68 367.858C271.059 374.546 252.155 374.513 240.46 367.783C228.765 361.053 228.705 350.174 240.329 343.484C251.951 336.796 270.854 336.829 282.549 343.559C294.244 350.289 294.304 361.168 282.682 367.858H282.68Z" fill="#F2F2F2"/>
<path d="M246.101 247.024C245.839 246.681 245.941 246.426 245.977 246.014C246.057 245.049 245.977 244.064 245.661 243.143C245.442 242.494 245.091 241.863 244.533 241.467C243.796 240.942 242.808 240.907 241.919 241.091C240.9 241.301 239.634 241.903 239.265 242.957C238.844 244.161 238.484 245.306 237.857 246.435C237.467 247.139 237.036 247.818 236.585 248.485C235.45 250.163 234.191 251.755 232.818 253.247C232.678 253.399 232.536 253.557 232.408 253.72C232.223 253.696 224.579 253.05 224.077 252.954C223.906 252.879 223.74 252.795 223.617 252.66C223.391 252.408 223.271 252.053 223.065 251.781C222.516 251.059 221.89 250.395 221.228 249.775C220.486 249.078 219.682 248.465 218.912 247.803C218.683 247.621 218.452 247.435 218.181 247.325C217.761 247.152 217.275 247.168 216.873 246.957C216.777 246.909 216.684 246.847 216.577 246.844C216.402 246.84 216.262 247.013 216.247 247.187C216.231 247.362 216.313 247.531 216.411 247.675C216.926 248.443 217.912 248.788 218.436 249.55C218.587 249.769 218.689 250.083 218.523 250.291C218.356 250.499 218.034 250.473 217.772 250.415C215.56 249.935 213.453 248.852 211.19 248.863C211.052 248.863 210.905 248.872 210.794 248.952C210.588 249.1 210.61 249.437 210.772 249.632C210.934 249.829 211.19 249.919 211.432 250.003C212.311 250.307 213.191 250.61 214.068 250.911C214.374 251.017 214.688 251.126 214.936 251.332C215.185 251.538 215.36 251.863 215.296 252.18C214.776 252.386 214.197 252.171 213.666 251.996C212.602 251.646 211.487 251.451 210.368 251.425C210.168 251.42 209.948 251.429 209.802 251.564C209.564 251.786 209.68 252.182 209.851 252.459C210.075 252.824 210.368 253.145 210.712 253.402C210.341 253.504 210.168 253.975 210.281 254.343C210.395 254.71 210.717 254.978 211.054 255.159C211.594 255.452 212.12 255.529 212.715 255.598C213.386 255.675 214.055 255.751 214.725 255.828C214.943 255.852 215.207 255.914 215.267 256.125C215.278 256.164 215.281 256.207 215.261 256.242C215.236 256.284 215.189 256.306 215.143 256.324C214.406 256.609 213.566 256.618 212.822 256.353C212.631 256.284 212.44 256.198 212.236 256.2C212.034 256.202 211.812 256.331 211.787 256.532C211.776 256.629 211.812 256.725 211.854 256.813C212.109 257.329 212.658 257.652 213.222 257.776C213.786 257.902 214.37 257.858 214.947 257.814C215.658 257.758 216.324 257.867 217.011 257.67C217.854 257.429 218.685 257.139 219.542 256.944C219.973 256.844 220.411 256.769 220.853 256.74C221.332 256.709 221.61 256.762 222.041 256.961C223.677 257.723 231.679 261.019 234.131 261.617C235.734 262.009 236.843 260.988 237.924 259.95C240.005 257.951 241.728 255.62 243.512 253.346C244.771 251.741 245.932 250.019 246.539 248.073C246.576 247.953 246.612 247.83 246.596 247.703C246.559 247.398 246.274 247.243 246.103 247.021L246.101 247.024Z" fill="#FFC7A6"/>
<path d="M234.588 357.112C234.564 358.115 234.726 359.089 235.141 359.808C235.617 360.632 236.509 361.201 237.458 361.285C239.09 361.429 240.511 360.258 242.07 359.758C243.58 359.273 245.217 359.43 246.787 359.197C247.856 359.04 248.908 358.693 249.801 358.086C250.429 357.659 250.996 357.128 251.433 356.505C251.826 355.945 252.202 355.159 252.335 354.484C252.439 353.951 252.357 353.351 251.989 352.95C251.56 352.485 250.867 352.39 250.234 352.346C247.913 352.184 245.577 352.301 243.263 352.06C241.309 351.856 239.305 351.403 237.413 351.921C236.505 352.169 235.956 352.7 235.497 353.506C234.975 354.422 234.622 355.793 234.591 357.11L234.588 357.112Z" fill="#262626"/>
<path d="M262.347 282.666C262.196 281.789 261.811 280.975 261.478 280.151C260.765 278.385 260.279 276.532 259.928 274.659C259.564 272.713 259.266 270.592 257.858 269.197C257.041 268.387 255.908 267.902 254.796 267.652C253.574 267.377 253.266 267.267 252.402 266.262C252.313 266.16 252.217 266.051 252.086 266.018C251.84 265.956 251.62 266.178 251.464 266.379C248.529 270.18 246.314 274.526 244.924 279.117C244.134 281.727 243.66 284.125 243.707 286.852C243.754 289.593 244.238 292.303 244.469 295.03C244.751 298.34 244.56 301.545 244.129 304.817C243.792 307.392 243.307 309.947 242.683 312.466C242.084 314.879 241.355 317.259 240.498 319.595C239.721 321.713 238.668 323.726 237.964 325.86C237.327 327.788 237.06 329.816 236.854 331.837C236.427 336.028 236.261 340.236 236.012 344.44C235.885 346.568 235.177 352.483 235.132 353.333C235.11 353.756 235.075 354.048 235.461 354.283C235.852 354.52 236.314 354.624 236.763 354.69C238.646 354.962 240.6 354.617 242.317 353.796C242.925 353.504 243.509 353.152 244.031 352.722C244.247 352.545 244.613 352.299 244.724 352.038C244.842 351.763 244.835 351.352 244.88 351.055C245.748 345.281 249.63 327.75 250.863 324.753C254.92 314.888 257.554 304.222 260.694 293.992C261.796 290.399 263.002 286.458 262.351 282.673L262.347 282.666Z" fill="#513C24"/>
<path d="M250.316 230.5C249.095 230.606 247.882 230.841 246.71 231.199C245.06 231.7 243.912 233.369 242.972 234.719C242.966 234.728 242.961 234.737 242.954 234.746C241.571 236.743 240.4 238.877 239.339 241.06C238.808 242.153 237.318 245.485 237.076 246.043C236.938 246.357 236.732 246.581 236.849 246.924C236.974 247.287 237.345 247.666 237.593 247.949C238.16 248.584 238.837 249.116 239.557 249.57C240.5 250.165 241.531 250.639 242.624 250.865C243.716 251.093 244.875 251.064 245.924 250.683C246.075 250.628 246.235 250.557 246.306 250.415C246.361 250.307 246.355 250.176 246.346 250.054C246.117 246.743 246.545 243.433 247.42 240.218C247.934 238.354 248.511 236.559 248.686 234.624C248.76 233.801 249.031 233.094 249.262 232.3C249.477 231.567 249.621 230.967 250.314 230.502L250.316 230.5Z" fill="#EDB018"/>
<path d="M268.174 352.144C268.076 353.322 268.285 354.564 268.991 355.514C269.178 355.764 269.402 355.996 269.682 356.136C269.971 356.28 270.304 356.32 270.626 356.313C271.354 356.295 272.076 356.045 272.66 355.607C273.235 355.175 273.668 354.573 274.255 354.157C275.285 353.424 276.629 353.357 277.888 353.258C279.702 353.116 281.548 352.839 283.16 351.998C284.772 351.155 286.129 349.656 286.387 347.858C286.46 347.351 286.434 346.8 286.145 346.377C285.876 345.983 285.412 345.755 284.943 345.669C284.473 345.583 283.991 345.62 283.513 345.658C281.783 345.797 280.053 345.937 278.323 346.076C276.447 346.227 274.552 346.384 272.733 346.895C271.501 347.241 269.473 347.823 268.905 349.111C268.496 350.037 268.256 351.139 268.174 352.142V352.144Z" fill="#404040"/>
<path d="M274.135 321.461C274.035 319.831 274.006 318.202 274.099 316.575C274.313 312.878 274.501 309.179 274.597 305.475C274.788 298.105 274.615 290.698 273.513 283.397C272.969 279.793 272.272 276.162 271.155 272.686C270.939 272.013 270.695 271.325 270.222 270.798C268.963 269.388 267.01 270.727 265.463 270.902C263.457 271.128 261.385 270.833 259.551 269.981C257.807 269.171 254.769 267.262 253.028 269.219C252.584 269.717 252.46 270.415 252.351 271.072C251.658 275.281 250.961 279.531 250.921 283.804C250.914 284.572 250.927 285.34 250.967 286.109C251.083 288.351 251.547 289.766 253.01 291.495C254.265 292.978 255.88 294.109 257.206 295.526C257.93 296.299 258.574 297.175 258.882 298.187C259.167 299.115 259.155 300.104 259.173 301.076C259.289 307.071 260.686 312.955 262.127 318.782C262.094 318.72 262.06 318.66 262.051 318.594C262.131 319.099 262.213 319.603 262.296 320.108C263.202 325.716 264.159 331.315 265.169 336.902C265.674 339.696 268.032 351.252 268.272 351.29C271.012 351.688 273.917 350.776 275.936 348.886C276.078 348.753 276.22 348.609 276.298 348.43C276.391 348.215 276.385 347.973 276.376 347.741C276.114 340.48 275.359 333.334 274.557 326.119C274.384 324.567 274.228 323.013 274.133 321.456L274.135 321.461Z" fill="#59421C"/>
<path d="M279.9 245.219C279.984 242.753 279.367 239.922 277.031 238.609C275.825 237.932 274.759 237.05 273.566 236.324C272.158 235.468 270.67 234.75 269.178 234.053C265.807 232.479 262.353 230.989 258.691 230.323C255.049 229.659 251.256 229.836 247.691 230.834C246.95 231.042 246.194 231.299 245.628 231.819C244.16 233.174 244.038 236.017 244.105 237.854C244.444 246.993 245.146 256.116 246.212 265.199C246.472 267.408 246.752 269.631 246.616 271.854C246.528 273.291 246.263 274.71 245.944 276.111C245.679 277.264 245.428 277.875 246.25 278.783C247.913 280.623 250.039 281.904 252.268 282.954C258.633 285.949 266.1 287.381 272.745 285.064C274.212 284.552 273.804 282.693 273.793 281.448C273.768 278.772 273.553 276.126 273.746 273.446C274.27 266.202 276.422 259.211 278.465 252.27C279.145 249.961 279.816 247.619 279.9 245.215V245.219Z" fill="#EDB018"/>
<path d="M273.402 218.435C273.351 218.753 273.293 219.083 273.388 219.391C273.546 219.9 274.103 220.374 273.868 220.854C273.748 221.098 273.466 221.206 273.248 221.368C272.458 221.959 272.591 223.141 272.571 224.124C272.556 224.906 272.396 225.678 272.234 226.444C272.125 226.969 272.118 227.491 271.656 227.832C271.172 228.191 270.579 228.357 270.022 228.585C269.338 228.864 268.698 229.245 268.123 229.705C267.63 230.099 267.605 230.732 267.585 231.348C267.563 232.052 267.796 232.924 267.31 233.493C266.915 233.958 266.297 234.19 265.718 234.332C263.881 234.779 261.953 234.602 260.088 234.305C259.162 234.159 258.231 233.98 257.372 233.606C256.512 233.232 255.722 232.645 255.253 231.837C254.798 231.049 255.56 230.812 255.979 230.281C256.29 229.887 256.534 229.437 256.717 228.97C257.074 228.058 257.221 227.082 257.365 226.114C257.489 225.282 257.383 224.919 257.079 224.146C256.801 223.44 256.543 222.725 256.31 222.001C255.844 220.555 255.466 219.081 255.186 217.589C255.029 216.752 254.9 215.904 254.924 215.054C254.964 213.732 255.38 212.435 256.024 211.277C256.586 210.268 257.325 209.347 258.247 208.647C259.903 207.388 262.015 206.916 264.07 206.575C265.267 206.376 266.482 206.21 267.694 206.287C268.414 206.334 269.135 206.469 269.777 206.794C270.324 207.073 270.792 207.478 271.254 207.881C272.627 209.075 272.986 210.52 273.313 212.271C273.69 214.301 273.724 216.393 273.402 218.435Z" fill="#FFE5CC"/>
<path d="M259.417 209.453C258.831 209.327 258.22 209.331 257.634 209.455C257.199 209.548 256.413 209.734 256.115 210.082C255.633 210.646 255.089 211.31 254.816 212.008C254.507 212.792 254.429 213.737 254.394 214.569C254.327 216.145 254.569 217.719 254.902 219.262C255.227 220.757 255.653 222.269 256.559 223.504C257.465 224.737 258.94 225.654 260.468 225.521C261.907 225.397 263.117 224.396 264.057 223.303C264.996 222.209 265.778 220.963 266.895 220.048C267.159 219.831 267.443 219.634 267.757 219.499C268.9 219.012 270.246 219.453 271.259 220.172C271.199 219.457 271.421 218.72 271.87 218.158C272.332 217.578 273.027 217.166 273.306 216.48C273.597 215.765 273.358 214.954 273.093 214.228C272.694 213.137 272.243 212.063 271.739 211.014C271.692 210.919 271.636 210.815 271.534 210.788C271.459 210.768 271.381 210.797 271.308 210.826C268.179 212.014 264.599 211.6 261.529 210.266C260.837 209.964 260.155 209.615 259.417 209.455V209.453Z" fill="#352D2A"/>
<path d="M257.588 216.008C259.062 216.265 260.57 216.309 262.067 216.265C263.901 216.21 265.758 216.017 267.475 215.375C268.856 214.857 270.117 214.06 271.279 213.15C271.788 212.752 272.287 212.322 272.638 211.78C273.329 210.713 273.018 208.895 272.323 207.879C271.83 207.157 271.055 206.675 270.264 206.298C268.23 205.333 265.913 204.948 263.682 205.253C261.45 205.559 259.311 206.56 257.683 208.114C257.003 208.765 256.741 209.475 255.833 209.876C255.076 210.21 254.427 210.806 254.081 211.556C253.794 212.178 253.666 213.075 253.972 213.719C254.214 214.233 254.758 214.718 255.2 215.072C255.871 215.612 256.748 215.862 257.583 216.006L257.588 216.008Z" fill="#2B2625"/>
<path d="M289.318 291.597C289.312 291.555 289.305 291.512 289.296 291.473C288.99 289.715 288.612 287.966 288.099 286.255C287.639 284.727 287.442 283.102 287.133 281.524C286.434 277.94 285.912 274.318 285.023 270.773C284.506 268.701 283.7 266.707 283.236 264.601C282.86 262.897 282.592 261.17 282.349 259.441C282.127 257.858 282.245 256.213 281.883 254.655C281.652 253.656 281.155 252.678 280.306 252.098C279.236 251.365 277.81 251.394 276.546 251.699C276 251.832 275.452 252.018 275.012 252.37C274.426 252.839 274.09 253.565 273.975 254.305C273.839 255.162 274.035 255.921 274.152 256.753C274.419 258.626 274.203 260.521 274.288 262.403C274.372 264.314 274.621 266.215 275.027 268.084C275.598 270.7 276.611 273.043 277.646 275.493C278.13 276.64 278.65 277.774 279.22 278.883C280.049 280.497 284.062 287.226 284.195 288.039C284.264 288.46 284.544 289.009 284.222 289.363C283.766 289.861 283.615 290.527 283.626 291.189C283.64 291.929 283.817 292.661 283.784 293.401C283.76 293.923 283.633 294.435 283.573 294.953C283.56 295.072 283.551 295.198 283.606 295.305C283.678 295.442 283.837 295.511 283.991 295.537C284.455 295.621 284.961 295.411 285.23 295.021C285.325 295.601 285.421 296.181 285.519 296.761C285.534 296.85 285.547 296.945 285.521 297.031C285.494 297.12 285.425 297.191 285.361 297.257C285.121 297.503 284.857 297.76 284.519 297.826C284.268 297.875 284.006 297.811 283.755 297.853C283.24 297.937 282.907 298.426 282.634 298.869C282.525 299.046 282.416 299.281 282.538 299.449C282.64 299.593 282.847 299.599 283.022 299.595C283.609 299.577 284.193 299.557 284.779 299.54C285.257 299.524 285.741 299.509 286.196 299.36C287.222 299.028 287.922 298.09 288.435 297.142C289.436 295.294 289.64 293.604 289.31 291.599L289.318 291.597Z" fill="#FFC7A6"/>
<path d="M273.204 243.116C272.88 245.288 272.911 247.522 272.913 249.716C272.913 251.516 273.104 258.958 273.524 260.856C273.871 262.421 276.067 261.974 277.304 261.819C278.337 261.69 279.374 261.54 280.351 261.188C281.388 260.814 282.332 260.22 283.236 259.591C283.658 259.297 284.071 258.987 284.448 258.637C284.981 258.144 285.483 257.557 285.725 256.862C285.961 256.187 285.572 255.441 285.381 254.77C284.915 253.127 284.386 251.504 283.78 249.908C282.57 246.727 281.053 243.654 279.147 240.827C278.679 240.132 278.181 239.446 277.539 238.908C276.751 238.246 275.772 237.945 274.857 238.6C274.399 238.926 274.164 239.472 273.973 239.999C273.604 241.015 273.362 242.058 273.204 243.114V243.116Z" fill="#EDB018"/>
</g>
<defs>
<linearGradient id="paint0_linear_2101_1440" x1="353.94" y1="93.1439" x2="397.433" y2="93.1439" gradientUnits="userSpaceOnUse">
<stop offset="0.1" stop-color="#6FB5C1"/>
<stop offset="1" stop-color="#83C9ED"/>
</linearGradient>
<linearGradient id="paint1_linear_2101_1440" x1="-0.000200219" y1="129.747" x2="0.221883" y2="129.747" gradientUnits="userSpaceOnUse">
<stop offset="0.1" stop-color="#6FB5C1"/>
<stop offset="1" stop-color="#83C9ED"/>
</linearGradient>
<linearGradient id="paint2_linear_2101_1440" x1="-0.000200219" y1="166.35" x2="0.221883" y2="166.35" gradientUnits="userSpaceOnUse">
<stop offset="0.1" stop-color="#6FB5C1"/>
<stop offset="1" stop-color="#83C9ED"/>
</linearGradient>
<linearGradient id="paint3_linear_2101_1440" x1="-0.000200219" y1="202.953" x2="0.221883" y2="202.953" gradientUnits="userSpaceOnUse">
<stop offset="0.1" stop-color="#6FB5C1"/>
<stop offset="1" stop-color="#83C9ED"/>
</linearGradient>
<linearGradient id="paint4_linear_2101_1440" x1="221.254" y1="130.52" x2="225.312" y2="130.52" gradientUnits="userSpaceOnUse">
<stop offset="0.1" stop-color="#6FB5C1"/>
<stop offset="1" stop-color="#83C9ED"/>
</linearGradient>
<linearGradient id="paint5_linear_2101_1440" x1="463.825" y1="268.228" x2="468.693" y2="268.228" gradientUnits="userSpaceOnUse">
<stop offset="0.1" stop-color="#6FB5C1"/>
<stop offset="1" stop-color="#83C9ED"/>
</linearGradient>
<linearGradient id="paint6_linear_2101_1440" x1="206.097" y1="240.493" x2="263.095" y2="240.493" gradientUnits="userSpaceOnUse">
<stop offset="0.1" stop-color="#6FB5C1"/>
<stop offset="1" stop-color="#83C9ED"/>
</linearGradient>
<clipPath id="clip0_2101_1440">
<rect width="620" height="472" fill="white"/>
</clipPath>
</defs>
</svg>
