<svg width="169" height="147" viewBox="0 0 169 147" fill="none" xmlns="http://www.w3.org/2000/svg">
<g style="mix-blend-mode:multiply">
<path d="M119.251 130.76C112.757 126.671 112.722 120.042 119.173 115.957C125.627 111.868 136.122 111.868 142.616 115.957C149.111 120.046 149.145 126.674 142.694 130.76C136.243 134.849 125.746 134.849 119.251 130.76Z" fill="#D9D9D9"/>
</g>
<path d="M129.944 132.246C130.55 132.837 135.363 134.67 136.727 132.158C136.932 131.781 136.857 130.556 136.857 130.556L129.783 130.895L129.947 132.243L129.944 132.246Z" fill="#594433"/>
<path d="M136.318 131.652C134.962 133.472 132.791 132.309 129.417 131.615C125.578 130.823 123.874 131.071 121.547 128.865C120.05 127.444 119.044 124.251 120.48 124.254C123.545 124.26 124.234 125.395 128.955 126.624C132.038 127.425 133.942 126.407 135.476 127.284C136.67 127.969 137.437 130.16 136.321 131.656L136.318 131.652Z" fill="#594433"/>
<path d="M136 131.737C134.011 132.9 132.231 131.869 129.059 131.024C125.226 130.006 124.387 130.2 121.832 128.315C120.073 127.017 118.689 123.905 120.627 123.836C123.689 123.729 124.283 124.15 129.001 125.379C132.084 126.181 134.781 125.898 136 127.233C137.013 128.346 137.419 130.911 136 131.737Z" fill="#211913"/>
<path d="M137.084 124.716C137.621 125.382 142.197 127.828 143.827 125.508C144.072 125.159 144.129 123.933 144.129 123.933L137.067 123.352L137.081 124.713L137.084 124.716Z" fill="#594433"/>
<path d="M143.475 124.955C141.932 126.586 139.899 125.15 136.626 124.021C132.903 122.736 131.181 122.764 129.113 120.269C127.781 118.663 127.132 115.363 128.559 115.551C131.602 115.957 132.164 117.17 136.715 119.002C139.688 120.2 141.69 119.433 143.114 120.505C144.228 121.341 144.747 123.616 143.475 124.955Z" fill="#594433"/>
<path d="M143.155 124.996C141.052 125.891 139.397 124.637 136.343 123.387C132.649 121.875 131.792 121.963 129.465 119.757C127.862 118.239 126.826 114.97 128.759 115.152C131.81 115.441 132.355 115.938 136.905 117.77C139.879 118.965 142.587 119.034 143.651 120.52C144.536 121.755 144.657 124.355 143.158 124.993L143.155 124.996Z" fill="#211913"/>
<path d="M136.71 119.625C136.817 107.949 135.839 97.2849 138.988 91.1468C140.399 88.3968 146.755 90.3014 147.228 93.3877C148.283 100.28 144.384 105.463 144.217 121.931C143.484 123.764 137.287 122.808 136.71 119.625Z" fill="#3D82C3"/>
<path d="M129.015 127.24C127.848 115.633 125.708 105.17 128.165 98.6677C129.263 95.7542 135.784 96.8196 136.591 99.8242C138.394 106.528 135.086 112.182 136.724 128.557C136.196 130.471 129.941 130.326 129.018 127.24H129.015Z" fill="#4F91C1"/>
<g style="mix-blend-mode:multiply">
<path d="M158.333 127.413C163.83 130.87 167.394 136.91 160.513 141.266C153.632 145.626 144.055 143.394 138.558 139.934C133.064 136.477 133.18 133.45 140.612 128.742C148.043 124.034 152.839 123.952 158.333 127.409V127.413Z" fill="#D9D9D9"/>
</g>
<path d="M134.815 112.704C134.818 112.955 134.826 113.2 134.826 113.455C134.789 127.406 132.15 137.982 132.121 138.086C131.957 139.352 133.676 139.95 134.192 139.051C134.821 136.235 136.897 126.677 136.929 114.678C136.929 114.008 136.914 113.354 136.891 112.701H134.812L134.815 112.704Z" fill="#8A684F"/>
<path d="M150.913 101.358H148.943C149.096 112.767 150.904 121.765 151.51 124.48C152.029 125.379 153.745 124.779 153.581 123.515C153.555 123.418 151.222 114.068 150.91 101.358H150.913Z" fill="#8A684F"/>
<path d="M162.538 111.883L162.529 114.816C162.523 116.717 161.465 118.616 158.861 120.266C152.199 124.483 142.927 122.324 137.607 118.977C135.167 117.443 133.872 115.994 133.875 114.439L133.884 111.506C133.881 113.062 135.176 114.511 137.615 116.045C142.936 119.392 152.208 121.551 158.87 117.333C161.474 115.683 162.532 113.785 162.538 111.883Z" fill="#7D5F47"/>
<path d="M156.755 103.919C162.076 107.267 165.528 113.112 158.866 117.333C152.205 121.551 142.933 119.392 137.612 116.045C132.294 112.698 132.407 109.768 139.599 105.211C146.795 100.654 151.435 100.575 156.755 103.919Z" fill="#C49977"/>
<g style="mix-blend-mode:multiply">
<path d="M160.709 110.623C159.19 108.194 142.809 103.684 139.954 104.831C137.993 105.62 136.335 106.462 134.279 110.001C135.755 112.327 140.889 116.554 147.152 117.921C154.379 119.499 162.803 113.98 160.707 110.623H160.709Z" fill="#CCCBCB"/>
</g>
<path d="M161.975 103.718C159.749 101.713 137.333 90.6156 134.258 92.4321C132.147 93.683 129.861 97.4765 133.059 100.311C135.216 102.225 144.868 115.07 152.369 114.879C161.021 114.656 165.05 106.487 161.978 103.718H161.975Z" fill="#3D82C3"/>
<path d="M156.029 109.52C154.509 107.091 133.708 94.4812 130.853 95.6284C128.892 96.4173 126.363 99.6639 128.551 103.108C130.028 105.434 141.027 115.482 147.291 116.849C154.518 118.427 158.125 112.877 156.029 109.52Z" fill="#5998D2"/>
<path d="M151.028 68.3324C151.008 72.1479 145.765 75.4982 144.617 72.9116L142.699 62.5809L149.459 62.8355L151.028 68.3356V68.3324Z" fill="#CCAA92"/>
<path d="M152.191 59.9691C151.565 62.3232 149.728 64.2372 148.179 65.2523C145.67 66.9024 141.477 67.3424 140.37 65.2115C139.072 62.7129 138.613 58.1683 139.634 54.7142C141.18 49.4939 144.854 46.0084 150.016 48.3624C153.451 49.9307 153.586 54.6985 152.191 59.9691Z" fill="#EEC5AB"/>
<path d="M157.569 68.763C163.714 79.2414 162.512 107.383 161.632 109.25C160.029 112.653 153.635 115.825 147.729 113.471C144.147 112.047 141.624 108.294 141.561 107.125C142.475 104.372 145.659 99.7393 145.661 96.4802C145.667 91.6244 140.707 77.8554 143.53 75.2248C144.306 74.5019 144.237 74.0965 145.385 73.0279C147.095 71.4344 147.703 70.523 148.857 69.4481C151.155 67.3078 155.645 65.4881 157.569 68.763Z" fill="#F1F1F1"/>
<path d="M151.294 66.1702C149.327 66.255 145.754 69.9888 144.482 71.6231C143.453 72.9462 142.527 74.8257 142.997 76.8152C143.79 75.1683 146.801 72.3868 148.096 71.7991C150.636 70.6456 152.009 68.8731 152.534 68.0308C152.664 67.8233 152.687 67.5688 152.47 67.4808C152.179 67.3613 151.648 66.1513 151.294 66.167V66.1702Z" fill="white"/>
<path d="M167.06 135.939C167.034 135.836 164.392 125.26 164.354 111.308C164.343 106.974 164.911 103.156 165.569 98.7337C166.391 93.1897 167.325 87.4696 167.305 78.6475C167.299 78.4149 167.244 77.9309 166.947 77.7015C166.491 77.3463 165.817 77.4501 165.537 77.9781C165.398 78.2421 165.364 79.3044 165.364 79.3044C165.387 87.875 164.47 94.0163 163.665 99.4346C163.011 103.81 162.396 107.946 162.408 112.534C162.44 124.534 164.357 134.091 164.986 136.907C165.505 137.806 167.221 137.206 167.057 135.942L167.06 135.939Z" fill="#8A684F"/>
<path d="M163.539 107.223V108.348C163.536 108.404 163.521 108.464 163.49 108.521C162.567 110.227 160.456 112.126 157.901 113.744C155.346 115.363 152.343 116.702 149.641 117.289C149.324 117.358 148.987 117.302 148.762 117.164C148.672 117.107 148.603 117.038 148.56 116.956C148.528 116.896 148.511 116.837 148.511 116.78V115.655C148.511 115.715 148.528 115.774 148.563 115.831C148.606 115.913 148.678 115.982 148.765 116.038C148.987 116.18 149.327 116.233 149.644 116.164C152.343 115.576 155.348 114.238 157.904 112.619C160.459 111 162.57 109.102 163.492 107.396C163.524 107.339 163.539 107.279 163.539 107.223Z" fill="#876047"/>
<path d="M163.288 106.842C163.51 106.984 163.602 107.194 163.492 107.395C162.57 109.102 160.459 111 157.903 112.619C155.348 114.238 152.346 115.576 149.644 116.164C149.327 116.233 148.989 116.177 148.764 116.038C148.675 115.982 148.606 115.913 148.563 115.831C148.407 115.551 148.643 115.246 149.085 115.152C153.99 114.087 160.211 110.149 161.883 107.047C162.036 106.767 162.518 106.616 162.962 106.713C163.089 106.742 163.198 106.786 163.288 106.842Z" fill="#B5815E"/>
<path d="M162.786 108.056C162.65 108.131 162.42 108.137 162.316 108.087C157.269 105.648 152.9 98.7683 151.66 95.9365L151.377 95.2891L152.563 94.6699L152.845 95.3174C154.181 98.3597 158.57 104.884 163.129 106.905C163.129 106.905 163.519 107.641 162.786 108.056Z" fill="#94664A"/>
<path d="M149.148 115.878C148.733 115.702 148.69 115.071 148.69 115.071L149.238 114.678C153.941 111.299 162.331 97.9292 164.995 87.4948L165.171 86.8033L166.437 87.1868L166.261 87.8782C163.525 98.5923 154.847 112.365 149.959 115.875C149.959 115.875 149.647 116.095 149.146 115.881L149.148 115.878Z" fill="#94664A"/>
<path d="M151.282 145.572C151.256 145.468 148.615 134.893 148.577 120.941C148.566 116.607 149.134 112.789 149.791 108.367C150.613 102.823 151.513 96.8762 151.49 88.0541C151.484 87.8215 151.504 87.4067 151.141 87.1615C150.665 86.8409 150.039 87.0798 149.76 87.6078C149.621 87.8718 149.586 88.9341 149.586 88.9341C149.61 97.5048 148.692 103.646 147.888 109.064C147.233 113.439 146.619 117.575 146.631 122.164C146.662 134.163 148.58 143.721 149.209 146.537C149.728 147.436 151.444 146.836 151.279 145.572H151.282Z" fill="#8A684F"/>
<path d="M168.957 78.0942L168.943 83.9369C168.943 83.9872 168.931 84.0343 168.905 84.0846C167.708 86.2972 164.931 88.8932 161.28 91.2064C157.629 93.5196 153.526 95.2796 150.025 96.0433C149.756 96.0999 149.465 96.059 149.263 95.9333C149.185 95.883 149.125 95.8233 149.09 95.7542C149.061 95.7039 149.05 95.6536 149.05 95.6002L149.064 89.7575C149.064 89.8078 149.076 89.8581 149.105 89.9115C149.142 89.9807 149.2 90.0404 149.278 90.0907C149.479 90.2164 149.774 90.2572 150.039 90.2007C153.543 89.4369 157.644 87.6769 161.295 85.3638C164.949 83.0506 167.726 80.4545 168.92 78.2419C168.946 78.1948 168.957 78.1445 168.957 78.0942Z" fill="#825A42"/>
<path d="M168.739 77.7642C168.94 77.8899 169.007 78.0754 168.92 78.2419C167.723 80.4545 164.946 83.0506 161.295 85.3637C157.644 87.6769 153.541 89.4369 150.04 90.2006C149.771 90.2572 149.48 90.2164 149.278 90.0906C149.2 90.0404 149.14 89.9806 149.105 89.9115C148.973 89.6695 149.174 89.4055 149.558 89.3206C156.448 87.8246 165.183 82.2931 167.527 77.9402C167.594 77.8239 167.723 77.7296 167.902 77.6731C168.078 77.6196 168.277 77.6102 168.459 77.6511C168.568 77.6731 168.664 77.7139 168.741 77.7611L168.739 77.7642Z" fill="#C28B64"/>
<path d="M155.625 52.3728C152.946 43.8053 141.073 46.3322 140.268 48.746C139.002 52.552 140.075 51.0906 140.473 52.6997C140.488 53.564 141.059 54.18 141.353 54.356C142.279 54.9155 141.987 52.8914 143.288 53.3346C143.986 53.5734 143.795 56.0155 144.046 57.9326L145.229 58.8315C145.286 58.2186 146.31 57.062 146.639 57.8698C146.861 58.4072 146.552 60.1232 147.02 61.2892C147.994 63.725 149.86 65.1801 150.547 66.3367C151.216 65.4033 152.487 64.429 153.018 63.417C154.146 61.2672 156.554 55.3303 155.628 52.3697L155.625 52.3728Z" fill="#2E2E2E"/>
<path d="M143.905 93.8591C142.489 93.6265 138.437 95.0157 135.325 95.1005C133.454 95.1508 131.853 95.176 131.196 95.0754C131.164 95.0691 131.132 95.0691 131.103 95.066C131.103 95.066 131.095 95.066 131.083 95.066C130.956 95.0534 130.838 95.0503 130.728 95.0597C130.261 95.0408 129.419 94.9748 128.551 94.7328C127.542 94.4531 124.967 94.23 124.56 94.846C123.807 95.9805 124.447 98.6489 124.808 98.9694C125.189 99.3057 125.627 100.192 126.457 99.7677C127.692 99.136 127.824 99.4754 128.716 99.2334C129.535 99.0103 130.457 98.7432 130.717 98.6677C131.409 98.8406 133.177 99.2146 135.299 99.5823C135.299 99.5823 135.325 99.5854 135.337 99.5886C135.957 99.6954 136.606 99.8023 137.269 99.9029C141.035 100.478 145.338 100.902 146.607 100.17C148.389 99.1737 146.613 94.3022 143.914 93.8591H143.905Z" fill="#EDB291"/>
<path d="M131.323 94.4499C131.216 94.4625 131.13 94.3714 131.132 94.2488C131.144 93.8654 131.435 93.3436 132.026 93.3405C132.548 93.3374 133.451 93.3468 133.886 92.5768L135.591 93.5605C135.591 93.5605 134.284 94.2614 133.99 94.3934C133.437 94.6417 131.724 94.4091 131.32 94.4531L131.323 94.4499Z" fill="#DDA68A"/>
<path d="M146.451 89.8142C142.423 90.2731 137.935 89.9462 137.067 90.0531C136.834 89.9399 135.997 89.5408 135.25 89.2013C134.44 88.8305 134.463 88.7236 133.174 88.3433C132.338 88.0982 131.697 88.4502 131.193 89.0976C130.878 89.5031 129.731 91.7157 130.204 92.954C130.46 93.6234 133.018 93.7774 134.065 93.6485C134.933 93.5385 135.712 93.6014 136.162 93.6611C136.28 93.6925 136.413 93.7177 136.563 93.7271C138.059 93.8214 143.666 96.0309 147.573 95.4086L146.451 89.8173V89.8142Z" fill="#EDB291"/>
<path d="M141.852 96.2099C142.155 91.4422 142.299 76.1048 142.991 73.4491C143.626 71.0196 150.478 71.4942 150.636 78.066C150.755 82.9846 147.989 94.3776 147.444 98.3188C146.59 101.201 142.536 101.635 141.855 96.2099H141.852Z" fill="#FCC29C"/>
<path d="M141.593 84.4618C141.858 79.2603 142.613 74.8917 142.988 73.4491C143.623 71.0196 150.475 71.4942 150.634 78.066C150.688 80.3855 150.642 83.0286 150.039 86.7498C149.117 89.6916 141.371 88.8304 141.593 84.4618Z" fill="white"/>
<g style="mix-blend-mode:multiply">
<path d="M96.1369 112.327C100.673 115.143 100.719 119.756 96.2436 122.629C91.7679 125.502 84.4601 125.546 79.9267 122.73C75.3932 119.914 75.3442 115.3 79.82 112.427C84.2958 109.555 91.6035 109.511 96.1369 112.327Z" fill="#D9D9D9"/>
</g>
<g style="mix-blend-mode:multiply">
<path d="M62.4071 124.182L133.515 79.6531L94.3719 57.5177L23.8296 100.245L62.4071 124.182Z" fill="#D9D9D9"/>
</g>
<path d="M80.648 37.3152C79.4079 36.5358 78.2832 36.4478 77.4584 36.9349C76.6077 37.4409 76.0771 38.5567 76.0713 40.1533C76.0684 41.7561 76.5933 43.5319 77.4354 45.1033C77.7382 45.669 78.0842 46.2033 78.462 46.6968C78.7389 47.0582 78.9234 47.4919 79.0071 47.9539L81.8304 63.593C82.0784 64.979 82.9609 66.3902 83.976 67.0282L117.045 87.4161C118.793 88.5161 120.976 87.1458 120.982 84.9489L121.025 68.5776C121.034 65.1173 118.802 60.9027 116.036 59.1646L80.648 37.3184V37.3152Z" fill="#968066"/>
<path d="M120.981 84.9457V84.3454L120.973 84.3517L121.028 65.1675L129.313 59.9188L129.258 79.1031L129.247 79.1093V79.8291C129.244 80.5048 129.033 81.1051 128.696 81.5765L120.431 86.6931C120.768 86.2217 120.979 85.6214 120.979 84.9457H120.981Z" fill="#7F6952"/>
<path d="M80.1631 26.8525C81.9914 25.7022 83.6468 25.5953 84.8436 26.3527L130.948 55.1574C129.751 54.3999 128.096 54.5068 126.268 55.6571C123.761 57.2348 121.59 60.362 120.488 63.64L74.3838 34.8354C75.4854 31.5542 77.657 28.427 80.1631 26.8525Z" fill="#D8CDBA"/>
<path d="M121.634 72.6224L75.5291 43.8177C74.3496 43.0697 73.6171 41.4794 73.6114 39.2197C73.6085 37.8117 73.8882 36.3094 74.3813 34.8385L120.486 63.6431C119.993 65.114 119.71 66.6163 119.716 68.0243C119.722 70.2841 120.454 71.8744 121.634 72.6224Z" fill="#C1AF91"/>
<path d="M126.268 55.6571C122.637 57.9419 119.704 63.4797 119.715 68.0244C119.727 72.5721 122.677 74.4076 126.311 72.1227C129.942 69.8378 132.877 64.3 132.866 59.7523C132.854 55.2076 129.901 53.3722 126.27 55.6571H126.268Z" fill="#CCC0AC"/>
<path d="M26.5088 39.1003L70.831 11.0279C71.5577 10.5659 72.495 10.4779 73.5736 10.8488C73.9946 10.9934 74.4128 11.2008 74.828 11.4585L30.5058 39.5308C30.0934 39.27 29.6724 39.0657 29.2542 38.9211C28.1757 38.5503 27.2384 38.6414 26.5117 39.1003H26.5088Z" fill="#D8CEBC"/>
<path d="M30.5059 39.531L74.8281 11.4586C77.3918 13.0709 79.7047 16.7418 80.2901 20.3782C81.732 29.326 85.8387 54.8211 86.055 56.1632L41.7328 84.2355C41.5165 82.8935 37.4098 57.3952 35.9679 48.4505C35.3825 44.8142 33.0696 41.1433 30.5059 39.531Z" fill="#C4B39B"/>
<path d="M30.5086 39.5308C33.0723 41.1431 35.3852 44.814 35.9706 48.4503C37.4126 57.3981 41.5192 82.8933 41.7355 84.2353L30.771 80.4701C30.5547 79.1281 26.4481 53.6298 25.0061 44.6851C24.3256 40.4611 26.2289 37.8808 29.257 38.9179C29.678 39.0625 30.0962 39.2699 30.5115 39.5276L30.5086 39.5308Z" fill="#968066"/>
<path d="M61.3141 98.2526L109.472 67.952L85.2647 52.7184L37.1069 81.7902L61.3141 98.2526Z" fill="#B7A386"/>
<path d="M64.8067 111.503L112.964 81.1993C113.896 80.6085 114.473 79.3545 114.479 77.5724C114.487 73.9864 112.174 69.6178 109.314 67.8169L61.1558 98.1207C64.0166 99.9216 66.3323 104.29 66.3208 107.876C66.315 109.658 65.7382 110.912 64.8067 111.503Z" fill="#C4B39B"/>
<path d="M37.1073 81.7902L37.0698 96.4927L61.2799 111.242C64.1407 113.043 66.4709 111.597 66.4795 108.008C66.4882 104.422 64.1753 100.054 61.3145 98.2527L37.1073 81.7871V81.7902Z" fill="#2584BC"/>
<path d="M25.5254 70.9095C24.2854 70.13 23.1607 70.042 22.3359 70.5292C21.4851 71.0352 20.9545 72.1509 20.9487 73.7475C20.9459 75.3504 21.4707 77.1261 22.3128 78.6976C22.6156 79.2633 22.9617 79.7976 23.3395 80.291C23.6163 80.6524 23.8009 81.0862 23.8845 81.5482L26.7078 97.1872C26.9558 98.5732 27.8383 99.9844 28.8534 100.622L61.9228 121.01C63.6704 122.11 65.8535 120.74 65.8593 118.543L65.9025 102.172C65.9112 98.7115 63.6791 94.4969 60.9134 92.7589L25.5254 70.9126V70.9095Z" fill="#968066"/>
<path d="M65.8594 118.559V117.959L65.8508 117.965L65.9056 98.7807L74.1909 93.5321L74.1361 112.716L74.1246 112.723V113.442C74.1217 114.118 73.9112 114.718 73.5738 115.19L65.3086 120.306C65.646 119.835 65.8565 119.235 65.8565 118.559H65.8594Z" fill="#7F6952"/>
<path d="M25.0898 60.4657C26.9182 59.3154 28.5735 59.2086 29.7703 59.966L75.8748 88.7706C74.678 88.0132 73.0226 88.1201 71.1943 89.2704C68.6882 90.8481 66.5166 93.9753 65.415 97.2533L19.3105 68.4487C20.4122 65.1675 22.5837 62.0403 25.0898 60.4657Z" fill="#D8CDBA"/>
<path d="M66.8255 105.893L20.721 77.0884C19.5415 76.3404 18.809 74.7501 18.8032 72.4903C18.8004 71.0823 19.0801 69.58 19.5732 68.1091L65.6777 96.9138C65.1845 98.3846 64.9019 99.8869 64.9077 101.295C64.9134 103.555 65.646 105.145 66.8255 105.893Z" fill="#C4B299"/>
<path d="M71.1455 89.2703C67.5147 91.5552 64.5818 97.093 64.5933 101.638C64.6048 106.185 67.555 108.021 71.1887 105.736C74.8195 103.451 77.7553 97.9133 77.7437 93.3655C77.7322 88.8209 74.7791 86.9855 71.1483 89.2703H71.1455Z" fill="#CCC0AC"/>
<path d="M75.2839 78.0062C76.1202 78.531 79.3357 78.8045 80.9651 80.4733C81.0026 82.9908 82.7646 84.3077 83.8778 85.326C84.5815 85.9734 86.1301 87.768 85.9802 89.2294C85.8446 90.54 84.7286 91.3383 83.7625 91.0398C83.5721 90.98 83.3731 90.8826 83.1626 90.7506C82.0956 90.078 80.8007 88.5506 79.4713 87.152C76.6076 84.138 73.2017 81.1805 73.9573 78.6662C74.237 77.739 74.6667 77.6164 75.2839 78.0062Z" fill="#5BF278"/>
<g style="mix-blend-mode:multiply">
<path d="M71.8 64.9161C71.402 64.6144 70.9954 63.8758 70.8137 63.8476C70.7733 63.8664 70.8656 64.6553 71.278 65.529C71.7682 66.563 72.4892 67.2167 72.4748 67.4242C72.668 68.5682 70.8368 68.4299 70.5512 68.4048C69.4929 68.3168 67.9817 67.1476 67.5837 66.3776C67.1367 65.5133 66.6234 64.0958 66.7388 63.4453C66.8138 63.0178 66.6523 62.5464 66.5513 62.229C66.1476 60.9592 68.3682 59.0735 68.694 59.7618C68.9968 60.3872 69.4237 60.6701 69.937 60.8618C70.8915 61.2232 71.7192 62.4804 71.7798 62.7664C71.9124 63.395 72.5584 64.2656 72.8728 64.561C72.9564 64.6396 72.9679 64.7779 72.8958 64.8659C72.6709 65.1393 72.3018 65.3027 71.8 64.9193V64.9161Z" fill="#D9D9D9"/>
</g>
<path d="M95.067 49.4657C94.1124 49.5506 92.5148 51.1031 92.3071 52.1246C93.5184 53.4383 93.4463 53.9883 93.7346 54.5478C94.1672 55.3869 95.2371 56.1192 96.2494 56.5372C96.881 56.7981 98.6372 57.0212 98.8881 57.0401C99.8052 57.1061 101.665 54.0009 100.552 53.7306C98.9458 53.3409 98.8074 52.6683 97.6221 51.9486C96.6387 51.3514 96.0331 50.858 95.067 49.4688V49.4657Z" fill="#F0C7AD"/>
<path d="M98.7756 52.7752C99.0986 52.86 99.511 52.6652 99.4562 52.398C99.4101 52.1812 98.9343 51.5212 98.7007 51.3734C98.4353 51.2037 97.7144 50.8737 97.3193 50.8171C96.9934 50.77 96.4282 50.8769 95.9754 50.9051C95.9148 51.5117 97.0857 51.5557 97.922 52.1089C98.3258 52.376 98.5478 52.7155 98.7756 52.7752Z" fill="#F0C7AD"/>
<path d="M94.0694 47.9131L96.1832 49.7768C96.7254 51.3106 93.8444 54.2303 92.3506 53.4289L90.3521 51.8386L94.0694 47.9131Z" fill="white"/>
<path d="M95.188 48.4694C95.188 48.4694 88.6849 42.0233 86.1384 40.2979C84.1255 38.9339 80.5783 43.3591 81.2416 44.4779C83.7736 48.2997 90.2422 52.5175 90.2422 52.5175C91.6754 54.1361 95.312 51.1849 95.188 48.4694Z" fill="#6165AC"/>
<path d="M71.6587 33.1289C70.2918 30.778 70.1447 28.9268 71.1021 25.762C71.8347 23.3388 72.2643 19.3787 74.7272 21.6636C78.58 25.2371 84.1026 36.5358 86.2107 40.4361C85.8214 42.4947 82.7068 45.5339 81.1582 44.2799C78.6146 42.2213 73.3141 35.9764 71.6587 33.1289Z" fill="#505993"/>
<g style="mix-blend-mode:multiply">
<path d="M79.8512 95.8297C84.0732 102.291 87.7963 104.061 89.6679 96.4331C91.2598 89.9556 89.394 75.4983 82.9398 69.926C77.2384 65.0042 76.9847 65.4693 73.9595 72.6383C78.9313 78.3018 79.534 88.689 79.8512 95.8297Z" fill="#D8D8D8"/>
</g>
<g style="mix-blend-mode:multiply">
<path d="M80.8061 112.773C81.2041 114.96 85.8039 117.908 87.6438 115.532C87.5025 108.307 87.6178 89.3332 86.7729 85.3292C86.6344 84.6817 86.646 82.026 86.0432 80.97C82.8912 75.4479 73.8099 67.0375 68.4862 61.7952C63.7394 57.1185 57.963 37.6483 57.963 37.6483C57.963 37.6483 56.2125 63.4483 58.9579 68.2727C61.5707 72.8676 76.8639 86.5109 76.8639 86.5109C78.2164 94.1827 78.7095 97.8253 80.8119 112.773H80.8061Z" fill="#D9D9D9"/>
</g>
<g style="mix-blend-mode:multiply">
<path d="M99.0556 94.1795C99.9641 96.2664 109.452 107.131 110.747 104.237C108.93 97.0144 104.642 77.9151 102.862 74.1279C102.574 73.515 101.968 70.8435 101.118 69.951C96.6678 65.2712 85.5908 59.3217 79.0271 55.5219C73.1729 52.1307 62.8486 34.1597 62.8486 34.1597C62.8486 34.1597 67.0764 60.5663 70.9552 64.6583C74.6465 68.5555 93.1783 78.0502 93.1783 78.0502C96.3188 85.3857 93.4782 79.7411 99.0556 94.1795Z" fill="#D9D9D9"/>
</g>
<path d="M102.369 104.023C103.02 105.133 106.683 106.833 106.683 106.833L107.799 105.849L102.369 104.023Z" fill="#736261"/>
<path d="M106.683 106.833C106.683 106.833 103.021 105.136 102.369 104.023C102.216 103.762 101.833 101.861 101.833 101.861L106.467 105.098L106.68 106.83L106.683 106.833Z" fill="#4D4241"/>
<path d="M118.576 107.257C119.323 105.158 113.426 102.269 109.172 100.412C104.918 98.5576 103.049 96.5053 102.063 99.1925C101.077 101.877 101.879 103.775 106.129 105.629C108.047 106.465 110.023 108.794 112.448 109.492C114.709 110.142 117.864 109.25 118.573 107.257H118.576Z" fill="#4D4241"/>
<path d="M118.608 106.911C119.355 104.812 113.458 101.924 109.204 100.066C104.95 98.2119 103.081 96.1596 102.095 98.8468C101.109 101.531 101.951 103.288 106.202 105.145C108.12 105.981 110.236 108.099 112.664 108.797C114.925 109.448 117.899 108.904 118.608 106.911Z" fill="#736261"/>
<path d="M101.515 100.569C102.767 104.674 109.484 104.23 110.781 101.336C109.299 93.8652 105.005 76.3404 103.698 72.3301C103.514 71.7612 103.151 69.6241 101.954 68.1532C97.478 62.6468 86.1818 57.2348 79.9844 53.3156C74.2513 49.6887 70.4676 51.6027 70.4676 51.6027C70.4676 51.6027 68.1202 63.7908 72.3191 64.8091C78.6434 66.3429 93.4751 77.1953 93.4751 77.1953C96.6128 85.7691 97.2155 90.1032 101.515 100.569Z" fill="#505993"/>
<g style="mix-blend-mode:multiply">
<path d="M84.4342 97.5613C89.3916 103.759 91.021 105.629 92.2438 97.5582C92.8032 93.8559 92.1919 88.5538 90.7095 83.2266C88.8696 76.6108 84.5698 71.425 80.3391 66.2738C74.8223 59.5606 72.7257 58.7309 70.7676 64.8972C76.4228 70.1899 83.4422 90.2321 84.4342 97.5613Z" fill="#D8D8D8"/>
</g>
<path d="M81.354 115.086C81.775 116.271 84.9444 118.641 84.9444 118.641L86.1729 117.943L81.3569 115.089L81.354 115.086Z" fill="#736261"/>
<path d="M84.9444 118.641C84.9444 118.641 81.775 116.274 81.3539 115.086C81.2559 114.806 81.2271 112.93 81.2271 112.93L85.0453 116.956L84.9444 118.637V118.641Z" fill="#4D4241"/>
<path d="M96.1224 121.51C97.1981 119.678 92.1225 115.721 88.4225 113.084C84.7225 110.447 83.3123 108.118 81.9107 110.453C80.5092 112.788 80.936 114.75 84.6331 117.387C86.3 118.575 87.765 121.189 89.9365 122.352C91.9639 123.437 95.1016 123.248 96.1224 121.51Z" fill="#4D4241"/>
<path d="M96.2149 121.189C97.2906 119.357 92.215 115.4 88.5149 112.763C84.8149 110.126 83.4047 107.798 82.0032 110.133C80.6016 112.468 81.089 114.306 84.789 116.943C86.4559 118.131 88.091 120.577 90.2626 121.739C92.2899 122.824 95.194 122.927 96.2149 121.189Z" fill="#736261"/>
<path d="M81.9106 111.211C82.1961 115.375 88.5781 116.683 90.4151 114.307C90.6429 106.933 89.1721 87.9221 88.3243 83.9212C88.1859 83.2737 88.1974 80.618 87.5947 79.562C84.4426 74.0399 76.8667 64.5955 71.5459 59.35C66.7991 54.6734 60.7083 57.458 60.7083 57.458C60.7083 57.458 57.5015 65.7961 60.5843 68.8258C65.0947 73.2605 77.7088 85.8477 77.7088 85.8477C78.7902 94.6793 80.1514 100.308 81.9134 111.208L81.9106 111.211Z" fill="#505993"/>
<path d="M68.2789 26.6231C65.5911 30.1054 58.4131 28.0751 57.9863 24.2062C58.6006 23.6687 65.1239 21.2707 68.9883 19.7904C68.9883 19.7904 70.3841 23.8982 68.2817 26.6231H68.2789Z" fill="#F0C7AD"/>
<path d="M68.2789 20.8338C68.4865 26.249 60.4405 27.855 59.4629 23.6938L60.6078 16.5909L66.9696 13.0646C66.9696 13.0646 68.1895 18.5521 68.2789 20.8338Z" fill="#F0C7AD"/>
<path d="M80.0357 57.0558C80.5548 59.9504 67.9609 65.7019 64.4109 61.745L59.7217 24.0397L70.242 21.2488C73.9161 32.3181 77.1316 44.3553 80.0328 57.0558H80.0357Z" fill="#E6E6E6"/>
<path d="M76.7947 48.0608L75.7075 50.9806L73.5965 49.8837C72.218 39.8799 69.9542 30.9949 66.3638 24.5363L67.5346 23.8794C71.4567 29.5932 74.43 38.2833 76.7947 48.064V48.0608Z" fill="#6C9F57"/>
<path d="M53.565 27.038C47.8521 30.9509 58.2398 41.4136 58.8742 47.9508C59.823 57.7221 58.8021 67.5657 58.8021 67.5657C59.7336 70.7683 73.135 69.046 75.1335 65.4819C75.6699 65.2776 73.8848 45.3674 71.7594 40.0528C70.1069 35.9198 60.5411 20.6517 59.2001 21.7862C58.0927 22.7228 54.5773 26.3434 53.5679 27.0349L53.565 27.038Z" fill="#6165AC"/>
<path d="M76.6357 26.1077C74.3718 19.2813 71.7158 20.7868 69.8096 20.045C70.9977 20.9911 72.8088 24.5582 73.2991 28.7823C73.7374 32.5726 74.1325 36.6395 74.963 38.7987C76.9529 43.9688 78.8361 64.4856 78.2622 64.5579C80.4309 62.8481 82.4179 57.7032 81.3191 55.6006C81.2758 53.982 80.0214 32.3589 76.6328 26.1077H76.6357Z" fill="#6165AC"/>
<path d="M60.114 19.2814C60.016 21.7077 65.2992 22.7134 66.4557 22.264L66.0173 27.4026C66.0173 27.4026 59.7708 23.6751 59.5372 21.6543C59.4277 20.7114 60.114 19.2845 60.114 19.2845V19.2814Z" fill="#F7F7F7"/>
<path d="M66.4473 22.2482L67.7941 23.1345L67.7508 25.2905C67.7479 25.4634 67.5749 25.5702 67.4278 25.4948L66.2339 24.8536L66.4473 22.2482Z" fill="#517741"/>
<path d="M68.3185 18.3102C68.3185 18.3102 68.5175 18.7785 68.5435 19.1179C68.6502 20.6076 66.4556 22.2514 66.4556 22.2514L71.3149 26.5886C71.3149 26.5886 70.493 21.9654 69.9624 20.3216C69.8095 19.8502 68.3185 18.3102 68.3185 18.3102Z" fill="#F7F7F7"/>
<path d="M68.8496 18.9168C69.0919 18.8163 73.6599 24.5615 73.6599 24.5615L73.3542 26.5069L74.427 28.5592L74.7269 37.2965C74.5164 36.9413 72.7025 30.7624 72.1834 28.6818C71.9469 27.7327 69.7667 20.02 68.8496 18.92V18.9168Z" fill="#505993"/>
<path d="M59.8661 19.8533C59.6123 20.1236 58.8308 22.993 58.6346 24.3005C57.6887 25.6331 65.1032 29.8225 65.1032 29.8225L65.977 33.1194L71.7736 39.8641C71.7736 39.8641 69.0656 31.2431 67.9149 29.4705C65.6107 25.9159 59.8055 22.7007 59.8632 19.8533H59.8661Z" fill="#505993"/>
<path d="M56.9512 13.1275C58.1134 15.9686 60.1523 19.1272 62.2633 19.7401C64.4752 20.3844 66.4478 21.7296 68.6078 20.9438C71.0534 20.0575 71.6128 15.0258 69.8681 10.0443C69.5422 9.11713 69.0058 7.31625 68.6886 6.35452C68.4348 5.58451 68.7434 4.63222 67.3101 3.01048C65.4269 0.879599 62.2258 0.675311 59.2122 2.1399C54.0241 4.6605 54.6268 7.44511 56.9512 13.1243V13.1275Z" fill="#F0C7AD"/>
<path d="M70.9292 17.3641C71.1455 18.9575 70.5254 19.9067 69.4065 20.7176C66.7303 22.6599 63.3706 20.7333 61.6633 19.5578C60.6943 18.8915 59.7109 14.3312 59.7109 14.3312L60.7318 14.2338C60.7318 14.2338 61.6172 17.6375 62.4708 18.4264C63.6445 19.5075 67.607 21.3556 69.1902 19.2153C69.519 18.7721 69.7497 17.9801 70.0179 17.6407C70.3755 17.1881 70.7446 17.3389 70.9263 17.3641H70.9292Z" fill="#5C4832"/>
<path d="M59.0448 1.7313C61.9085 0.301283 65.92 0.32957 67.7801 3.40646C68.1002 3.93761 69.2653 4.75162 68.5328 5.27649C67.8032 4.47819 66.491 7.3728 64.4954 8.04538C62.5747 8.69281 62.1911 9.20511 60.6396 11.9771C60.3224 12.546 60.6713 14.0012 60.7838 14.3626C60.5992 14.5355 60.3599 14.7523 60.0859 15.0635C59.5553 14.2212 59.3563 12.6749 58.5921 12.9986C57.799 13.3349 58.1681 14.6015 58.7132 15.5978C59.0823 16.2735 59.9879 17.8921 60.0744 18.2032C59.587 18.7407 57.9749 15.6229 57.1011 14.1835C54.0615 9.16739 53.9 4.29905 59.0477 1.72816L59.0448 1.7313Z" fill="#5C4832"/>
<path d="M64.1202 6.64681L68.7632 4.82708C68.8958 3.90621 68.2066 1.99533 67.6096 1.1436C66.6782 -0.182698 65.1555 1.0556 63.5693 0.885886L64.1202 6.64681Z" fill="#5C4832"/>
<path d="M67.5234 16.4527C67.5206 15.1138 68.3684 13.58 69.4585 13.1652C69.5018 13.1495 69.77 14.4098 69.669 14.4632C68.9337 14.8498 68.0743 15.7361 68.0339 16.9681C67.8263 17.3861 67.5436 17.2698 67.5234 16.4495V16.4527Z" fill="#5C4832"/>
<path d="M70.6086 17.4176C70.6057 16.7261 70.4875 14.2967 69.6714 14.4695C69.5935 14.4853 69.4147 13.1872 69.4435 13.1747C70.7615 12.7472 71.2056 16.4213 70.9432 17.537L70.6086 17.4144V17.4176Z" fill="#5C4832"/>
<path d="M68.3107 20.133L69.1239 20.023C68.8615 18.4233 67.8868 17.7538 68.0483 16.2484L67.6503 16.1949C67.5003 17.691 68.1146 18.4735 68.3107 20.133Z" fill="#5C4832"/>
<path d="M59.0939 36.7117C59.4544 33.9554 58.892 32.2017 56.8272 29.7439C55.2468 27.8645 53.1906 26.6859 52.2043 28.2542C49.5541 32.4562 48.7725 51.6499 51.0566 53.6771C52.5504 55.0034 54.448 53.5828 55.7775 52.0616C57.8452 49.695 58.6584 40.0495 59.0939 36.7117Z" fill="#585FA0"/>
<g style="mix-blend-mode:multiply">
<path d="M69.6079 47.209L72.287 48.4001C73.6626 48.6987 74.2913 51.565 72.9676 52.4419L70.7701 52.9699L69.6079 47.2058V47.209Z" fill="#D8D8D8"/>
<path d="M71.993 47.1461C71.993 47.1461 59.5578 47.6867 57.1411 49.211C55.4713 50.2638 54.312 50.4084 54.8686 52.4199C56.074 56.7759 70.5828 53.4476 70.5828 53.4476C72.466 53.0296 74.0146 48.3938 71.993 47.1429V47.1461Z" fill="#D8D8D8"/>
</g>
<path d="M73.0486 50.4587C69.9427 51.015 67.2087 52.093 64.6767 52.4136C63.4251 52.5739 63.1223 48.4441 64.1086 48.0072C65.1295 47.5515 71.2692 47.6018 72.5872 47.3661C73.6254 47.1807 74.2569 48.969 73.0486 50.4587Z" fill="#FFD3B8"/>
<path d="M68.8584 46.3634L71.4539 46.2534C72.8151 46.6337 73.3255 50.9835 71.9614 51.7849L69.7409 52.1872L68.8613 46.3666L68.8584 46.3634Z" fill="white"/>
<path d="M69.8707 45.8858C69.8707 45.8858 57.4268 45.7098 54.938 47.0927C53.2221 48.0481 50.2575 50.8296 50.716 52.8724C51.7081 57.2914 70.1533 52.4387 70.1533 52.4387C72.0538 52.1276 71.826 47.2498 69.8678 45.8858H69.8707Z" fill="#737AA9"/>
<path d="M74.6435 46.8225C74.7444 47.0456 75.2866 46.9796 75.8489 46.6748C76.4142 46.3699 76.7862 45.9393 76.6853 45.7162C76.5843 45.493 76.0421 45.559 75.4798 45.8639C74.9146 46.1688 74.5425 46.5993 74.6435 46.8225Z" fill="#DDB6A2"/>
<path d="M80.457 38.3052L85.1318 36.7651V36.7683L80.457 38.3083V38.3052Z" fill="#ADADAD"/>
<path d="M80.4565 38.3081L85.1313 36.7681V36.7712L80.4536 38.3112L80.4565 38.3081Z" fill="#A8A8A8"/>
<path d="M80.4536 38.3113L85.1313 36.7712L85.1284 36.7744L80.4536 38.3144V38.3113Z" fill="#A3A3A3"/>
<path d="M80.4536 38.3146L85.1284 36.7745L80.4536 38.3177V38.3146Z" fill="#9E9E9E"/>
<path d="M80.4545 38.3178L85.1293 36.7747V36.7778L80.4517 38.321L80.4545 38.3178Z" fill="#999999"/>
<path d="M80.4517 38.3209L85.1293 36.7777L85.1264 36.7809L80.4517 38.3209Z" fill="#949494"/>
<path d="M80.4506 38.321L85.1254 36.781V36.7841L80.4478 38.3242L80.4506 38.321Z" fill="#8F8F8F"/>
<path d="M80.4478 38.3241L85.1254 36.7841L85.1225 36.7872L80.4478 38.3272V38.3241Z" fill="#8A8A8A"/>
<path d="M80.4481 38.3274L85.1229 36.7874C85.1229 36.7874 85.12 36.7905 85.1171 36.7905L80.4424 38.3305C80.4424 38.3305 80.4481 38.3305 80.4481 38.3274Z" fill="#858585"/>
<path d="M74.2624 56.3894L78.7381 35.5331C78.8217 35.1403 79.1794 34.7285 79.5341 34.6154L90.2505 31.1865C90.4293 31.1268 90.5735 31.1551 90.6629 31.2462L90.3169 30.8879C90.2275 30.7968 90.0833 30.7685 89.9045 30.8282L79.188 34.2571C78.8333 34.3734 78.4757 34.7851 78.392 35.1748L73.9163 56.0311C73.8759 56.2259 73.9076 56.3799 73.9941 56.4679L74.3402 56.8262C74.2537 56.7351 74.2191 56.5811 74.2624 56.3894Z" fill="#C2A17B"/>
<path d="M74.7527 56.8892C74.398 57.0054 74.1788 56.7823 74.2624 56.3894L78.7382 35.5332C78.8218 35.1403 79.1794 34.7286 79.5341 34.6155L90.2506 31.1866C90.6053 31.0703 90.8245 31.2934 90.7409 31.6863L86.2651 52.5425C86.1815 52.9354 85.8239 53.3471 85.4691 53.4603L74.7527 56.8892Z" fill="#AD824F"/>
<path d="M74.7241 56.2826L85.8443 52.7657L90.2768 31.9094L79.2662 35.3855L74.7241 56.2826Z" fill="#996323"/>
<path d="M79.5402 45.3233C78.0233 46.1436 77.3658 46.4799 75.6585 46.0965C75.1596 45.9833 74.6376 46.1373 74.2858 46.5396C73.9455 46.9262 73.0342 47.2845 72.6968 47.3568L73.0284 50.4777C73.014 50.4242 75.0096 51.0874 76.3333 50.66C78.1271 50.0817 78.5799 49.8774 80.0593 48.4316C81.1379 47.3756 80.6822 44.7136 79.5402 45.3265V45.3233Z" fill="#FFD3B8"/>
<g style="mix-blend-mode:multiply">
<path d="M19.2528 116.733C16.8592 115.268 13.0323 115.312 10.705 116.827C8.37773 118.342 8.43253 120.756 10.8261 122.22C13.2198 123.685 17.0466 123.641 19.3739 122.126C21.7012 120.611 21.6464 118.197 19.2528 116.733Z" fill="#D9D9D9"/>
</g>
<path d="M20.2013 105.406C17.2684 103.611 12.5793 103.665 9.72711 105.522C6.87496 107.379 6.94129 110.337 9.87707 112.132C12.81 113.926 17.4991 113.873 20.3513 112.015C23.2034 110.158 23.1371 107.2 20.2013 105.406Z" fill="#635B4D"/>
<path d="M9.72459 104.488C12.5767 102.631 17.2659 102.58 20.1988 104.372C21.6898 105.283 22.4396 106.496 22.4425 107.713V108.747C22.4425 107.53 21.6926 106.317 20.2017 105.406C17.2688 103.611 12.5796 103.665 9.72747 105.522C8.32591 106.437 7.62801 107.615 7.63089 108.791V107.757C7.62513 106.581 8.32302 105.399 9.72459 104.488Z" fill="#944A29"/>
<path d="M20.9078 103.91C17.5711 101.87 12.236 101.93 8.99451 104.042C5.75016 106.154 5.82802 109.52 9.16466 111.56C12.5013 113.599 17.8365 113.54 21.0779 111.428C24.3223 109.316 24.2444 105.95 20.9078 103.91ZM20.1984 104.372C23.1312 106.166 23.1976 109.124 20.3483 110.981C17.4962 112.839 12.807 112.889 9.87409 111.098C6.9412 109.303 6.87487 106.346 9.72413 104.488C12.5763 102.631 17.2655 102.58 20.1984 104.372Z" fill="#F07D43"/>
<path d="M20.2013 105.406C17.2684 103.611 12.5793 103.665 9.72711 105.522C6.87496 107.379 6.94129 110.337 9.87707 112.132C12.81 113.926 17.4991 113.873 20.3513 112.015C23.2034 110.158 23.1371 107.2 20.2013 105.406Z" fill="#453F36"/>
<g style="mix-blend-mode:multiply">
<path d="M17.3035 107.295C16.0173 106.509 13.9582 106.531 12.7095 107.345C11.4579 108.159 11.4867 109.457 12.7758 110.243C14.062 111.028 16.1211 111.006 17.3698 110.192C18.6214 109.378 18.5926 108.08 17.3035 107.295Z" fill="#D1B37D"/>
</g>
<path d="M9.72459 104.488C12.5767 102.631 17.2659 102.58 20.1988 104.372C21.6898 105.283 22.4396 106.496 22.4425 107.713V108.747C22.4425 107.53 21.6926 106.317 20.2017 105.406C17.2688 103.611 12.5796 103.665 9.72747 105.522C8.32591 106.437 7.62801 107.615 7.63089 108.791V107.757C7.62513 106.581 8.32302 105.399 9.72459 104.488Z" fill="#D9D9D9"/>
<path d="M9.16476 111.56C12.5014 113.599 17.8366 113.54 21.078 111.428C22.2143 110.689 22.941 109.796 23.2669 108.86C22.0557 112.352 20.8473 115.84 19.6361 119.332C19.4573 119.851 19.0507 120.347 18.4191 120.759C16.6167 121.931 13.6549 121.966 11.8006 120.831C11.1229 120.416 10.6846 119.901 10.4942 119.36C9.2657 115.878 8.03717 112.396 6.81152 108.91C7.1547 109.888 7.93912 110.812 9.16188 111.56H9.16476Z" fill="#D9D9D9"/>
<path d="M20.9078 103.91C17.5711 101.87 12.236 101.93 8.99451 104.042C5.75016 106.154 5.82802 109.52 9.16466 111.56C12.5013 113.599 17.8365 113.54 21.0779 111.428C24.3223 109.316 24.2444 105.95 20.9078 103.91ZM20.1984 104.372C23.1312 106.166 23.1976 109.124 20.3483 110.981C17.4962 112.839 12.807 112.889 9.87409 111.098C6.9412 109.303 6.87487 106.346 9.72413 104.488C12.5763 102.631 17.2655 102.58 20.1984 104.372Z" fill="white"/>
<path d="M15.7461 109.177C15.1404 109.177 10.8492 106.924 10.7108 102.04C10.6041 98.3061 7.26748 94.3461 7.40014 89.0409C7.50684 84.7854 6.97044 83.2768 8.36624 80.0994C9.68993 77.0916 10.0216 71.0824 11.8846 68.0778C15.5586 62.1471 10.9185 57.1091 12.7122 55.9054C14.9184 55.3051 18.9472 57.4517 18.5059 64.9977C18.3733 67.2575 17.4447 73.2416 17.0582 75.891C16.617 78.9176 19.1173 84.2574 18.3675 87.6109C17.6638 90.7601 15.9364 94.1921 16.7122 97.6776C18.0128 103.53 17.4504 108.153 15.7461 109.174V109.177Z" fill="#326F28"/>
<g style="mix-blend-mode:screen">
<path d="M15.4029 108.734C15.2904 108.734 15.1837 108.659 15.1434 108.536C14.0706 105.352 10.8089 95.6598 13.0641 85.5868C13.3727 84.204 13.2775 82.5225 13.1737 80.7405C13.0497 78.5813 12.9228 76.353 13.5572 74.5804C16.3863 66.6855 15.9249 57.8571 12.6085 56.4113C12.4671 56.3485 12.3979 56.1756 12.4556 56.0185C12.5133 55.8645 12.6748 55.789 12.8161 55.8519C16.4613 57.4391 17.0611 66.4717 14.0735 74.8004C13.4823 76.4504 13.6063 78.6127 13.7274 80.7059C13.8312 82.5351 13.9321 84.2605 13.6034 85.7314C11.3886 95.6252 14.607 105.189 15.6654 108.332C15.7173 108.489 15.6452 108.662 15.501 108.719C15.4692 108.731 15.4375 108.737 15.4058 108.737L15.4029 108.734Z" fill="#525252"/>
<path d="M13.4709 101.663C13.3873 101.663 13.3065 101.622 13.2517 101.547L9.87183 96.8134C9.77666 96.6814 9.79973 96.4928 9.92085 96.3891C10.042 96.2854 10.215 96.3105 10.3102 96.4425L13.6901 101.176C13.7852 101.308 13.7622 101.496 13.641 101.6C13.5891 101.644 13.5315 101.663 13.4709 101.663Z" fill="#525252"/>
<path d="M12.459 90.5685C12.3926 90.5685 12.3234 90.5433 12.2715 90.4899C10.4922 88.7016 9.16558 86.1244 8.32926 82.8338C8.28888 82.6735 8.3754 82.507 8.52248 82.463C8.66955 82.419 8.8224 82.5132 8.86277 82.6735C9.67026 85.8541 10.9449 88.3339 12.6464 90.0468C12.7589 90.1599 12.7646 90.3516 12.6608 90.4711C12.606 90.5339 12.5311 90.5685 12.459 90.5685Z" fill="#525252"/>
<path d="M13.6783 75.668C13.5659 75.668 13.4621 75.5926 13.4188 75.4731L11.4866 69.9134C11.4318 69.7562 11.5039 69.5834 11.6481 69.5236C11.7894 69.4639 11.9509 69.5425 12.0057 69.6997L13.9379 75.2594C13.9927 75.4166 13.9206 75.5894 13.7764 75.6491C13.7447 75.6617 13.7101 75.668 13.6783 75.668Z" fill="#525252"/>
<path d="M15.5788 67.6063C15.5788 67.6063 15.573 67.6063 15.5702 67.6063C15.4173 67.6001 15.2962 67.4618 15.302 67.2952C15.3337 66.1638 15.6365 64.7463 15.9566 63.2472C16.2565 61.8486 16.5651 60.4028 16.643 59.1928C16.6545 59.0262 16.7843 58.9005 16.9371 58.9131C17.09 58.9257 17.2053 59.0702 17.1938 59.2337C17.113 60.4908 16.7987 61.9617 16.4959 63.3823C16.1815 64.8532 15.8845 66.2423 15.8528 67.3141C15.847 67.4775 15.7259 67.6063 15.5759 67.6063H15.5788Z" fill="#525252"/>
<path d="M13.4715 84.6094C13.3792 84.6094 13.2898 84.5591 13.2379 84.468C13.1572 84.3266 13.1975 84.1411 13.3273 84.0531C14.2877 83.4025 15.1788 81.96 15.9747 79.7662C16.0324 79.6122 16.191 79.5368 16.3323 79.5965C16.4736 79.6594 16.5428 79.8322 16.488 79.9862C15.6344 82.334 14.6943 83.8331 13.6186 84.5654C13.5725 84.5968 13.5234 84.6126 13.4715 84.6126V84.6094Z" fill="#525252"/>
<path d="M14.89 71.9121C14.8525 71.9121 14.815 71.9027 14.7775 71.887C14.6391 71.8178 14.5757 71.6418 14.6362 71.4878C15.089 70.3784 15.7062 69.6241 16.2512 68.9609C16.6319 68.4958 16.9895 68.0589 17.2317 67.5686C17.3038 67.4209 17.4711 67.3675 17.6066 67.4461C17.7422 67.5246 17.7912 67.7069 17.7191 67.8546C17.4451 68.4078 17.0645 68.8698 16.6636 69.3632C16.1185 70.0264 15.5562 70.7115 15.1409 71.7361C15.0948 71.8492 14.9938 71.9152 14.8871 71.9152L14.89 71.9121Z" fill="#525252"/>
<path d="M12.7818 97.6808C12.7068 97.6808 12.6347 97.6494 12.5799 97.5865C12.4761 97.4639 12.4819 97.2754 12.5944 97.1622C14.0536 95.6725 15.1437 93.4976 15.8272 90.6941C15.8675 90.5339 16.0175 90.4364 16.1646 90.4804C16.3117 90.5244 16.4011 90.6879 16.3607 90.8481C15.6484 93.7648 14.5092 96.0371 12.9721 97.6022C12.9173 97.6557 12.851 97.6839 12.7847 97.6839L12.7818 97.6808Z" fill="#525252"/>
<path d="M14.6448 106.324C14.6102 106.324 14.5784 106.317 14.5438 106.302C14.4025 106.242 14.3304 106.066 14.3881 105.912L16.2511 100.726C16.3059 100.572 16.4674 100.494 16.6087 100.557C16.75 100.616 16.8221 100.792 16.7644 100.946L14.9014 106.132C14.8582 106.251 14.7544 106.324 14.6448 106.324Z" fill="#525252"/>
</g>
<mask id="mask0_1261_3708" style="mask-type:luminance" maskUnits="userSpaceOnUse" x="7" y="55" width="12" height="55">
<path d="M15.7461 109.177C15.1404 109.177 10.8492 106.924 10.7108 102.04C10.6041 98.3061 7.26748 94.3461 7.40014 89.0409C7.50684 84.7854 6.97044 83.2768 8.36624 80.0994C9.68993 77.0916 10.0216 71.0824 11.8846 68.0778C15.5586 62.1471 10.9185 57.1091 12.7122 55.9054C14.9184 55.3051 18.9472 57.4517 18.5059 64.9977C18.3733 67.2575 17.4447 73.2416 17.0582 75.891C16.617 78.9176 19.1173 84.2574 18.3675 87.6109C17.6638 90.7601 15.9364 94.1921 16.7122 97.6776C18.0128 103.53 17.4504 108.153 15.7461 109.174V109.177Z" fill="white"/>
</mask>
<g mask="url(#mask0_1261_3708)">
<g style="mix-blend-mode:multiply">
<path d="M14.5494 109.589C14.9993 109.429 17.6813 106.61 16.6864 102.945C15.925 100.145 17.514 96.3104 16.2249 92.407C15.1896 89.2735 15.2502 88.0101 13.4968 86.0237C11.8386 84.1411 10.2409 79.7694 8.18183 78.0314C4.11846 74.6056 6.43421 69.6241 4.83077 69.2124C3.05719 69.3538 0.545342 72.0222 2.56982 77.5096C3.17543 79.1534 5.21144 83.3491 6.09391 85.216C7.10326 87.3469 6.44574 91.9795 7.75502 94.2707C8.98355 96.4236 11.0397 98.5105 11.2474 101.308C11.5963 106 13.0556 109.287 14.5494 109.589Z" fill="#D9D9D9"/>
</g>
</g>
<path d="M14.5033 109.545C14.9445 109.357 17.4823 106.383 16.3057 102.785C15.406 100.032 16.8046 96.1125 15.3194 92.2907C14.1284 89.2233 14.1255 87.9567 12.2798 86.0772C10.5293 84.2952 8.71826 80.024 6.57554 78.4117C2.34779 75.2311 4.41264 70.1207 2.79191 69.8002C1.02698 70.0453 -1.34645 72.8582 0.946228 78.22C1.63259 79.826 3.87336 83.8961 4.8481 85.7064C5.96128 87.7744 5.53447 92.4384 6.95621 94.651C8.29145 96.7285 10.4457 98.6928 10.7946 101.471C11.3772 106.138 12.995 109.332 14.5033 109.545Z" fill="#338D25"/>
<g style="mix-blend-mode:screen">
<path d="M16.3053 102.785C16.1149 102.244 16.0082 101.672 15.9506 101.097C15.9015 100.519 15.8842 99.9405 15.8842 99.3622C15.89 98.2056 15.9275 97.0553 15.8612 95.9176C15.7891 94.783 15.6016 93.6579 15.2152 92.6113C15.1287 92.3504 15.0162 92.0801 14.9181 91.813L14.6269 91.0053C14.4365 90.4647 14.2577 89.921 14.0645 89.393C13.8742 88.8618 13.6637 88.3464 13.3955 87.8718C13.1273 87.3941 12.7985 86.9635 12.4409 86.5581L12.164 86.2595L11.8785 85.9421C11.7805 85.8383 11.6997 85.7221 11.6103 85.612C11.5209 85.502 11.4344 85.3889 11.3537 85.2726C11.0163 84.8169 10.7192 84.336 10.4193 83.8583C9.82523 82.8997 9.26864 81.9223 8.66014 80.9857C8.3631 80.5111 8.04011 80.0586 7.7027 79.6154C7.35375 79.1848 6.9875 78.7731 6.56934 78.418C7.01345 78.7323 7.41143 79.122 7.78633 79.5337C8.1497 79.958 8.49865 80.3948 8.82452 80.8506C9.47916 81.762 10.0732 82.7206 10.6875 83.654C10.999 84.1192 11.3075 84.5843 11.6392 85.0212C11.7199 85.1343 11.8036 85.2412 11.893 85.3449C11.9795 85.4486 12.0602 85.5618 12.1554 85.6561L12.4294 85.9515L12.7206 86.2563C13.1013 86.6712 13.4531 87.1332 13.7415 87.6392C14.0299 88.1452 14.2549 88.6858 14.451 89.2264C14.6442 89.7701 14.8201 90.3138 15.0047 90.8481L15.2873 91.6496C15.3853 91.9167 15.4891 92.1744 15.5785 92.4573C15.9621 93.5636 16.1438 94.7359 16.1813 95.9019C16.2217 97.0679 16.138 98.2245 16.0832 99.3716C16.0515 99.9468 16.0371 100.519 16.0544 101.094C16.0832 101.666 16.1496 102.235 16.2995 102.791L16.3053 102.785Z" fill="#40A352"/>
</g>
<g style="mix-blend-mode:screen">
<path d="M14.5603 109.228C14.4104 109.228 14.2864 109.096 14.2835 108.932C14.0787 98.347 10.9267 93.4473 9.88848 91.8381C9.25979 90.8607 8.86182 89.5061 8.47538 88.1986C8.01684 86.6429 7.54389 85.0369 6.69315 84.028C2.74801 79.3671 0.187136 72.2673 2.6615 69.7435C2.77397 69.6304 2.947 69.6367 3.05082 69.7561C3.15464 69.8787 3.14887 70.0673 3.03928 70.1804C1.02346 72.239 2.99603 78.7699 7.09977 83.6163C8.03415 84.7226 8.52729 86.3946 9.00313 88.0101C9.39245 89.3364 9.76159 90.5872 10.3412 91.4892C14.6296 98.149 14.7853 106.255 14.8372 108.917C14.8401 109.083 14.719 109.221 14.5661 109.225C14.5661 109.225 14.5632 109.225 14.5603 109.225V109.228Z" fill="#525252"/>
<path d="M14.119 103.448C14.093 103.448 14.0671 103.445 14.0411 103.435C13.8941 103.388 13.8104 103.222 13.8537 103.061L15.0793 98.564C15.1226 98.4037 15.2783 98.3126 15.4225 98.3597C15.5696 98.4069 15.6532 98.5734 15.61 98.7337L14.3843 103.231C14.3497 103.363 14.2372 103.448 14.119 103.448Z" fill="#525252"/>
<path d="M11.9563 95.0534C11.9159 95.0534 11.8755 95.0439 11.8351 95.0219C11.6967 94.9497 11.6419 94.7674 11.7082 94.6197C12.4955 92.8565 12.7724 90.6659 12.533 88.1107C12.5186 87.9442 12.6282 87.7964 12.781 87.7807C12.9368 87.7619 13.0694 87.8844 13.0838 88.051C13.3347 90.7193 13.0406 93.0199 12.2072 94.8837C12.1581 94.9905 12.0601 95.0534 11.9591 95.0534H11.9563Z" fill="#525252"/>
<path d="M7.17504 84.575C7.02508 84.575 6.90108 84.443 6.89819 84.2764L6.85205 79.6281C6.85205 79.4615 6.97317 79.3264 7.12602 79.3232C7.12602 79.3232 7.12602 79.3232 7.1289 79.3232C7.27886 79.3232 7.40287 79.4552 7.40575 79.6218L7.4519 84.2702C7.4519 84.4367 7.33077 84.5719 7.17793 84.575C7.17793 84.575 7.17793 84.575 7.17504 84.575Z" fill="#525252"/>
<path d="M3.68288 79.2917C3.57618 79.2917 3.47236 79.2226 3.4291 79.1094C3.12918 78.3457 2.5524 77.428 1.94102 76.4568C1.34695 75.5139 0.732682 74.5365 0.343359 73.6408C0.27703 73.4899 0.337592 73.3108 0.476017 73.2385C0.614443 73.1662 0.778824 73.2322 0.845153 73.3831C1.21717 74.2348 1.81702 75.1902 2.39956 76.1142C3.02824 77.1105 3.61944 78.0503 3.94243 78.8705C4.00299 79.0245 3.93666 79.2006 3.79535 79.2666C3.76075 79.2823 3.72326 79.2917 3.68577 79.2917H3.68288Z" fill="#525252"/>
<path d="M9.66114 91.024C9.64384 91.024 9.62653 91.024 9.60923 91.0178C8.62006 90.8166 7.53284 90.0089 6.2899 88.5537C6.18608 88.4312 6.19184 88.2426 6.30432 88.1294C6.41679 88.0163 6.58982 88.0226 6.69364 88.1451C7.83853 89.484 8.85366 90.254 9.71017 90.4269C9.86013 90.4583 9.95818 90.6155 9.93222 90.7789C9.90627 90.9235 9.79091 91.024 9.66114 91.024Z" fill="#525252"/>
<path d="M5.31205 82.2178C5.24284 82.2178 5.17074 82.1895 5.11883 82.1298C4.55359 81.5232 3.97105 81.1995 3.40581 80.8852C2.98188 80.6495 2.58102 80.4295 2.23208 80.1057C2.11672 79.9989 2.1023 79.8072 2.20035 79.6814C2.29841 79.5557 2.47432 79.54 2.58968 79.6469C2.8896 79.9234 3.26162 80.1309 3.65671 80.3477C4.2306 80.6652 4.88524 81.0266 5.51104 81.6992C5.62062 81.8155 5.62062 82.0072 5.51104 82.1266C5.45624 82.1863 5.38703 82.2146 5.31493 82.2146L5.31205 82.2178Z" fill="#525252"/>
<path d="M13.5799 100.333C13.5453 100.333 13.5107 100.327 13.479 100.311C11.939 99.6419 10.5057 98.3313 9.21952 96.4205C9.13012 96.2853 9.15608 96.0967 9.28008 95.9993C9.40409 95.9019 9.57712 95.9302 9.66652 96.0653C10.8922 97.885 12.2447 99.1265 13.6866 99.7519C13.8279 99.8148 13.8972 99.9876 13.8424 100.145C13.7991 100.264 13.6953 100.333 13.5857 100.333H13.5799Z" fill="#525252"/>
<path d="M14.4829 107.207C14.4079 107.207 14.3329 107.176 14.281 107.11L11.5702 103.91C11.4664 103.787 11.4721 103.596 11.5846 103.486C11.6971 103.373 11.873 103.382 11.9739 103.501L14.6847 106.701C14.7886 106.823 14.7828 107.015 14.6703 107.125C14.6184 107.179 14.5492 107.204 14.4829 107.204V107.207Z" fill="#525252"/>
</g>
<mask id="mask1_1261_3708" style="mask-type:luminance" maskUnits="userSpaceOnUse" x="7" y="55" width="12" height="55">
<path d="M15.7461 109.177C15.1404 109.177 10.8492 106.924 10.7108 102.04C10.6041 98.3061 7.26748 94.3461 7.40014 89.0409C7.50684 84.7854 6.97044 83.2768 8.36624 80.0994C9.68993 77.0916 10.0216 71.0824 11.8846 68.0778C15.5586 62.1471 10.9185 57.1091 12.7122 55.9054C14.9184 55.3051 18.9472 57.4517 18.5059 64.9977C18.3733 67.2575 17.4447 73.2416 17.0582 75.891C16.617 78.9176 19.1173 84.2574 18.3675 87.6109C17.6638 90.7601 15.9364 94.1921 16.7122 97.6776C18.0128 103.53 17.4504 108.153 15.7461 109.174V109.177Z" fill="white"/>
</mask>
<g mask="url(#mask1_1261_3708)">
<g style="mix-blend-mode:multiply">
<path d="M13.9089 108.492C14.3674 108.615 18.0039 107.785 18.947 104.114C19.6679 101.311 22.8748 98.9913 23.6852 94.9495C24.3369 91.706 25.0002 90.6752 24.4898 87.9848C24.0053 85.4391 24.7839 80.8222 23.8928 78.1696C22.1308 72.9304 26.5085 70.064 25.3578 68.788C23.789 67.8829 20.3716 68.6875 19.4113 74.4892C19.1229 76.2273 18.7999 80.9447 18.6355 83.0316C18.4509 85.4108 15.6392 88.9434 15.6305 91.6369C15.6219 94.1638 16.34 97.1149 15.1547 99.5947C13.1648 103.759 12.7986 107.373 13.9117 108.492H13.9089Z" fill="#D9D9D9"/>
</g>
</g>
<path d="M13.465 109.262C13.912 109.426 17.6005 108.926 18.8175 105.356C19.749 102.628 23.1231 100.607 24.2363 96.6498C25.1303 93.4755 25.8743 92.5075 25.5686 89.7826C25.2802 87.2023 26.4078 82.6734 25.7186 79.9453C24.3603 74.5647 28.9427 72.1038 27.893 70.7272C26.3992 69.6838 22.9327 70.1772 21.5312 75.8721C21.113 77.5787 20.4295 82.2491 20.1094 84.314C19.7432 86.668 16.6747 89.9366 16.4585 92.6175C16.2566 95.1349 16.7468 98.1396 15.377 100.506C13.0786 104.476 12.4355 108.046 13.4592 109.262H13.465Z" fill="#338D25"/>
<g style="mix-blend-mode:screen">
<path d="M13.7188 109.341C13.6583 109.341 13.5977 109.319 13.5458 109.275C13.4276 109.171 13.4074 108.979 13.5025 108.851L13.5343 108.807C15.2271 106.515 19.7259 100.428 20.3517 92.5169C20.4469 91.332 20.9372 90.0183 21.413 88.7486C21.9782 87.2431 22.5608 85.6842 22.5031 84.3202C22.232 78.0093 24.4497 70.7964 27.8267 70.5952C27.9825 70.5858 28.1093 70.7146 28.118 70.8781C28.1266 71.0446 28.0084 71.1861 27.8584 71.1955C25.1072 71.3621 22.7742 77.7264 23.0568 84.2919C23.1202 85.788 22.5146 87.4097 21.9263 88.9749C21.4447 90.2572 20.9891 91.4703 20.9026 92.5672C20.2595 100.66 15.6856 106.852 13.964 109.181L13.9322 109.225C13.8774 109.3 13.7967 109.338 13.7159 109.338L13.7188 109.341Z" fill="#525252"/>
<path d="M16.9345 104.406C16.8451 104.406 16.7557 104.359 16.7038 104.271C16.6202 104.133 16.6548 103.944 16.7817 103.853L20.3605 101.273C20.4874 101.182 20.6605 101.22 20.7441 101.358C20.8277 101.496 20.7931 101.685 20.6662 101.776L17.0873 104.356C17.0412 104.391 16.9864 104.406 16.9345 104.406Z" fill="#525252"/>
<path d="M20.2223 96.4864C20.1156 96.4864 20.0147 96.4204 19.9685 96.3072C19.9051 96.1564 19.9685 95.9772 20.1069 95.9081C21.745 95.1098 23.2446 93.6326 24.5625 91.5112C24.649 91.3729 24.8192 91.3383 24.9461 91.4294C25.073 91.5237 25.1047 91.7092 25.0211 91.8474C23.6455 94.06 22.068 95.6126 20.3319 96.4549C20.2944 96.4738 20.2569 96.4801 20.2194 96.4801L20.2223 96.4864Z" fill="#525252"/>
<path d="M22.7307 85.1469C22.6701 85.1469 22.6067 85.1249 22.5548 85.0778C22.4365 84.9709 22.4192 84.7823 22.5173 84.6535L25.2166 81.0706C25.3146 80.9417 25.4877 80.9228 25.6059 81.0297C25.7241 81.1366 25.7414 81.3251 25.6434 81.454L22.9441 85.0369C22.8893 85.1092 22.8114 85.1469 22.7307 85.1469Z" fill="#525252"/>
<path d="M23.169 78.6725C23.1431 78.6725 23.1143 78.6693 23.0883 78.6599C22.9412 78.6128 22.8605 78.4431 22.9037 78.2828C23.1258 77.4908 23.2238 76.3876 23.3277 75.2184C23.4286 74.0839 23.5324 72.9084 23.7631 71.953C23.8006 71.7927 23.9535 71.6953 24.1005 71.7361C24.2476 71.777 24.337 71.9435 24.2995 72.1038C24.0804 73.0153 23.9794 74.1624 23.8814 75.275C23.7747 76.4756 23.6737 77.607 23.4372 78.4588C23.3998 78.5876 23.2902 78.6725 23.1719 78.6725H23.169Z" fill="#525252"/>
<path d="M20.8367 91.8066C20.756 91.8066 20.6781 91.7689 20.6233 91.6966C19.986 90.8543 19.6313 89.4777 19.5361 87.4977C19.5274 87.3311 19.6457 87.1897 19.7985 87.1803C19.9543 87.174 20.0811 87.2997 20.0898 87.4663C20.1763 89.2892 20.4993 90.584 21.0501 91.3132C21.1482 91.442 21.1309 91.6306 21.0126 91.7375C20.9607 91.7846 20.9002 91.8066 20.8367 91.8066Z" fill="#525252"/>
<path d="M22.6936 82.0418C22.5522 82.0418 22.4311 81.9255 22.4196 81.7683C22.3475 80.9103 22.0908 80.2566 21.8428 79.6217C21.6554 79.1471 21.4794 78.6977 21.4045 78.2074C21.3785 78.044 21.4794 77.8868 21.6294 77.8586C21.7822 77.8303 21.9236 77.9403 21.9495 78.1037C22.0158 78.5249 22.1802 78.9429 22.3533 79.3829C22.607 80.0272 22.8925 80.7563 22.9733 81.7086C22.9877 81.8752 22.8752 82.0197 22.7224 82.0355C22.7137 82.0355 22.7051 82.0355 22.6964 82.0355L22.6936 82.0418Z" fill="#525252"/>
<path d="M18.3562 101.653C18.2581 101.653 18.1629 101.597 18.1139 101.496C17.3324 99.9091 17.0065 97.9102 17.1478 95.5499C17.1565 95.3833 17.2891 95.2576 17.442 95.2702C17.5948 95.2796 17.7102 95.4242 17.6986 95.5907C17.5631 97.8348 17.8659 99.7268 18.5984 101.213C18.6705 101.361 18.6215 101.543 18.4859 101.622C18.4456 101.647 18.3994 101.657 18.3562 101.657V101.653Z" fill="#525252"/>
<path d="M15.0023 107.531C14.8552 107.531 14.7341 107.405 14.7254 107.245L14.5351 102.907C14.5265 102.741 14.6447 102.599 14.7975 102.593C14.9504 102.59 15.0802 102.713 15.0859 102.879L15.2763 107.216C15.2849 107.383 15.1667 107.524 15.0138 107.531C15.0081 107.531 15.0052 107.531 14.9994 107.531H15.0023Z" fill="#525252"/>
</g>
<g style="mix-blend-mode:multiply">
<path d="M12.0922 106.688C13.4217 107.908 13.5226 108.03 15.0453 108.03C16.568 108.03 17.8715 107.05 17.8657 107.106C17.462 107.615 16.9977 108.015 16.5276 108.323C16.3026 108.709 16.0431 108.998 15.7432 109.174C15.6422 109.174 15.4404 109.111 15.1751 108.986C15.1289 109.001 15.0799 109.02 15.0337 109.033C14.7944 109.322 14.5954 109.498 14.4973 109.542C14.2868 109.511 14.0734 109.423 13.86 109.278C13.6668 109.291 13.5255 109.281 13.4591 109.256C13.3005 109.071 13.1823 108.825 13.1044 108.533C12.7439 108.065 12.4008 107.443 12.0864 106.695C12.0864 106.691 12.0864 106.688 12.0864 106.682L12.0922 106.688Z" fill="#E6C188"/>
</g>
<path d="M27.8959 70.7305C27.5844 70.545 27.2441 70.4319 26.8952 70.3753C26.5462 70.3407 26.1944 70.3408 25.8541 70.4256C25.1677 70.5639 24.5333 70.9253 24.0084 71.4156C23.4864 71.9122 23.0365 72.4999 22.6876 73.1599C22.5895 73.3171 22.5261 73.4962 22.4425 73.6628C22.3675 73.8357 22.2752 73.9991 22.2175 74.1782C22.0935 74.5365 21.9464 74.8822 21.857 75.2531C21.6263 75.976 21.4793 76.7271 21.3351 77.4846C21.1909 78.2388 21.0669 79.0026 20.9284 79.76L20.5305 82.0386C20.3892 82.796 20.2623 83.5566 20.1123 84.3141C20.1988 83.544 20.2998 82.7803 20.3949 82.0135L20.715 79.7192C20.8217 78.9523 20.9515 78.1917 21.0842 77.4311C21.2197 76.6705 21.3581 75.9037 21.5888 75.162C21.684 74.7848 21.8397 74.4297 21.9695 74.0651C22.0301 73.8797 22.1281 73.7131 22.206 73.5371C22.2925 73.3642 22.3617 73.1819 22.4655 73.0185L22.7597 72.5219C22.8577 72.3585 22.9818 72.2108 23.0942 72.0568C23.1519 71.9813 23.2038 71.8996 23.2673 71.8305L23.4605 71.6231L23.6566 71.4188C23.72 71.3496 23.7979 71.2962 23.87 71.2333C24.4381 70.743 25.1158 70.391 25.831 70.2779C26.1886 70.2119 26.5549 70.237 26.9067 70.2967C27.2585 70.3753 27.5988 70.5168 27.8959 70.7305Z" fill="#6CE584"/>
<path d="M12.7124 55.9053C13.1854 55.7482 13.69 55.7482 14.1832 55.8173C14.4254 55.8739 14.6734 55.9242 14.9041 56.0311C15.1435 56.1096 15.3627 56.2416 15.5876 56.3674C16.4759 56.8891 17.1536 57.7565 17.6352 58.7025C17.7419 58.9477 17.863 59.1865 17.9582 59.438L18.2091 60.2048C18.2783 60.4657 18.3273 60.7297 18.385 60.9937C18.4513 61.2546 18.4744 61.5248 18.5032 61.792L18.5465 62.1943L18.5695 62.3954C18.5724 62.4614 18.5753 62.5306 18.5753 62.5966L18.5955 63.4012C18.607 63.6683 18.5753 63.9354 18.5638 64.2026C18.5494 64.4697 18.5292 64.7369 18.5061 65.0009C18.4801 63.9323 18.4715 62.8669 18.284 61.8297C18.1168 60.7926 17.8543 59.768 17.3843 58.8534C17.3381 58.734 17.266 58.6271 17.2026 58.5171L17.0094 58.1871C16.9488 58.0739 16.8709 57.9765 16.7931 57.8759L16.5653 57.5742C16.4095 57.3794 16.225 57.2128 16.0548 57.0274L15.7693 56.7948C15.6741 56.7194 15.5819 56.6314 15.4751 56.5716C15.2675 56.4428 15.0656 56.3013 14.8378 56.2133C14.7253 56.1693 14.6186 56.1002 14.5033 56.0719L14.1572 55.9651C13.69 55.8488 13.1998 55.8173 12.7153 55.9053H12.7124Z" fill="#6ED182"/>
<g style="mix-blend-mode:screen">
<path d="M16.4611 92.6176C16.4352 93.3467 16.4496 94.0759 16.4669 94.805C16.4756 95.5342 16.4813 96.2665 16.441 96.9987C16.4006 97.731 16.2939 98.4696 16.0862 99.1768C16.0257 99.3496 15.9738 99.5288 15.9103 99.7016C15.8382 99.8714 15.7777 100.044 15.6912 100.208C15.5268 100.541 15.348 100.843 15.1807 101.157C14.4943 102.398 13.9118 103.709 13.4936 105.082C13.286 105.767 13.1274 106.475 13.0697 107.194C13.038 107.553 13.038 107.917 13.0899 108.272C13.1418 108.627 13.2514 108.979 13.4648 109.262C13.2283 109.001 13.087 108.646 13.0178 108.288C12.9428 107.927 12.9226 107.556 12.9342 107.188C12.963 106.449 13.1043 105.723 13.2889 105.016C13.6696 103.602 14.2636 102.273 14.9413 101.006C15.1144 100.692 15.3018 100.384 15.4576 100.076C15.5412 99.9216 15.5989 99.7551 15.671 99.5948C15.7373 99.4314 15.7863 99.2616 15.8469 99.0951C16.0574 98.4162 16.1583 97.6996 16.2304 96.983C16.2968 96.2633 16.317 95.5342 16.3343 94.805C16.3631 94.0759 16.3775 93.3436 16.464 92.6207L16.4611 92.6176Z" fill="#40A352"/>
</g>
</svg>
