<svg width="177" height="163" viewBox="0 0 177 163" fill="none" xmlns="http://www.w3.org/2000/svg">
<g style="mix-blend-mode:multiply">
<path d="M59.1926 128.976C65.1733 132.208 65.2034 137.448 59.2616 140.68C53.3198 143.912 43.657 143.912 37.6792 140.68C31.7014 137.448 31.6684 132.208 37.6102 128.976C43.552 125.744 53.2148 125.744 59.1926 128.976Z" fill="#D9D9D9"/>
</g>
<g style="mix-blend-mode:multiply">
<path d="M11.0555 133.169C5.33577 136.258 1.62668 141.655 8.78679 145.547C15.9469 149.442 25.9129 147.448 31.6326 144.357C37.3492 141.268 37.2292 138.564 29.4959 134.357C21.7626 130.151 16.7722 130.078 11.0555 133.166V133.169Z" fill="#D9D9D9"/>
</g>
<path d="M35.5251 120.03C35.5221 120.255 35.5131 120.474 35.5131 120.701C35.5521 133.166 38.2979 142.616 38.3279 142.708C38.499 143.84 36.7104 144.374 36.1733 143.57C35.5191 141.054 33.3584 132.515 33.3254 121.794C33.3254 121.196 33.3404 120.609 33.3645 120.027H35.5281L35.5251 120.03Z" fill="#8A684F"/>
<path d="M18.7761 109.893H20.8257C20.6666 120.086 18.7851 128.126 18.1549 130.552C17.6147 131.355 15.8292 130.819 16.0003 129.69C16.0273 129.603 18.455 121.249 18.7791 109.893H18.7761Z" fill="#8A684F"/>
<path d="M6.6792 119.297L6.6882 121.917C6.6942 123.616 7.79553 125.312 10.5053 126.787C17.4374 130.555 27.0852 128.626 32.6219 125.635C35.1606 124.265 36.508 122.97 36.505 121.58L36.496 118.96C36.499 120.35 35.1516 121.645 32.6129 123.015C27.0762 126.006 17.4284 127.935 10.4963 124.167C7.78653 122.692 6.6852 120.996 6.6792 119.297Z" fill="#7D5F47"/>
<path d="M12.6944 112.182C7.15779 115.172 3.56573 120.395 10.4978 124.167C17.4298 127.935 27.0777 126.006 32.6143 123.015C38.148 120.025 38.0309 117.408 30.5467 113.336C23.0595 109.264 18.2311 109.194 12.6944 112.182Z" fill="#C49977"/>
<path d="M26.9384 117.977C31.6408 115.489 34.1525 108.429 34.1525 108.429C33.0332 113.194 41.5827 119.176 41.3906 124.618C44.2175 124.722 44.8207 129.383 46.2491 127.721C45.0637 122.787 41.0335 103.473 36.2411 102.678C30.7135 101.763 19.2771 110.42 19.2771 110.42C19.2771 110.42 24.3366 117.825 26.9414 117.977H26.9384Z" fill="#CCAA92"/>
<path d="M41.2781 124.076C41.4612 124 41.6622 124.02 41.8903 124.121C42.6105 124.438 43.5798 125.536 44.9752 126.794C45.3803 127.159 45.8485 126.128 46.0645 126.757C46.2806 127.847 48.4743 128.858 49.1314 129.377C49.7136 129.841 51.028 131.141 50.7789 132.253C50.6379 132.874 50.1457 133.359 49.5906 133.595L49.0534 133.823C49.6086 133.587 50.1037 133.101 50.2418 132.48C50.4909 131.368 49.1735 130.068 48.5943 129.605C47.676 128.878 45.8575 128.302 44.4381 127.021C43.0457 125.763 42.0734 124.663 41.3532 124.348C41.1251 124.247 40.924 124.227 40.741 124.303L41.2781 124.076Z" fill="#EA564A"/>
<path d="M41.3532 124.348C40.8731 124.138 40.507 124.275 40.2009 124.944C39.3216 126.881 42.1485 128.99 44.4802 131.158C45.6265 132.225 46.7278 133.407 47.6671 133.82C47.7901 133.874 47.9102 133.916 48.0272 133.941C48.8735 134.129 50.0168 133.478 50.2419 132.478C50.4909 131.366 49.1736 130.066 48.5944 129.602C47.6761 128.875 45.8576 128.299 44.4382 127.019C43.0457 125.761 42.0735 124.66 41.3532 124.346V124.348Z" fill="#DFDFDF"/>
<path d="M22.662 124.607C27.9705 125.241 42.3208 114.543 42.3208 114.543C42.1947 120.097 47.2062 124.379 48.7127 129.911C50.3692 132.158 53.4391 136.263 54.6394 134.859C53.361 134.112 49.0908 108.862 46.465 107.053C42.6929 104.459 14.5596 119.064 14.5596 119.064C14.6316 120.021 16.4021 123.857 22.662 124.607Z" fill="#FAD0B7"/>
<path d="M48.6192 129.574C48.5832 129.131 49.3124 129.967 49.9156 130.231C50.8159 130.627 52.7815 131.091 53.4447 131.495C53.5347 131.846 54.1288 132.593 54.3329 132.787C55.4492 133.868 56.4695 134.107 57.1898 135.227C57.7869 136.159 58.111 137.948 57.7149 138.816C57.6279 139.01 57.4988 139.127 57.3458 139.192L56.8086 139.419C56.9617 139.355 57.0907 139.234 57.1777 139.043C57.5739 138.176 57.2468 136.387 56.6526 135.454C55.9354 134.334 54.489 133.604 53.0905 132.719C51.8092 131.911 50.4648 130.933 49.3814 130.459C48.7783 130.195 48.2561 130.085 47.875 130.245C47.875 130.245 48.6432 129.813 48.6222 129.574H48.6192Z" fill="#EA564A"/>
<path d="M49.3787 130.459C48.3254 129.995 47.5211 130.007 47.2721 131.107C46.8369 133.039 48.3914 133.48 50.8671 135.106C52.3796 136.097 53.76 138.001 54.6872 138.703C54.9153 138.875 55.2724 139.111 55.6535 139.276C56.2537 139.54 56.9079 139.633 57.178 139.043C57.5741 138.175 57.247 136.387 56.6528 135.454C55.9356 134.334 54.4892 133.604 53.0908 132.719C51.8094 131.911 50.465 130.933 49.3817 130.459H49.3787Z" fill="white"/>
<g style="mix-blend-mode:multiply">
<path d="M36.4965 121.765C32.1992 121.712 29.7685 125.264 21.183 125.955C14.9591 126.457 8.66029 122.773 7.42692 120.414C5.34431 116.441 8.49824 114.183 10.2448 112.195C16.8437 108.359 20.2827 110.024 25.9304 105.02C27.2268 103.872 32.2503 106.36 32.8895 109.794C33.1775 111.336 33.8077 111.114 34.903 111.791C37.5378 113.414 36.4395 120.15 36.4995 121.765H36.4965Z" fill="#E6E5E5"/>
</g>
<path d="M37.8192 121.214C33.5219 121.161 29.1767 124.716 20.5911 125.41C14.3673 125.912 9.51485 121.728 8.27849 119.369C6.19587 115.396 8.96569 113.68 10.7122 111.692C17.3112 107.856 20.7502 109.521 26.3978 104.517C27.6942 103.369 32.7177 105.857 33.3569 109.291C33.645 110.833 36.2978 110.577 37.3931 111.251C40.0279 112.874 42.2335 121.27 37.8162 121.214H37.8192Z" fill="#BC3A3A"/>
<path d="M20.077 82.2173L12.4988 80.8927L11.237 87.2139L18.8152 88.5385L20.077 82.2173Z" fill="#D8B39B"/>
<path d="M22.7709 77.1306C22.9 77.7708 21.9547 78.7536 22.1137 79.7337C22.4198 81.6179 21.8797 83.4853 21.2945 85.0185C20.5863 86.8747 19.8091 87.908 18.1075 86.9252C15.9709 85.6924 9.77108 80.753 9.44999 78.3577C8.69377 72.7415 11.6616 71.3206 16.0399 71.4638C19.9921 71.593 21.9457 73.0307 22.7739 77.1306H22.7709Z" fill="#EEC5AB"/>
<g style="mix-blend-mode:multiply">
<path d="M35.9095 104.181C35.4713 103.984 34.6761 103.962 34.5681 103.827C34.5621 103.785 35.2403 103.526 36.1465 103.496C37.2178 103.459 37.4399 103.496 37.641 103.428C37.1218 102.985 36.1345 101.746 35.9755 101.524C35.3843 100.696 35.5674 100.005 34.7511 100.005C33.8388 100.005 32.6955 100.294 32.2304 100.662C31.9243 100.907 33.0706 103.105 32.7645 103.159C31.5462 103.366 30.6399 103.737 30.1868 103.928C30.838 103.911 31.3271 104.038 31.7352 104.372C32.4945 104.998 33.9109 105.144 34.1719 105.074C34.7421 104.916 35.7594 105.077 36.1495 105.209C36.2516 105.242 36.3686 105.197 36.4046 105.099C36.5126 104.799 36.4616 104.428 35.9095 104.181Z" fill="#D9D9D9"/>
</g>
<path d="M35.8764 103.846C35.4383 103.65 34.643 103.627 34.535 103.493C34.529 103.45 35.2072 103.192 36.1135 103.161C37.1848 103.125 37.5509 103.153 37.7099 103.055C38.7242 102.729 38.01 101.153 37.851 100.929C37.2598 100.1 35.5343 99.6708 34.718 99.6708C33.8058 99.6708 32.6624 99.96 32.1973 100.328C31.8912 100.572 30.2947 101.069 29.9886 101.12C28.7703 101.328 29.5505 103.63 30.2617 103.608C30.9129 103.591 31.291 103.703 31.6992 104.037C32.4584 104.664 33.8748 104.81 34.1359 104.739C34.706 104.582 35.7233 104.742 36.1135 104.874C36.2155 104.908 36.3325 104.863 36.3685 104.765C36.4766 104.464 36.4256 104.094 35.8734 103.846H35.8764Z" fill="#DDB69C"/>
<path d="M12.7695 103.532C17.3579 101.592 30.3577 101.058 30.3577 101.058C31.4711 101.485 31.276 102.689 30.2227 103.613L18.6333 105.792L14.0929 106.756C14.21 105.559 13.6698 104.377 12.7695 103.532Z" fill="#DDB69C"/>
<path d="M23.5264 121.869C19.5142 127.876 6.41831 123.877 6.86544 116.604C7.0605 113.428 8.89404 113.161 8.51593 108.834C7.82873 100.963 3.95458 89.0621 6.40931 86.928C8.39589 85.201 12.8222 86.0126 17.2395 89.211C18.998 90.483 25.2279 96.6215 25.498 98.4131C26.3292 103.937 22.269 105.349 22.263 109.974C22.257 114.172 25.0778 119.538 23.5234 121.866L23.5264 121.869Z" fill="#E04445"/>
<mask id="mask0_1261_3947" style="mask-type:luminance" maskUnits="userSpaceOnUse" x="4" y="86" width="22" height="39">
<path d="M23.5267 121.869C19.5146 127.876 7.24392 123.164 5.97755 115.975C5.97755 115.975 2.60755 90.2359 6.41268 86.928C8.39927 85.201 12.8256 86.0126 17.2429 89.211C19.0014 90.483 25.5914 97.1635 25.5013 98.4131C25.2222 102.196 22.2724 105.349 22.2664 109.974C22.2604 114.172 25.0812 119.538 23.5267 121.866V121.869Z" fill="white"/>
</mask>
<g mask="url(#mask0_1261_3947)">
<path d="M7.96356 87.279C8.73179 89.4581 11.0785 91.4462 14.4665 92.0134C17.5454 92.5273 19.2379 90.9688 18.8658 89.7192C18.0045 86.8325 8.83082 84.8444 8.83082 84.8444C8.83082 84.8444 7.55244 86.1108 7.96356 87.279Z" fill="#F6CDB2"/>
</g>
<path d="M20.6643 88.8459C19.839 90.0365 17.3933 90.8677 14.9656 90.6375C11.3075 90.2921 6.94123 88.1579 6.96223 86.0491C7.90751 84.5973 7.70945 80.6154 7.8565 78.8126C8.10857 75.7321 8.66374 71.2925 15.1246 70.8488C16.5921 70.7477 22.0537 71.5172 23.134 75.6394C23.3471 76.4538 21.5676 76.875 20.8173 79.2113C19.83 82.2834 19.0438 87.06 20.6643 88.8431V88.8459Z" fill="#5D482A"/>
<path d="M1.97221 140.787C1.99921 140.695 4.74803 131.245 4.78704 118.78C4.79904 114.908 4.20787 111.496 3.52367 107.545C2.66841 102.592 1.69613 97.4808 1.71713 89.5985C1.72313 89.3907 1.78015 88.9583 2.08924 88.7533C2.56338 88.436 3.26559 88.5286 3.55668 89.0004C3.70072 89.2363 3.73673 90.1854 3.73673 90.1854C3.71272 97.8431 4.667 103.33 5.50425 108.171C6.18545 112.08 6.82464 115.776 6.81264 119.875C6.77963 130.597 4.78404 139.136 4.12984 141.652C3.58968 142.455 1.80416 141.919 1.97521 140.79L1.97221 140.787Z" fill="#8A684F"/>
<g style="mix-blend-mode:multiply">
<path d="M21.0447 121.867C21.0837 121.746 21.0927 121.65 21.0927 121.65L20.5226 121.297C18.3109 119.932 15.319 116.745 12.4442 112.799C15.322 110.235 17.4977 106.537 18.0048 104.552L18.2989 103.973L17.0655 103.42L16.7714 103.999C15.7932 105.914 14.0076 109.003 11.3819 111.297C10.1095 109.449 9.23322 107.669 8.1379 105.667C8.30295 106.894 8.42298 107.761 8.58803 108.612C9.42828 110.028 9.43428 110.797 10.3496 112.12C9.5153 112.723 8.69906 113.209 7.71777 113.583C7.71777 113.583 7.28864 114.512 7.06958 115.296C7.07858 115.296 7.67876 115.444 7.68776 115.442C7.67276 116.231 7.69076 116.736 7.78679 116.888C8.74708 118.413 8.84911 118.011 11.5079 119.457C14.1667 120.903 17.2906 122.1 20.1024 122.625C20.4325 122.687 20.7836 122.636 21.0177 122.512C21.1107 122.462 21.1828 122.4 21.2278 122.327C21.3358 122.159 21.2488 121.987 21.0507 121.864L21.0447 121.867ZM7.97885 115.366C9.1762 115.065 10.3375 114.45 11.4239 113.639C13.6925 116.733 16.0302 119.367 18.0318 121.069C13.8756 119.825 9.65635 117.553 7.97885 115.363V115.366Z" fill="#D8D8D8"/>
</g>
<g style="mix-blend-mode:multiply">
<path d="M21.5072 124.646C21.2881 119.639 19.1845 106.006 19.2085 98.3484C19.2085 98.3484 19.2025 98.1687 19.1815 97.9468V97.023C19.1815 97.023 9.06851 95.0096 5.6385 90.4689C5.41643 91.5753 6.75783 98.0788 6.95889 99.0617C8.91847 100.862 13.4828 100.047 17.3029 101.564C17.537 107.337 18.2932 111.648 18.9954 115.714C19.6796 119.665 21.6782 128.606 21.5072 124.649V124.646Z" fill="#D8D8D8"/>
</g>
<path d="M5.63818 115.133V116.138C5.64118 116.188 5.65619 116.242 5.6892 116.292C6.64948 117.817 8.84613 119.513 11.5049 120.959C14.1637 122.406 17.2876 123.602 20.0995 124.127C20.4296 124.189 20.7807 124.138 21.0147 124.015C21.1078 123.964 21.1798 123.902 21.2248 123.829C21.2578 123.776 21.2758 123.723 21.2758 123.672V122.667C21.2758 122.72 21.2578 122.773 21.2218 122.824C21.1768 122.897 21.1018 122.959 21.0117 123.009C20.7807 123.136 20.4266 123.183 20.0965 123.122C17.2876 122.596 14.1607 121.4 11.5019 119.954C8.84313 118.508 6.64648 116.812 5.6862 115.287C5.65319 115.236 5.63818 115.183 5.63818 115.133Z" fill="#876047"/>
<path d="M5.89954 114.79C5.66847 114.916 5.57244 115.104 5.68648 115.284C6.64676 116.809 8.84341 118.505 11.5022 119.951C14.161 121.397 17.2849 122.594 20.0967 123.119C20.4268 123.18 20.7779 123.13 21.012 123.006C21.105 122.956 21.1771 122.894 21.2221 122.821C21.3841 122.571 21.138 122.299 20.6789 122.214C15.5744 121.262 9.10149 117.744 7.36097 114.972C7.20193 114.722 6.70078 114.588 6.23864 114.675C6.1066 114.7 5.99257 114.739 5.89954 114.79Z" fill="#B5815E"/>
<path d="M6.42218 115.877C6.56323 115.944 6.8033 115.95 6.91133 115.905C12.1629 113.726 16.7092 107.579 17.9996 105.049L18.2937 104.47L17.0603 103.917L16.7662 104.495C15.3768 107.214 10.8095 113.043 6.06508 114.849C6.06508 114.849 5.65996 115.506 6.42218 115.877Z" fill="#94664A"/>
<path d="M20.6134 122.866C21.0455 122.709 21.0905 122.144 21.0905 122.144L20.5203 121.793C15.6259 118.775 6.89631 106.829 4.12349 97.5061L3.94044 96.8883L2.62305 97.2309L2.8061 97.8487C5.65394 107.421 14.6836 119.727 19.7701 122.863C19.7701 122.863 20.0942 123.06 20.6164 122.869L20.6134 122.866Z" fill="#94664A"/>
<path d="M18.3923 149.394C18.4193 149.301 21.1681 139.852 21.2071 127.387C21.2191 123.515 20.628 120.103 19.9438 116.152C19.0885 111.198 18.1522 105.885 18.1762 98.003C18.1822 97.7952 18.1612 97.4245 18.5393 97.2055C19.0345 96.9191 19.6857 97.1325 19.9768 97.6043C20.1208 97.8401 20.1568 98.7893 20.1568 98.7893C20.1328 106.447 21.0871 111.934 21.9243 116.775C22.6055 120.684 23.2447 124.379 23.2327 128.479C23.1997 139.201 21.2041 147.74 20.5499 150.256C20.0098 151.059 18.2242 150.523 18.3953 149.394H18.3923Z" fill="#8A684F"/>
<path d="M0.000488281 89.1068L0.0154927 94.3271C0.0154927 94.372 0.0274963 94.4141 0.0545043 94.459C1.29987 96.4359 4.18973 98.7554 7.98885 100.822C11.788 102.889 16.0582 104.461 19.7013 105.144C19.9804 105.194 20.2835 105.158 20.4935 105.046C20.5746 105.001 20.6376 104.947 20.6736 104.886C20.7036 104.841 20.7156 104.796 20.7156 104.748L20.7006 99.5277C20.7006 99.5726 20.6886 99.6175 20.6586 99.6653C20.6196 99.727 20.5596 99.7804 20.4785 99.8253C20.2685 99.9376 19.9624 99.9742 19.6863 99.9236C16.0402 99.2412 11.773 97.6687 7.97385 95.6019C4.17172 93.5352 1.28187 91.2157 0.0394998 89.2388C0.0124918 89.1967 0.000488281 89.1517 0.000488281 89.1068Z" fill="#825A42"/>
<path d="M0.22867 88.809C0.0186075 88.9214 -0.0504129 89.087 0.0396137 89.2359C1.28498 91.2128 4.17484 93.5323 7.97396 95.599C11.7731 97.6658 16.0433 99.2383 19.6864 99.9207C19.9655 99.9712 20.2686 99.9347 20.4787 99.8224C20.5597 99.7775 20.6227 99.7241 20.6587 99.6623C20.7967 99.4461 20.5867 99.2102 20.1876 99.1344C13.0184 97.7978 3.92876 92.8555 1.48904 88.9663C1.42002 88.8624 1.28498 88.7781 1.09893 88.7276C0.915873 88.6799 0.708812 88.6714 0.519756 88.7079C0.405722 88.7276 0.306693 88.7641 0.225669 88.8062L0.22867 88.809Z" fill="#C28B64"/>
<g style="mix-blend-mode:multiply">
<path d="M43.9778 108.227C45.0071 106.073 44.1548 104.624 42.5463 105.284L28.8803 108.174C28.8803 108.174 23.2806 97.7755 22.1913 95.6161C20.6188 92.5047 17.3209 93.0944 18.8993 99.9434C19.2264 101.359 24.7751 111.448 26.7617 112.232C30.2427 113.608 43.9778 108.224 43.9778 108.224V108.227Z" fill="#D9D9D9"/>
<path d="M46.151 102.457C45.6228 102.679 44.4555 103.254 44.0384 103.628C43.7533 103.883 43.6122 104.201 43.1981 104.653C42.691 105.209 42.3969 105.279 41.5356 105.63C40.5934 106.006 42.3849 108.606 44.1104 108.182C44.5425 108.076 46.4061 108.188 47.2073 108.059C46.7452 106.997 45.1877 106.09 46.253 105.371C46.8142 104.995 49.8841 105.624 49.9411 105.116C50.0131 104.456 50.7844 103.395 50.0521 103.313C48.8368 103.178 48.3236 104.257 47.0693 104.007C46.9522 103.984 46.8052 103.956 46.6401 103.928L46.6852 103.605C46.6852 103.605 46.8112 102.594 47.0152 102.176C47.1053 101.993 48.3867 102.12 48.1946 102.03C47.9125 101.898 46.6311 102.252 46.154 102.454L46.151 102.457Z" fill="#D9D9D9"/>
</g>
<path d="M44.2331 107.416C45.2624 105.262 44.4102 103.813 42.8017 104.473L29.1357 107.362C29.1357 107.362 23.536 96.9639 22.4467 94.8044C20.8742 91.6931 15.7877 94.8325 19.1727 100.426C19.9349 101.687 25.0334 110.636 27.02 111.423C30.5011 112.799 44.2361 107.416 44.2361 107.416H44.2331Z" fill="#F6CDB2"/>
<path d="M46.4056 101.645C45.8775 101.867 44.7101 102.442 44.293 102.816C44.0079 103.071 43.8669 103.389 43.4528 103.841C42.9456 104.397 42.6515 104.467 41.7903 104.818C40.848 105.194 42.6395 107.795 44.365 107.371C44.7972 107.264 45.5594 107.295 46.1476 107.345C47.618 107.472 48.8514 106.868 49.9167 106.149C50.4778 105.773 50.991 105.099 51.048 104.591C51.12 103.931 51.039 102.58 50.3098 102.501C49.0944 102.367 48.5813 103.445 47.3269 103.195C47.2099 103.173 47.0628 103.144 46.8978 103.116L47.2789 102.701C47.2789 102.701 48.4252 102.204 48.6293 101.783C48.7193 101.6 48.6443 101.305 48.4522 101.215C48.1702 101.083 46.8888 101.437 46.4116 101.639L46.4056 101.645Z" fill="#F6CDB2"/>
<g style="mix-blend-mode:multiply">
<path d="M124.657 108.407C117.899 104.754 117.863 98.8313 124.576 95.1808C131.292 91.5275 142.212 91.5275 148.97 95.1808C155.728 98.8341 155.764 104.756 149.051 108.407C142.338 112.06 131.415 112.06 124.657 108.407Z" fill="#D9D9D9"/>
</g>
<path d="M135.783 109.738C136.413 110.266 141.422 111.903 142.841 109.659C143.054 109.322 142.976 108.227 142.976 108.227L135.615 108.53L135.786 109.735L135.783 109.738Z" fill="#594433"/>
<path d="M142.415 109.207C141.005 110.833 138.745 109.794 135.234 109.173C131.24 108.466 129.466 108.688 127.044 106.716C125.487 105.447 124.44 102.594 125.934 102.597C129.124 102.603 129.841 103.616 134.754 104.714C137.962 105.43 139.942 104.52 141.539 105.304C142.781 105.916 143.579 107.873 142.418 109.21L142.415 109.207Z" fill="#594433"/>
<path d="M142.085 109.283C140.014 110.322 138.163 109.401 134.862 108.645C130.874 107.736 130 107.91 127.341 106.225C125.511 105.065 124.071 102.285 126.087 102.223C129.274 102.128 129.892 102.504 134.802 103.602C138.01 104.318 140.815 104.065 142.085 105.259C143.138 106.253 143.561 108.544 142.085 109.283Z" fill="#211913"/>
<path d="M143.214 103.01C143.772 103.605 148.534 105.79 150.23 103.717C150.485 103.406 150.545 102.31 150.545 102.31L143.196 101.791L143.211 103.007L143.214 103.01Z" fill="#594433"/>
<path d="M149.864 103.223C148.258 104.68 146.143 103.397 142.737 102.389C138.862 101.241 137.071 101.266 134.919 99.0362C133.533 97.6013 132.858 94.6528 134.343 94.8213C137.509 95.1835 138.094 96.2674 142.83 97.9045C145.924 98.9744 148.006 98.2893 149.489 99.244C150.647 99.991 151.187 102.024 149.864 103.22V103.223Z" fill="#594433"/>
<path d="M149.527 103.259C147.34 104.06 145.617 102.939 142.439 101.822C138.595 100.471 137.704 100.55 135.282 98.5783C133.614 97.222 132.536 94.3016 134.547 94.4644C137.722 94.7228 138.289 95.1664 143.024 96.8036C146.118 97.8706 148.936 97.9324 150.044 99.2607C150.965 100.364 151.091 102.687 149.53 103.257L149.527 103.259Z" fill="#211913"/>
<path d="M142.82 98.4579C142.931 88.0258 141.914 78.4979 145.191 73.0137C146.659 70.5566 153.273 72.2583 153.765 75.0159C154.863 81.174 150.806 85.8046 150.632 100.519C149.87 102.156 143.421 101.302 142.82 98.4579Z" fill="#3D82C3"/>
<path d="M134.817 105.264C133.601 94.8941 131.375 85.546 133.932 79.736C135.075 77.1329 141.86 78.0849 142.7 80.7694C144.576 86.7591 141.134 91.8109 142.838 106.441C142.289 108.151 135.78 108.022 134.82 105.264H134.817Z" fill="#4F91C1"/>
<g style="mix-blend-mode:multiply">
<path d="M165.321 105.416C171.041 108.505 174.75 113.902 167.59 117.794C160.43 121.689 150.464 119.695 144.744 116.604C139.028 113.515 139.148 110.811 146.881 106.604C154.614 102.397 159.605 102.324 165.321 105.413V105.416Z" fill="#D9D9D9"/>
</g>
<path d="M140.853 92.277C140.856 92.5016 140.865 92.7207 140.865 92.9481C140.826 105.413 138.08 114.863 138.05 114.955C137.879 116.087 139.668 116.62 140.205 115.817C140.859 113.301 143.02 104.762 143.053 94.0405C143.053 93.4423 143.038 92.8583 143.014 92.2742H140.85L140.853 92.277Z" fill="#8A684F"/>
<path d="M157.604 82.1398H155.554C155.713 92.3332 157.595 100.373 158.225 102.799C158.765 103.602 160.55 103.066 160.379 101.937C160.352 101.85 157.925 93.4957 157.601 82.1398H157.604Z" fill="#8A684F"/>
<path d="M169.697 91.5443L169.688 94.1642C169.682 95.8631 168.58 97.5592 165.871 99.0334C158.938 102.802 149.291 100.873 143.754 97.8821C141.215 96.5118 139.868 95.2172 139.871 93.8272L139.88 91.2073C139.877 92.5973 141.224 93.8918 143.763 95.2622C149.3 98.2528 158.948 100.182 165.88 96.4135C168.589 94.9392 169.691 93.2431 169.697 91.5443Z" fill="#7D5F47"/>
<path d="M163.684 84.4285C169.221 87.4191 172.813 92.6422 165.881 96.4135C158.949 100.182 149.301 98.2528 143.764 95.2621C138.231 92.2715 138.348 89.6544 145.832 85.5826C153.319 81.5109 158.147 81.4407 163.684 84.4285Z" fill="#C49977"/>
<path d="M143.873 62.2639C143.537 61.2052 143.006 60.3319 142.811 59.54C142.715 57.3272 146.991 56.8246 147.616 58.0882C147.709 58.2764 148.231 59.4333 149.005 60.871L143.876 62.2639H143.873Z" fill="#F1F1F1"/>
<path d="M140.527 51.6185C141.506 53.9099 142.616 58.1417 143.228 59.5261C143.714 60.6325 147.615 59.5177 147.213 58.1445C146.898 57.0578 144.444 52.1857 143.81 50.8772C143.309 49.8466 141.062 49.723 140.527 51.6185Z" fill="#CCAA92"/>
<path d="M140.959 45.977C141.007 46.446 141.412 47.1171 141.343 47.28C141.304 47.3081 140.698 46.8812 140.185 46.1483C139.576 45.2778 139.402 44.382 139.225 44.3006C138.372 43.6351 137.106 44.9577 136.98 45.2104C136.512 46.1427 137.157 48.2319 137.592 48.9059C138.081 49.6641 139 50.7227 139.597 50.9108C139.99 51.0344 140.299 51.377 140.512 51.6044C141.361 52.503 144.143 51.3377 143.741 50.7592C143.375 50.2285 143.279 49.855 143.381 49.3355C143.567 48.3695 142.949 47.1171 142.742 46.9402C142.289 46.5527 141.895 45.6204 141.811 45.2244C141.787 45.1205 141.682 45.0475 141.571 45.07C141.229 45.1402 140.905 45.3817 140.965 45.9742L140.959 45.977Z" fill="#CCAA92"/>
<path d="M142.811 59.5429C143.831 62.8901 145.379 67.1556 146.175 68.54C147.492 70.837 152.674 71.4239 152.356 69.2448C152.095 67.4392 148.11 59.0851 147.615 58.0911C147.717 59.7085 144.209 61.3316 142.811 59.5429Z" fill="#E6E5E5"/>
<g style="mix-blend-mode:multiply">
<path d="M167.796 90.4179C166.215 88.2472 149.17 84.2176 146.199 85.2426C144.158 85.9474 142.433 86.7 140.293 89.8619C141.83 91.9399 147.171 95.7168 153.689 96.9383C161.209 98.348 169.975 93.4169 167.793 90.4179H167.796Z" fill="#CCCBCB"/>
</g>
<path d="M168.274 88.0087C166.981 85.678 151.397 69.9442 148.315 70.6294C146.199 71.1012 143.22 73.6902 145.086 76.9982C146.346 79.2334 150.779 92.8723 157.096 94.8127C164.382 97.0508 170.053 91.2268 168.271 88.0059L168.274 88.0087Z" fill="#3D82C3"/>
<path d="M162.926 89.4322C161.345 87.2616 139.7 75.9955 136.729 77.0205C134.688 77.7253 132.056 80.6261 134.334 83.7037C135.87 85.7817 147.316 94.7592 153.834 95.9807C161.354 97.3904 165.108 92.4313 162.926 89.4322Z" fill="#5998D2"/>
<path d="M157.723 52.6325C157.702 56.0415 152.246 59.0349 151.052 56.7239L149.056 47.4937L156.09 47.7211L157.723 52.6353V52.6325Z" fill="#CCAA92"/>
<path d="M158.932 45.1598C158.28 47.2631 156.369 48.9732 154.757 49.8803C152.147 51.3545 147.783 51.7476 146.631 49.8438C145.281 47.6113 144.803 43.5508 145.866 40.4647C147.474 35.8005 151.297 32.6863 156.669 34.7895C160.243 36.1908 160.384 40.4507 158.932 45.1598Z" fill="#EEC5AB"/>
<path d="M164.529 53.0172C170.924 62.3794 169.673 87.5231 168.758 89.1911C167.089 92.2323 160.436 95.0656 154.29 92.9624C150.563 91.6903 147.937 88.3374 147.871 87.2928C148.823 84.8329 152.136 80.6938 152.139 77.7818C152.145 73.4433 146.983 61.141 149.921 58.7906C150.728 58.1448 150.656 57.7825 151.851 56.8278C153.63 55.4041 154.263 54.5897 155.464 53.6294C157.855 51.7171 162.528 50.0912 164.529 53.0172Z" fill="#F1F1F1"/>
<path d="M157.999 50.6976C155.952 50.7735 152.234 54.1095 150.91 55.5697C149.839 56.7519 148.876 58.4311 149.365 60.2087C150.19 58.7372 153.323 56.2521 154.671 55.7269C157.314 54.6964 158.743 53.1126 159.289 52.36C159.424 52.1747 159.448 51.9473 159.223 51.8686C158.92 51.7619 158.368 50.6808 157.999 50.6948V50.6976Z" fill="white"/>
<path d="M142.151 65.4487C142.589 65.0388 149.329 59.9421 150.197 59.9954C153.24 60.1892 151.997 64.9433 150.071 66.426C148.111 67.9367 140.822 71.9691 139.273 71.4272C137.176 70.6971 140.519 66.9735 142.151 65.4459V65.4487Z" fill="white"/>
<path d="M133.076 50.8381C133.103 51.3801 133.524 52.1691 133.434 52.3545C133.389 52.3825 132.716 51.8631 132.173 50.9897C131.528 49.9564 131.357 49.5829 131.156 49.4818C130.22 48.6702 128.812 50.6584 128.653 50.9392C128.056 51.9838 128.554 53.7473 129.01 54.5448C129.523 55.4406 130.694 56.1005 131.369 56.3504C131.813 56.5161 133.124 57.7769 133.374 58.0324C134.466 59.136 135.756 56.7211 135.696 56.0836C135.639 55.4799 135.555 55.1457 135.633 54.8256C135.909 53.7276 135.279 52.2534 135.051 52.04C134.556 51.571 134.163 50.4787 134.091 50.0209C134.073 49.9002 133.953 49.8131 133.824 49.8328C133.428 49.8918 133.037 50.1501 133.07 50.8353L133.076 50.8381Z" fill="#ECC4AA"/>
<path d="M140.882 63.7046C141.488 64.7857 142.013 65.2603 142.142 65.7124C142.769 67.9617 139.75 72.9208 138.445 70.6912C137.707 69.4303 136.695 67.4787 135.924 66.1364C135.654 65.1395 138.541 62.4775 140.882 63.7046Z" fill="#F1F1F1"/>
<path d="M135.969 66.1955C136.392 66.8863 137.863 66.8442 139.246 66.1C140.633 65.3559 141.275 64.3365 140.852 63.6457C140.429 62.9549 139.096 62.851 137.71 63.5952C136.323 64.3393 135.543 65.5047 135.969 66.1955Z" fill="#E6E5E5"/>
<path d="M132.668 57.3725C134.156 60.453 134.955 63.4857 136.287 65.926C136.944 67.1335 140.755 65.1453 140.512 64.0249C140.26 62.8623 136.308 57.4034 135.672 56.0948C135.171 55.0643 133.202 55.4799 132.668 57.3725Z" fill="#ECC4AA"/>
<path d="M174.404 113.035C174.377 112.942 171.628 103.493 171.589 91.0275C171.577 87.1551 172.169 83.7432 172.853 79.7923C173.708 74.8388 174.68 69.728 174.659 61.8457C174.653 61.6379 174.596 61.2055 174.287 61.0005C173.813 60.6832 173.111 60.7758 172.82 61.2476C172.676 61.4835 172.64 62.4326 172.64 62.4326C172.664 70.0903 171.71 75.5773 170.872 80.4185C170.191 84.3273 169.552 88.0228 169.564 92.1226C169.597 102.844 171.592 111.383 172.247 113.899C172.787 114.703 174.572 114.166 174.401 113.037L174.404 113.035Z" fill="#8A684F"/>
<path d="M170.741 87.3798V88.3851C170.738 88.4356 170.723 88.489 170.69 88.5395C169.73 90.0643 167.533 91.7604 164.874 93.2066C162.216 94.6527 159.092 95.849 156.28 96.3741C155.95 96.4359 155.599 96.3853 155.365 96.2618C155.272 96.2112 155.2 96.1494 155.155 96.0764C155.122 96.0231 155.104 95.9697 155.104 95.9192V94.9139C155.104 94.9672 155.122 95.0206 155.158 95.0711C155.203 95.1442 155.278 95.2059 155.368 95.2565C155.599 95.3828 155.953 95.4306 156.283 95.3688C159.092 94.8437 162.219 93.6474 164.877 92.2013C167.536 90.7551 169.733 89.059 170.693 87.5342C170.726 87.4837 170.741 87.4303 170.741 87.3798Z" fill="#876047"/>
<path d="M170.481 87.0371C170.712 87.1635 170.808 87.3516 170.694 87.5314C169.734 89.0562 167.537 90.7522 164.878 92.1984C162.219 93.6446 159.095 94.8408 156.284 95.3659C155.954 95.4277 155.602 95.3772 155.368 95.2536C155.275 95.2031 155.203 95.1413 155.158 95.0683C154.996 94.8184 155.242 94.546 155.701 94.4617C160.806 93.5098 167.279 89.9912 169.019 87.2197C169.178 86.9697 169.68 86.8349 170.142 86.922C170.274 86.9473 170.388 86.9866 170.481 87.0371Z" fill="#B5815E"/>
<path d="M169.957 88.1241C169.816 88.1915 169.576 88.1971 169.468 88.1522C164.217 85.9731 159.67 79.8262 158.38 77.2961L158.086 76.7176L159.319 76.1644L159.613 76.7429C161.003 79.4611 165.57 85.2908 170.315 87.0964C170.315 87.0964 170.72 87.7534 169.957 88.1241Z" fill="#94664A"/>
<path d="M155.766 95.1135C155.334 94.9562 155.289 94.3918 155.289 94.3918L155.859 94.0379C160.754 91.0192 169.483 79.0736 172.256 69.7507L172.439 69.1329L173.757 69.4755L173.573 70.0933C170.726 79.6661 161.696 91.9712 156.609 95.1078C156.609 95.1078 156.285 95.3044 155.763 95.1135H155.766Z" fill="#94664A"/>
<path d="M157.987 121.641C157.96 121.549 155.211 112.099 155.172 99.6341C155.16 95.7618 155.751 92.3499 156.436 88.3989C157.291 83.4455 158.227 78.1325 158.203 70.2502C158.197 70.0424 158.218 69.6717 157.84 69.4527C157.345 69.1663 156.694 69.3797 156.403 69.8515C156.259 70.0873 156.223 71.0365 156.223 71.0365C156.247 78.6942 155.292 84.1812 154.455 89.0223C153.774 92.9312 153.135 96.6267 153.147 100.726C153.18 111.448 155.175 119.987 155.829 122.503C156.37 123.306 158.155 122.77 157.984 121.641H157.987Z" fill="#8A684F"/>
<path d="M176.379 61.3542L176.364 66.5745C176.364 66.6194 176.352 66.6616 176.325 66.7065C175.08 68.6834 172.19 71.0029 168.391 73.0696C164.592 75.1364 160.321 76.7089 156.678 77.3913C156.399 77.4418 156.096 77.4053 155.886 77.293C155.805 77.2481 155.742 77.1947 155.706 77.1329C155.676 77.088 155.664 77.0431 155.664 76.9954L155.679 71.7751C155.679 71.82 155.691 71.865 155.721 71.9127C155.76 71.9745 155.82 72.0278 155.901 72.0728C156.111 72.1851 156.417 72.2216 156.693 72.171C160.339 71.4887 164.607 69.9161 168.406 67.8494C172.208 65.7826 175.098 63.4631 176.34 61.4862C176.367 61.4441 176.379 61.3992 176.379 61.3542Z" fill="#825A42"/>
<path d="M176.153 61.0565C176.363 61.1688 176.432 61.3345 176.342 61.4833C175.096 63.4602 172.206 65.7797 168.407 67.8464C164.608 69.9132 160.338 71.4857 156.695 72.1681C156.416 72.2187 156.113 72.1821 155.903 72.0698C155.822 72.0249 155.759 71.9715 155.723 71.9098C155.585 71.6935 155.795 71.4577 156.194 71.3818C163.363 70.0452 172.453 65.1029 174.892 61.2137C174.961 61.1098 175.096 61.0256 175.282 60.975C175.465 60.9273 175.672 60.9189 175.862 60.9554C175.976 60.975 176.075 61.0115 176.156 61.0537L176.153 61.0565Z" fill="#C28B64"/>
<path d="M162.506 38.3728C159.718 30.7179 147.364 32.9757 146.526 35.1323C145.209 38.5329 146.325 37.2271 146.739 38.6649C146.754 39.4371 147.349 39.9875 147.655 40.1447C148.618 40.6446 148.315 38.8362 149.668 39.2321C150.395 39.4455 150.196 41.6274 150.458 43.3403L151.688 44.1435C151.748 43.5959 152.813 42.5625 153.155 43.2842C153.386 43.7644 153.065 45.2976 153.551 46.3394C154.566 48.5157 156.507 49.8158 157.222 50.8492C157.918 50.0152 159.241 49.1447 159.793 48.2405C160.967 46.3197 163.472 41.0152 162.509 38.37L162.506 38.3728Z" fill="#2E2E2E"/>
<g style="mix-blend-mode:multiply">
<path d="M92.2709 135.75C98.2187 138.962 99.464 143.713 92.9671 147.805C86.5842 151.826 76.8103 150.604 70.8626 147.389C64.9118 144.174 61.0497 138.56 68.5009 134.508C75.9521 130.456 86.3171 132.532 92.2709 135.747V135.75Z" fill="#D9D9D9"/>
</g>
<g style="mix-blend-mode:multiply">
<path d="M117.409 144.879C123.129 147.968 126.838 153.365 119.678 157.257C112.518 161.152 102.552 159.158 96.8323 156.067C91.1157 152.978 91.2357 150.273 98.969 146.067C106.702 141.86 111.693 141.787 117.409 144.876V144.879Z" fill="#D9D9D9"/>
</g>
<path d="M92.94 131.74C92.943 131.965 92.952 132.184 92.952 132.411C92.913 144.876 90.1672 154.325 90.1372 154.418C89.9662 155.55 91.7547 156.083 92.2918 155.28C92.946 152.764 95.1067 144.225 95.1397 133.503C95.1397 132.905 95.1247 132.321 95.1007 131.737H92.937L92.94 131.74Z" fill="#8A684F"/>
<path d="M109.691 121.603H107.641C107.8 131.796 109.682 139.836 110.312 142.262C110.852 143.065 112.638 142.529 112.467 141.4C112.44 141.313 110.012 132.959 109.688 121.603H109.691Z" fill="#8A684F"/>
<path d="M121.785 131.004L121.776 133.624C121.77 135.323 120.668 137.019 117.959 138.493C111.027 142.262 101.379 140.333 95.8421 137.342C93.3034 135.972 91.956 134.677 91.959 133.287L91.968 130.667C91.965 132.057 93.3124 133.352 95.8511 134.722C101.388 137.713 111.036 139.642 117.968 135.873C120.677 134.399 121.779 132.703 121.785 131.004Z" fill="#7D5F47"/>
<path d="M115.771 123.891C121.308 126.882 124.9 132.105 117.968 135.876C111.036 139.645 101.388 137.716 95.8511 134.725C90.3175 131.734 90.4345 129.117 97.9187 125.045C105.406 120.974 110.234 120.903 115.771 123.891Z" fill="#C49977"/>
<path d="M99.9231 131.315C95.5568 129.004 90.9805 120.816 90.9805 120.816C92.895 126.561 90.1762 132.085 90.3563 137.137C87.7305 137.235 87.1723 141.559 85.8459 140.018C89.249 134.654 83.6463 115.433 88.0966 114.697C93.2281 113.846 107.035 124.298 107.035 124.298C107.035 124.298 102.339 131.172 99.9201 131.313L99.9231 131.315Z" fill="#CCAA92"/>
<path d="M83.1186 140.888C83.8148 141.256 84.8351 141.467 85.4473 141.163C87.989 139.905 89.2644 137.28 91.269 134.533L87.5599 132.961C87.5599 132.961 87.1518 137.42 85.0211 138.355C84.0008 138.804 83.5357 138.142 82.6024 138.965C81.9873 139.506 82.6054 140.616 83.1216 140.888H83.1186Z" fill="#535254"/>
<path d="M85.363 141.217C85.363 141.217 87.8508 140.841 88.4149 140.456C89.7053 139.577 91.0347 135.809 91.0347 135.809C90.1705 135.382 89.0361 135.73 88.3429 136.527C86.7495 138.364 86.4734 140.212 85.363 141.22V141.217Z" fill="#8D8684"/>
<path d="M88.1208 136.539C89.4052 135.57 90.0083 135.635 91.0977 135.778C91.8119 134.461 92.349 132.846 91.1607 131.877C90.2934 131.172 88.772 131.473 87.7457 132.638C86.8274 133.686 87.2985 135.21 88.1208 136.539Z" fill="#535254"/>
<path d="M89.5941 141.964C89.8462 142.374 90.5664 142.287 90.7855 141.964L91.1306 135.632L89.219 135.573L89.5941 141.964Z" fill="#535254"/>
<path d="M104.887 133.663C99.9568 134.253 86.6358 124.321 86.6358 124.321C86.7529 129.479 82.1645 133.214 80.7661 138.347C79.2297 140.433 76.3128 144.483 75.1995 143.182C76.3848 142.489 80.349 119.047 82.7887 117.368C86.2907 114.958 112.41 128.519 112.41 128.519C112.341 129.406 110.7 132.969 104.887 133.666V133.663Z" fill="#E3BBA3"/>
<g style="mix-blend-mode:multiply">
<path d="M92.0972 129.929C95.3171 133.31 101.046 137.451 108.506 137.96C112.413 138.227 119.33 135.623 119.99 132.433C120.825 128.398 119.408 124.099 117.788 122.254C111.663 118.693 106.558 120.17 101.313 115.523C99.6084 114.012 102.414 122.51 98.9512 124.644C96.5055 126.152 92.5443 128.522 92.1002 129.931L92.0972 129.929Z" fill="#E6E5E5"/>
</g>
<path d="M89.7802 127.137C93.0002 130.518 101.412 136.308 108.716 137.819C112.341 138.569 117.929 133.891 119.078 131.7C121.01 128.01 119.522 123.588 117.899 121.74C111.774 118.179 106.669 119.656 101.424 115.009C99.7192 113.498 94.6747 119.128 91.2146 121.263C88.7689 122.771 88.6519 125.949 89.7832 127.137H89.7802Z" fill="#035248"/>
<path d="M108.447 100.183L115.483 98.9536L114.312 93.0851L107.276 94.3148L108.447 100.183Z" fill="#D9B49C"/>
<path d="M103.908 87.4898C103.797 88.1384 104.785 89.1044 104.656 90.0985C104.407 92.008 105.013 93.8782 105.652 95.4086C106.426 97.2619 107.245 98.2841 108.929 97.2451C111.044 95.9393 117.142 90.7837 117.391 88.3575C117.977 82.6683 114.937 81.3176 110.522 81.5843C106.54 81.823 104.614 83.3282 103.908 87.4898Z" fill="#F0C7AD"/>
<path d="M102.81 103.372C103.194 103.462 104.965 103.437 105.394 103.356C105.919 103.257 106.108 103.336 106.732 103.488C107.41 103.659 107.618 101.547 106.495 101.095C106.213 100.983 105.817 100.663 105.523 100.404C104.788 99.7556 103.851 99.59 102.951 99.5591C102.066 99.5282 101.568 99.8259 101.166 100.3C100.962 100.542 100.055 101.755 100.791 101.749C101.628 101.744 102.447 101.544 103.014 102.176C103.068 102.235 103.134 102.308 103.212 102.387L102.819 102.46C102.819 102.46 101.976 102.275 101.676 102.421C101.544 102.485 101.454 102.67 101.517 102.797C101.61 102.979 102.459 103.294 102.807 103.375L102.81 103.372Z" fill="#E6BEA5"/>
<path d="M104.085 131.122C107.809 136.699 119.201 132.324 120.377 125.649C120.377 125.649 123.507 101.752 119.975 98.6828C118.13 97.0794 114.021 97.832 109.919 100.803C108.287 101.985 106.111 103.538 104.65 105.299C104.145 105.905 101.346 108.399 101.43 109.559C101.688 113.072 105.247 115.784 105.256 120.081C105.262 123.978 102.642 128.96 104.085 131.122Z" fill="#35756C"/>
<path d="M115.171 96.995C115.171 96.995 118.225 97.2 118.847 97.6746C119.216 98.3429 116.506 100.5 114.561 101.317C111.762 102.493 110.477 102.381 108.815 102.381C107.488 102.381 103.836 103.659 103.836 103.659C103.836 103.659 105.325 101.567 106.879 100.241C107.881 100.199 109.058 100.129 109.421 100.047C110.423 99.8284 111.179 98.5114 112.203 98.3906C114.045 98.1744 115.174 96.9894 115.174 96.9894L115.171 96.995Z" fill="white"/>
<path d="M106.411 99.2556C107.281 100.435 109.778 101.204 112.221 100.904C115.903 100.455 120.239 98.1773 120.152 96.0516C119.153 94.611 119.225 90.5898 119.021 88.7758C118.67 85.6728 117.967 81.208 111.431 80.944C109.949 80.885 104.46 81.8117 103.5 86.0042C103.311 86.8326 105.121 87.2089 105.952 89.5424C107.047 92.6173 107.992 97.4135 106.414 99.2584L106.411 99.2556Z" fill="#A6772F"/>
<path d="M72.7079 146.527C73.4041 146.895 74.4244 147.106 75.0366 146.802C77.5784 145.544 78.8538 142.919 80.8584 140.172L77.1493 138.6C77.1493 138.6 76.7411 143.059 74.6105 143.994C73.5902 144.444 73.1251 143.781 72.1918 144.604C71.5766 145.146 72.1948 146.255 72.7109 146.527H72.7079Z" fill="#646464"/>
<path d="M74.9534 146.856C74.9534 146.856 77.4411 146.479 78.0053 146.095C79.2957 145.216 80.625 141.447 80.625 141.447C79.7608 141.02 78.6265 141.369 77.9333 142.166C76.3398 144.003 76.0637 145.85 74.9534 146.859V146.856Z" fill="#BABABA"/>
<path d="M77.7106 142.18C78.995 141.212 79.5982 141.276 80.6875 141.419C81.4017 140.102 81.9389 138.488 80.7505 137.519C79.8833 136.814 78.3618 137.115 77.3355 138.28C76.4172 139.327 76.8884 140.852 77.7106 142.18Z" fill="#646464"/>
<path d="M79.1844 147.603C79.4365 148.013 80.1567 147.926 80.3758 147.603L80.7209 141.271L78.8093 141.212L79.1844 147.603Z" fill="#646464"/>
<path d="M73.8067 144.646C73.9087 144.82 74.7189 144.154 75.3221 143.511C75.7752 143.025 76.0873 142.559 76.0453 142.441C75.8263 142.523 75.5622 142.666 75.3941 142.916C75.1901 143.222 74.917 143.551 74.6229 143.801C74.0947 144.253 73.6536 144.382 73.8097 144.646H73.8067Z" fill="#E6BEA5"/>
<path d="M126.492 152.497C126.465 152.404 123.716 142.955 123.677 130.49C123.665 126.617 124.257 123.206 124.941 119.255C125.796 114.301 126.768 109.19 126.747 101.308C126.741 101.1 126.684 100.668 126.375 100.463C125.901 100.145 125.199 100.238 124.908 100.71C124.764 100.946 124.728 101.895 124.728 101.895C124.752 109.553 123.797 115.04 122.96 119.881C122.279 123.79 121.64 127.485 121.652 131.585C121.685 142.306 123.68 150.846 124.335 153.362C124.875 154.165 126.66 153.628 126.489 152.5L126.492 152.497Z" fill="#8A684F"/>
<path d="M122.829 126.839V127.845C122.826 127.895 122.811 127.949 122.778 127.999C121.817 129.524 119.621 131.22 116.962 132.666C114.303 134.112 111.179 135.309 108.367 135.834C108.037 135.895 107.686 135.845 107.452 135.721C107.359 135.671 107.287 135.609 107.242 135.536C107.209 135.483 107.191 135.429 107.191 135.379V134.373C107.191 134.427 107.209 134.48 107.245 134.531C107.29 134.604 107.365 134.666 107.455 134.716C107.686 134.842 108.04 134.89 108.37 134.828C111.179 134.303 114.306 133.107 116.965 131.661C119.624 130.215 121.82 128.519 122.781 126.994C122.814 126.943 122.829 126.89 122.829 126.839Z" fill="#876047"/>
<path d="M122.567 126.5C122.798 126.626 122.894 126.814 122.78 126.994C121.82 128.519 119.623 130.215 116.965 131.661C114.306 133.107 111.182 134.303 108.37 134.828C108.04 134.89 107.689 134.84 107.455 134.716C107.362 134.666 107.29 134.604 107.245 134.531C107.083 134.281 107.329 134.009 107.788 133.924C112.892 132.972 119.365 129.454 121.106 126.682C121.265 126.432 121.766 126.297 122.228 126.385C122.36 126.41 122.474 126.449 122.567 126.5Z" fill="#B5815E"/>
<path d="M122.046 127.586C121.905 127.653 121.664 127.659 121.556 127.614C116.305 125.435 111.759 119.288 110.468 116.758L110.174 116.18L111.407 115.626L111.702 116.205C113.091 118.923 117.658 124.753 122.403 126.558C122.403 126.558 122.808 127.215 122.046 127.586Z" fill="#94664A"/>
<path d="M107.854 134.573C107.422 134.416 107.377 133.851 107.377 133.851L107.947 133.5C112.841 130.482 121.571 118.536 124.344 109.213L124.527 108.595L125.844 108.938L125.661 109.556C122.813 119.128 113.784 131.433 108.697 134.57C108.697 134.57 108.373 134.767 107.851 134.576L107.854 134.573Z" fill="#94664A"/>
<path d="M110.072 161.104C110.045 161.011 107.296 151.562 107.257 139.097C107.245 135.224 107.836 131.812 108.52 127.861C109.375 122.908 110.312 117.595 110.288 109.713C110.282 109.505 110.303 109.134 109.925 108.915C109.429 108.629 108.778 108.842 108.487 109.314C108.343 109.55 108.307 110.499 108.307 110.499C108.331 118.157 107.377 123.644 106.54 128.485C105.858 132.394 105.219 136.089 105.231 140.189C105.264 150.91 107.26 159.45 107.914 161.966C108.454 162.769 110.24 162.232 110.069 161.104H110.072Z" fill="#8A684F"/>
<path d="M128.467 100.814L128.452 106.034C128.452 106.079 128.44 106.121 128.413 106.166C127.168 108.143 124.278 110.462 120.479 112.529C116.68 114.596 112.409 116.169 108.766 116.851C108.487 116.901 108.184 116.865 107.974 116.753C107.893 116.708 107.83 116.654 107.794 116.593C107.764 116.548 107.752 116.503 107.752 116.455L107.767 111.235C107.767 111.28 107.779 111.325 107.809 111.372C107.848 111.434 107.908 111.487 107.989 111.532C108.199 111.645 108.505 111.681 108.781 111.631C112.427 110.948 116.695 109.376 120.494 107.309C124.296 105.242 127.186 102.923 128.428 100.946C128.455 100.904 128.467 100.859 128.467 100.814Z" fill="#825A42"/>
<path d="M128.239 100.519C128.449 100.631 128.518 100.797 128.428 100.946C127.182 102.923 124.292 105.242 120.493 107.309C116.694 109.376 112.424 110.948 108.781 111.631C108.502 111.681 108.199 111.645 107.989 111.532C107.908 111.487 107.845 111.434 107.809 111.372C107.67 111.156 107.881 110.92 108.28 110.844C115.449 109.508 124.538 104.565 126.978 100.676C127.047 100.572 127.182 100.488 127.368 100.438C127.551 100.39 127.758 100.381 127.947 100.418C128.061 100.438 128.161 100.474 128.242 100.516L128.239 100.519Z" fill="#C28B64"/>
<path d="M92.235 109.893C91.6828 109.432 91.4847 109.311 91.2507 108.778C91.0616 108.343 90.9836 107.896 90.8306 107.629C90.6085 107.236 89.9633 106.742 89.6272 106.453C89.3241 106.192 88.4629 105.63 88.2168 105.664C88.0487 105.686 87.9167 105.888 87.9347 106.046C87.9767 106.405 88.6999 107.045 88.6999 107.045L88.874 107.444C88.7449 107.427 88.6279 107.41 88.5319 107.402C87.8717 107.332 87.3165 107.163 86.9924 106.683L86.4253 105.796C85.9961 105.953 85.627 106.388 85.435 106.936C85.2039 107.596 85.2189 108.23 85.8131 109.005C86.4162 109.792 87.1785 110.527 88.3098 110.772C88.7629 110.87 89.3391 111.022 89.6332 111.201C90.8065 111.917 92.8381 110.393 92.232 109.893H92.235Z" fill="#F7CDB3"/>
<path d="M92.775 109.174L94.0744 110.376L91.3226 113.768C90.2122 112.291 89.489 111.263 89.489 111.263C89.8221 109.241 91.8357 108.138 92.775 109.174Z" fill="white"/>
<path d="M109.232 103.76C108.241 102.594 106.48 101.909 104.85 103.167C103.209 104.437 100.226 111.288 98.4345 113.925L93.5521 109.705C92.7449 108.497 90.2751 110.084 89.885 112.097C89.885 112.097 97.6903 121.397 99.5359 120.777C101.808 120.016 107.071 111.232 107.731 110.103C109.823 106.534 110.009 104.678 109.226 103.757L109.232 103.76Z" fill="#689791"/>
<g style="mix-blend-mode:multiply">
<path d="M69.4733 69.0488C75.19 72.1377 75.073 74.8391 67.3397 79.0456C59.6064 83.2521 54.6159 83.3251 48.8992 80.2362C43.1795 77.1473 39.4704 71.7502 46.6305 67.8581C53.7907 63.9633 63.7536 65.9599 69.4733 69.0488Z" fill="#D9D9D9"/>
</g>
<path d="M58.7058 13.4119C58.6788 13.5046 55.93 22.9539 55.891 35.419C55.879 39.2914 56.4702 42.7032 57.1544 46.6542C58.0096 51.6077 58.9849 57.2239 58.9609 65.109C58.9549 65.3168 58.8379 65.7492 58.5588 65.7773C57.9796 65.8307 57.4125 65.6762 57.1214 65.2045C56.9773 64.9686 56.9413 64.0195 56.9413 64.0195C56.9653 56.3618 56.011 50.8748 55.1738 46.0336C54.4926 42.1247 53.8534 38.4293 53.8654 34.3295C53.8984 23.6081 55.894 15.0687 56.5482 12.5527C57.0884 11.7495 58.8739 12.2859 58.7028 13.4147L58.7058 13.4119Z" fill="#8A684F"/>
<path d="M55.1979 38.4913V39.5303C55.1949 39.7353 54.9578 39.9263 54.5797 39.9965C49.3072 40.9821 42.6212 44.6186 40.8236 47.4772C40.6646 47.7328 40.1424 47.8732 39.6653 47.7833C39.5303 47.7581 39.4132 47.7187 39.3172 47.6654C39.1462 47.5727 39.0471 47.4464 39.0471 47.3144V46.2754C39.0471 46.4074 39.1492 46.5337 39.3202 46.6264C39.4162 46.6769 39.5333 46.7191 39.6683 46.7443C40.1454 46.8342 40.6676 46.6938 40.8266 46.4382C42.6272 43.5768 49.3132 39.9431 54.5827 38.9575C54.9578 38.8873 55.1949 38.6963 55.1979 38.4913Z" fill="#876047"/>
<path d="M54.9309 38.14C55.027 38.1906 55.102 38.2552 55.147 38.3282C55.3121 38.5865 55.06 38.8673 54.5828 38.9572C49.3103 39.9428 42.6243 43.5793 40.8268 46.438C40.6677 46.6935 40.1456 46.8339 39.6684 46.744C39.5334 46.7188 39.4164 46.6795 39.3203 46.6261C39.0803 46.4969 38.9842 46.3004 39.1013 46.115C40.0916 44.5369 42.3572 42.7846 45.109 41.2907C47.8549 39.7968 51.0808 38.5612 53.9887 38.0193C54.3308 37.9547 54.6909 38.0081 54.9309 38.1372V38.14Z" fill="#B5815E"/>
<path d="M40.1127 45.9663C39.7376 45.9298 39.5216 45.6181 39.5126 45.3316C39.5036 44.9245 40.0137 44.6661 40.0137 44.6661C44.6771 41.1672 51.273 29.7018 54.0879 21.0837L54.2889 20.4716L55.5973 20.845L55.3963 21.4572C52.5004 30.328 46.0515 41.8777 41.01 45.5844C40.923 45.649 40.5239 46.0056 40.1097 45.9663H40.1127Z" fill="#94664A"/>
<path d="M53.9409 38.8729C53.6378 39.0245 53.2597 38.7942 53.2597 38.7942C47.0748 35.9693 42.2194 30.6508 40.1458 28.379L39.7017 27.8932L40.743 27.062L41.1871 27.5478C43.2067 29.7578 47.9331 34.9359 53.8628 37.6429C53.8628 37.6429 54.262 37.7946 54.325 38.0866C54.391 38.4011 54.244 38.7212 53.9439 38.8729H53.9409Z" fill="#94664A"/>
<path d="M40.5477 22.2293C40.5207 22.322 39.5094 31.5606 39.4703 44.0258C39.4583 47.8981 40.0495 51.31 40.7337 55.261C41.589 60.2145 42.5643 65.8306 42.5403 73.7158C42.5343 73.9236 42.4172 74.356 42.1381 74.3841C41.559 74.4375 40.9918 74.283 40.7007 73.8113C40.5567 73.5754 40.5207 72.6262 40.5207 72.6262C40.5447 64.9686 39.5904 59.4815 38.7531 54.6404C38.0719 50.7315 37.4327 47.0361 37.4447 42.9362C37.4778 32.2149 37.7358 23.8861 38.39 21.37C38.9302 20.5669 40.7157 21.1033 40.5447 22.2321L40.5477 22.2293Z" fill="#8A684F"/>
<path d="M57.9943 15.3157C50.8282 16.6524 41.7385 21.5946 39.2958 25.4839C39.2297 25.5906 39.0947 25.672 38.9086 25.7225C38.7256 25.7703 38.5185 25.7787 38.3265 25.7422C38.2154 25.7197 38.1134 25.686 38.0324 25.6439C37.8853 25.5625 37.8043 25.4586 37.8043 25.3491L37.7893 30.5693C37.7893 30.6788 37.8673 30.7827 38.0174 30.8642C38.0984 30.9091 38.2004 30.94 38.3115 30.9625C38.5035 30.9962 38.7136 30.9905 38.8936 30.9428C39.0797 30.8923 39.2147 30.808 39.2807 30.7041C41.7235 26.8149 50.8132 21.8726 57.9793 20.536C58.2974 20.4798 58.4924 20.317 58.4954 20.1457L58.5104 14.9254C58.5104 15.0967 58.3124 15.2568 57.9943 15.3157Z" fill="#825B42"/>
<path d="M58.2833 14.6306C58.3643 14.6755 58.4304 14.7289 58.4664 14.7907C58.6044 15.0069 58.3944 15.2428 57.9922 15.3158C50.8261 16.6524 41.7364 21.5947 39.2937 25.4839C39.2277 25.5906 39.0926 25.6721 38.9066 25.7226C38.7235 25.7703 38.5165 25.7788 38.3244 25.7423C38.2134 25.7198 38.1114 25.6861 38.0303 25.644C37.8203 25.5317 37.7512 25.366 37.8443 25.2143C39.0866 23.2374 41.9795 20.9179 45.7756 18.8512C49.5777 16.7844 53.845 15.2091 57.4911 14.5295C57.7702 14.479 58.0703 14.5183 58.2803 14.6306H58.2833Z" fill="#C28B64"/>
<path d="M53.8116 60.1162L51.9241 60.0629C52.0741 61.3265 52.2512 62.593 52.4312 63.8819C53.1094 68.7455 53.8807 74.2578 53.6046 81.9099C53.6046 81.9099 53.6046 82.859 53.7456 83.0977C54.0217 83.5779 54.6639 83.8109 55.168 83.5386C55.5551 83.3308 55.5431 82.9573 55.5581 82.7523C55.8402 74.8728 55.081 69.5374 54.3878 64.5614C54.1717 63.017 53.9677 61.554 53.8086 60.1162H53.8116Z" fill="#8A684F"/>
<path d="M69.0986 54.4017L70.9232 53.9468C71.0822 55.2104 71.2203 56.4797 71.3553 57.7742C71.8745 62.6547 72.4626 68.1866 74.5873 75.5804C74.5873 75.5804 74.8153 76.5042 74.7403 76.7682C74.5903 77.2961 74.0201 77.6583 73.4619 77.5011C73.0358 77.3803 72.9548 77.0153 72.8918 76.8159C70.7041 69.2032 70.1489 63.8453 69.6148 58.8525C69.4497 57.3025 69.2937 55.8338 69.1016 54.3989L69.0986 54.4017Z" fill="#8A684F"/>
<path d="M71.2043 54.0283L71.1953 56.7353C71.1893 58.4314 69.2358 60.2679 65.0495 62.5452C57.3162 66.7517 52.3258 66.8248 46.6091 63.7358C43.125 61.8544 40.3882 59.1165 40.3972 56.3871L40.4062 53.6801C40.3972 56.4123 43.1371 59.1474 46.6181 61.0288C52.3348 64.1178 57.3252 64.0419 65.0585 59.8382C69.2448 57.5608 71.2013 55.7243 71.2043 54.0283Z" fill="#735742"/>
<path d="M67.1933 49.8413C72.91 52.9302 72.7929 55.6315 65.0596 59.8381C57.3264 64.0446 52.3359 64.1176 46.6192 61.0287C40.8995 57.9398 37.1904 52.5426 44.3505 48.6506C51.5106 44.7558 61.4736 46.7523 67.1933 49.8413Z" fill="#CC9F7C"/>
<g style="mix-blend-mode:multiply">
<path d="M61.0444 81.4044C54.3194 85.0381 54.2864 90.9267 60.9633 94.5576C67.6403 98.1884 78.5035 98.1884 85.2285 94.5576C91.9505 90.9267 91.9865 85.0381 85.3065 81.4072C78.6296 77.7764 67.7633 77.7764 61.0444 81.4072V81.4044Z" fill="#E6E6E6"/>
</g>
<path d="M67.211 64.2977C61.0382 67.3332 60.366 65.8815 60.1169 65.435C59.3757 64.1039 62.7937 62.0905 65.0143 60.3102L73.0987 59.5043C73.0987 59.5043 73.981 60.9673 67.211 64.2977Z" fill="#2E2E2E"/>
<path d="M73.6527 88.7477C73.9948 89.1801 79.3454 89.6322 79.5644 88.7477C79.7835 87.8575 76.9477 86.709 76.9477 86.709C76.2965 87.1049 73.7997 87.602 73.0105 87.279C73.0105 87.279 73.2626 88.2591 73.6527 88.7505V88.7477Z" fill="#7A5B42"/>
<path d="M70.8807 84.325C70.6046 84.6619 70.7546 86.2345 70.8326 87.5964L70.5596 87.7705C70.5596 87.7705 70.5596 87.7705 70.5566 87.7705L70.2715 84.1958L70.8807 84.325Z" fill="#BDBDBD"/>
<path d="M70.3226 87.6357C70.1636 86.2654 70.0315 84.735 69.7825 84.0919L70.2716 84.1958L70.5567 87.7705C70.4457 87.7509 70.3316 87.6975 70.3226 87.6357Z" fill="#EDEDED"/>
<path d="M70.2979 83.8671L74.2531 83.4965C73.6139 82.1514 73.0047 80.7951 72.9087 79.2731L69.9468 79.4528L70.2979 83.8699V83.8671Z" fill="#CCAA92"/>
<path d="M74.9463 87.6191L76.9959 86.6222C75.5915 85.9539 73.989 82.1208 73.4909 80.9358L71.1682 83.6933C72.0115 85.5832 73.2598 87.0518 74.9493 87.6219L74.9463 87.6191Z" fill="#CCAA92"/>
<path d="M73.6505 88.5821C73.9926 89.0146 79.3432 89.4667 79.5622 88.5821C79.7813 87.692 76.9455 86.5435 76.9455 86.5435C76.2943 86.9394 73.7975 87.4364 73.0083 87.1135C73.0083 87.1135 73.2604 88.0935 73.6505 88.5849V88.5821Z" fill="#FFFEFE"/>
<path d="M69.7762 84.0916C71.3516 85.2907 72.705 86.5543 73.1612 87.6074L74.5896 87.1553C72.7711 86.6302 69.9472 82.0389 70.1093 81.3959C69.3891 82.126 69.3591 83.2745 69.7732 84.0916H69.7762Z" fill="#FFFEFE"/>
<path d="M70.8142 87.296L70.8206 87.3015L70.8142 87.296Z" fill="#ABABAB"/>
<path d="M70.531 87.4751L70.5549 87.7688C70.5549 87.7688 70.5549 87.7688 70.5579 87.7688C70.4473 87.7521 70.3307 87.6961 70.3217 87.6346C70.3097 87.5395 70.3008 87.4443 70.2888 87.3464C70.3097 87.4052 70.4204 87.4555 70.531 87.4751Z" fill="#7A7A7A"/>
<path d="M70.5322 87.475L70.8132 87.296C70.8192 87.3967 70.8252 87.4946 70.8312 87.5925L70.5591 87.766C70.5591 87.766 70.5591 87.766 70.5561 87.766L70.5322 87.4723V87.475Z" fill="#4F4F4F"/>
<path d="M71.4071 59.7333L64.748 54.2281L61.8134 57.3364L68.4725 62.8416L71.4071 59.7333Z" fill="#CCAA92"/>
<path d="M68.3175 61.7787C67.2192 69.3886 68.8967 70.1805 69.962 79.759C70.8833 83.3533 74.0012 84.412 73.8332 82.5895C73.0469 80.0089 73.41 69.7677 73.344 64.8395C73.6741 63.677 74.3403 61.7394 72.8759 59.4452C71.2014 56.8252 68.5486 60.1725 68.3175 61.7759V61.7787Z" fill="#CCAA92"/>
<path d="M63.4779 87.6581C63.1808 88.0344 63.3759 89.767 63.4839 91.2665L63.1838 91.4631C63.1838 91.4631 63.1838 91.4631 63.1808 91.4631L62.8027 87.5261L63.4779 87.6581Z" fill="#BDBDBD"/>
<path d="M62.9228 91.3171C62.7217 89.8063 62.5176 88.1411 62.3196 87.4082L62.8027 87.5261L63.1808 91.4631C63.0578 91.4434 62.9318 91.3873 62.9228 91.3199V91.3171Z" fill="#EDEDED"/>
<path d="M63.15 91.1371L63.1799 91.4616C63.1799 91.4616 63.1799 91.4616 63.1828 91.4616C63.0603 91.4448 62.9317 91.386 62.9198 91.3161C62.9048 91.2126 62.8929 91.1063 62.8779 91C62.9018 91.0643 63.0274 91.1203 63.147 91.1371H63.15Z" fill="#7A7A7A"/>
<path d="M63.1501 91.1367L63.4581 90.9353C63.4581 90.9353 63.4581 90.9353 63.4581 90.9381C63.467 91.0472 63.476 91.1563 63.482 91.2654L63.183 91.4612C63.183 91.4612 63.183 91.4612 63.18 91.4612L63.1501 91.1367Z" fill="#4F4F4F"/>
<path d="M60.5313 59.9758H54.7996C55.0426 61.3799 60.3362 64.3817 60.5673 65.9851C59.826 71.9636 62.0857 76.8384 62.7669 83.9289L62.95 87.7451C62.95 87.7451 65.9479 86.942 66.0199 86.6331C65.9509 82.7242 66.0439 71.9945 66.0829 67.055C66.482 65.9402 66.362 64.7664 66.1639 64.1655C65.8548 63.2248 61.5366 59.5883 60.5313 59.9758Z" fill="#F0C7AD"/>
<path d="M66.9529 92.3278C67.9582 92.0442 68.7234 91.7858 68.9305 91.2411C68.9875 91.0922 68.9965 90.9294 68.8525 90.6991C67.7361 89.7443 66.2807 86.4785 66.0196 85.0071L62.9077 87.3546C63.874 89.4242 65.0834 91.7268 66.9559 92.3278H66.9529Z" fill="#F0C7AD"/>
<path d="M65.5481 92.8782C66.4994 93.9734 70.1485 94.7597 70.3705 93.7796C70.5956 92.794 68.9871 91.0642 68.9871 91.0642C69.1192 91.4236 67.7748 91.9431 66.5774 92.0274C65.8212 92.0807 65.215 91.6932 64.8789 91.3506C64.8789 91.3506 65.092 92.3531 65.5481 92.8782Z" fill="#7A5B42"/>
<path d="M65.4763 92.7013C66.4276 93.7964 70.1757 94.5658 70.3978 93.5858C70.6228 92.6002 68.8403 90.6823 68.8403 90.6823C69.0233 90.9799 68.9003 91.1765 68.7413 91.3197C68.3692 91.6567 67.4419 91.7746 66.6016 91.8336C65.8454 91.8869 65.1342 91.5134 64.7981 91.1709C64.7981 91.1709 65.0172 92.1733 65.4733 92.6985L65.4763 92.7013Z" fill="#FFFEFE"/>
<path d="M62.427 87.9643C63.9754 89.4666 64.3205 90.6993 64.9807 91.7215L66.5382 91.8507C64.4976 91.2947 63.2852 87.4588 63.0151 86.403C62.8921 85.9143 62.8381 85.3078 62.7991 85.0186C62.3129 85.4903 62.0548 87.1724 62.427 87.9643Z" fill="#FFFEFE"/>
<path d="M73.1189 59.5267C70.4811 54.7501 61.5715 48.0022 59.7559 46.0366C57.6883 43.8013 44.8836 44.9077 44.8836 44.9077C44.5024 46.2023 44.2324 47.376 44.0853 48.4572C43.5001 52.7283 44.8145 55.4999 48.6046 58.2574C51.7796 60.5657 57.0792 63.6405 60.3951 65.8337C60.1761 63.9185 71.7895 59.5913 73.1189 59.5295V59.5267Z" fill="#3D3D3D"/>
<path d="M56.9036 14.0888C56.8586 15.3945 56.1804 16.4335 55.3851 16.4111C54.5899 16.3886 53.9837 15.3103 54.0287 14.0045C54.0737 12.6988 54.7519 11.6598 55.5472 11.6822C56.3424 11.7047 56.9486 12.783 56.9036 14.0888Z" fill="#674928"/>
<path d="M69.3623 33.4533C69.1733 33.4898 66.5625 33.9644 66.5625 33.9644C65.8663 34.4811 66.5445 38.8336 67.3817 39.3756C67.3817 39.3756 69.8875 39.6058 70.5357 39.2689C70.9198 38.1288 70.5687 33.2343 69.3623 33.4533Z" fill="#E6E6E6"/>
<path d="M55.9849 18.3569C56.1619 24.0602 60.2821 38.4994 61.2394 39.1621C61.8336 39.5721 65.2906 38.2411 64.1773 34.5456C63.4481 32.1306 61.6265 23.0352 60.6422 19.6795C59.79 16.776 55.8768 14.7878 55.9879 18.3569H55.9849Z" fill="#79407A"/>
<path d="M75.6882 32.5685C75.3431 32.4421 68.9332 33.9332 66.1304 34.5454L67.3967 37.5051L76.4144 34.4246C76.1863 33.6215 76.2734 32.7201 75.6882 32.5657V32.5685Z" fill="#EDC5AB"/>
<path d="M79.9706 33.8855C79.5565 33.9276 78.9113 33.7338 78.7792 33.8125C78.7612 33.8462 79.2294 34.2337 79.9496 34.5033C80.8048 34.8206 81.1049 34.8936 81.2069 35.0171C81.9242 35.5507 80.5107 37.0334 80.3157 37.171C79.5865 37.682 78.1761 37.4461 77.5189 37.2299C76.7836 36.9856 76.1925 36.1628 75.9284 35.7416C75.7543 35.4636 75.3282 35.1435 75.0971 35.0171C74.1789 34.5229 74.761 32.5966 75.3702 32.5769C76.0394 32.5797 76.2105 32.4562 76.6666 32.3775C77.5939 32.2231 78.6532 32.5713 78.8392 32.6977C79.2504 32.9757 80.1206 33.1189 80.4777 33.1189C80.5708 33.1189 80.6518 33.1891 80.6518 33.2761C80.6488 33.5457 80.4927 33.8321 79.9706 33.8855Z" fill="#EDC5AB"/>
<path d="M67.4481 34.0177C67.4481 34.0177 64.2102 34.4501 63.9791 34.5456C61.6624 35.9075 61.4553 39.2688 61.7374 39.2716C62.8327 39.2857 65.7976 38.5837 67.8832 37.9238L67.4481 34.0177Z" fill="#A155A3"/>
<path d="M69.3623 33.453C69.1733 33.4895 66.5625 33.9641 66.5625 33.9641C65.8663 34.4808 66.5445 38.8333 67.3817 39.3753C67.3817 39.3753 69.8875 39.6055 70.5357 39.2686C69.3293 38.7294 68.7592 33.9163 69.3623 33.453Z" fill="white"/>
<path d="M44.1494 47.7833C43.8613 49.325 53.5662 50.8413 54.3974 47.9153C55.8889 50.2629 61.3235 48.6651 60.9814 47.1375C60.7113 45.93 59.676 42.7821 59.0338 41.7375C57.9535 39.9796 59.1148 36.1887 59.5469 33.6445C59.667 32.9397 60.8493 29.9856 61.2364 26.7113C61.4135 25.2202 60.4142 19.986 58.3526 16.8128C57.2242 15.0774 55.0696 14.4933 52.0807 14.996L44.7165 17.4025C41.7157 17.908 40.3293 20.0786 40.2302 22.9316C40.2302 22.9316 45.8449 37.7893 45.6348 42.3693C45.6198 42.7259 44.5455 45.6688 44.1464 47.7833H44.1494Z" fill="#A155A3"/>
<path d="M45.6348 42.3692C45.8449 37.7892 40.2302 22.9316 40.2302 22.9316C40.3293 20.0785 41.7127 17.9079 44.7165 17.4024L52.0807 14.9959C52.5819 14.9116 53.059 14.8611 53.5122 14.8386L48.0505 16.6218C45.0496 17.1272 43.6632 19.2979 43.5642 22.1509C43.5642 22.1509 49.1789 37.0086 48.9688 41.5886C48.9538 41.9452 47.8795 44.8881 47.4804 47.0026C47.3063 47.932 43.8913 49.1367 44.1434 47.7832C44.5395 45.6687 45.6138 42.7258 45.6318 42.3692H45.6348Z" fill="#79407A"/>
<path d="M48.2515 35.9696C47.8974 36.8541 46.9852 35.714 46.0669 36.3346C46.0129 35.481 45.3107 33.0435 45.2236 32.3134C50.2021 28.8707 55.2436 29.5868 60.2671 30.9009C60.2311 31.1003 60.1801 31.3755 60.123 31.69C59.832 32.6448 59.5919 33.344 59.5439 33.6416C59.5109 33.8326 59.4748 34.032 59.4358 34.237C56.2999 32.305 49.1278 33.7821 48.2515 35.9668V35.9696Z" fill="#79407A"/>
<path d="M44.6797 28.0536C45.4239 25.5038 48.6168 23.1366 49.013 24.4761C49.235 25.2258 49.6672 26.13 50.0273 27.1072L56.2121 26.6102C57.2264 24.2205 60.4073 21.8364 60.7794 23.1029C61.3076 24.886 62.796 27.8542 61.8148 30.3309C61.3826 31.4205 60.1913 32.3275 58.8889 32.51L48.2597 33.462C47.6206 33.5771 46.9514 33.5237 46.3272 33.2317C44.4096 32.3331 43.9325 30.6033 44.6767 28.0536H44.6797Z" fill="#A155A3"/>
<path d="M56.2937 18.4779C57.149 21.3618 55.8706 23.6476 53.989 27.242C51.4593 25.3802 48.2723 21.5275 46.3428 18.7334L56.2937 18.4751V18.4779Z" fill="#F0F0F0"/>
<path d="M55.8551 14.5802C58.2588 17.5989 57.2175 20.5025 53.5504 23.3443C51.0207 21.4825 48.4249 18.2335 46.4954 15.4395L55.8551 14.5802Z" fill="#EDC5AB"/>
<path d="M55.0333 14.1364C55.2254 14.0943 56.2847 14.6587 56.7528 15.0827C57.6231 15.8718 58.7274 18.458 58.7274 18.458L57.5301 19.8312L57.6561 22.1366L54.016 27.3429C53.959 27.0649 55.6695 22.3192 56.0656 20.9432C56.2487 20.3058 56.5638 19.1545 56.5998 17.8431C56.6718 15.3298 55.4385 14.5071 55.0363 14.1392L55.0333 14.1364Z" fill="#79407A"/>
<path d="M56.4284 18.3457C56.6355 17.5426 58.9852 18.3233 59.2253 18.3906C59.1442 16.5373 56.5005 14.6727 55.7532 14.4397C54.946 14.1869 54.4028 14.3666 54.4028 14.3666C55.7802 14.698 56.5845 16.7198 56.4284 18.3485V18.3457Z" fill="white"/>
<path d="M57.7943 17.9021C57.2991 20.2104 55.7777 21.9963 53.551 23.3414C55.4086 21.4151 55.9367 20.0391 56.4499 18.2728C56.6119 17.9386 57.2631 17.7617 57.7943 17.9021Z" fill="white"/>
<path d="M55.5418 16.428C55.6559 15.8945 55.7519 8.46143 55.7519 8.46143L48.1536 9.91602C48.1536 9.91602 47.7785 14.5662 47.9436 15.1896C48.3187 17.1525 54.9206 18.565 55.5388 16.428H55.5418Z" fill="#CCAA92"/>
<path d="M45.6296 14.5803C45.4615 14.7797 44.9754 16.897 44.5702 17.5401C43.9701 18.4976 46.2867 22.1341 46.2867 22.1341L47.9462 21.5135L48.7685 23.5522L54.032 27.3122C53.888 26.8545 51.2472 23.2068 49.6567 21.6736C48.1143 20.1853 45.8126 16.4898 45.6266 14.5803H45.6296Z" fill="#79407A"/>
<path d="M46.1275 19.1574C46.5896 18.593 48.9033 18.2588 49.6895 18.5481C47.976 16.779 47.5379 14.5858 48.2461 13.8024C47.4748 14.0074 46.0824 15.6698 46.0344 16.1864C45.9444 17.1721 46.1275 19.1546 46.1275 19.1546V19.1574Z" fill="white"/>
<path d="M47.4504 18.509C48.8759 20.6684 50.5984 21.5586 53.5512 23.3417C51.5797 21.4547 50.2143 20.1938 49.188 18.7561C48.8729 18.6101 47.9216 18.4332 47.4504 18.5118V18.509Z" fill="white"/>
<g style="mix-blend-mode:multiply">
<path d="M54.0034 27.0455C54.0454 28.6405 55.2368 29.8705 55.4588 31.4205C55.5099 31.9569 55.3838 32.496 55.1798 32.9875L55.0117 33.0998C55.0657 33.0886 55.0297 33.0886 55.0057 33.1419C54.6786 34.1584 54.7896 35.2761 54.7566 36.3319C54.7686 38.3987 54.8257 41.3331 54.8257 43.3746C54.8347 44.5484 54.8167 45.725 54.7867 46.9016C54.6906 45.7278 54.6036 44.5568 54.5406 43.383C54.3965 40.1509 54.1175 36.8991 54.4566 33.6698C54.5406 33.3441 54.5226 32.833 54.9877 32.7375L54.8197 32.8499C55.888 30.8842 53.8084 29.0646 54.0004 27.0511L54.0034 27.0455Z" fill="#DBDBDB"/>
</g>
<path d="M53.4211 28.9297C53.1541 29.0842 52.947 29.4492 52.959 29.7441C52.971 30.0361 53.1961 30.1485 53.4631 29.9912C53.7302 29.8368 53.9373 29.4717 53.9253 29.1797C53.9133 28.8848 53.6882 28.7753 53.4211 28.9297Z" fill="#808080"/>
<path d="M53.6246 28.972C53.3695 29.1461 53.1984 29.4101 53.1084 29.6909C53.1684 29.4017 53.3485 29.1237 53.6246 28.972Z" fill="#D9D9D9"/>
<path d="M53.3369 34.007C53.0698 34.1615 52.8628 34.5265 52.8748 34.8214C52.8868 35.1134 53.1118 35.2257 53.3789 35.0685C53.646 34.9112 53.8531 34.549 53.8411 34.2569C53.829 33.9621 53.604 33.8526 53.3369 34.007Z" fill="#808080"/>
<path d="M53.5401 34.0518C53.285 34.2259 53.114 34.4898 53.0239 34.7706C53.0839 34.4814 53.264 34.2034 53.5401 34.0518Z" fill="#D9D9D9"/>
<path d="M53.4336 39.216C53.1665 39.3704 52.9594 39.7355 52.9714 40.0303C52.9834 40.3224 53.2085 40.4347 53.4756 40.2775C53.7427 40.123 53.9497 39.758 53.9377 39.4659C53.9257 39.1711 53.7007 39.0616 53.4336 39.216Z" fill="#808080"/>
<path d="M53.6372 39.2582C53.3822 39.4323 53.2111 39.6962 53.1211 39.9771C53.1811 39.6878 53.3612 39.4098 53.6372 39.2582Z" fill="#D9D9D9"/>
<path d="M53.9919 44.3746C53.7248 44.529 53.5178 44.8941 53.5298 45.1889C53.5418 45.481 53.7669 45.5933 54.0339 45.436C54.301 45.2816 54.5081 44.9165 54.4961 44.6245C54.4841 44.3296 54.259 44.2201 53.9919 44.3746Z" fill="#808080"/>
<path d="M54.1919 44.4192C53.9369 44.5933 53.7658 44.8573 53.6758 45.1381C53.7358 44.8488 53.9159 44.5708 54.1919 44.4192Z" fill="#D9D9D9"/>
<path d="M40.989 19.4777C37.1479 23.9088 31.4132 35.7702 31.6773 36.8542C31.8393 37.5281 34.3991 38.3846 36.6617 35.1834C38.1592 33.0632 41.3671 28.5703 43.2577 25.5516C44.8872 22.9541 43.3927 16.7033 40.989 19.4777Z" fill="#79407A"/>
<path d="M50.9166 21.1653C50.7725 20.2078 50.9886 19.8287 51.4327 18.1803C51.8588 16.5909 49.9113 16.2933 48.4108 12.1935C47.5946 9.95822 48.1107 7.06588 48.2938 6.56323L44.8278 7.55449C44.8848 10.3036 46.6643 11.1292 45.9681 12.9882C45.3649 14.6 43.9455 15.2824 43.4834 16.8998C42.9612 18.7251 44.4196 20.5419 45.0498 21.3254C46.9494 23.6898 51.8798 24.8383 53.0862 23.9903C53.6534 23.4399 51.1086 22.4149 50.9196 21.1625L50.9166 21.1653Z" fill="#674928"/>
<path d="M52.5219 1.09859C49.434 1.00593 46.8713 2.629 46.7422 6.48171C46.6822 8.26766 46.8173 11.0561 47.7235 12.126C48.7678 13.3644 50.4933 15.3328 52.0388 15.3778C53.5843 15.4227 55.4388 13.5637 56.5671 12.39C57.5424 11.3762 57.8665 8.60183 57.9295 6.81588C58.0616 2.96317 55.6159 1.19126 52.5249 1.09859H52.5219Z" fill="#FACFB5"/>
<g style="mix-blend-mode:multiply">
<path d="M58.851 17.6553C58.692 17.3632 58.5269 17.0796 58.3529 16.8128C57.8667 16.0631 56.7744 13.5442 55.9222 13.2213C55.6521 13.1174 55.5621 14.6731 55.5291 14.9595C55.5381 15.9676 55.9732 16.9729 56.7354 17.2958C57.9178 17.7957 57.5877 19.0256 58.4729 20.4072C58.9711 21.185 60.2585 22.1875 61.2277 21.9938C62.3651 21.3648 60.5765 20.7666 60.5225 19.2615C60.0844 18.6016 59.4842 18.0484 58.854 17.6581L58.851 17.6553Z" fill="#BEBEBE"/>
</g>
<path d="M61.0347 17.6326C61.3918 15.9253 59.8854 15.4507 59.5853 13.9793C59.3542 12.8364 60.0715 12.4011 60.3896 11.0111C60.9207 8.67477 59.6483 6.58836 58.571 4.82487C57.2326 2.63456 55.7442 -0.344835 52.6593 0.155006C49.7934 -0.586332 44.7549 4.15093 44.8239 7.55434C44.8239 7.55434 48.41 8.05699 49.5683 6.257C50.0995 5.42861 52.3772 4.43735 53.3795 2.43518C54.6549 2.78058 58.388 6.25138 57.2566 9.89629C56.8365 11.2526 56.7735 11.2835 55.8732 13.0638C55.3271 14.1421 55.5161 16.7846 56.8695 17.2507C58.0879 17.6719 57.8298 19.1293 58.8171 20.4491C59.3722 21.1905 60.4826 22.1284 61.4339 21.87C62.2471 21.0922 60.5396 19.9858 61.0287 17.6298L61.0347 17.6326Z" fill="#674928"/>
<path d="M57.7732 9.00583C57.6952 9.66293 57.4191 10.174 57.155 10.1459C56.8909 10.1178 56.7439 9.56464 56.8219 8.90474C56.8999 8.24765 57.176 7.73657 57.4401 7.76465C57.7042 7.79273 57.8512 8.34593 57.7732 9.00583Z" fill="#FACFB5"/>
<path d="M47.3425 8.64681C47.3485 9.30952 47.1384 9.84587 46.8714 9.84868C46.6043 9.85148 46.3882 9.31514 46.3822 8.65243C46.3762 7.98972 46.5863 7.45337 46.8533 7.45056C47.1174 7.45056 47.3365 7.9841 47.3425 8.64681Z" fill="#FACFB5"/>
<path d="M50.4507 9.6635C49.4994 9.6635 48.3801 9.56521 48.074 9.42481C47.7799 9.19735 47.7139 8.01514 47.8879 7.73153L47.933 7.68379C48.3561 7.37771 51.6991 7.46195 52.2422 7.79611L52.2812 7.82139L52.3022 7.8607C52.4793 8.19205 52.1672 9.29283 51.8311 9.51748L51.8011 9.53433C51.579 9.62699 51.0479 9.66631 50.4537 9.66631L50.4507 9.6635ZM48.2601 9.13838C48.7372 9.30968 51.1349 9.41358 51.6361 9.23667C51.8341 9.0738 52.0472 8.28472 51.9992 8.04603C51.417 7.7905 48.6052 7.7568 48.179 7.92809C48.101 8.15555 48.152 8.95867 48.2601 9.13838Z" fill="#4D4D4D"/>
<path d="M55.2555 9.80395C54.3583 9.80395 53.371 9.72532 53.0529 9.57088L53.0229 9.55122C52.7018 9.30411 52.4647 8.18929 52.6658 7.86917L52.6898 7.82986L52.7318 7.80739C53.296 7.50693 56.6359 7.61925 57.0381 7.95061L57.0801 8.00115C57.2331 8.29319 57.0891 9.46979 56.819 9.65793C56.5789 9.7534 55.9457 9.79833 55.2585 9.79833L55.2555 9.80395ZM53.2329 9.28445C53.7191 9.49506 56.1198 9.52876 56.6089 9.38835C56.729 9.21425 56.837 8.41394 56.774 8.18368C56.3629 7.98711 53.551 7.85513 52.9539 8.07416C52.8878 8.30723 53.0469 9.11035 53.2359 9.28445H53.2329Z" fill="#4D4D4D"/>
<path d="M52.8669 8.41954C52.5938 8.32688 52.3268 8.31845 52.0657 8.39427L52.0867 7.76807C52.3478 7.8495 52.6148 7.85793 52.8879 7.79334L52.8669 8.41954Z" fill="#4D4D4D"/>
<path d="M47.9331 7.98977C47.9061 7.98977 47.8791 7.98415 47.8551 7.97292L46.9368 7.54047C46.8498 7.49835 46.8138 7.40007 46.8588 7.31863C46.9038 7.2372 47.0119 7.2035 47.0959 7.24562L48.0142 7.67807C48.1012 7.72019 48.1372 7.81847 48.0922 7.89991C48.0622 7.95888 47.9991 7.98977 47.9331 7.98977Z" fill="#4D4D4D"/>
<path d="M56.9358 8.25097C56.8728 8.25097 56.8098 8.21728 56.7768 8.16111C56.7318 8.07968 56.7678 7.98139 56.8548 7.93927L57.458 7.65566C57.545 7.61353 57.65 7.64723 57.695 7.72867C57.7401 7.8101 57.7041 7.90838 57.617 7.95051L57.0139 8.23412C56.9898 8.24536 56.9628 8.25097 56.9358 8.25097Z" fill="#4D4D4D"/>
<path d="M42.6189 38.0531C42.4538 37.9604 40.1071 36.854 40.1071 36.854C39.2339 36.9579 36.4641 40.3389 37.0462 41.3105C37.0462 41.3105 38.7237 43.0655 39.4439 43.2312C41.0824 43.5092 43.5041 39.1819 42.6189 38.0531Z" fill="#E6E6E6"/>
<path d="M47.5517 40.7714L39.7014 37.2332L38.675 40.1115C38.675 40.1115 43.1704 42.5236 46.8735 42.9504C48.0618 43.088 47.5517 40.7714 47.5517 40.7714Z" fill="#FFD3B8"/>
<path d="M41.046 37.6798C41.046 37.6798 38.2401 36.082 38.0031 36.0034C33.6908 34.0518 31.4041 34.8689 31.9233 37.2614C32.1393 38.2639 36.5326 39.9937 38.5432 40.8305L41.046 37.6798Z" fill="#A155A3"/>
<path d="M42.6189 38.0531C42.4538 37.9604 40.1071 36.854 40.1071 36.854C39.2339 36.9579 36.4641 40.3389 37.0462 41.3105C37.0462 41.3105 38.7237 43.0655 39.4439 43.2312C38.5017 42.0574 41.2145 37.893 42.6189 38.0531Z" fill="white"/>
<path d="M49.3373 40.1227C49.4423 40.3221 50.0064 40.2631 50.5916 39.9907C51.1798 39.7183 51.5669 39.3336 51.4619 39.1342C51.3568 38.9349 50.7927 38.9938 50.2075 39.2662C49.6193 39.5386 49.2322 39.9233 49.3373 40.1227Z" fill="#DDB6A2"/>
<path d="M55.3843 32.5157L60.2487 31.1398L55.3843 32.5185V32.5157Z" fill="#ADADAD"/>
<path d="M55.3843 32.5185L60.2487 31.1398L60.2457 31.1426L55.3843 32.5214V32.5185Z" fill="#A8A8A8"/>
<path d="M55.3841 32.5214L60.2455 31.1426V31.1454L55.3811 32.5214H55.3841Z" fill="#A3A3A3"/>
<path d="M55.3811 32.5212L60.2455 31.1453V31.1481L55.3811 32.524V32.5212Z" fill="#9E9E9E"/>
<path d="M55.3817 32.5244L60.2461 31.1484L60.2431 31.1512L55.3787 32.5272L55.3817 32.5244Z" fill="#999999"/>
<path d="M55.3787 32.5273L60.2431 31.1514V31.1542L55.3787 32.5301V32.5273Z" fill="#949494"/>
<path d="M55.3785 32.5305L60.2429 31.1545L60.2399 31.1573L55.3755 32.5333L55.3785 32.5305Z" fill="#8F8F8F"/>
<path d="M55.3755 32.533L60.2399 31.157L55.3755 32.533Z" fill="#8A8A8A"/>
<path d="M55.3749 32.533L60.2393 31.157L60.2333 31.1598L55.3689 32.5358C55.3689 32.5358 55.3749 32.5358 55.3749 32.533Z" fill="#858585"/>
<path d="M48.9382 48.6707L53.5926 30.0418C53.6796 29.6907 54.0517 29.3257 54.4208 29.2218L65.5691 26.1582C65.7552 26.1048 65.9052 26.1301 65.9983 26.2115L65.6382 25.8914C65.5451 25.81 65.3951 25.7847 65.209 25.838L54.0607 28.9017C53.6916 29.0056 53.3195 29.3734 53.2325 29.7216L48.5781 48.3506C48.5361 48.5247 48.5691 48.6623 48.6591 48.7409L49.0193 49.061C48.9292 48.9796 48.8932 48.842 48.9382 48.6707Z" fill="#C2A17B"/>
<path d="M49.4491 49.1147C49.08 49.2186 48.8519 49.0192 48.9389 48.6682L53.5933 30.0393C53.6803 29.6883 54.0524 29.3232 54.4215 29.2193L65.5698 26.1557C65.9389 26.0518 66.167 26.2512 66.08 26.6022L61.4256 45.2311C61.3386 45.5821 60.9665 45.9472 60.5974 46.0511L49.4491 49.1147Z" fill="#AD824F"/>
<path d="M49.418 48.5724L60.9894 45.433L65.6018 26.8013L54.1444 29.907L49.418 48.5724Z" fill="#996323"/>
<path d="M53.8869 39.1539C52.4374 39.8251 51.8102 40.1031 50.1748 39.7886C49.6976 39.6959 49.1995 39.8223 48.8634 40.1508C48.5363 40.4681 47.2879 40.631 47.0328 40.5945L46.8738 42.9505C47.1979 43.0993 49.3945 43.7396 50.6609 43.3886C52.3774 42.914 52.9716 42.8915 54.385 41.7037C55.4173 40.8388 54.9792 38.6485 53.8899 39.1567L53.8869 39.1539Z" fill="#FFD3B8"/>
</svg>
