<svg width="191" height="128" viewBox="0 0 191 128" fill="none" xmlns="http://www.w3.org/2000/svg">
<g style="mix-blend-mode:multiply">
<path d="M136.498 56.9742C162.653 73.215 162.791 99.5456 136.807 115.789C110.82 132.03 68.5541 132.03 42.3977 115.789C16.2435 99.5481 16.1047 73.2174 42.0918 56.9767C68.0788 40.736 110.347 40.736 136.501 56.9767L136.498 56.9742Z" fill="#E6E6E6"/>
</g>
<path d="M154.984 85.465L154.979 86.5008C154.951 96.881 148.607 106.754 135.934 114.674C110.424 130.617 68.9305 130.617 43.2516 114.674C30.331 106.651 23.879 96.6129 23.9049 86.0973L23.9096 85.0615C23.8813 95.577 30.3357 106.107 43.2563 114.131C68.9328 130.074 110.426 130.074 135.938 114.131C148.612 106.211 154.956 95.8452 154.984 85.4626V85.465Z" fill="#4C9639"/>
<path d="M135.637 56.396C161.314 72.339 161.448 98.1899 135.939 114.133C110.429 130.076 68.9356 130.076 43.2568 114.133C17.5803 98.1899 17.4462 72.339 42.9556 56.396C68.465 40.453 109.961 40.453 135.637 56.396Z" fill="#65C84C"/>
<path d="M89.4094 119.108C81.3808 119.108 73.5617 118.163 66.1731 116.298C58.6339 114.396 51.9018 111.623 46.158 108.058C40.6613 104.646 36.4588 100.749 33.6657 96.4775C31.2138 92.7304 29.9691 88.8505 29.9644 84.9508C29.9597 81.0831 31.1762 77.2376 33.581 73.5274C36.3223 69.2981 40.4566 65.4378 45.871 62.0548C51.5677 58.4947 58.2668 55.7244 65.7801 53.825C73.1499 51.96 80.9549 51.0153 88.9812 51.0153C97.0074 51.0153 104.827 51.96 112.218 53.825C119.757 55.7268 126.491 58.4996 132.23 62.0647C137.727 65.4772 141.929 69.3744 144.723 73.6455C147.174 77.3926 148.419 81.2726 148.424 85.1722C148.429 89.0424 147.212 92.8854 144.807 96.5956C142.066 100.825 137.932 104.685 132.517 108.068C126.821 111.628 120.121 114.396 112.608 116.298C105.238 118.163 97.431 119.108 89.4071 119.108H89.4094Z" fill="#A3DE94"/>
<path d="M26.117 75.9558L58.9774 56.118L42.459 46.1438L9.59863 65.177L26.117 75.9558Z" fill="#D8D8D8"/>
<path d="M28.6091 84.7147L61.4694 64.8769C62.1047 64.4906 62.4977 63.6689 62.5024 62.5027C62.5094 60.1555 60.9305 57.2941 58.9775 56.1156L26.1172 75.9534C28.0702 77.1319 29.6491 79.9908 29.6421 82.3404C29.6397 83.5066 29.2444 84.3284 28.6091 84.7147Z" fill="#D8D8D8"/>
<path d="M9.59864 65.1771L9.57275 83.6002L26.0935 93.257C28.0465 94.4356 29.6348 93.4883 29.6419 91.1411C29.649 88.794 28.0701 77.1369 26.117 75.9584L9.59864 65.1796V65.1771Z" fill="#D8D8D8"/>
<g style="mix-blend-mode:multiply">
<path d="M2.27344 82.4831L30.6983 99.5161L79.0322 70.3536L50.6074 53.3231L2.27344 82.4831Z" fill="#D9D9D9"/>
</g>
<path d="M42.8002 32.6243C41.9531 32.1125 41.186 32.0559 40.6237 32.3758C40.0448 32.7055 39.6801 33.4362 39.6777 34.4818C39.6754 35.5299 40.0331 36.6937 40.6096 37.7221C40.8166 38.0912 41.0519 38.443 41.3084 38.7653C41.4967 39.0015 41.6237 39.2869 41.6802 39.5895L43.6073 58.6227C43.7768 59.5281 44.3791 60.4532 45.0709 60.8715L67.6367 74.2189C68.8273 74.9373 70.3191 74.0417 70.3215 72.6024L70.3497 53.087C70.3568 50.821 68.832 48.0629 66.9449 46.9238L42.7979 32.6218L42.8002 32.6243Z" fill="#968066"/>
<path d="M70.3213 72.8608V72.4672L70.3142 72.4721L70.3519 51.1163L76.0063 47.6792L75.9686 69.035L75.9616 69.0399V69.5123C75.9592 69.9552 75.8157 70.3464 75.5851 70.6564L69.9448 74.0049C70.1754 73.6949 70.319 73.3037 70.319 72.8608H70.3213Z" fill="#7F6952"/>
<path d="M42.4706 26.0306C43.7177 25.2777 44.8471 25.2088 45.6637 25.7033L77.1239 44.5619C76.3074 44.0674 75.1779 44.1363 73.9308 44.8891C72.2202 45.9225 70.7377 47.9695 69.9871 50.1174L38.5269 31.2588C39.2798 29.1109 40.7599 27.0639 42.4706 26.0306Z" fill="#D8CDBA"/>
<path d="M70.7686 55.9951L39.3083 37.1366C38.5036 36.6469 38.0024 35.6062 38 34.1276C37.9977 33.2049 38.1883 32.2232 38.5248 31.2588L69.985 50.1173C69.6485 51.0818 69.4556 52.0659 69.4603 52.9861C69.465 54.4648 69.9638 55.5055 70.7686 55.9951Z" fill="#C1AF91"/>
<path d="M73.9288 44.8891C71.4511 46.385 69.451 50.0091 69.458 52.9861C69.4651 55.9631 71.4793 57.1662 73.9571 55.6703C76.4348 54.1744 78.4373 50.5479 78.4302 47.5709C78.4231 44.5963 76.4066 43.3957 73.9288 44.8915V44.8891Z" fill="#CCC0AC"/>
<path d="M4.4082 25.5975L34.6519 7.21869C35.1484 6.91607 35.7885 6.85702 36.525 7.10059C36.812 7.19409 37.0991 7.32941 37.3791 7.50163L7.13539 25.8804C6.85302 25.7106 6.56595 25.5753 6.28123 25.4794C5.54473 25.2358 4.9047 25.2948 4.4082 25.5975Z" fill="#D8CEBC"/>
<path d="M7.12354 25.8805L37.3673 7.50415C39.1179 8.55964 40.6945 10.9634 41.0945 13.345C42.0781 19.2031 44.4688 43.2112 44.6147 44.0895L14.3709 62.4658C14.2227 61.5875 11.8343 37.577 10.8508 31.7213C10.4507 29.3397 8.8742 26.9384 7.12354 25.8805Z" fill="#C4B299"/>
<path d="M7.13507 25.8803C8.88574 26.9358 10.4623 29.3395 10.8623 31.7211C11.8459 37.5792 15.9519 62.7658 16.0978 63.6441L8.61514 61.1789C8.4669 60.3005 4.36083 35.114 3.37961 29.2559C2.91606 26.4904 4.21259 24.8002 6.27856 25.4792C6.56563 25.5727 6.85271 25.7081 7.13272 25.8803H7.13507Z" fill="#968066"/>
<path d="M30.0959 74.3344L62.9562 54.4966L44.6283 43.585L11.7656 62.6182L30.0959 74.3344Z" fill="#B7A386"/>
<path d="M32.5881 83.0932L65.4484 63.2554C66.0837 62.8692 66.4767 62.0474 66.4814 60.8812C66.4884 58.534 64.9095 55.6726 62.9565 54.4941L30.0962 74.3319C32.0492 75.5104 33.6281 78.3693 33.6211 80.719C33.6187 81.8852 33.2234 82.7069 32.5881 83.0932Z" fill="#C4B299"/>
<path d="M13.0952 62.0597L13.0693 71.6846L29.5901 81.3414C31.5431 82.5199 33.1314 81.5727 33.1385 79.2255C33.1455 76.8784 31.5667 74.017 29.6136 72.8385L13.0952 62.0597Z" fill="#2584BC"/>
<g style="mix-blend-mode:multiply">
<path d="M23.0112 51.1431C18.5969 54.7057 19.1734 59.3926 24.2983 61.6143C27.2161 62.8789 44.1086 59.6583 47.9629 63.1274C53.1161 67.7652 55.8386 67.4847 58.3234 66.3579C63.4248 63.5875 65.0155 56.6297 61.9683 54.59C56.5304 50.9536 43.5698 50.1368 40.2849 48.7147C35.1576 46.493 27.4255 47.583 23.0112 51.1455V51.1431Z" fill="#DCDCDC"/>
</g>
<path d="M44.8539 43.9295C45.3528 44.4142 45.8493 44.889 46.3316 45.3417C47.6729 46.2422 50.1389 44.4289 50.1436 42.655C49.7388 42.1408 49.3153 41.6143 48.887 41.0853C48.2776 41.3953 45.1457 43.3808 44.8516 43.9295H44.8539Z" fill="#EDED45"/>
<path d="M46.2634 44.9555C46.7552 43.5309 48.5105 41.4938 49.5812 42.3844C47.0846 39.213 44.9339 37.0086 44.6798 36.8486C44.2092 36.5509 43.6939 36.3713 43.0821 36.6518C41.402 37.4219 40.8726 38.6029 42.0373 40.084C43.2232 41.5922 44.1809 43.002 46.2634 44.9579V44.9555Z" fill="#B9CF17"/>
<path d="M44.8539 43.9294C45.3528 44.4141 45.8493 44.8889 46.3316 45.3417C46.5269 43.927 49.0282 41.8037 50.1436 42.655C49.7388 42.1407 49.3153 41.6142 48.887 41.0853C47.4376 40.4628 45.021 42.3966 44.8516 43.9294H44.8539Z" fill="#C2C239"/>
<path d="M44.8423 38.315C44.2141 36.9052 40.7057 31.5466 39.7033 30.7814C38.8844 30.1565 37.8867 29.8711 36.7102 30.4689C34.4748 31.6032 35.5548 33.473 36.9996 35.5865C39.3691 39.0555 39.828 38.8194 41.5622 40.6794C42.9363 42.1556 45.5247 39.8355 44.8447 38.3125L44.8423 38.315Z" fill="#C2C239"/>
<path d="M23.4601 57.8157C24.8719 57.8501 25.9002 50.0606 30.3804 46.6629C35.8512 42.3327 43.4822 35.3182 40.2585 31.239C39.8396 30.71 30.9263 32.1592 28.2932 33.3869C18.2787 38.0566 18.3022 57.6951 23.4601 57.8157Z" fill="#EDED45"/>
<path d="M36.0704 57.2596C39.8353 53.6183 43.0307 50.383 47.285 38.192C48.4074 34.9763 44.0378 34.3956 43.2378 35.3306C41.3318 37.5473 29.2795 53.4387 28.8842 56.4969C28.4677 59.7298 32.9126 60.3154 36.0704 57.2596Z" fill="#006075"/>
<path d="M62.6953 55.9827L62.3894 55.4562C62.4459 55.5546 62.4318 55.6973 62.3071 55.899C62.2388 56.0122 62.133 56.1451 62.0012 56.2878C61.2459 57.1145 60.6858 57.5253 59.8293 57.8895C58.3493 58.5218 57.8363 58.4012 56.4809 58.5833C54.6291 58.8318 52.2243 59.41 51.8901 58.8342L52.196 59.3607C52.5302 59.9365 54.935 59.3583 56.7868 59.1098C58.1398 58.9277 58.6528 59.0483 60.1352 58.416C60.9917 58.0494 61.5518 57.641 62.3071 56.8143C62.4389 56.6691 62.5447 56.5387 62.613 56.4256C62.7353 56.2238 62.7518 56.0811 62.6953 55.9827Z" fill="white"/>
<path d="M51.3321 51.7017C51.3321 51.7017 48.5837 53.7831 47.9648 54.9567C48.8025 55.7612 49.4873 57.0209 50.4026 58.0297C51.4356 58.1748 54.8969 55.6407 53.2851 53.7511C52.6545 53.1385 51.998 52.4471 51.3321 51.7017Z" fill="#00758F"/>
<path d="M53.7254 57.8944L51.9724 58.913C51.7771 58.7776 51.4241 58.2511 51.7065 57.2916L52.4289 55.2815L53.7254 57.8944Z" fill="#3399FF"/>
<path d="M49.1582 55.6703L50.9771 51.8937C51.9889 53.2469 54.1067 55.2496 55.8409 56.652L52.8478 58.5465L49.1606 55.6703H49.1582Z" fill="#FFD3B8"/>
<path d="M50.4028 58.0297C43.0072 48.8058 37.9622 47.8955 36.6304 42.5369C35.9927 39.9683 40.2235 36.9986 41.6565 38.7406C43.8802 41.4469 48.5368 49.1478 53.2853 53.7536C52.3558 53.3378 49.6122 56.5239 50.4028 58.0321V58.0297Z" fill="#00758F"/>
<path d="M62.0031 56.2878C61.2477 57.1145 60.6877 57.5254 59.8312 57.8895C58.3511 58.5218 57.8382 58.4013 56.4828 58.5834C54.3745 58.8663 51.5485 59.5773 51.8803 58.5243C51.8897 58.4923 51.8026 57.828 51.9579 57.8428C52.5556 58.2586 53.8733 57.7099 54.2851 57.0801C54.6827 56.4675 54.6145 55.6014 54.8098 55.5301C56.191 56.2485 61.1583 54.6591 62.3796 55.439C62.4807 55.503 62.4384 55.6851 62.309 55.8991C62.2407 56.0123 62.1348 56.1451 62.0031 56.2878Z" fill="#93436C"/>
<path d="M33.0819 58.1429C36.8727 54.5287 35.6679 53.7709 42.3529 42.5222C43.4636 40.6548 40.7082 36.2606 39.2775 37.9066C37.861 39.5353 29.6983 45.7329 25.8416 51.7977C24.4768 53.9431 23.538 55.6629 23.4297 56.46C22.9897 59.6905 29.9006 61.1765 33.0796 58.1454L33.0819 58.1429Z" fill="#00758F"/>
<path d="M53.1744 52.4644C53.1744 52.4644 49.8001 53.2148 48.7554 53.9898C49.1766 55.0945 49.4731 56.3197 49.8801 57.6434C50.7484 58.2437 54.9204 57.5302 54.2521 55.0969C53.9368 54.258 53.4662 53.4362 53.1744 52.4619V52.4644Z" fill="#005466"/>
<path d="M52.9063 59.7791L50.9391 59.378C50.6968 58.6448 51.5227 57.9584 51.9721 57.1145L53.5251 56.9078L52.9063 59.7791Z" fill="#3399FF"/>
<path d="M49.8193 55.5201L53.3395 52.6661C53.8642 54.1891 55.1113 58.3323 55.7302 60.4285L51.803 59.3115L49.8193 55.5201Z" fill="#FFD3B8"/>
<path d="M56.2643 64.3873C56.0713 64.3504 55.8784 64.3061 55.6972 64.2569C54.3324 63.8731 53.5183 63.0981 53.2853 62.8004C52.9135 62.3305 53.1488 61.74 52.4076 60.9551C51.6405 60.1432 50.8428 59.4937 50.9228 59.2501L50.7228 59.8554C50.6428 60.0965 51.4429 60.7485 52.2076 61.5579C52.9488 62.3428 52.7135 62.9333 53.0853 63.4032C53.3182 63.7009 54.1324 64.4734 55.4972 64.8597C55.6783 64.9114 55.8689 64.9557 56.0642 64.9901C57.1514 65.1943 58.3232 65.1623 58.4032 64.9212L58.6032 64.316C58.5232 64.5596 57.3537 64.5891 56.2643 64.3849V64.3873Z" fill="white"/>
<path d="M56.2642 64.3872C56.0713 64.3503 55.8783 64.306 55.6972 64.2568C54.3324 63.873 53.5182 63.098 53.2853 62.8003C52.9135 62.3303 53.1488 61.7399 52.4076 60.955C51.7487 60.2587 51.0687 59.6806 50.9393 59.3779C50.9252 59.3459 51.377 58.6005 51.4264 58.6005C51.8617 59.1393 53.0806 59.7076 53.9418 59.6978C54.9559 59.683 55.3301 59.0113 55.5466 59.2771C56.2031 60.0742 58.6667 63.8607 58.6055 64.3035C58.5702 64.5594 57.3749 64.5963 56.2642 64.3897V64.3872Z" fill="#AD638C"/>
<path d="M49.8781 57.6435C47.2357 49.0347 43.7837 44.9137 43.4896 40.9451C43.4355 40.2144 43.4002 39.8011 43.5484 38.9399C43.6426 38.3888 47.0356 35.7267 47.3251 36.4476C47.9322 37.9509 51.7465 48.1785 54.2501 55.097C53.5865 54.2999 49.7911 55.9262 49.8781 57.6435Z" fill="#006075"/>
<path d="M48.8192 45.9962C48.6545 46.07 48.4333 45.8879 48.3251 45.5951L46.2568 39.9979C46.1485 39.7026 46.1932 39.4025 46.3579 39.3311L47.6427 38.7628C47.8074 38.689 48.0286 38.871 48.1392 39.1663L50.2075 44.7635C50.3158 45.0563 50.2711 45.354 50.1063 45.4278L48.8216 45.9962H48.8192Z" fill="#CDD1D0"/>
<path d="M46.0309 40.3252L48.0993 45.9225C48.2075 46.2152 48.4311 46.3949 48.5934 46.3235L49.8782 45.7552C49.9135 45.7379 49.9441 45.7133 49.9699 45.6764L50.1958 45.3492C50.1723 45.3836 50.1417 45.4107 50.1041 45.4279L48.8193 45.9963C48.6546 46.0701 48.4334 45.888 48.3252 45.5952L46.2568 39.998C46.1721 39.7667 46.1815 39.5329 46.2686 39.4075L46.0427 39.7347C45.9556 39.8602 45.9462 40.0939 46.0309 40.3252Z" fill="#FAFAFA"/>
<g style="mix-blend-mode:multiply">
<path d="M49.9064 43.6269C49.2452 44.2469 49.0452 44.4855 48.8899 44.5175C48.0851 44.9112 47.3204 42.9158 47.278 42.6722C47.1204 41.7644 47.944 40.5982 48.431 40.1086C48.9746 39.5599 50.4664 43.1028 49.9064 43.6269Z" fill="#D8D8D8"/>
</g>
<path d="M50.0734 43.334C49.4122 43.954 49.2122 44.1927 49.0569 44.2247C48.2521 44.6183 47.4874 42.623 47.445 42.3794C47.2874 41.4715 48.111 40.3053 48.598 39.8157C49.1416 39.2671 50.6334 42.81 50.0734 43.334Z" fill="#F0C7AD"/>
<path d="M35.3055 49.3619C35.2255 48.4246 33.2231 43.1717 32.4748 39.1343C32.1618 37.4465 31.9595 33.815 29.0582 34.0783C26.5828 34.3022 26.9192 36.5337 27.3546 39.09C28.1993 44.0476 31.8701 52.644 32.5124 53.0623C33.2042 53.5126 35.4514 51.0497 35.3055 49.3595V49.3619Z" fill="#C1C239"/>
<path d="M40.0172 51.7017C40.6337 51.4482 41.2408 51.1924 41.8243 50.9389C42.9985 50.5699 42.142 46.4464 41.1749 46.311C40.5725 46.466 39.9536 46.6333 39.3301 46.8031C39.5748 47.3641 40.1536 51.0226 40.0172 51.6992V51.7017Z" fill="#EDED45"/>
<g style="mix-blend-mode:multiply">
<path d="M49.4105 45.1867C49.2599 45.1572 48.9964 45.2974 48.1869 45.6099C47.5046 45.8731 46.9139 45.8756 46.9045 45.8387C46.9422 45.6911 47.5257 45.418 47.7869 45.1154C48.1187 44.7315 48.034 44.4068 47.8552 44.1927C47.7963 44.1238 47.6952 44.1214 47.6293 44.1829C47.3822 44.4166 46.6763 44.8767 46.201 44.9284C45.9845 44.953 44.9774 45.5262 44.6174 46.2914C44.4997 46.5424 44.3609 46.7195 44.1609 46.8647C41.6008 47.2534 41.5302 47.6987 41.2007 47.8906C40.6572 48.2055 41.8243 49.3767 42.829 50.2476C45.4551 49.6867 43.8197 49.8786 45.0833 49.2733C45.1233 49.2733 45.1656 49.2684 45.2056 49.2586C45.4503 49.2044 45.8974 49.1134 46.2033 49.2167C46.6692 49.3742 47.634 49.6301 48.314 49.3373C48.9211 49.0765 50.0647 48.3335 50.2317 47.4551C50.2764 47.2189 50.2717 45.1326 49.4082 45.1842L49.4105 45.1867Z" fill="#D8D8D8"/>
</g>
<path d="M44.4264 46.3282C42.2568 46.5177 34.9742 48.7738 34.6236 48.978C34.08 49.293 33.4164 49.5857 33.3906 50.3977C33.3435 51.8443 34.4894 52.4028 35.8471 52.1125C38.4755 51.5516 43.6734 49.3938 44.9299 48.7886C45.1252 48.0062 45.6335 46.9384 44.4264 46.3282Z" fill="#F0C7AD"/>
<path d="M47.6288 44.6306C47.3676 44.9357 46.7841 45.2063 46.7464 45.354C46.7558 45.3909 47.3464 45.3884 48.0288 45.1251C48.8383 44.8127 49.1018 44.6724 49.2524 44.702C50.1136 44.6478 50.1207 46.7367 50.076 46.9729C49.9066 47.8512 48.763 48.5942 48.1582 48.855C47.4782 49.1478 46.5135 48.8919 46.0476 48.7345C45.7393 48.6311 45.2946 48.7222 45.0499 48.7763C44.0757 48.9928 42.998 46.8375 43.5345 46.6284C44.0263 46.4341 44.271 46.22 44.464 45.8091C44.824 45.044 45.8311 44.4682 46.0476 44.4461C46.5229 44.3944 47.2264 43.9343 47.4759 43.7006C47.5417 43.6391 47.6429 43.6391 47.7017 43.7104C47.8806 43.9245 47.9653 44.2493 47.6335 44.6331L47.6288 44.6306Z" fill="#F0C7AD"/>
<path d="M41.4331 50.8724C40.259 50.336 39.9154 47.7748 40.8543 46.6603C37.1435 47.6174 35.3623 48.2251 35.0282 48.3481C32.7292 49.1846 31.7786 52.693 32.5386 53.099C33.1057 53.4041 38.9154 51.9599 41.4331 50.8724Z" fill="#EDED45"/>
<path d="M40.0167 51.7017C40.6332 51.4482 41.2403 51.1924 41.8238 50.9389C40.7485 50.4272 40.2238 47.3616 41.1744 46.311C40.572 46.466 39.9532 46.6333 39.3296 46.8031C38.1884 47.5215 38.6543 50.7347 40.0167 51.6992V51.7017Z" fill="#C2C239"/>
<path d="M39.885 26.4463C41.3086 30.8503 40.6145 34.8853 38.2355 36.6149C36.3272 38.0025 31.1952 35.2297 29.5881 30.9118C27.981 26.5939 29.3269 23.7227 32.3294 22.3498C35.3319 20.977 38.4638 22.0521 39.885 26.4463Z" fill="#F0C7AD"/>
<path d="M32.2211 22.0619C29.8634 23.6415 27.3809 26.6997 29.0421 31.1554C29.8539 33.3328 31.8658 35.6381 33.3835 36.8338C35.313 38.3519 37.8755 33.5911 38.7885 31.1037C39.2497 29.8514 41.1556 30.8035 40.9015 28.4318C40.765 27.6149 40.5533 26.803 40.2615 26.0206C38.6026 21.5649 34.3741 20.6202 32.2211 22.0619Z" fill="#C44972"/>
<path d="M33.8683 41.9662C32.8259 41.5405 31.1482 40.1258 29.9034 37.1267C29.4799 36.1056 29.8517 35.2667 29.6916 33.4066C29.6163 32.5431 28.6798 31.2464 28.5928 29.4086C28.5928 29.4086 37.092 33.3156 35.1978 36.7552C33.553 39.7445 34.313 42.3008 33.8683 41.9662Z" fill="#C44972"/>
<path d="M5.22407 55.0699C4.37697 54.5582 3.60988 54.5016 3.0475 54.8214C2.46865 55.1511 2.10393 55.8819 2.10157 56.9275C2.09922 57.9756 2.45688 59.1394 3.03338 60.1678C3.24045 60.5368 3.47575 60.8887 3.73224 61.211C3.92048 61.4472 4.04755 61.7326 4.10402 62.0352L6.03117 81.0684C6.20058 81.9738 6.80296 82.8989 7.49476 83.3172L30.0605 96.6645C31.2511 97.383 32.743 96.4874 32.7453 95.0481L32.7736 75.5326C32.7806 73.2667 31.2558 70.5086 29.3687 69.3695L5.22172 55.0675L5.22407 55.0699Z" fill="#968066"/>
<path d="M32.7476 95.0505V94.6569L32.7405 94.6618L32.7782 73.306L38.4325 69.8689L38.3949 91.2247L38.3878 91.2296V91.702C38.3855 92.1449 38.2419 92.5361 38.0114 92.8461L32.3711 96.1946C32.6017 95.8846 32.7452 95.4934 32.7452 95.0505H32.7476Z" fill="#7F6952"/>
<path d="M5.02867 48.117C6.27579 47.3641 7.40525 47.2952 8.22176 47.7898L39.682 66.6483C38.8655 66.1538 37.736 66.2227 36.4889 66.9755C34.7783 68.0089 33.2958 70.0559 32.5452 72.2038L1.08496 53.3428C1.83794 51.1949 3.318 49.1479 5.02867 48.1145V48.117Z" fill="#D8CDBA"/>
<path d="M33.4068 77.9611L1.9465 59.105C1.14176 58.6154 0.642911 57.5746 0.638205 56.0935C0.635852 55.1709 0.826449 54.1892 1.16294 53.2247L32.6232 72.0833C32.2867 73.0477 32.0938 74.0319 32.0961 74.952C32.1008 76.4307 32.5997 77.4714 33.4044 77.9611H33.4068Z" fill="#C4B299"/>
<path d="M36.3551 67.0788C33.8773 68.5747 31.8772 72.1988 31.8843 75.1758C31.8914 78.1528 33.9056 79.3559 36.3833 77.86C38.8611 76.3641 40.8635 72.7376 40.8565 69.7606C40.8494 66.786 38.8328 65.5853 36.3551 67.0812V67.0788Z" fill="#CCC0AC"/>
<g style="mix-blend-mode:multiply">
<path d="M82.4823 57.3581C84.393 56.2362 87.4496 56.2681 89.3085 57.4294C91.1674 58.5907 91.1227 60.4409 89.2121 61.5628C87.3014 62.6847 84.2448 62.6527 82.3859 61.4915C80.527 60.3302 80.5717 58.48 82.4823 57.3581Z" fill="#D8D8D8"/>
</g>
<path d="M81.7247 48.678C84.066 47.3027 87.812 47.3445 90.0874 48.7666C92.3652 50.1887 92.311 52.4571 89.9698 53.8325C87.6285 55.2078 83.8824 55.166 81.607 53.7439C79.3293 52.3218 79.3834 50.0534 81.7247 48.678Z" fill="#635C4D"/>
<path d="M90.0898 47.9743C87.8121 46.5522 84.0684 46.5128 81.7271 47.8857C80.5365 48.5845 79.9364 49.5145 79.9341 50.4445V51.2367C79.9341 50.3042 80.5341 49.3767 81.7248 48.6779C84.066 47.3026 87.8121 47.3444 90.0875 48.7665C91.2075 49.4653 91.7629 50.3707 91.7605 51.2712V50.4789C91.7652 49.5784 91.2099 48.673 90.0898 47.9743Z" fill="#934A28"/>
<path d="M81.0231 53.2911C83.6138 54.91 87.8705 54.9543 90.5365 53.392C93.2002 51.8297 93.2613 49.2488 90.6706 47.6299C88.0799 46.011 83.8233 45.9667 81.1573 47.529C78.4936 49.0913 78.4324 51.6722 81.0231 53.2911ZM81.7244 47.8858C84.0656 46.5104 87.8117 46.5522 90.0871 47.9743C92.3648 49.3964 92.3107 51.6648 89.9694 53.0402C87.6282 54.4155 83.8821 54.3737 81.6067 52.9516C79.329 51.5295 79.3831 49.2611 81.7244 47.8858Z" fill="#EE7D43"/>
<path d="M81.7247 48.678C84.066 47.3027 87.812 47.3445 90.0874 48.7666C92.3652 50.1887 92.311 52.4571 89.9698 53.8325C87.6285 55.2078 83.8824 55.166 81.607 53.7439C79.3293 52.3218 79.3834 50.0534 81.7247 48.678Z" fill="#453F36"/>
<g style="mix-blend-mode:multiply">
<path d="M84.0374 50.1248C85.0657 49.522 86.7082 49.5392 87.7058 50.1642C88.7035 50.7891 88.6824 51.7831 87.6541 52.3858C86.6258 52.9886 84.9834 52.9714 83.9857 52.3465C82.988 51.7216 83.0115 50.7276 84.0374 50.1248Z" fill="#D1B37D"/>
</g>
<path d="M90.0898 47.9743C87.8121 46.5522 84.0684 46.5128 81.7271 47.8857C80.5365 48.5845 79.9364 49.5145 79.9341 50.4445V51.2367C79.9341 50.3042 80.5341 49.3767 81.7248 48.6779C84.066 47.3026 87.8121 47.3444 90.0875 48.7665C91.2075 49.4653 91.7629 50.3707 91.7605 51.2712V50.4789C91.7652 49.5784 91.2099 48.673 90.0898 47.9743Z" fill="#7F6952"/>
<path d="M90.5371 53.392C87.8734 54.9543 83.6144 54.9101 81.0237 53.2912C80.1178 52.7253 79.5342 52.0413 79.2754 51.3229C80.2425 53.9973 81.2072 56.6741 82.1743 59.3485C82.3179 59.7471 82.6403 60.126 83.1438 60.4409C84.5815 61.3389 86.9487 61.366 88.4287 60.4975C88.9699 60.1801 89.3182 59.7865 89.4711 59.3707C90.4524 56.7012 91.4312 54.0317 92.4125 51.3622C92.1372 52.1102 91.5112 52.8188 90.5347 53.392H90.5371Z" fill="#968066"/>
<path d="M81.0231 53.2911C83.6138 54.91 87.8705 54.9543 90.5365 53.392C93.2002 51.8297 93.2613 49.2488 90.6706 47.6299C88.0799 46.011 83.8233 45.9667 81.1573 47.529C78.4936 49.0913 78.4324 51.6722 81.0231 53.2911ZM81.7244 47.8858C84.0656 46.5104 87.8117 46.5522 90.0871 47.9743C92.3648 49.3964 92.3107 51.6648 89.9694 53.0402C87.6282 54.4155 83.8821 54.3737 81.6067 52.9516C79.329 51.5295 79.3831 49.2611 81.7244 47.8858Z" fill="#C1AF91"/>
<path d="M85.28 51.5665C85.7647 51.5665 89.1907 49.8393 89.3013 46.0947C89.386 43.2333 92.0497 40.1972 91.9438 36.1328C91.8591 32.8703 92.2873 31.714 91.172 29.2807C90.1155 26.9753 89.8496 22.3696 88.3625 20.0667C85.4282 15.52 89.1343 11.6597 87.7013 10.7371C85.9388 10.277 82.7222 11.9205 83.0752 17.7048C83.181 19.4368 83.9223 24.0229 84.2329 26.0552C84.5858 28.3728 82.5881 32.4668 83.1857 35.0379C83.7458 37.4515 85.1247 40.0816 84.5082 42.7535C83.4705 47.2388 83.9199 50.7841 85.28 51.564V51.5665Z" fill="#3FAA35"/>
<g style="mix-blend-mode:screen">
<path d="M85.5554 51.2295C85.6448 51.2295 85.7295 51.1704 85.7624 51.0769C86.4236 49.1898 87.1648 46.8746 87.6331 44.0256C88.2496 40.2735 88.179 36.7282 87.4237 33.4854C87.1766 32.425 87.2543 31.1358 87.3366 29.7703C87.4355 28.117 87.5366 26.407 87.0307 25.0489C84.7718 18.9989 85.1389 12.2305 87.7884 11.1234C87.9014 11.0766 87.9578 10.9413 87.9108 10.8232C87.8661 10.7051 87.7366 10.6461 87.6237 10.6953C84.713 11.9131 84.2353 18.8341 86.6189 25.2187C87.0919 26.4833 86.9907 28.1416 86.8966 29.7433C86.8119 31.1457 86.7342 32.4693 86.9954 33.5962C88.7626 41.1789 86.193 48.5083 85.3507 50.917C85.3083 51.0375 85.3671 51.1704 85.4824 51.2122C85.5083 51.2221 85.5342 51.227 85.5577 51.227L85.5554 51.2295Z" fill="#535252"/>
<path d="M87.097 45.8094C87.1629 45.8094 87.2288 45.7799 87.2712 45.7208L89.9701 42.0918C90.0454 41.9909 90.0266 41.8458 89.9325 41.767C89.836 41.6883 89.6972 41.708 89.6219 41.8089L86.9229 45.4379C86.8476 45.5387 86.8665 45.6839 86.9606 45.7626C87.0006 45.7946 87.0476 45.8118 87.097 45.8118V45.8094Z" fill="#535252"/>
<path d="M87.9063 37.3064C87.9604 37.3064 88.0145 37.2867 88.0569 37.2449C89.4781 35.8744 90.537 33.8988 91.2053 31.3794C91.2382 31.2564 91.17 31.1284 91.0523 31.094C90.9346 31.0595 90.8123 31.1309 90.7817 31.2539C90.137 33.6921 89.1204 35.5915 87.7604 36.9053C87.671 36.9914 87.6663 37.1391 87.7486 37.2325C87.791 37.2818 87.8522 37.3064 87.911 37.3064H87.9063Z" fill="#535252"/>
<path d="M86.932 25.883C87.0215 25.883 87.1062 25.8264 87.1391 25.7329L88.6804 21.4716C88.7227 21.351 88.6662 21.2181 88.5509 21.1739C88.438 21.1296 88.3086 21.1886 88.2662 21.3092L86.725 25.5705C86.6826 25.691 86.7391 25.8239 86.8544 25.8682C86.8803 25.878 86.9062 25.883 86.932 25.883Z" fill="#535252"/>
<path d="M85.4141 19.7051H85.4211C85.5435 19.7001 85.64 19.5943 85.6353 19.4664C85.6094 18.6004 85.367 17.5129 85.1105 16.3639C84.8729 15.2912 84.6258 14.184 84.5623 13.2565C84.5529 13.1286 84.4493 13.0326 84.327 13.0424C84.2046 13.0523 84.1128 13.1605 84.1222 13.2885C84.1858 14.2529 84.4376 15.3798 84.6799 16.4697C84.9317 17.5965 85.1693 18.6619 85.1929 19.4836C85.1976 19.6091 85.2941 19.7075 85.4141 19.7075V19.7051Z" fill="#535252"/>
<path d="M87.0967 32.7375C87.1697 32.7375 87.2426 32.6981 87.285 32.6293C87.3485 32.521 87.3179 32.3783 87.2144 32.3119C86.4473 31.8124 85.7367 30.7077 85.099 29.0249C85.0543 28.9068 84.9249 28.8477 84.8119 28.8945C84.699 28.9412 84.6425 29.0765 84.6872 29.1946C85.3696 30.9956 86.1179 32.1421 86.9791 32.7031C87.0144 32.7277 87.0567 32.7375 87.0967 32.7375Z" fill="#535252"/>
<path d="M85.9672 23.0068C85.9978 23.0068 86.0284 22.9994 86.0566 22.9871C86.1672 22.9354 86.219 22.7976 86.1696 22.682C85.8096 21.8332 85.3154 21.255 84.8801 20.7432C84.5766 20.3865 84.2895 20.0519 84.0965 19.6755C84.0377 19.5623 83.9036 19.5229 83.7977 19.582C83.6895 19.6435 83.6495 19.7837 83.7083 19.8944C83.9271 20.3176 84.2307 20.6744 84.5507 21.0508C84.986 21.5601 85.4331 22.0841 85.7672 22.869C85.8048 22.9551 85.8849 23.0068 85.9696 23.0068H85.9672Z" fill="#535252"/>
<path d="M87.6499 42.756C87.7087 42.756 87.7675 42.7314 87.8122 42.6822C87.8946 42.5887 87.8899 42.4436 87.8028 42.355C86.6357 41.2134 85.7674 39.5453 85.2215 37.3974C85.1909 37.2744 85.0686 37.2006 84.9509 37.2326C84.8333 37.2645 84.7627 37.3925 84.7933 37.5155C85.3604 39.7495 86.271 41.4914 87.4993 42.6921C87.5416 42.7339 87.5957 42.7536 87.6499 42.7536V42.756Z" fill="#535252"/>
<path d="M86.1627 49.3793C86.1885 49.3793 86.2168 49.3744 86.2427 49.3645C86.3556 49.3178 86.4121 49.1849 86.3674 49.0644L84.8802 45.0909C84.8355 44.9728 84.7085 44.9137 84.5932 44.9605C84.4802 45.0072 84.4238 45.1401 84.4685 45.2607L85.9556 49.2341C85.9909 49.3252 86.0732 49.3817 86.1603 49.3817L86.1627 49.3793Z" fill="#535252"/>
</g>
<mask id="mask0_1261_3419" style="mask-type:luminance" maskUnits="userSpaceOnUse" x="83" y="10" width="9" height="42">
<path d="M85.28 51.5665C85.7647 51.5665 89.1907 49.8393 89.3013 46.0947C89.386 43.2333 92.0497 40.1972 91.9438 36.1328C91.8591 32.8703 92.2873 31.714 91.172 29.2807C90.1155 26.9753 89.8496 22.3696 88.3625 20.0667C85.4282 15.52 89.1343 11.6597 87.7013 10.7371C85.9388 10.277 82.7222 11.9205 83.0752 17.7048C83.181 19.4368 83.9223 24.0229 84.2329 26.0552C84.5858 28.3728 82.5881 32.4668 83.1857 35.0379C83.7458 37.4515 85.1247 40.0816 84.5082 42.7535C83.4705 47.2388 83.9199 50.7841 85.28 51.564V51.5665Z" fill="white"/>
</mask>
<g mask="url(#mask0_1261_3419)">
<g style="mix-blend-mode:multiply">
<path d="M86.2379 51.8839C85.8778 51.7609 83.7389 49.6007 84.5319 46.791C85.139 44.6431 83.8707 41.7079 84.9013 38.7136C85.7272 36.3123 85.6802 35.343 87.0779 33.82C88.4027 32.3782 89.678 29.0248 91.3228 27.6962C94.5677 25.071 92.7182 21.2526 93.9982 20.9352C95.4147 21.0434 97.4195 23.0904 95.803 27.2952C95.3183 28.5549 93.6947 31.7705 92.9888 33.2025C92.184 34.8337 92.7087 38.3864 91.6616 40.1431C90.6804 41.7915 89.0403 43.3932 88.8733 45.5362C88.5933 49.1332 87.4309 51.6526 86.2379 51.8839Z" fill="#D8D8D8"/>
</g>
</g>
<path d="M86.273 51.849C85.92 51.7038 83.8941 49.4256 84.8329 46.6675C85.5506 44.559 84.4353 41.5525 85.6189 38.6222C86.5695 36.2701 86.5718 35.3007 88.0472 33.859C89.4449 32.4935 90.892 29.2188 92.6027 27.9837C95.977 25.5455 94.3298 21.6286 95.624 21.385C97.0335 21.5745 98.93 23.7297 97.097 27.8385C96.5488 29.0687 94.7604 32.1884 93.9816 33.576C93.0921 35.1605 93.4333 38.7354 92.2992 40.4305C91.2332 42.0224 89.5131 43.5281 89.2355 45.6588C88.7696 49.2361 87.4778 51.6842 86.2754 51.8466L86.273 51.849Z" fill="#48AB33"/>
<g style="mix-blend-mode:screen">
<path d="M84.8354 46.6679C84.9884 46.2546 85.0707 45.8166 85.1178 45.3737C85.1578 44.9309 85.1696 44.4856 85.1696 44.0427C85.1625 43.157 85.1272 42.2762 85.1861 41.4028C85.2472 40.5318 85.3955 39.6707 85.7014 38.8686C85.772 38.6693 85.859 38.4602 85.939 38.256L86.172 37.636C86.3249 37.2226 86.4661 36.8044 86.6214 36.3984C86.7744 35.9924 86.9414 35.5963 87.1556 35.2322C87.3697 34.8681 87.6309 34.5359 87.9179 34.2235L88.1391 33.9947L88.365 33.7511C88.4427 33.6723 88.5086 33.5813 88.5792 33.4977C88.6497 33.414 88.718 33.3254 88.7839 33.2369C89.0521 32.8875 89.2921 32.5184 89.5274 32.1519C89.998 31.4162 90.4451 30.6658 90.9345 29.9498C91.1722 29.5857 91.4287 29.2388 91.6993 28.8993C91.9769 28.5696 92.2711 28.2547 92.6052 27.9816C91.8922 28.4663 91.3299 29.1576 90.8051 29.8465C90.2851 30.5477 89.8121 31.2833 89.318 31.9968C89.0686 32.3511 88.8215 32.7079 88.558 33.0425C88.4944 33.1286 88.4262 33.2098 88.3556 33.291C88.285 33.3697 88.2215 33.4558 88.1462 33.5296L87.9274 33.756L87.6944 33.9897C87.3909 34.3096 87.1108 34.6614 86.8802 35.0501C86.6497 35.4389 86.4708 35.8522 86.3132 36.268C86.1579 36.6838 86.019 37.0996 85.8708 37.5129L85.6449 38.128C85.5672 38.3322 85.4825 38.5291 85.4119 38.7456C85.106 39.5919 84.9602 40.4924 84.9343 41.3855C84.9084 42.2786 84.9696 43.1644 85.0119 44.0452C85.0355 44.4856 85.0496 44.9235 85.0355 45.3639C85.0119 45.8018 84.9578 46.2398 84.8402 46.6654L84.8354 46.6679Z" fill="#48AB33"/>
</g>
<g style="mix-blend-mode:screen">
<path d="M86.2285 51.6059C86.3485 51.6059 86.4473 51.505 86.4496 51.3795C86.612 43.2653 89.1298 39.5108 89.958 38.2782C90.4616 37.5302 90.7793 36.492 91.0852 35.4881C91.4499 34.2973 91.8287 33.0647 92.5087 32.2921C95.6571 28.7197 97.7043 23.2799 95.7277 21.3436C95.6383 21.2575 95.4995 21.2624 95.4148 21.3534C95.3324 21.4469 95.3348 21.5921 95.4242 21.6807C97.0337 23.2578 95.4595 28.2646 92.1817 31.9797C91.4358 32.826 91.0428 34.1079 90.6616 35.3479C90.351 36.364 90.0569 37.3236 89.5933 38.0149C86.1696 43.1177 86.0449 49.33 86.0049 51.3721C86.0026 51.5001 86.099 51.6059 86.2214 51.6083H86.2261L86.2285 51.6059Z" fill="#535252"/>
<path d="M86.5791 47.1773C86.6002 47.1773 86.6214 47.1748 86.6426 47.1675C86.7602 47.1305 86.8261 47.0026 86.7908 46.8796L85.812 43.4327C85.7767 43.3096 85.6543 43.2407 85.5367 43.2776C85.419 43.3146 85.3531 43.4425 85.3884 43.5655L86.3673 47.0125C86.3955 47.1133 86.4826 47.1773 86.5791 47.1773Z" fill="#535252"/>
<path d="M88.3062 40.7433C88.3391 40.7433 88.3721 40.736 88.4026 40.7212C88.5132 40.6646 88.5579 40.5268 88.5038 40.4136C87.8756 39.0629 87.6544 37.3825 87.845 35.4265C87.8567 35.2986 87.7697 35.1854 87.6473 35.1731C87.5273 35.1608 87.4167 35.2518 87.4049 35.3798C87.2049 37.4243 87.4402 39.1859 88.1038 40.6179C88.1414 40.699 88.2215 40.7483 88.3015 40.7483L88.3062 40.7433Z" fill="#535252"/>
<path d="M92.1255 32.7104C92.2455 32.7104 92.3443 32.6096 92.3467 32.4816L92.3843 28.919C92.3843 28.7911 92.2878 28.6878 92.1655 28.6853H92.1631C92.0431 28.6853 91.9443 28.7862 91.9419 28.9141L91.9043 32.4767C91.9043 32.6046 92.0008 32.708 92.1231 32.7104H92.1255Z" fill="#535252"/>
<path d="M94.9134 28.6632C94.9981 28.6632 95.0805 28.6115 95.1158 28.5229C95.3558 27.9374 95.817 27.2337 96.304 26.4882C96.7794 25.7649 97.2688 25.0169 97.5794 24.3305C97.6312 24.2149 97.5841 24.0771 97.4735 24.023C97.3629 23.9688 97.2311 24.018 97.1794 24.1337C96.8829 24.7881 96.4029 25.5188 95.937 26.2274C95.4358 26.9901 94.9628 27.7135 94.7063 28.3409C94.6593 28.459 94.711 28.5943 94.824 28.6435C94.8522 28.6558 94.8805 28.6632 94.911 28.6632H94.9134Z" fill="#535252"/>
<path d="M90.1394 37.6556C90.1536 37.6556 90.1677 37.6556 90.1795 37.6507C90.9677 37.4957 91.836 36.8781 92.8313 35.7611C92.9137 35.6676 92.909 35.5225 92.8196 35.4339C92.7302 35.3478 92.5913 35.3527 92.5066 35.4462C91.5913 36.4746 90.7818 37.0627 90.0971 37.1955C89.9771 37.2177 89.8971 37.3407 89.9206 37.4637C89.9394 37.5744 90.0336 37.6531 90.1371 37.6531L90.1394 37.6556Z" fill="#535252"/>
<path d="M93.6123 30.9021C93.6688 30.9021 93.7252 30.88 93.7676 30.8357C94.217 30.3707 94.6853 30.1222 95.1371 29.8835C95.4759 29.7039 95.7959 29.5342 96.0759 29.2857C96.1677 29.202 96.1795 29.0569 96.1018 28.9609C96.0218 28.865 95.883 28.8527 95.7912 28.9338C95.5512 29.1454 95.2547 29.3029 94.9394 29.4702C94.4806 29.7138 93.9605 29.9893 93.4593 30.506C93.3723 30.5946 93.3723 30.7422 93.4593 30.8332C93.5017 30.88 93.5605 30.9021 93.617 30.9021H93.6123Z" fill="#535252"/>
<path d="M87.01 44.7907C87.0383 44.7907 87.0641 44.7858 87.0924 44.7735C88.323 44.2593 89.4666 43.2579 90.4949 41.7915C90.5678 41.6882 90.5467 41.543 90.4478 41.4692C90.349 41.3929 90.2125 41.4151 90.1396 41.5184C89.1607 42.9134 88.083 43.8656 86.93 44.3454C86.8171 44.3921 86.7606 44.5274 86.8077 44.6455C86.843 44.7366 86.9253 44.7907 87.0124 44.7907H87.01Z" fill="#535252"/>
<path d="M86.2899 50.0557C86.3487 50.0557 86.4075 50.0311 86.4523 49.9819L88.6171 47.529C88.6994 47.4355 88.6947 47.2903 88.6053 47.2017C88.5159 47.1156 88.3747 47.1205 88.2923 47.214L86.1275 49.667C86.0452 49.7605 86.0499 49.9057 86.1393 49.9942C86.1816 50.0361 86.2358 50.0557 86.2899 50.0557Z" fill="#535252"/>
</g>
<mask id="mask1_1261_3419" style="mask-type:luminance" maskUnits="userSpaceOnUse" x="83" y="10" width="9" height="42">
<path d="M85.28 51.5665C85.7647 51.5665 89.1907 49.8393 89.3013 46.0947C89.386 43.2333 92.0497 40.1972 91.9438 36.1328C91.8591 32.8703 92.2873 31.714 91.172 29.2807C90.1155 26.9753 89.8496 22.3696 88.3625 20.0667C85.4282 15.52 89.1343 11.6597 87.7013 10.7371C85.9388 10.277 82.7222 11.9205 83.0752 17.7048C83.181 19.4368 83.9223 24.0229 84.2329 26.0552C84.5858 28.3728 82.5881 32.4668 83.1857 35.0379C83.7458 37.4515 85.1247 40.0816 84.5082 42.7535C83.4705 47.2388 83.9199 50.7841 85.28 51.564V51.5665Z" fill="white"/>
</mask>
<g mask="url(#mask1_1261_3419)">
<g style="mix-blend-mode:multiply">
<path d="M86.7487 51.0425C86.3817 51.136 83.4803 50.4988 82.7274 47.6891C82.1509 45.5387 79.5908 43.7624 78.9437 40.6648C78.4236 38.1798 77.8919 37.3876 78.3013 35.3258C78.6872 33.3748 78.066 29.8368 78.779 27.8021C80.1861 23.7868 76.6918 21.5897 77.6095 20.6105C78.8613 19.9167 81.5909 20.5318 82.3579 24.9801C82.5885 26.3136 82.8474 29.9278 82.9768 31.5271C83.125 33.3502 85.3675 36.059 85.3769 38.1232C85.384 40.0595 84.8098 42.3206 85.7581 44.2224C87.3464 47.4135 87.6405 50.1863 86.7511 51.0425H86.7487Z" fill="#D8D8D8"/>
</g>
</g>
<path d="M87.1012 51.6329C86.7436 51.7584 83.7999 51.3746 82.8281 48.6387C82.0845 46.5474 79.3903 44.9974 78.5008 41.9662C77.7855 39.5329 77.1925 38.7924 77.4373 36.7035C77.6679 34.7254 76.7666 31.2539 77.3172 29.165C78.402 25.0415 74.743 23.1544 75.5831 22.1014C76.776 21.3018 79.5432 21.6782 80.6609 26.0429C80.9951 27.3518 81.541 30.9316 81.7975 32.5136C82.0892 34.3195 84.5411 36.8216 84.7105 38.8785C84.8705 40.8074 84.4799 43.1103 85.5741 44.9236C87.4095 47.967 87.9224 50.7029 87.1036 51.6329H87.1012Z" fill="#51AD32"/>
<g style="mix-blend-mode:screen">
<path d="M86.9011 51.6919C86.9505 51.6919 86.9976 51.6747 87.0399 51.6402C87.134 51.5615 87.1505 51.4139 87.0729 51.3155L87.047 51.281C85.694 49.5243 82.1032 44.8595 81.602 38.7972C81.5267 37.8894 81.1338 36.8831 80.7549 35.9088C80.3031 34.7549 79.8372 33.5592 79.8843 32.516C80.1008 27.6789 78.3313 22.1505 75.6347 21.9955C75.5123 21.9857 75.4088 22.0866 75.4017 22.212C75.3947 22.34 75.4888 22.4482 75.6112 22.4556C77.8066 22.5836 79.6702 27.46 79.4443 32.4938C79.3925 33.6404 79.8772 34.8828 80.3478 36.0835C80.7314 37.0676 81.0961 37.9976 81.1644 38.8366C81.6773 45.0391 85.3293 49.7851 86.7034 51.5714L86.7293 51.6058C86.774 51.6624 86.8376 51.6919 86.9011 51.6919Z" fill="#535252"/>
<path d="M84.3316 47.9127C84.4021 47.9127 84.4727 47.8758 84.5151 47.8094C84.5833 47.7036 84.5551 47.5609 84.4516 47.4895L81.5926 45.5114C81.4914 45.4401 81.3549 45.4696 81.2867 45.5754C81.2185 45.6812 81.2467 45.8239 81.3502 45.8952L84.2092 47.8734C84.2468 47.9004 84.2892 47.9127 84.3316 47.9127Z" fill="#535252"/>
<path d="M81.7082 41.8406C81.7929 41.8406 81.8729 41.7889 81.9105 41.7028C81.96 41.5872 81.9105 41.4494 81.7999 41.3978C80.4917 40.7876 79.2939 39.6534 78.2421 38.0271C78.1739 37.9213 78.0374 37.8942 77.9362 37.9656C77.8351 38.0369 77.8092 38.1796 77.8774 38.2854C78.9763 39.9831 80.2375 41.1714 81.6211 41.8185C81.6493 41.8332 81.6799 41.8382 81.7105 41.8382L81.7082 41.8406Z" fill="#535252"/>
<path d="M79.7055 33.1483C79.7549 33.1483 79.8043 33.1311 79.8443 33.0966C79.9384 33.0155 79.9526 32.8703 79.8749 32.7719L77.7195 30.0261C77.6419 29.9277 77.503 29.913 77.4089 29.9941C77.3148 30.0753 77.3007 30.2205 77.3783 30.3189L79.5337 33.0647C79.5784 33.1212 79.6396 33.1483 79.7055 33.1483Z" fill="#535252"/>
<path d="M79.3528 28.1882C79.3739 28.1882 79.3951 28.1858 79.4163 28.1784C79.534 28.1415 79.5998 28.0136 79.5646 27.8905C79.3881 27.2828 79.3104 26.4365 79.2281 25.5409C79.1481 24.67 79.0633 23.7719 78.8822 23.0387C78.8516 22.9157 78.7292 22.8395 78.6116 22.8739C78.4939 22.9059 78.4233 23.0314 78.4539 23.1544C78.628 23.8531 78.7104 24.7339 78.788 25.5852C78.8728 26.5054 78.9528 27.3714 79.1434 28.0234C79.1716 28.1218 79.261 28.1882 79.3551 28.1882H79.3528Z" fill="#535252"/>
<path d="M81.2161 38.2535C81.2797 38.2535 81.3432 38.224 81.3855 38.1699C81.8938 37.5228 82.1785 36.4698 82.2538 34.9518C82.2609 34.8238 82.1668 34.7156 82.0444 34.7082C81.9244 34.7033 81.8185 34.7992 81.8114 34.9272C81.7432 36.3246 81.4844 37.3162 81.0443 37.8771C80.9667 37.9755 80.9808 38.1207 81.0749 38.2019C81.1149 38.2363 81.1667 38.2535 81.2161 38.2535Z" fill="#535252"/>
<path d="M79.7335 30.7717C79.8464 30.7717 79.9429 30.6831 79.9523 30.5626C80.0111 29.9056 80.2158 29.4037 80.4135 28.9166C80.5617 28.5525 80.7029 28.208 80.7641 27.8316C80.7853 27.7061 80.7029 27.5855 80.5829 27.5659C80.4629 27.5437 80.3476 27.6298 80.3288 27.7553C80.277 28.0776 80.1452 28.3974 80.0064 28.737C79.804 29.2315 79.5758 29.79 79.5123 30.5207C79.5005 30.6487 79.5899 30.7594 79.7123 30.7717C79.7193 30.7717 79.7264 30.7717 79.7335 30.7717Z" fill="#535252"/>
<path d="M83.1976 45.8019C83.2753 45.8019 83.3529 45.7576 83.3929 45.6813C84.0188 44.4659 84.2777 42.9331 84.1647 41.1248C84.1577 40.9968 84.0518 40.9058 83.9294 40.9083C83.8071 40.9156 83.7153 41.0263 83.7247 41.1543C83.833 42.8741 83.5906 44.3257 83.0047 45.4624C82.9459 45.5755 82.9882 45.7158 83.0941 45.7748C83.127 45.7945 83.1623 45.8019 83.1976 45.8019Z" fill="#535252"/>
<path d="M85.8753 50.3067C85.9929 50.3067 86.0894 50.2108 86.0964 50.0878L86.247 46.7638C86.2517 46.6359 86.1576 46.5276 86.0376 46.5227C85.9153 46.5153 85.8117 46.6162 85.807 46.7417L85.6564 50.0656C85.6517 50.1936 85.7458 50.3018 85.8658 50.3067C85.8705 50.3067 85.8729 50.3067 85.8776 50.3067H85.8753Z" fill="#535252"/>
</g>
<g style="mix-blend-mode:multiply">
<path d="M88.198 49.662C87.1368 50.5969 87.0568 50.6904 85.8403 50.6904C84.6237 50.6904 83.5837 49.9375 83.5884 49.9818C83.9108 50.373 84.2802 50.6781 84.6567 50.9143C84.8355 51.2095 85.0449 51.431 85.2826 51.5688C85.3626 51.5688 85.5226 51.5195 85.7344 51.4261C85.772 51.4384 85.8097 51.4507 85.8473 51.463C86.0379 51.6844 86.1979 51.8197 86.2756 51.8517C86.445 51.8296 86.6144 51.7582 86.7838 51.6499C86.9391 51.6598 87.0497 51.6524 87.1038 51.6352C87.2309 51.4925 87.325 51.3055 87.3862 51.0816C87.6733 50.7224 87.9486 50.2451 88.198 49.6718C88.198 49.6694 88.198 49.6669 88.198 49.6645V49.662Z" fill="#E5C087"/>
</g>
<path d="M75.5805 22.0988C75.8299 21.9561 76.1029 21.87 76.3782 21.8282C76.6558 21.8011 76.9382 21.8011 77.2111 21.8651C77.757 21.9733 78.2653 22.2489 78.6865 22.6229C79.103 23.0042 79.463 23.4545 79.7407 23.9613C79.8183 24.0819 79.8701 24.2196 79.936 24.3476C79.9948 24.4804 80.0677 24.6034 80.1148 24.7437C80.2136 25.0168 80.3313 25.2825 80.4019 25.5679C80.5854 26.1215 80.7031 26.6972 80.8184 27.2778L81.1431 29.0198L81.4607 30.7666C81.5737 31.3473 81.6749 31.9304 81.7949 32.511C81.7266 31.923 81.6443 31.335 81.569 30.7469L81.3125 28.9878C81.2278 28.4022 81.1243 27.8191 81.0184 27.2336C80.9101 26.6529 80.7995 26.0624 80.616 25.4941C80.5407 25.2038 80.416 24.9307 80.3101 24.6527C80.2607 24.5124 80.1854 24.382 80.1219 24.2467C80.0513 24.1138 79.9971 23.9761 79.9148 23.8506L79.6795 23.4717C79.6018 23.3462 79.5007 23.233 79.4136 23.1149C79.3665 23.0584 79.3242 22.9944 79.2748 22.9403L79.1195 22.7803C79.0159 22.6745 78.9124 22.5687 78.7924 22.4802C78.3406 22.1037 77.7994 21.8356 77.2253 21.747C76.9405 21.6978 76.6488 21.715 76.3664 21.7618C76.084 21.8208 75.8134 21.9291 75.5781 22.0939L75.5805 22.0988Z" fill="#7BB82B"/>
<path d="M87.7037 10.737C87.3272 10.6165 86.9224 10.6165 86.5295 10.6706C86.3342 10.7124 86.1389 10.7518 85.953 10.833C85.76 10.8945 85.5859 10.9954 85.4071 11.0913C84.6988 11.4899 84.1576 12.1566 83.7717 12.8824C83.687 13.0694 83.5905 13.2539 83.5152 13.4459L83.3152 14.0339C83.2611 14.2332 83.2211 14.4374 83.174 14.6367C83.1199 14.836 83.1034 15.0426 83.0799 15.2468L83.0446 15.5544C83.0305 15.6552 83.0211 15.7586 83.0211 15.8619L83.0046 16.4795C82.9952 16.6837 83.0187 16.8903 83.0305 17.0945C83.0423 17.2988 83.0587 17.503 83.0752 17.7072C83.0964 16.8903 83.1034 16.0735 83.2517 15.2764C83.3858 14.4817 83.5952 13.6943 83.9717 12.9956C84.0094 12.9021 84.0658 12.8209 84.1153 12.7373L84.2706 12.4863C84.3176 12.4002 84.3811 12.3239 84.4423 12.2477L84.6235 12.0164C84.7482 11.8663 84.8965 11.7384 85.0306 11.5981L85.2588 11.4185C85.3365 11.3595 85.4071 11.2931 85.4941 11.2463C86.1412 10.828 86.9224 10.6017 87.7013 10.737H87.7037Z" fill="#7BB82B"/>
<g style="mix-blend-mode:screen">
<path d="M84.708 38.8759C84.7269 39.4344 84.7175 39.9929 84.7033 40.5513C84.6963 41.1098 84.6916 41.6708 84.7245 42.2342C84.7551 42.7952 84.8422 43.3611 85.0069 43.9048C85.0539 44.0377 85.0963 44.1754 85.1481 44.3058C85.2069 44.4338 85.2563 44.5691 85.3222 44.6946C85.4563 44.948 85.5928 45.1842 85.7293 45.4228C86.0022 45.9001 86.2587 46.3873 86.4822 46.8892C86.7128 47.3886 86.9058 47.9053 87.0752 48.4318C87.2399 48.9584 87.3693 49.4996 87.4117 50.0483L87.4282 50.255C87.4305 50.3238 87.4282 50.3927 87.4282 50.4616C87.4329 50.5994 87.414 50.7372 87.3976 50.875C87.3505 51.1431 87.2705 51.4162 87.0987 51.6352C87.287 51.4335 87.3905 51.1604 87.454 50.8873C87.4776 50.7495 87.5058 50.6092 87.5105 50.4665C87.5152 50.3952 87.5223 50.3263 87.5223 50.255L87.5176 50.0434C87.494 49.4775 87.3835 48.9214 87.2352 48.3802C87.0893 47.8364 86.887 47.3124 86.6634 46.8006C86.4422 46.2864 86.1881 45.7894 85.9175 45.3047C85.7763 45.0661 85.6328 44.825 85.5081 44.5912C85.4422 44.4731 85.3951 44.3452 85.3363 44.2222C85.2845 44.0967 85.2422 43.9663 85.1951 43.8384C85.0281 43.3192 84.948 42.7706 84.8892 42.2195C84.7833 41.1172 84.8351 39.9879 84.7033 38.8759H84.708Z" fill="#48AB33"/>
</g>
<g style="mix-blend-mode:multiply">
<g opacity="0.1">
<path d="M190.722 79.051L150.365 103.185L90.4351 67.0273L130.792 42.8938L190.722 79.051Z" fill="#D8D8D8"/>
</g>
<path d="M145.242 22.4975C143.696 21.5651 142.294 21.4765 141.284 22.0916L102.278 45.4722C103.29 44.8572 104.69 44.9433 106.236 45.8782C108.356 47.1576 110.193 49.6967 111.125 52.3588L150.132 28.9781C149.2 26.316 147.362 23.7769 145.242 22.4975Z" fill="#D8D8D8"/>
<path d="M110.156 59.6513L149.162 36.2706C150.16 35.6629 150.781 34.3737 150.786 32.5383C150.788 31.3967 150.553 30.1763 150.134 28.9806L111.128 52.3613C111.546 53.557 111.782 54.7749 111.779 55.9189C111.775 57.7543 111.156 59.0436 110.156 59.6513Z" fill="#D8D8D8"/>
<path d="M106.236 45.8808C109.309 47.7359 111.789 52.231 111.78 55.919C111.77 59.6096 109.274 61.1005 106.2 59.2454C103.127 57.3903 100.645 52.8953 100.654 49.2023C100.664 45.5142 103.163 44.0257 106.236 45.8784V45.8808Z" fill="#D8D8D8"/>
<path d="M158.092 91.3947L117.349 66.7961C116.561 66.3188 116.074 65.3002 116.069 63.8536C116.062 60.943 118.02 57.3976 120.441 55.9362L161.184 80.5347C158.763 81.9961 156.805 85.5415 156.812 88.4521C156.817 89.8988 157.304 90.9174 158.092 91.3947Z" fill="#D8D8D8"/>
</g>
<g opacity="0.1">
<path d="M120.559 71.9505C108.791 67.5687 100.144 69.1876 101.247 75.5672C102.348 81.9469 112.782 90.6688 124.549 95.0507C136.317 99.4326 144.965 97.8137 143.861 91.434C142.76 85.0543 132.326 76.3324 120.559 71.9505Z" fill="#231F20"/>
</g>
<path d="M138.204 31.2564C139.254 30.6241 140.204 30.5528 140.903 30.9489C141.621 31.3598 142.072 32.2652 142.075 33.5618C142.077 34.8609 141.635 36.3051 140.919 37.5795C140.663 38.0372 140.371 38.4726 140.051 38.8737C139.816 39.1665 139.661 39.5183 139.59 39.8947L137.202 52.5877C136.99 53.712 136.246 54.8586 135.387 55.3777L107.407 71.9284C105.93 72.8215 104.083 71.7095 104.078 69.9257L104.043 56.6349C104.035 53.8277 105.925 50.4053 108.264 48.9931L138.204 31.2589V31.2564Z" fill="#968066"/>
<path d="M104.08 69.9208V69.4336L104.087 69.4386L104.04 53.867L97.0283 49.6057L97.0754 65.1772L97.0848 65.1822V65.7677C97.0871 66.3164 97.2636 66.8035 97.5507 67.1873L104.544 71.3404C104.257 70.9566 104.08 70.4719 104.08 69.9208Z" fill="#7F6952"/>
<path d="M138.613 22.7633C137.067 21.8308 135.665 21.7422 134.655 22.3573L95.6489 45.738C96.6607 45.1229 98.0608 45.209 99.6068 46.144C101.727 47.4233 103.565 49.9624 104.496 52.6245L143.503 29.2438C142.571 26.5817 140.733 24.0427 138.613 22.7633Z" fill="#D8CDBA"/>
<path d="M103.527 59.9144L142.533 36.5338C143.531 35.9261 144.152 34.6369 144.157 32.8014C144.159 31.6598 143.924 30.4395 143.505 29.2438L104.499 52.6244C104.918 53.8202 105.153 55.038 105.15 56.1821C105.146 58.0175 104.527 59.3067 103.527 59.9144Z" fill="#C1AF91"/>
<path d="M99.6074 46.1439C102.681 47.999 105.161 52.494 105.151 56.1821C105.142 59.8726 102.645 61.3636 99.5721 59.5085C96.4991 57.6534 94.0166 53.1583 94.0284 49.4653C94.0378 45.7773 96.5367 44.2888 99.6098 46.1414L99.6074 46.1439Z" fill="#CCC0AC"/>
<path d="M177.187 27.8857L146.692 9.9695C146.075 9.59552 145.285 9.52171 144.369 9.82188C144.014 9.93997 143.659 10.1073 143.308 10.3189L173.804 28.2351C174.154 28.0235 174.51 27.8562 174.865 27.7381C175.778 27.438 176.571 27.5093 177.187 27.8833V27.8857Z" fill="#D8CEBC"/>
<path d="M173.973 28.1367L143.478 10.2205C141.308 11.5294 139.353 14.5088 138.856 17.4613C137.638 24.7242 134.162 45.4206 133.979 46.5106L164.474 64.4268C164.658 63.3369 168.133 42.6404 169.352 35.3775C169.848 32.4251 171.804 29.4456 173.973 28.1367Z" fill="#C4B299"/>
<path d="M173.806 28.2351C171.636 29.544 169.681 32.5235 169.185 35.4759C167.966 42.7389 164.49 63.4353 164.307 64.5252L173.585 61.4695C173.768 60.3796 177.244 39.6831 178.463 32.4202C179.039 28.9929 177.43 26.8967 174.867 27.7381C174.512 27.8562 174.156 28.0236 173.806 28.2351Z" fill="#968066"/>
<path d="M144.616 75.2499L113.81 56.2019L134.291 43.8362L165.095 61.8853L144.616 75.2499Z" fill="#B7A386"/>
<path d="M141.936 85.9647L110.718 67.0643C109.93 66.587 109.443 65.5684 109.438 64.1217C109.431 61.2112 111.389 57.6658 113.81 56.2043L145.028 75.1047C142.607 76.5662 140.649 80.1115 140.656 83.0221C140.661 84.4688 141.148 85.4874 141.936 85.9647Z" fill="#C4B39B"/>
<path d="M175.034 67.4335L175.067 79.3686L154.584 91.3407C152.163 92.8021 150.193 91.6285 150.184 88.7155C150.177 85.8049 152.134 82.2595 154.556 80.7981L175.037 67.4335H175.034Z" fill="#2584BC"/>
<g style="mix-blend-mode:multiply">
<path d="M126.808 76.7949C126.39 74.278 125.961 72.0047 124.253 66.277C120.615 65.1181 117.217 63.1154 114.923 60.5444C110.335 55.4072 119.801 48.6658 126.314 47.0666C132.828 45.4674 140.23 44.7268 144.819 49.864C147.113 52.4326 145.736 55.9288 144.237 58.1775C142.99 60.0523 139.463 64.6507 140.802 66.2007C149.071 75.7764 140.736 83.925 141.346 85.5095C140.233 84.9854 130.223 78.9059 126.804 76.7925L126.808 76.7949Z" fill="#D9D9D9"/>
</g>
<path d="M143.456 33.0131C141.277 31.6156 141.585 28.1096 142.922 26.3874C143.465 26.3751 144.927 26.7638 145.305 27.2091C143.319 29.667 144.569 32.7178 145.647 32.585C145.392 33.1386 144.395 33.3182 143.454 33.0131H143.456Z" fill="white"/>
<path d="M145.428 19.6804C145.042 19.0382 142.87 18.4674 142.096 18.7036C143.894 16.9789 144.517 14.6908 143.917 13.7903C144.633 14.0781 145.8 15.9751 145.795 16.5311C145.788 17.5891 145.426 19.6804 145.426 19.6804H145.428Z" fill="white"/>
<path d="M135.35 17.8057C135.228 16.9323 132.919 17.5474 132.684 17.5941C132.938 15.6308 135.628 13.8913 136.36 13.7117C137.153 13.5174 137.651 13.7585 137.651 13.7585C136.308 13.9848 135.355 16.0589 135.35 17.8057Z" fill="white"/>
<g style="mix-blend-mode:multiply">
<path d="M143.558 36.5093C143.739 36.4773 146.238 36.2263 146.238 36.2263C145.207 36.9349 145.875 40.6746 147.082 41.0929C147.082 41.0929 145.172 42.9111 144.471 42.8127C143.129 42.3354 142.202 37.2178 143.558 36.5093Z" fill="#D9D9D9"/>
</g>
<path d="M138.237 66.4934C138.237 66.4934 139.52 65.6273 140.527 66.8575C141.534 68.0877 141.179 70.4939 141.602 72.3637C142.023 74.2336 142.508 75.5573 141.781 77.2229C141.381 78.1406 140.649 78.431 140.122 78.3104C139.595 78.1874 139.12 77.4788 138.786 76.4971C138.451 75.5154 138.124 73.2175 138.124 73.2175C138.124 73.2175 136.76 72.8411 136.833 72.1325C136.905 71.4239 136.04 69.9231 136.04 69.9231C136.04 69.9231 136.515 67.7014 137.023 67.1404C137.242 66.8993 138.235 66.4983 138.235 66.4983L138.237 66.4934Z" fill="#68AE6C"/>
<path d="M137.835 66.5624C137.835 66.5624 139.117 65.684 140.122 66.9142C141.127 68.1444 140.776 70.5604 141.197 72.4303C141.619 74.3002 142.103 75.6238 141.376 77.2895C140.976 78.2072 140.244 78.4975 139.717 78.3769C139.19 78.2564 138.715 77.5454 138.381 76.5637C138.047 75.582 137.72 73.284 137.72 73.284C137.72 73.284 136.355 72.9076 136.428 72.199C136.501 71.4904 135.635 69.9896 135.635 69.9896C135.635 69.9896 136.11 67.7679 136.618 67.207C136.835 66.9659 137.83 66.5648 137.83 66.5648L137.835 66.5624Z" fill="white"/>
<path d="M136.209 70.9047C136.209 70.9047 135.912 72.467 137.696 72.9222C138.807 73.2051 138.953 69.7976 138.783 68.9586C138.607 68.0802 138.322 68.0729 137.531 67.5882C136.625 67.0346 136.715 68.7642 136.715 68.7642L136.209 70.9023V70.9047Z" fill="#68AE6C"/>
<path d="M137.614 72.6268C136.819 72.3045 133.51 70.5355 133.51 70.5355L134.823 66.2717L136.892 67.4379C136.892 67.4379 137.986 67.7873 138.216 68.2671C138.216 68.2671 138.529 69.0593 138.376 70.5577C138.214 72.1421 137.981 72.7793 137.614 72.6293V72.6268Z" fill="#FFD4B7"/>
<path d="M131.797 43.1029C131.797 43.1029 128.607 44.9555 125.336 46.5474C121.143 48.5895 117.865 51.0326 117.138 52.1865C116.411 53.3379 115.253 57.5378 117.686 59.073C121.002 61.1668 134.256 71.109 134.256 71.109C135.002 71.8102 136.602 67.0544 135.176 66.3483C135.176 66.3483 127.849 57.5132 125.738 57.0654C123.628 56.6176 124.475 57.2696 124.475 57.2696L140.341 50.1985L131.793 43.1054L131.797 43.1029Z" fill="#413E73"/>
<path d="M134.569 43.6835C134.569 43.6835 135.767 48.1342 133.068 51.2613C131.587 52.9737 130.392 54.9371 129.324 56.957C127.736 59.9587 126.604 62.2492 126.27 63.2014C125.815 64.498 125.255 67.7211 128.449 68.6535C132.18 69.7435 133.661 63.7796 133.661 63.7796L141.353 57.796C145.435 54.1301 145.155 50.8505 144.925 47.3174L134.569 43.6884V43.6835Z" fill="#565299"/>
<path d="M134.016 87.4629C134.016 87.4629 135.779 87.9944 135.028 89.4091C134.277 90.8238 132.284 91.7563 130.757 92.824C129.23 93.8918 128.213 94.8292 126.468 94.7013C125.505 94.6299 124.987 94.0149 124.912 93.4564C124.837 92.8979 125.307 92.1843 126.07 91.5127C126.832 90.841 128.778 89.7191 128.778 89.7191C128.778 89.7191 128.637 88.2527 129.298 88.0731C129.959 87.8935 131.002 86.5231 131.002 86.5231C131.002 86.5231 132.585 86.5034 133.265 86.8036C133.557 86.9315 134.016 87.4605 134.016 87.4605V87.4629Z" fill="#68AE6C"/>
<path d="M134.199 87.1332C134.199 87.1332 135.576 87.6253 134.825 89.04C134.075 90.4547 132.082 91.3872 130.555 92.455C129.027 93.5228 128.011 94.4602 126.265 94.3322C125.302 94.2609 124.785 93.6458 124.71 93.0873C124.634 92.5288 125.105 91.8153 125.867 91.1436C126.63 90.4719 128.576 89.35 128.576 89.35C128.576 89.35 128.597 87.7286 129.256 87.5515C129.914 87.3744 130.797 86.1565 130.797 86.1565C130.797 86.1565 132.955 85.844 133.635 86.1466C133.926 86.2746 134.197 87.1357 134.197 87.1357L134.199 87.1332Z" fill="white"/>
<path d="M130.397 86.9758C130.397 86.9758 128.893 87.2317 129.11 89.1384C129.244 90.3268 132.35 89.2762 133.042 88.8186C133.766 88.3388 133.941 88.0387 133.83 87.1111C133.7 86.0212 132.489 86.7224 132.489 86.7224L130.397 86.9758Z" fill="#68AE6C"/>
<path d="M129.524 88.7448C129.54 88.1002 129.3 84.545 129.3 84.545L133.482 83.5731C133.482 83.5731 133.336 86.4394 133.404 87.5318C133.439 88.8801 129.496 89.7609 129.521 88.7448H129.524Z" fill="#FACFB5"/>
<path d="M129.654 61.6686C128.345 61.8605 125.364 62.8619 126.082 66.2473C126.922 70.2011 129.298 85.5241 129.298 85.5241C129.489 87.3817 133.534 86.2475 133.414 84.8992C133.414 84.8992 134.527 71.4854 133.875 69.3424C133.075 66.7148 133.658 63.7771 133.658 63.7771C133.658 63.7771 130.609 61.5259 129.651 61.6686H129.654Z" fill="#565299"/>
<path d="M132.493 19.7025C128.446 24.0868 125.766 29.8613 124.789 31.645C123.225 34.5113 125.709 36.5387 126.968 35.2863C128.851 33.4165 132.049 29.4086 134.115 26.3627C135.893 23.7399 135.025 16.9592 132.491 19.7025H132.493Z" fill="#DBDBDB"/>
<path d="M110.897 31.6007L119.147 31.7975L118.554 35.4511L110.549 34.1103L110.897 31.6007Z" fill="#EDC5AB"/>
<path d="M107.914 30.5674C108.264 30.8405 108.961 31.0078 109.034 31.1628C109.032 31.2046 108.589 31.9156 107.775 31.9575C106.766 32.0116 106.13 32.5283 105.97 32.5947C105.055 32.9613 104.648 34.9468 106.142 35.1584C106.956 35.274 109.307 34.7401 110.177 34.6392C110.537 34.5974 111.392 34.4424 111.672 34.4473C112.787 34.4645 113.458 31.9378 112.825 31.8295C112.246 31.7262 111.933 31.5466 111.636 31.1406C111.083 30.3828 109.86 29.9793 109.617 30.0039C109.086 30.0556 108.217 29.7112 107.895 29.5094C107.81 29.4553 107.697 29.4823 107.648 29.5709C107.495 29.8465 107.471 30.2229 107.914 30.5698V30.5674Z" fill="#EDC5AB"/>
<path d="M115.403 30.282C115.582 30.3238 118.295 30.56 118.295 30.56C119.425 31.271 118.66 36.4402 117.338 36.1278C117.338 36.1278 115.862 35.0181 115.246 34.6565C114.168 33.6945 113.705 31.4088 115.403 30.282Z" fill="#BFBFBF"/>
<path d="M115.907 31.3571C115.62 31.3424 119.982 30.8208 124.983 31.2858C126.352 31.5318 127.988 34.9812 126.505 35.5865C124.496 36.4082 118.695 35.9162 116.502 35.5028L115.907 31.3547V31.3571Z" fill="#E6E6E6"/>
<path d="M115.403 30.282C115.582 30.3238 118.295 30.56 118.295 30.56C117.086 30.8208 116.366 35.274 117.338 36.1278C117.338 36.1278 115.05 36.1106 114.434 35.7489C113.356 34.7869 113.893 30.4124 115.403 30.2795V30.282Z" fill="white"/>
<path d="M145.028 47.5167C145.83 53.1829 130.333 48.2893 131.114 43.8754C131.564 42.9503 131.55 42.7732 131.63 42.3549C132.044 40.2341 131.853 38.3741 131.987 35.3233C132.121 32.2429 130.745 29.7063 130.686 26.1905C130.66 24.5888 131.752 20.1724 134.013 16.9888C135.251 15.2468 137.084 14.7031 139.879 15.5125L146.442 18.2706C149.383 19.9486 150.652 21.6979 149.663 25.039C149.663 25.039 144.722 37.3506 144.489 42.2393C144.47 42.6182 144.703 45.2458 145.025 47.5143L145.028 47.5167Z" fill="#E6E6E6"/>
<path d="M135.387 17.7442C134.3 20.7335 135.303 23.2824 136.755 27.278C139.395 25.5804 142.734 21.7299 144.833 18.935L135.387 17.7417V17.7442Z" fill="#E6E6E6"/>
<path d="M136.171 13.6354C133.599 16.6247 134.315 19.8059 137.538 23.1692C140.122 21.4224 142.896 18.2067 144.997 15.4142L136.174 13.6354H136.171Z" fill="#EDC5AB"/>
<path d="M134.013 16.9912C134.265 19.4909 135.547 21.533 137.538 23.1667C135.952 20.9475 135.58 19.4343 135.258 17.5079C135.136 17.1388 134.533 16.8903 134.013 16.9912Z" fill="white"/>
<path d="M143.802 18.5904C142.242 20.7555 140.519 21.5428 137.541 23.1667C139.595 21.3411 141.011 20.1257 142.127 18.6913C142.44 18.5634 143.362 18.4674 143.802 18.5904Z" fill="white"/>
<path d="M150.833 23.0412C152.135 26.6776 154.026 36.5559 153.913 37.2054C153.622 38.8834 150.243 36.0491 149.285 35.0674C148.148 33.9012 147.445 30.8651 146.511 27.2779C145.558 23.6218 149 17.9163 150.836 23.0412H150.833Z" fill="#DBDBDB"/>
<path d="M140.753 39.1195L147.214 36.4082L147.951 40.0323L140.04 41.8751L140.753 39.1195Z" fill="#FACFB5"/>
<path d="M143.303 35.8695C143.484 35.8375 145.983 35.5865 145.983 35.5865C147.282 35.8104 148.4 40.9107 147.061 41.1322C147.061 41.1322 145.299 40.6696 144.597 40.5712C143.256 40.0939 142.122 37.5745 143.303 35.8695Z" fill="#BFBFBF"/>
<path d="M144.047 37.2497C143.774 37.3481 144.131 36.8807 149.282 35.0674C151.685 34.7623 154.758 36.6076 153.727 37.978C152.678 39.3755 148.068 40.2144 146.063 40.8738L144.047 37.2497Z" fill="#E6E6E6"/>
<path d="M143.304 35.8695C143.485 35.8375 145.984 35.5865 145.984 35.5865C144.953 36.2951 145.854 40.7114 147.061 41.1322C147.061 41.1322 144.918 42.2713 144.217 42.1729C142.875 41.6956 141.948 36.5781 143.304 35.8695Z" fill="white"/>
<path d="M138.795 38.6522C138.701 38.849 138.207 38.7899 137.691 38.5218C137.176 38.2536 136.833 37.8772 136.927 37.6803C137.021 37.4835 137.515 37.5426 138.03 37.8107C138.546 38.0789 138.889 38.4553 138.795 38.6522Z" fill="#DDB6A2"/>
<path d="M133.478 31.1777L129.2 29.8245L133.478 31.1777Z" fill="#ADADAD"/>
<path d="M133.478 31.1777L129.2 29.8245C129.2 29.8245 129.2 29.8245 129.2 29.8269L133.478 31.1801C133.478 31.1801 133.478 31.1801 133.478 31.1777Z" fill="#A8A8A8"/>
<path d="M133.478 31.1802L129.2 29.8295L129.202 29.8319L133.48 31.1827L133.478 31.1802Z" fill="#A3A3A3"/>
<path d="M133.48 31.1829L129.202 29.8322V29.8346L133.48 31.1853V31.1829Z" fill="#9E9E9E"/>
<path d="M133.48 31.1852L129.202 29.8345H129.204L133.482 31.1877L133.48 31.1852Z" fill="#999999"/>
<path d="M133.482 31.1877L129.205 29.8345V29.8369L133.482 31.1901V31.1877Z" fill="#949494"/>
<path d="M133.482 31.1901L129.205 29.8369L129.207 29.8394L133.485 31.1926L133.482 31.1901Z" fill="#8F8F8F"/>
<path d="M133.484 31.1927L129.207 29.8395L129.209 29.8419L133.487 31.1951L133.484 31.1927Z" fill="#8A8A8A"/>
<path d="M133.487 31.195L129.209 29.8418C129.209 29.8418 129.214 29.8443 129.216 29.8467L133.494 31.1999C133.494 31.1999 133.489 31.1999 133.487 31.195Z" fill="#858585"/>
<path d="M139.145 47.0517L135.051 28.7443C134.973 28.3999 134.648 28.0382 134.324 27.9373L124.519 24.9259C124.354 24.8742 124.222 24.8988 124.142 24.98L124.46 24.6651C124.54 24.5839 124.674 24.5593 124.836 24.6109L134.641 27.6224C134.966 27.7233 135.293 28.0849 135.368 28.4294L139.463 46.7368C139.5 46.9066 139.47 47.0419 139.39 47.1206L139.072 47.4356C139.152 47.3568 139.183 47.2215 139.145 47.0517Z" fill="#C2A17B"/>
<path d="M138.696 47.4896C139.021 47.5905 139.223 47.3961 139.146 47.0517L135.051 28.7442C134.974 28.3998 134.649 28.0381 134.324 27.9373L124.519 24.9258C124.195 24.8249 123.992 25.0193 124.07 25.3637L128.164 43.6712C128.242 44.0156 128.566 44.3773 128.891 44.4782L138.696 47.4896Z" fill="#AD824F"/>
<path d="M138.722 46.9558L128.547 43.8705L124.491 25.5631L134.566 28.6115L138.722 46.9558Z" fill="#996323"/>
<path d="M134.795 37.7C136.07 38.3618 136.623 38.6325 138.058 38.3224C138.477 38.2314 138.917 38.3569 139.211 38.6792C139.498 38.9917 140.597 39.1491 140.821 39.1147L140.268 41.8555C140.279 41.8137 138.745 42.2049 137.632 41.8604C136.124 41.393 135.602 41.3708 134.357 40.2046C133.449 39.3533 133.834 37.203 134.792 37.7H134.795Z" fill="#FACFB5"/>
<path d="M136.581 17.6926C136.472 17.1242 136.364 9.18469 136.364 9.18469L143.628 10.7224C143.628 10.7224 143.998 15.6874 143.838 16.3566C143.482 18.4553 137.176 19.9758 136.581 17.695V17.6926Z" fill="#CCAA92"/>
<g style="mix-blend-mode:multiply">
<path d="M133.407 19.2229C133.557 18.9104 133.715 18.6078 133.88 18.3224C134.343 17.5203 134.513 15.9359 135.108 15.5151C135.986 16.6617 136.501 16.5337 136.501 16.6223C136.494 17.6999 136.155 18.4872 135.426 18.8317C134.296 19.368 134.616 20.6819 133.771 22.1581C133.296 22.9897 132.068 24.0624 131.143 23.8582C130.056 23.189 131.764 22.5443 131.811 20.9377C132.228 20.2316 132.802 19.6387 133.404 19.2229H133.407Z" fill="#CCCCCC"/>
</g>
<path d="M131.333 18.9891C130.99 17.1659 132.427 16.6567 132.71 15.082C132.929 13.8617 132.242 13.3992 131.936 11.9131C131.423 9.41832 132.131 6.63567 133.155 4.75104C134.428 2.40879 136.352 -0.226236 139.298 0.302738C142.035 -0.494414 146.861 4.55422 146.8 8.18815C146.8 8.18815 143.374 8.73188 142.263 6.81281C141.753 5.92955 139.576 4.87406 138.611 2.74094C137.395 3.11245 133.578 6.77345 134.665 10.6657C135.07 12.1124 135.388 12.201 136.251 14.0979C136.776 15.2493 136.599 18.0714 135.308 18.5733C134.145 19.026 134.395 20.5809 133.451 21.9931C132.922 22.7878 131.863 23.7892 130.952 23.5161C130.173 22.6894 131.804 21.5011 131.329 18.9891H131.333Z" fill="#4D4B42"/>
<path d="M141.125 1.91436C138.334 0.905622 135.506 1.80365 134.218 5.69346C133.623 7.49689 132.903 10.3804 133.404 11.741C133.983 13.3131 134.962 15.8301 136.357 16.3345C137.755 16.8388 140.009 15.4906 141.393 14.627C142.591 13.8815 143.727 11.148 144.322 9.34461C145.607 5.4548 143.913 2.92311 141.122 1.91436H141.125Z" fill="#FACFB5"/>
<path d="M141.009 22.7412C141.143 21.7177 140.939 21.3142 140.51 19.555C140.099 17.8598 139.675 18.1379 141.932 14.1595C145.671 7.56329 142.056 7.63464 141.882 7.09583L146.8 8.19314C146.751 11.1308 145.052 12.0165 145.72 13.9996C146.299 15.7218 147.657 16.4451 148.104 18.1723C148.607 20.1184 147.214 22.0646 146.617 22.9011C144.807 25.4303 140.099 26.6679 138.943 25.7649C138.402 25.1794 140.83 24.0771 141.007 22.7412H141.009Z" fill="#4D4B42"/>
<path d="M131.936 11.9131C131.423 9.41832 132.131 6.63567 133.155 4.75104C134.428 2.40879 136.352 -0.226236 139.299 0.302738C142.035 -0.494414 146.861 4.55422 146.8 8.18815C146.8 8.18815 142.967 10.0408 142.153 7.38853C141.852 6.4044 139.033 6.32566 138.614 2.74094C136.564 3.33388 135.755 1.57966 131.936 11.9107V11.9131Z" fill="#4D4B42"/>
<path d="M142.755 9.53643C142.75 10.4099 143 11.1184 143.313 11.1209C143.626 11.1234 143.882 10.4172 143.887 9.54381C143.891 8.67039 143.642 7.96181 143.329 7.95935C143.016 7.95935 142.76 8.66301 142.755 9.53643Z" fill="#FACFB5"/>
<path d="M180.272 55.8819C181.321 55.2496 182.272 55.1783 182.971 55.5744C183.689 55.9853 184.14 56.8907 184.143 58.1873C184.145 59.4863 183.703 60.9306 182.987 62.205C182.731 62.6627 182.439 63.0981 182.119 63.4992C181.884 63.792 181.728 64.1438 181.658 64.5202L179.27 77.2131C179.058 78.3375 178.314 79.484 177.455 80.0032L149.475 96.5539C147.998 97.447 146.15 96.3349 146.146 94.5512L146.11 81.2604C146.103 78.4532 147.993 75.0308 150.332 73.6186L180.272 55.8844V55.8819Z" fill="#968066"/>
<path d="M146.148 94.5463V94.0591L146.155 94.0641L146.108 78.4925L139.096 74.2312L139.143 89.8027L139.152 89.8076V90.3932C139.155 90.9419 139.331 91.429 139.618 91.8128L146.611 95.9659C146.324 95.5821 146.148 95.0974 146.148 94.5463Z" fill="#7F6952"/>
<path d="M180.514 47.2584C178.968 46.3259 177.566 46.2374 176.556 46.8524L137.55 70.4767C138.562 69.8616 139.893 69.773 141.484 70.6588C143.644 71.8619 145.465 74.4575 146.4 77.1196L185.406 53.739C184.474 51.0769 182.637 48.5378 180.516 47.2584H180.514Z" fill="#D8CDBA"/>
<path d="M145.329 84.2645L184.335 60.8839C185.333 60.2762 185.954 58.987 185.959 57.1515C185.961 56.0099 185.726 54.7896 185.307 53.5939L146.3 76.9745C146.719 78.1703 146.955 79.3881 146.952 80.5322C146.948 82.3676 146.329 83.6568 145.329 84.2645Z" fill="#C4B299"/>
<path d="M141.675 70.7719C144.748 72.627 147.228 77.1221 147.219 80.8101C147.209 84.5007 144.713 85.9916 141.639 84.1365C138.566 82.2814 136.084 77.7864 136.093 74.0934C136.103 70.4053 138.602 68.9168 141.675 70.7695V70.7719Z" fill="#CCC0AC"/>
</svg>
