<svg width="178" height="177" viewBox="536.4 51.9 178.1 176.6" fill="none" xmlns="http://www.w3.org/2000/svg">
<path d="M563.571 78.9996L573.848 90.0262L564.096 92.6516C563.046 92.8766 562.146 94.0768 562.221 95.6521C562.896 96.7772 564.096 97.6773 565.147 97.4523L578.123 94.2268L587.65 104.503L561.321 110.879C559.671 111.404 558.771 112.605 559.446 113.805C559.521 115.305 560.721 116.205 562.371 115.68L591.4 108.629L600.327 117.705L592.151 145.834L581.274 148.685L559.596 125.356C559.146 125.206 558.621 125.056 558.17 124.981C557.72 124.831 556.67 124.981 556.07 125.356C554.795 126.482 554.795 127.982 556.07 128.807L575.873 150.11L562.521 153.186L552.02 142.684C552.17 142.234 551.72 142.084 551.27 141.934C550.369 141.634 549.319 141.859 548.569 142.609C547.819 143.434 547.894 144.934 548.569 146.135L557.045 154.611L540.393 158.736C539.343 158.961 538.443 160.237 538.518 161.737C539.193 162.937 540.393 163.762 541.443 163.612L557.12 159.637L554.345 169.313C553.895 170.663 555.02 172.013 555.92 172.313C557.345 172.688 558.996 172.163 559.371 170.813L562.971 158.361L576.398 155.211L568.897 181.015C568.522 182.44 569.122 183.64 570.547 184.015C571.898 184.39 573.098 183.79 573.548 182.365L581.799 153.786L593.201 150.635L613.529 172.013L610.453 182.59L580.824 190.016C579.249 190.091 578.273 191.741 578.949 192.941C579.024 194.442 580.374 194.892 581.874 194.817L608.803 188.141L604.977 201.493L591.55 204.643C590.5 204.793 589.525 206.518 589.675 207.569C589.825 208.619 591.625 209.594 593.126 209.594L603.327 207.044L598.676 223.171C598.226 224.596 599.352 225.871 600.777 226.321C601.677 226.546 603.327 226.021 603.702 224.671L608.428 208.544L616.154 216.27C616.979 217.02 618.329 217.395 619.68 216.27C620.355 215.52 620.43 213.494 619.68 212.744L610.003 202.993L613.904 189.641L633.107 209.669C634.307 210.569 635.732 210.944 637.007 209.819C637.757 209.069 637.832 207.044 637.082 206.293L615.479 184.09L618.554 173.439L647.209 166.313L655.085 175.089L646.834 203.668C646.384 205.018 647.059 206.218 648.484 206.668C649.834 207.044 651.484 206.518 651.859 205.168L659.36 179.289L669.037 189.116L665.436 201.568C664.986 202.918 665.661 204.118 667.087 204.568C668.437 204.943 669.637 204.268 670.012 202.918L672.862 193.241L683.964 204.943C684.714 205.693 686.74 205.768 687.415 204.943C688.315 203.743 688.69 202.318 687.415 201.493L676.013 189.116L687.34 186.415C688.54 185.74 689.365 184.54 689.14 183.49C688.99 182.44 688.165 181.69 687.265 181.39C687.265 181.39 686.815 181.315 686.214 181.615L671.737 184.915L662.136 175.089L690.265 167.813C691.765 167.738 692.59 166.463 692.065 164.812C691.765 164.212 691.465 163.612 690.49 163.387C690.04 163.237 689.59 163.087 689.14 162.937L658.31 171.038L650.659 162.787L658.835 134.658L671.212 131.732L691.915 153.261C693.04 154.611 694.541 154.536 695.441 153.261C696.641 152.66 696.566 151.16 695.441 149.81L676.613 130.307L690.115 126.782L699.341 136.458C700.091 137.133 701.667 137.133 702.792 136.458C703.692 135.183 704.067 133.833 702.867 132.933L696.041 125.431L710.593 121.681C712.093 121.681 712.543 120.256 712.468 118.755C712.168 118.155 711.343 117.405 710.443 117.18C710.443 117.18 709.993 117.03 709.468 116.88L693.866 120.856L697.241 109.304C697.466 108.404 696.941 106.754 695.591 106.379C694.166 105.929 692.89 107.054 692.59 107.954L688.465 122.281L674.888 125.807L683.064 97.7524C683.514 96.3272 682.389 94.977 680.964 94.6019C679.538 94.2268 678.413 94.8269 678.038 96.2521L669.037 127.157L657.785 129.857L637.457 108.479L640.908 96.4772L671.062 89.2011C672.262 88.601 673.088 87.3258 673.013 85.8256C672.712 85.2255 671.887 84.4754 670.987 84.2504C670.537 84.1003 670.087 83.9503 669.487 84.2504L642.558 90.9264L646.459 77.5744L659.961 73.9738C661.011 73.8238 661.911 72.5486 661.836 71.0484C661.161 69.8482 659.886 69.0231 658.835 69.1731L648.034 72.0236L652.309 57.3214C652.609 56.3462 651.634 54.621 650.659 54.3209C649.309 53.9459 647.509 54.921 647.284 55.8212L642.933 70.5983L635.807 62.4972C635.357 62.3471 634.907 62.1971 634.457 62.1221C633.482 61.8221 632.431 62.0471 631.831 62.3471C631.006 63.6223 631.081 65.1225 631.681 66.3227L641.358 76.0742L637.457 89.5011L618.329 69.3982C617.204 68.123 615.704 68.123 614.954 68.9481C613.604 70.0733 613.679 71.5735 614.354 72.7737L635.882 94.977L632.356 106.979L603.777 114.18L595.751 105.854L604.677 74.949C605.127 73.5988 604.452 72.3986 603.102 72.0236C601.677 71.5735 600.477 72.2486 600.102 73.5988L591.925 101.728L582.399 91.4514L586.525 77.1993C586.825 76.2992 585.85 74.4989 584.424 74.0489C583.074 73.6738 581.724 74.799 581.499 75.6991L578.123 87.2508L567.022 75.5491C566.572 75.3991 566.572 75.3991 566.122 75.249C565.222 75.024 564.171 75.174 563.571 75.4741C562.671 76.7493 562.746 78.2495 563.571 78.9996ZM630.781 112.53L633.932 111.929L635.882 114.03L652.309 131.282L654.26 133.308L653.435 136.083L646.909 158.661L646.084 161.437L643.383 162.187L620.205 167.963L617.504 168.638L615.104 166.463L599.127 149.285L596.726 147.11L597.551 144.334L604.077 121.756L604.902 118.981L608.053 118.455L630.781 112.53Z" fill="#D3D6FF"/>
</svg>