<svg width="20" height="20" viewBox="0 0 20 20" fill="none" xmlns="http://www.w3.org/2000/svg">
<mask id="mask0_7126_28314" style="mask-type:luminance" maskUnits="userSpaceOnUse" x="0" y="0" width="20" height="20">
<path d="M20 0H0V20H20V0Z" fill="white"/>
</mask>
<g mask="url(#mask0_7126_28314)">
<path d="M10.0003 18.9582C5.05866 18.9582 1.04199 14.9415 1.04199 9.99984C1.04199 5.05817 5.05866 1.0415 10.0003 1.0415C14.942 1.0415 18.9587 5.05817 18.9587 9.99984C18.9587 14.9415 14.942 18.9582 10.0003 18.9582ZM10.0003 2.2915C5.75033 2.2915 2.29199 5.74984 2.29199 9.99984C2.29199 14.2498 5.75033 17.7082 10.0003 17.7082C14.2503 17.7082 17.7087 14.2498 17.7087 9.99984C17.7087 5.74984 14.2503 2.2915 10.0003 2.2915Z" fill="#447DFD"/>
<path d="M13.0919 13.2746C12.9835 13.2746 12.8752 13.2496 12.7752 13.183L10.1919 11.6413C9.5502 11.258 9.0752 10.4163 9.0752 9.67463V6.25793C9.0752 5.91627 9.35853 5.63293 9.7002 5.63293C10.0419 5.63293 10.3252 5.91627 10.3252 6.25793V9.67463C10.3252 9.97463 10.5752 10.4163 10.8335 10.5663L13.4169 12.108C13.7169 12.283 13.8085 12.6663 13.6335 12.9663C13.5085 13.1663 13.3002 13.2746 13.0919 13.2746Z" fill="#447DFD"/>
</g>
</svg>
