<svg width="38" height="38" viewBox="0 0 38 38" fill="none" xmlns="http://www.w3.org/2000/svg">
<mask id="mask0_5958_39777" style="mask-type:luminance" maskUnits="userSpaceOnUse" x="8" y="8" width="22" height="22">
<path d="M30 8H8V30H30V8Z" fill="white"/>
</mask>
<g mask="url(#mask0_5958_39777)">
<path d="M21.75 28.8542H16.25C11.2725 28.8542 9.14581 26.7275 9.14581 21.75V16.25C9.14581 11.2725 11.2725 9.14584 16.25 9.14584H20.8333C21.2091 9.14584 21.5208 9.45751 21.5208 9.83334C21.5208 10.2092 21.2091 10.5208 20.8333 10.5208H16.25C12.0241 10.5208 10.5208 12.0242 10.5208 16.25V21.75C10.5208 25.9758 12.0241 27.4792 16.25 27.4792H21.75C25.9758 27.4792 27.4791 25.9758 27.4791 21.75V17.1667C27.4791 16.7908 27.7908 16.4792 28.1666 16.4792C28.5425 16.4792 28.8541 16.7908 28.8541 17.1667V21.75C28.8541 26.7275 26.7275 28.8542 21.75 28.8542Z" fill="#E8655B"/>
<path d="M28.1666 17.8546H24.5C21.365 17.8546 20.1458 16.6355 20.1458 13.5005V9.83379C20.1458 9.55879 20.3108 9.30212 20.5675 9.20129C20.8241 9.09129 21.1175 9.15546 21.3191 9.34796L28.6525 16.6813C28.845 16.8738 28.9091 17.1763 28.7991 17.433C28.6891 17.6896 28.4416 17.8546 28.1666 17.8546ZM21.5208 11.493V13.5005C21.5208 15.8655 22.135 16.4796 24.5 16.4796H26.5075L21.5208 11.493Z" fill="#E8655B"/>
<path d="M19.9166 20.6042H14.4166C14.0408 20.6042 13.7291 20.2925 13.7291 19.9167C13.7291 19.5409 14.0408 19.2292 14.4166 19.2292H19.9166C20.2925 19.2292 20.6041 19.5409 20.6041 19.9167C20.6041 20.2925 20.2925 20.6042 19.9166 20.6042Z" fill="#E8655B"/>
<path d="M18.0833 24.2708H14.4166C14.0408 24.2708 13.7291 23.9592 13.7291 23.5833C13.7291 23.2075 14.0408 22.8958 14.4166 22.8958H18.0833C18.4591 22.8958 18.7708 23.2075 18.7708 23.5833C18.7708 23.9592 18.4591 24.2708 18.0833 24.2708Z" fill="#E8655B"/>
</g>
</svg>
