<svg width="42" height="58" viewBox="0 0 42 58" fill="none" xmlns="http://www.w3.org/2000/svg">
<g clip-path="url(#clip0_6953_49)">
<path d="M1.59897 12.9061C2.6598 10.3567 4.1913 8.07448 6.1512 6.12324C8.1111 4.17199 10.4035 2.64725 12.9641 1.5911C15.5247 0.535763 18.2284 0 21.0004 0C23.7724 0 26.4761 0.535763 29.0367 1.59191C31.5973 2.64806 33.8897 4.1728 35.8496 6.12405C37.8095 8.07529 39.341 10.3575 40.4018 12.9069C41.4619 15.4562 42 18.148 42 20.9069V37.0931C42 39.8528 41.4619 42.5446 40.401 45.0939C39.3402 47.6433 37.8087 49.9255 35.8488 51.8768C33.8889 53.828 31.5965 55.3527 29.0359 56.4089C26.4753 57.465 23.7716 58 20.9996 58C18.2276 58 15.5239 57.4642 12.9633 56.4089C10.4027 55.3527 8.11028 53.828 6.15039 51.8768C4.19049 49.9255 2.65899 47.6433 1.59816 45.0939C0.537323 42.5446 0 39.8528 0 37.0931V20.9069C0 18.1472 0.538139 15.4554 1.59816 12.9061H1.59897ZM4.06449 37.0931C4.06449 39.3187 4.49858 41.4893 5.35374 43.5457C6.20892 45.6022 7.44452 47.4426 9.0248 49.0159C10.6051 50.5892 12.4536 51.8193 14.5192 52.6707C16.5839 53.5221 18.7649 53.9543 21.0004 53.9543C23.2359 53.9543 25.4161 53.5229 27.4816 52.6707C29.5464 51.8193 31.3949 50.5892 32.976 49.0159C34.5563 47.4426 35.7919 45.6022 36.6471 43.5457C37.5022 41.4893 37.9363 39.3187 37.9363 37.0931V20.9069C37.9363 18.6813 37.5022 16.5107 36.6471 14.4551C35.7919 12.3994 34.5563 10.5591 32.976 8.98496C31.3957 7.41166 29.5472 6.18151 27.4816 5.33011C25.4169 4.47872 23.2359 4.04655 21.0012 4.04655C18.7666 4.04655 16.5856 4.47872 14.52 5.33011C12.4544 6.18151 10.6059 7.41166 9.0256 8.98496C7.44533 10.5583 6.20973 12.3986 5.35456 14.4551C4.49939 16.5107 4.0653 18.6821 4.0653 20.9069V37.0931H4.06449Z" fill="#FFC003"/>
<path d="M14.3076 24.8722L18.9672 29.5112V12.8143C18.9672 11.6966 19.8768 10.791 20.9994 10.791C22.122 10.791 23.0317 11.6966 23.0317 12.8143V29.5112L27.6912 24.8722C28.4846 24.0823 29.7714 24.0823 30.5656 24.8722C31.359 25.6621 31.359 26.9432 30.5656 27.7339L22.4366 35.827C22.413 35.8505 22.3887 35.8731 22.3643 35.8958C22.3586 35.9007 22.3529 35.9055 22.3472 35.9112C22.3277 35.9282 22.309 35.9452 22.2887 35.9614C22.2838 35.9654 22.2781 35.9695 22.2724 35.9735C22.2513 35.9905 22.231 36.0067 22.209 36.0221C22.2058 36.0245 22.2017 36.0269 22.1976 36.0302C22.1741 36.0471 22.1505 36.0641 22.1261 36.0803C22.1253 36.0803 22.1245 36.0819 22.1228 36.0819C21.853 36.2608 21.5384 36.3773 21.1994 36.4105C21.1945 36.4105 21.1888 36.4105 21.1839 36.4113C21.1563 36.4138 21.1279 36.4162 21.1002 36.4178C21.0661 36.4194 21.0327 36.4202 20.9986 36.4202C20.9645 36.4202 20.9303 36.4194 20.897 36.4178C20.8685 36.4162 20.8409 36.4138 20.8125 36.4113C20.8076 36.4113 20.8019 36.4113 20.797 36.4105C20.4572 36.3773 20.1418 36.2608 19.8719 36.0811C19.8719 36.0811 19.8711 36.0811 19.8703 36.0803C19.8451 36.0641 19.8207 36.0463 19.7971 36.0293C19.7939 36.0269 19.7915 36.0253 19.7882 36.0229C19.7663 36.0067 19.7443 35.9897 19.7232 35.9727C19.7183 35.9686 19.7142 35.9654 19.7094 35.9622C19.6882 35.9452 19.6687 35.9274 19.6484 35.9096C19.6435 35.9055 19.6386 35.9015 19.6337 35.8974C19.6094 35.8748 19.585 35.8521 19.5614 35.8286L11.4332 27.7363C10.6398 26.9465 10.6398 25.6653 11.4332 24.8746C12.2266 24.0847 13.5134 24.0847 14.3076 24.8746V24.8722Z" fill="#FFC003"/>
</g>
<defs>
<clipPath id="clip0_6953_49">
<rect width="42" height="58" fill="white" transform="matrix(-1 0 0 1 42 0)"/>
</clipPath>
</defs>
</svg>
