<svg width="20" height="20" viewBox="0 0 20 20" fill="none" xmlns="http://www.w3.org/2000/svg">
<g clip-path="url(#clip0_7126_28300)">
<mask id="mask0_7126_28300" style="mask-type:luminance" maskUnits="userSpaceOnUse" x="0" y="0" width="20" height="20">
<path d="M20 0H0V20H20V0Z" fill="white"/>
</mask>
<g mask="url(#mask0_7126_28300)">
<path d="M10.7337 17.3828H5.67533C2.71699 17.3828 1.66699 15.3078 1.66699 13.3745V6.62454C1.66699 3.74121 2.79199 2.61621 5.67533 2.61621H10.7337C13.617 2.61621 14.742 3.74121 14.742 6.62454V13.3745C14.742 16.2578 13.617 17.3828 10.7337 17.3828ZM5.67533 3.88288C3.50033 3.88288 2.93366 4.44954 2.93366 6.62454V13.3745C2.93366 14.3995 3.29199 16.1162 5.67533 16.1162H10.7337C12.9087 16.1162 13.4753 15.5495 13.4753 13.3745V6.62454C13.4753 4.44954 12.9087 3.88288 10.7337 3.88288H5.67533Z" fill="#447DFD"/>
<path d="M17.3169 15.092C16.9585 15.092 16.5002 14.9753 15.9752 14.6086L13.7502 13.0503C13.5835 12.9336 13.4835 12.742 13.4835 12.5336V7.46695C13.4835 7.25861 13.5835 7.06695 13.7502 6.95028L15.9752 5.39195C16.9669 4.70028 17.6919 4.90028 18.0335 5.07528C18.3752 5.25861 18.9585 5.73361 18.9585 6.94195V13.0503C18.9585 14.2586 18.3752 14.742 18.0335 14.917C17.8752 15.0086 17.6252 15.092 17.3169 15.092ZM14.7419 12.2003L16.7002 13.567C17.0752 13.8253 17.3419 13.8503 17.4502 13.792C17.5669 13.7336 17.6919 13.5003 17.6919 13.0503V6.95028C17.6919 6.49195 17.5585 6.26695 17.4502 6.20861C17.3419 6.15028 17.0752 6.17528 16.7002 6.43361L14.7419 7.80028V12.2003Z" fill="#447DFD"/>
<path d="M9.58398 9.7915C8.55065 9.7915 7.70898 8.94984 7.70898 7.9165C7.70898 6.88317 8.55065 6.0415 9.58398 6.0415C10.6173 6.0415 11.459 6.88317 11.459 7.9165C11.459 8.94984 10.6173 9.7915 9.58398 9.7915ZM9.58398 7.2915C9.24232 7.2915 8.95898 7.57484 8.95898 7.9165C8.95898 8.25817 9.24232 8.5415 9.58398 8.5415C9.92565 8.5415 10.209 8.25817 10.209 7.9165C10.209 7.57484 9.92565 7.2915 9.58398 7.2915Z" fill="#447DFD"/>
</g>
</g>
<defs>
<clipPath id="clip0_7126_28300">
<rect width="20" height="20" fill="white"/>
</clipPath>
</defs>
</svg>
